M48
;Layer_Color=9474304
;FILE_FORMAT=4:4
METRIC
;TYPE=PLATED
T1F00S00C0.2000
T2F00S00C0.2032
T3F00S00C0.2032
T4F00S00C0.6000
T6F00S00C0.7000
T7F00S00C0.8500
T8F00S00C1.0160
T9F00S00C1.6500
;TYPE=NON_PLATED
T10F00S00C0.8128
T11F00S00C1.0200
T12F00S00C2.2352
T13F00S00C2.5400
%
T01
X01644386Y01410607
Y01421257
X01633736
Y01433857
X01644386
X01656986
Y01421257
Y01410607
X01669586
Y01421257
X01680236
Y01433857
X01669586
Y01446457
Y01457107
X01656986
Y01446457
X01644386
X01633736
X01644386Y01457107
X01680236Y01446457
X01727548Y01377154
X01721798Y01367654
X01733298
X01727548Y01358154
X01772912Y01362100
X01767412Y01371600
X01778412
X01772912Y01381100
X01577842Y01482474
X01568342Y01476974
Y01487974
X01558842Y01482474
X01052287Y01445900
X01043587
X01034887
T02
X01758033Y01420368
X01758188Y01426348
Y01431798
X01440244Y01437263
X01438557Y01422971
X01422524Y01442686
X01447953Y01451457
Y01458823
X01439603Y01461903
X01440599Y01469227
X01438604Y01478583
X01446224
X01429424Y01474217
X01391506Y01470960
X01391447Y01463602
X01384031Y01457832
X01383994Y01451728
X01388407Y01447235
X01371075Y01449808
X01365232Y01450347
X01365731Y01438372
X01371653Y01437695
X01378042Y01436726
X01371329Y01429808
X01365281Y01429185
X01364470Y01419839
X01371075Y01419808
X01365292Y01402939
X01364880Y01396847
X01390039Y01396864
X01390049Y01401450
X01389212Y01392352
X01391241Y01413211
X01371127Y01369874
X01372367Y01338957
X01367648Y01338447
X01369076Y01334005
X01373764Y01334596
X01377834Y01336950
X01403858Y01351280
X01401403Y01355228
X01406692Y01355184
X01416516Y01354517
X01416558Y01359269
X01416516Y01365094
X01333766Y01385097
X01333979Y01394217
X01331962Y01400151
X01332127Y01406464
X01332492Y01423111
X01333293Y01442036
X01333508Y01449831
X01320037Y01474123
X01315379Y01474123
X01310791Y01474123
X01306207Y01474109
X01298264Y01482262
X01298264Y01486920
X01298264Y01491507
X01298251Y01496092
X01306196Y01504090
X01310853Y01504090
X01315441Y01504090
X01320026
X01328841Y01500258
X01334821Y01500601
X01333991Y01494754
X01328840Y01491726
X01363962Y01490601
X01371075Y01490570
Y01479808
X01363962Y01479839
X01365160Y01466993
X01372036Y01467136
X01383901Y01484983
X01390111Y01504158
X01388869Y01526050
X01384140Y01535294
X01367114Y01522532
X01365931Y01512201
X01359756Y01527420
X01349248Y01525322
X01353148Y01521053
X01358675Y01542796
X01332973Y01551659
X01423162Y01538986
X01320023Y01413067
X01315439Y01413054
X01310851Y01413054
X01306193Y01413054
X01298248Y01405056
X01298262Y01400471
X01298262Y01395884
X01327747Y01392136
X01328621Y01339989
X01333271Y01339952
X01331417Y01335405
X01337575Y01335542
X01116384Y01398642
X01110582Y01398642
X01104138
X01103004Y01414534
X01098969Y01427683
X01089396Y01428191
X01097562Y01442536
X01103301Y01449296
X01093573Y01459244
X01117633Y01472584
X01117485Y01479270
X01124063Y01478004
X01103724Y01489303
X01113469Y01434490
T03
X01591251Y01341736
X01602635Y01336517
X01613562Y01335568
X01625107Y01339465
X01624592Y01346151
X01632830Y01339079
X01648669Y01335786
X01644048Y01352242
X01650714Y01373067
X01653613Y01378309
X01659128Y01381909
X01661668Y01387348
X01662778Y01392995
X01668493Y01392936
X01674486Y01393121
X01668874Y01385809
X01685140Y01390000
X01690401Y01392900
X01690814Y01384093
X01699232Y01378180
X01721846Y01376409
X01732219Y01377238
X01727548Y01367654
X01732755Y01358368
X01721712
X01737868Y01351788
X01740902Y01345091
X01745846Y01345103
Y01340039
X01740902Y01340027
X01756156Y01344422
X01754348Y01350961
X01761236Y01352042
X01769110Y01351788
X01767967Y01345565
X01775079Y01345819
X01776222Y01352042
X01773675Y01334209
X01789422Y01340651
X01799336Y01341882
X01811680Y01334745
X01820418Y01348740
X01810338Y01361614
X01809750Y01387856
X01805932Y01395730
X01796542Y01405382
X01788668Y01406398
X01779262Y01395730
X01769102Y01394460
X01744980Y01383792
X01729292Y01398788
X01740756Y01426074
X01722822Y01438207
X01715613Y01433189
X01707990Y01433186
X01709127Y01424656
X01705229Y01446352
X01698338Y01446394
X01699862Y01466434
X01691132Y01468828
X01693672Y01477010
X01701800Y01481093
X01704848Y01473708
X01711960Y01480820
X01713738Y01493266
X01726854Y01490218
X01726692Y01484376
Y01474470
X01720183Y01472851
X01713832Y01468057
X01733898Y01469508
X01741170Y01478788
X01754124Y01483360
X01756504Y01489616
X01768348Y01498092
X01767911Y01517467
X01768342Y01528944
X01769398Y01534360
X01775952Y01534359
X01782505Y01534359
X01789059Y01534359
X01795612Y01534359
X01802166Y01534358
X01808719Y01534358
X01809496Y01528826
X01805289Y01537993
X01798735Y01537994
X01792182Y01537994
X01785628Y01537994
X01779075Y01537994
X01772522Y01537995
X01765968Y01537995
X01759415Y01537995
X01752861Y01537995
X01746308Y01537996
X01739754Y01537996
X01733201Y01537996
X01726647Y01537996
X01720094Y01537997
X01713540Y01537997
X01706987Y01537997
X01700434Y01537997
X01703864Y01534362
X01710417Y01534362
X01716971Y01534362
X01723524Y01534361
X01730078Y01534361
X01736631Y01534361
X01743185Y01534361
X01749738Y01534360
X01756291Y01534360
X01762845Y01534360
X01759415Y01528944
X01756466Y01522928
X01752293Y01513131
X01741546Y01510152
X01736598Y01504188
X01739646Y01495552
X01733042Y01528944
X01720094Y01529118
X01720088Y01518666
X01715008Y01523371
X01708912Y01527048
X01704086Y01522984
X01706880Y01518286
X01695196
Y01524794
X01689100Y01526588
X01701108Y01528944
X01700530Y01511808
X01695196Y01505803
X01700022Y01499616
X01695450Y01495002
X01707113Y01505987
X01668272Y01509268
X01668493Y01517396
X01664486Y01513840
X01661949Y01503823
X01662834Y01494198
X01668272Y01498600
X01668526Y01482598
X01657190Y01474760
X01649486Y01474839
X01643634Y01494231
X01645258Y01515349
X01627344Y01510050
X01600454Y01511300
X01598168Y01519936
X01590105Y01502057
X01590134Y01482474
X01600448Y01482716
X01606042Y01482090
X01609667Y01467704
X01602498Y01467465
X01595120Y01467293
X01597754Y01457062
X01588356Y01456528
X01597754Y01445886
X01603502Y01436370
X01601844Y01421434
X01609921
X01590388Y01422704
Y01429454
X01589372Y01403468
X01591818Y01395476
X01592030Y01385809
X01599278Y01386196
X01612486Y01390006
X01617519Y01386517
X01619662Y01399921
X01616908Y01406262
X01633060Y01392800
X01642458Y01392089
X01648802Y01393308
X01635948Y01380100
X01616541Y01354880
X01604806Y01356203
X01715452Y01337130
X01723792Y01333927
X01751584Y01452372
X01751838Y01457960
X01769110Y01463294
X01767840Y01470406
X01795272Y01459230
X01796195Y01552914
X01802749Y01552914
X01809302Y01552914
X01814322Y01552702
X01789642Y01552913
X01783088Y01552913
X01776535Y01552913
X01769982Y01552913
X01763428Y01552912
X01756875Y01552912
X01750321Y01552912
X01743768Y01552912
X01737214Y01552911
X01730661Y01552911
X01724107Y01552911
X01717554Y01552910
X01711000Y01552910
X01704447Y01552910
X01698094Y01552751
X01693232Y01552754
X01688370Y01552757
X01680573Y01551062
X01674114Y01551686
X01675102Y01545122
X01670558Y01543050
X01673255Y01538151
X01674876Y01531159
X01672590Y01524254
X01665200Y01552194
X01746758Y01528826
X01840404Y01509522
Y01552448
X01579974Y01526912
X01555893Y01526737
X01548732Y01526588
X01539639Y01521867
X01539334Y01514819
X01537724Y01529851
X01534287Y01536626
X01524980Y01547822
X01508940Y01540158
X01502879Y01544442
X01493360Y01518498
Y01503544
X01485031Y01495298
X01477772Y01489710
X01475684Y01500124
X01470660Y01496356
X01453571Y01488982
X01449204Y01468793
X01459230Y01467434
X01466850Y01464564
X01468428Y01457879
X01466461Y01447735
X01440218Y01444728
X01428651Y01443125
X01438990Y01429376
X01439672Y01409954
X01456784Y01408167
X01463388
X01472688Y01408145
X01474507Y01393190
X01482590Y01390905
X01481003Y01378056
X01472959Y01377320
X01459484Y01384554
X01450340Y01386332
X01443990Y01385570
X01431290Y01380490
X01421384Y01369794
X01394094Y01364610
X01384188Y01363204
X01384793Y01355591
X01365392Y01369874
X01350206Y01355491
X01337449Y01354517
X01330597Y01354787
X01330401Y01344524
X01324864Y01361440
X01278114Y01369605
X01270114
X01262114
X01262114Y01377605
Y01385605
X01254114
Y01393605
X01246114
X01246114Y01385605
X01238114
Y01377605
Y01369605
X01230114
X01230114Y01377605
X01222114Y01377605
X01222114Y01369605
X01214114
X01214114Y01377591
X01214114Y01385605
X01206114
Y01393605
X01214114
X01222114
X01214114Y01403784
X01206114
X01198114
X01198114Y01393605
Y01385605
X01206142Y01369577
X01206114Y01412395
Y01422555
Y01431445
Y01440335
Y01450495
Y01460655
X01193414
Y01450495
Y01440335
Y01431445
Y01422555
Y01412395
X01218814
Y01422555
Y01431445
Y01440335
Y01450495
X01231514
Y01440335
Y01431445
Y01422555
Y01412395
X01254114Y01409605
Y01401605
X01262114Y01401605
X01262114Y01409605
X01270228Y01409719
X01270114Y01401605
X01278228Y01401491
X01278368Y01409605
X01279500Y01420597
X01278622Y01426875
X01270114Y01425605
X01262114
X01254114
X01254114Y01441605
Y01457605
X01262114
X01270114Y01457605
X01270114Y01449605
X01278114
Y01441605
X01286114Y01441605
X01298397Y01440180
X01290969Y01457188
X01294114Y01473565
X01286114Y01473585
X01278114Y01473605
X01270114
X01262114
Y01481605
X01254114
Y01473605
X01243888Y01469798
X01238094Y01468843
X01235180Y01472402
X01232396Y01476186
X01230083Y01480208
X01228322Y01484712
X01233662Y01483826
X01236061Y01479420
X01241092Y01465269
X01246622Y01489605
X01254114Y01497605
Y01505605
X01246114
X01238114
Y01497605
X01230114
Y01505605
Y01513605
X01238114
X01246114
X01254114
X01262114
X01270114
X01278114
Y01505605
Y01497605
X01270114
X01262114Y01497605
X01287780Y01490770
X01285147Y01510007
X01333230Y01522200
Y01529080
X01367170Y01531329
X01368697Y01541307
X01379871Y01552816
X01418082Y01543812
X01429004Y01537716
X01418750Y01525524
X01402842Y01525429
X01438990Y01521502
X01441958Y01503507
X01433576Y01503680
X01436588Y01497228
X01423341Y01476535
X01388399Y01496653
X01426145Y01417692
X01458054Y01417912
X01478009Y01422103
X01484376Y01426357
X01499404Y01436073
X01498065Y01446780
X01509770Y01448259
X01520630Y01436451
X01528167Y01436600
X01542453Y01426259
X01543548Y01413374
X01559908Y01415413
X01559654Y01401174
X01562965Y01394578
X01577358Y01395264
X01583394Y01395604
X01584349Y01386427
X01578704Y01364404
X01572100Y01361558
X01564099Y01370702
X01563718Y01378865
X01552542Y01365737
X01555570Y01345761
X01565420Y01345865
X01564294Y01335552
X01520474Y01359269
X01505552Y01358154
X01486479Y01360257
X01486471Y01344391
Y01335768
X01490533Y01373348
X01492672Y01402428
X01503174Y01407840
X01532476Y01377306
X01561432Y01428614
X01577606Y01429185
Y01422435
X01576926Y01451631
X01577688Y01460110
X01565496Y01451220
X01549034Y01464115
X01544374Y01464564
X01551093Y01474724
X01552401Y01490456
X01540947Y01489106
X01543909Y01497838
X01525695Y01502206
X01518252Y01493197
X01512554Y01492861
X01502504Y01492834
X01511394Y01509386
X01531874Y01484979
X01527368Y01463832
X01491510Y01458321
X01333293Y01434920
X01270114Y01441605
X01285748Y01396194
X01254114Y01377605
X01246114
X01200119Y01481451
X01198114Y01497605
Y01505605
X01198114Y01513605
X01206114Y01513605
Y01505605
X01214114
Y01513605
X01222114Y01505605
X01214114Y01497605
X01206114
X01190114
Y01505605
Y01513605
X01182114Y01513605
X01174114Y01513605
Y01505605
X01166114
Y01497605
X01174114Y01497605
X01182114Y01497605
X01182114Y01505605
X01166114Y01513605
X01158114Y01505605
Y01497605
X01142114Y01497605
X01142114Y01505605
X01134114Y01505605
X01127792Y01514588
X01122568Y01509414
X01111852Y01507617
X01112237Y01514603
X01100202Y01506474
X01093862Y01505802
X01089318Y01514145
X01083487Y01513948
X01078869Y01513994
X01083441Y01509330
X01080635Y01493064
X01081846Y01476503
X01068291Y01477010
X01062203Y01475238
Y01480190
X01045901Y01486293
X01043330Y01490091
X01039225Y01487998
X01039348Y01492772
X01047530Y01492894
X01041908Y01483868
X01024970Y01480190
Y01475238
X01017268Y01470469
X01009225Y01469897
X00999381Y01472929
X00994047Y01472929
Y01480549
X00999381Y01480549
X01001938Y01489066
X00982037Y01494527
X00976484Y01494432
X00968350Y01494055
X00965602Y01500975
X00965553Y01506179
X00967575Y01510806
X00972636Y01510563
X01015472Y01503157
X01054152Y01513332
X01067466Y01513197
X01076283Y01466295
X01082319Y01454633
Y01448012
X01078738Y01443360
X01078756Y01435372
X01074267Y01424645
X01081892Y01420771
X01075285Y01413510
X01069688Y01417485
X01062203Y01416562
Y01411610
X01047314Y01404850
X01047791Y01400063
X01047463Y01395423
X01039940Y01395506
X01039441Y01400195
X01040119Y01405059
X01043648Y01402066
X01043789Y01408057
X01024970Y01411610
Y01416562
X01016254Y01416050
X01009068Y01423162
X01003306Y01413958
X01009396Y01442466
X01003022Y01449157
X00970355Y01447034
Y01441446
X01069241Y01443360
X01115195Y01446411
X01124735Y01432372
X01142114Y01433605
X01150114Y01433605
Y01441605
X01142114Y01449605
Y01457605
Y01465605
X01142114Y01473605
X01150114
Y01481605
X01142114Y01489605
X01141507Y01514778
X01147095
X01150114Y01465605
X01162849Y01466929
X01167458Y01466281
X01180714Y01460655
Y01450495
Y01440335
Y01431445
Y01422555
Y01412395
X01182114Y01393605
Y01385605
X01190114
Y01393605
X01174114
Y01385605
X01166114Y01385605
X01166114Y01393605
X01158114Y01393605
Y01401605
X01150114Y01409605
X01142114
X01134114
Y01401605
X01125341Y01402901
X01142114Y01393605
X01142114Y01377605
X01150114
X01150114Y01369605
X01142114
X01134114
Y01377605
X01116977Y01375999
X01107711Y01375966
X01095294Y01369854
X01084130Y01377956
X01074722Y01382285
X01069558Y01382119
X01069149Y01377254
X01064530Y01379095
X01059294Y01378971
X01053631Y01378794
X01056508Y01374523
X01062531Y01374695
X01070885Y01386881
X01076397Y01387024
X01073356Y01391101
X01088141Y01397449
X01142114Y01417605
X01150114Y01417605
X01159088Y01417117
X01167547Y01421561
X01166177Y01426814
Y01431640
X01158114Y01433605
X01158114Y01449605
X01131824Y01459271
X01166114Y01377605
X01166114Y01369605
X01174114
X01182114
X01190114
X01182114Y01377605
X01158114Y01369605
X01032470Y01377884
X01027518
X01022566
T04
X01837690Y01342136
Y01354836
Y01367536
X01575148Y01541644
X01562448
X01549748
X01481401Y01543401
X01468701
X01456001
X01443301
T06
X01607430Y01526588
X01620130
X01632830
X01645530
X01658230
Y01539288
X01645530
X01632830
X01620130
X01607430
T07
X01809928Y01420191
Y01470191
X00981622Y01472490
Y01422490
T08
X00952015Y01508134
T09
X01464096Y01514976
T10
X01731800Y01324535
X01744500
X01757200
Y01562641
X01744500
X01731800
X01379248Y01562691
X01366548
X01353848
X01273838Y01523681
X01261138
X01248438
Y01359526
X01261138
X01273838
X01353848Y01324486
X01366548
X01379248
X01543078Y01324436
X01555778
X01568478
X01148108Y01359526
X01135408
X01122708
X01006828
X00994128
X00981428
Y01523681
X00994128
X01006828
X01122708
X01135408
X01148108
T11
X01404742Y01341689
Y01542989
T12
X01826845Y01280507
X00965601
Y01606670
X01826845
T13
X01676643Y01353386
X01449481Y01353383
M30
