G04*
G04 #@! TF.GenerationSoftware,Altium Limited,Altium Designer,18.0.9 (584)*
G04*
G04 Layer_Color=32896*
%FSAX44Y44*%
%MOMM*%
G71*
G01*
G75*
%ADD23C,0.2540*%
%ADD25C,0.2032*%
%ADD154C,0.3810*%
%ADD218C,0.0254*%
G54D23*
X00177819Y00944570D02*
Y00929335D01*
X00187976D01*
X00195593Y00939492D02*
X00200672D01*
X00203211Y00936953D01*
Y00929335D01*
X00195593D01*
X00193054Y00931874D01*
X00195593Y00934414D01*
X00203211D01*
X00208289Y00939492D02*
Y00931874D01*
X00210829Y00929335D01*
X00218446D01*
Y00926796D01*
X00215907Y00924257D01*
X00213368D01*
X00218446Y00929335D02*
Y00939492D01*
X00231142Y00929335D02*
X00226064D01*
X00223524Y00931874D01*
Y00936953D01*
X00226064Y00939492D01*
X00231142D01*
X00233681Y00936953D01*
Y00934414D01*
X00223524D01*
X00238759Y00939492D02*
Y00929335D01*
Y00934414D01*
X00241299Y00936953D01*
X00243838Y00939492D01*
X00246377D01*
X00177819Y00350215D02*
X00182898D01*
X00180358D01*
Y00365450D01*
X00177819Y00362911D01*
X00190515Y00352754D02*
X00193054Y00350215D01*
X00198133D01*
X00200672Y00352754D01*
Y00362911D01*
X00198133Y00365450D01*
X00193054D01*
X00190515Y00362911D01*
Y00360372D01*
X00193054Y00357833D01*
X00200672D01*
X00177819Y00380695D02*
X00182898D01*
X00180358D01*
Y00395930D01*
X00177819Y00393391D01*
X00190515D02*
X00193054Y00395930D01*
X00198133D01*
X00200672Y00393391D01*
Y00390852D01*
X00198133Y00388313D01*
X00200672Y00385774D01*
Y00383234D01*
X00198133Y00380695D01*
X00193054D01*
X00190515Y00383234D01*
Y00385774D01*
X00193054Y00388313D01*
X00190515Y00390852D01*
Y00393391D01*
X00193054Y00388313D02*
X00198133D01*
X00177819Y00411175D02*
X00182898D01*
X00180358D01*
Y00426410D01*
X00177819Y00423871D01*
X00190515Y00426410D02*
X00200672D01*
Y00423871D01*
X00190515Y00413714D01*
Y00411175D01*
X00177819Y00441655D02*
X00182898D01*
X00180358D01*
Y00456890D01*
X00177819Y00454351D01*
X00200672Y00456890D02*
X00195593Y00454351D01*
X00190515Y00449273D01*
Y00444194D01*
X00193054Y00441655D01*
X00198133D01*
X00200672Y00444194D01*
Y00446734D01*
X00198133Y00449273D01*
X00190515D01*
X00177819Y00472135D02*
X00182898D01*
X00180358D01*
Y00487370D01*
X00177819Y00484831D01*
X00200672Y00487370D02*
X00190515D01*
Y00479753D01*
X00195593Y00482292D01*
X00198133D01*
X00200672Y00479753D01*
Y00474674D01*
X00198133Y00472135D01*
X00193054D01*
X00190515Y00474674D01*
X00177819Y00502615D02*
X00182898D01*
X00180358D01*
Y00517850D01*
X00177819Y00515311D01*
X00198133Y00502615D02*
Y00517850D01*
X00190515Y00510233D01*
X00200672D01*
X00177819Y00533095D02*
X00182898D01*
X00180358D01*
Y00548330D01*
X00177819Y00545791D01*
X00190515D02*
X00193054Y00548330D01*
X00198133D01*
X00200672Y00545791D01*
Y00543252D01*
X00198133Y00540713D01*
X00195593D01*
X00198133D01*
X00200672Y00538173D01*
Y00535634D01*
X00198133Y00533095D01*
X00193054D01*
X00190515Y00535634D01*
X00177819Y00563575D02*
X00182898D01*
X00180358D01*
Y00578810D01*
X00177819Y00576271D01*
X00200672Y00563575D02*
X00190515D01*
X00200672Y00573732D01*
Y00576271D01*
X00198133Y00578810D01*
X00193054D01*
X00190515Y00576271D01*
X00177819Y00594055D02*
X00182898D01*
X00180358D01*
Y00609290D01*
X00177819Y00606751D01*
X00190515Y00594055D02*
X00195593D01*
X00193054D01*
Y00609290D01*
X00190515Y00606751D01*
X00177819Y00624535D02*
X00182898D01*
X00180358D01*
Y00639770D01*
X00177819Y00637231D01*
X00190515D02*
X00193054Y00639770D01*
X00198133D01*
X00200672Y00637231D01*
Y00627074D01*
X00198133Y00624535D01*
X00193054D01*
X00190515Y00627074D01*
Y00637231D01*
X00177819Y00657554D02*
X00180358Y00655015D01*
X00185437D01*
X00187976Y00657554D01*
Y00667711D01*
X00185437Y00670250D01*
X00180358D01*
X00177819Y00667711D01*
Y00665172D01*
X00180358Y00662633D01*
X00187976D01*
X00177819Y00698191D02*
X00180358Y00700730D01*
X00185437D01*
X00187976Y00698191D01*
Y00695652D01*
X00185437Y00693113D01*
X00187976Y00690574D01*
Y00688034D01*
X00185437Y00685495D01*
X00180358D01*
X00177819Y00688034D01*
Y00690574D01*
X00180358Y00693113D01*
X00177819Y00695652D01*
Y00698191D01*
X00180358Y00693113D02*
X00185437D01*
X00177819Y00731210D02*
X00187976D01*
Y00728671D01*
X00177819Y00718514D01*
Y00715975D01*
X00187976Y00761690D02*
X00182898Y00759151D01*
X00177819Y00754073D01*
Y00748994D01*
X00180358Y00746455D01*
X00185437D01*
X00187976Y00748994D01*
Y00751534D01*
X00185437Y00754073D01*
X00177819D01*
X00187976Y00792170D02*
X00177819D01*
Y00784553D01*
X00182898Y00787092D01*
X00185437D01*
X00187976Y00784553D01*
Y00779474D01*
X00185437Y00776935D01*
X00180358D01*
X00177819Y00779474D01*
X00185437Y00807415D02*
Y00822650D01*
X00177819Y00815033D01*
X00187976D01*
X00177819Y00850591D02*
X00180358Y00853130D01*
X00185437D01*
X00187976Y00850591D01*
Y00848052D01*
X00185437Y00845513D01*
X00182898D01*
X00185437D01*
X00187976Y00842973D01*
Y00840434D01*
X00185437Y00837895D01*
X00180358D01*
X00177819Y00840434D01*
X00187976Y00868375D02*
X00177819D01*
X00187976Y00878532D01*
Y00881071D01*
X00185437Y00883610D01*
X00180358D01*
X00177819Y00881071D01*
Y00898855D02*
X00182898D01*
X00180358D01*
Y00914090D01*
X00177819Y00911551D01*
X00281937Y00929335D02*
Y00944570D01*
X00292094Y00929335D01*
Y00944570D01*
X00299711Y00939492D02*
X00304790D01*
X00307329Y00936953D01*
Y00929335D01*
X00299711D01*
X00297172Y00931874D01*
X00299711Y00934414D01*
X00307329D01*
X00312407Y00929335D02*
Y00939492D01*
X00314946D01*
X00317486Y00936953D01*
Y00929335D01*
Y00936953D01*
X00320025Y00939492D01*
X00322564Y00936953D01*
Y00929335D01*
X00335260D02*
X00330182D01*
X00327642Y00931874D01*
Y00936953D01*
X00330182Y00939492D01*
X00335260D01*
X00337799Y00936953D01*
Y00934414D01*
X00327642D01*
X00281937Y00365450D02*
Y00350215D01*
X00289555D01*
X00292094Y00352754D01*
Y00355294D01*
X00289555Y00357833D01*
X00281937D01*
X00289555D01*
X00292094Y00360372D01*
Y00362911D01*
X00289555Y00365450D01*
X00281937D01*
X00299711Y00350215D02*
X00304790D01*
X00307329Y00352754D01*
Y00357833D01*
X00304790Y00360372D01*
X00299711D01*
X00297172Y00357833D01*
Y00352754D01*
X00299711Y00350215D01*
X00314946Y00362911D02*
Y00360372D01*
X00312407D01*
X00317486D01*
X00314946D01*
Y00352754D01*
X00317486Y00350215D01*
X00327642Y00362911D02*
Y00360372D01*
X00325103D01*
X00330181D01*
X00327642D01*
Y00352754D01*
X00330181Y00350215D01*
X00340338D02*
X00345416D01*
X00347956Y00352754D01*
Y00357833D01*
X00345416Y00360372D01*
X00340338D01*
X00337799Y00357833D01*
Y00352754D01*
X00340338Y00350215D01*
X00353034D02*
Y00360372D01*
X00355573D01*
X00358112Y00357833D01*
Y00350215D01*
Y00357833D01*
X00360652Y00360372D01*
X00363191Y00357833D01*
Y00350215D01*
X00391122Y00365450D02*
X00386043D01*
X00383504Y00362911D01*
Y00352754D01*
X00386043Y00350215D01*
X00391122D01*
X00393661Y00352754D01*
Y00362911D01*
X00391122Y00365450D01*
X00398739Y00360372D02*
X00403818Y00350215D01*
X00408896Y00360372D01*
X00421592Y00350215D02*
X00416513D01*
X00413974Y00352754D01*
Y00357833D01*
X00416513Y00360372D01*
X00421592D01*
X00424131Y00357833D01*
Y00355294D01*
X00413974D01*
X00429209Y00360372D02*
Y00350215D01*
Y00355294D01*
X00431749Y00357833D01*
X00434288Y00360372D01*
X00436827D01*
X00444445Y00350215D02*
X00449523D01*
X00446984D01*
Y00365450D01*
X00444445D01*
X00459679Y00360372D02*
X00464758D01*
X00467297Y00357833D01*
Y00350215D01*
X00459679D01*
X00457140Y00352754D01*
X00459679Y00355294D01*
X00467297D01*
X00472375Y00360372D02*
Y00352754D01*
X00474915Y00350215D01*
X00482532D01*
Y00347676D01*
X00479993Y00345137D01*
X00477454D01*
X00482532Y00350215D02*
Y00360372D01*
X00281937Y00395930D02*
Y00380695D01*
X00289555D01*
X00292094Y00383234D01*
Y00385774D01*
X00289555Y00388313D01*
X00281937D01*
X00289555D01*
X00292094Y00390852D01*
Y00393391D01*
X00289555Y00395930D01*
X00281937D01*
X00299711Y00380695D02*
X00304790D01*
X00307329Y00383234D01*
Y00388313D01*
X00304790Y00390852D01*
X00299711D01*
X00297172Y00388313D01*
Y00383234D01*
X00299711Y00380695D01*
X00314946Y00393391D02*
Y00390852D01*
X00312407D01*
X00317486D01*
X00314946D01*
Y00383234D01*
X00317486Y00380695D01*
X00327642Y00393391D02*
Y00390852D01*
X00325103D01*
X00330181D01*
X00327642D01*
Y00383234D01*
X00330181Y00380695D01*
X00340338D02*
X00345416D01*
X00347956Y00383234D01*
Y00388313D01*
X00345416Y00390852D01*
X00340338D01*
X00337799Y00388313D01*
Y00383234D01*
X00340338Y00380695D01*
X00353034D02*
Y00390852D01*
X00355573D01*
X00358112Y00388313D01*
Y00380695D01*
Y00388313D01*
X00360652Y00390852D01*
X00363191Y00388313D01*
Y00380695D01*
X00393661Y00393391D02*
X00391122Y00395930D01*
X00386043D01*
X00383504Y00393391D01*
Y00390852D01*
X00386043Y00388313D01*
X00391122D01*
X00393661Y00385774D01*
Y00383234D01*
X00391122Y00380695D01*
X00386043D01*
X00383504Y00383234D01*
X00401278Y00380695D02*
X00406357D01*
X00408896Y00383234D01*
Y00388313D01*
X00406357Y00390852D01*
X00401278D01*
X00398739Y00388313D01*
Y00383234D01*
X00401278Y00380695D01*
X00413974D02*
X00419053D01*
X00416513D01*
Y00395930D01*
X00413974D01*
X00436827D02*
Y00380695D01*
X00429209D01*
X00426670Y00383234D01*
Y00388313D01*
X00429209Y00390852D01*
X00436827D01*
X00449523Y00380695D02*
X00444445D01*
X00441905Y00383234D01*
Y00388313D01*
X00444445Y00390852D01*
X00449523D01*
X00452062Y00388313D01*
Y00385774D01*
X00441905D01*
X00457140Y00390852D02*
Y00380695D01*
Y00385774D01*
X00459679Y00388313D01*
X00462219Y00390852D01*
X00464758D01*
X00281937Y00426410D02*
Y00411175D01*
X00289555D01*
X00292094Y00413714D01*
Y00416254D01*
X00289555Y00418793D01*
X00281937D01*
X00289555D01*
X00292094Y00421332D01*
Y00423871D01*
X00289555Y00426410D01*
X00281937D01*
X00299711Y00411175D02*
X00304790D01*
X00307329Y00413714D01*
Y00418793D01*
X00304790Y00421332D01*
X00299711D01*
X00297172Y00418793D01*
Y00413714D01*
X00299711Y00411175D01*
X00314946Y00423871D02*
Y00421332D01*
X00312407D01*
X00317486D01*
X00314946D01*
Y00413714D01*
X00317486Y00411175D01*
X00327642Y00423871D02*
Y00421332D01*
X00325103D01*
X00330181D01*
X00327642D01*
Y00413714D01*
X00330181Y00411175D01*
X00340338D02*
X00345416D01*
X00347956Y00413714D01*
Y00418793D01*
X00345416Y00421332D01*
X00340338D01*
X00337799Y00418793D01*
Y00413714D01*
X00340338Y00411175D01*
X00353034D02*
Y00421332D01*
X00355573D01*
X00358112Y00418793D01*
Y00411175D01*
Y00418793D01*
X00360652Y00421332D01*
X00363191Y00418793D01*
Y00411175D01*
X00383504Y00426410D02*
Y00411175D01*
X00393661D01*
X00401278Y00421332D02*
X00406357D01*
X00408896Y00418793D01*
Y00411175D01*
X00401278D01*
X00398739Y00413714D01*
X00401278Y00416254D01*
X00408896D01*
X00413974Y00421332D02*
Y00413714D01*
X00416513Y00411175D01*
X00424131D01*
Y00408636D01*
X00421592Y00406097D01*
X00419053D01*
X00424131Y00411175D02*
Y00421332D01*
X00436827Y00411175D02*
X00431749D01*
X00429209Y00413714D01*
Y00418793D01*
X00431749Y00421332D01*
X00436827D01*
X00439366Y00418793D01*
Y00416254D01*
X00429209D01*
X00444445Y00421332D02*
Y00411175D01*
Y00416254D01*
X00446984Y00418793D01*
X00449523Y00421332D01*
X00452062D01*
X00281937Y00456890D02*
Y00441655D01*
X00289555D01*
X00292094Y00444194D01*
Y00454351D01*
X00289555Y00456890D01*
X00281937D01*
X00297172Y00441655D02*
X00302250D01*
X00299711D01*
Y00451812D01*
X00297172D01*
X00317486Y00441655D02*
X00312407D01*
X00309868Y00444194D01*
Y00449273D01*
X00312407Y00451812D01*
X00317486D01*
X00320025Y00449273D01*
Y00446734D01*
X00309868D01*
X00325103Y00441655D02*
X00330181D01*
X00327642D01*
Y00456890D01*
X00325103D01*
X00345416Y00441655D02*
X00340338D01*
X00337799Y00444194D01*
Y00449273D01*
X00340338Y00451812D01*
X00345416D01*
X00347956Y00449273D01*
Y00446734D01*
X00337799D01*
X00363191Y00451812D02*
X00355573D01*
X00353034Y00449273D01*
Y00444194D01*
X00355573Y00441655D01*
X00363191D01*
X00370808Y00454351D02*
Y00451812D01*
X00368269D01*
X00373348D01*
X00370808D01*
Y00444194D01*
X00373348Y00441655D01*
X00380965Y00451812D02*
Y00441655D01*
Y00446734D01*
X00383504Y00449273D01*
X00386043Y00451812D01*
X00388582D01*
X00396200Y00441655D02*
X00401278D01*
X00398739D01*
Y00451812D01*
X00396200D01*
X00419053D02*
X00411435D01*
X00408896Y00449273D01*
Y00444194D01*
X00411435Y00441655D01*
X00419053D01*
X00424131Y00444194D02*
X00426670Y00441655D01*
X00431749D01*
X00434288Y00444194D01*
Y00454351D01*
X00431749Y00456890D01*
X00426670D01*
X00424131Y00454351D01*
Y00451812D01*
X00426670Y00449273D01*
X00434288D01*
X00292094Y00484831D02*
X00289555Y00487370D01*
X00284476D01*
X00281937Y00484831D01*
Y00474674D01*
X00284476Y00472135D01*
X00289555D01*
X00292094Y00474674D01*
Y00479753D01*
X00287015D01*
X00297172Y00472135D02*
Y00487370D01*
X00307329Y00472135D01*
Y00487370D01*
X00312407D02*
Y00472135D01*
X00320025D01*
X00322564Y00474674D01*
Y00484831D01*
X00320025Y00487370D01*
X00312407D01*
X00337799Y00472135D02*
X00327642D01*
X00337799Y00482292D01*
Y00484831D01*
X00335260Y00487370D01*
X00330182D01*
X00327642Y00484831D01*
X00281937Y00517850D02*
Y00502615D01*
X00289555D01*
X00292094Y00505154D01*
Y00515311D01*
X00289555Y00517850D01*
X00281937D01*
X00297172Y00502615D02*
X00302250D01*
X00299711D01*
Y00512772D01*
X00297172D01*
X00317486Y00502615D02*
X00312407D01*
X00309868Y00505154D01*
Y00510233D01*
X00312407Y00512772D01*
X00317486D01*
X00320025Y00510233D01*
Y00507693D01*
X00309868D01*
X00325103Y00502615D02*
X00330181D01*
X00327642D01*
Y00517850D01*
X00325103D01*
X00345416Y00502615D02*
X00340338D01*
X00337799Y00505154D01*
Y00510233D01*
X00340338Y00512772D01*
X00345416D01*
X00347956Y00510233D01*
Y00507693D01*
X00337799D01*
X00363191Y00512772D02*
X00355573D01*
X00353034Y00510233D01*
Y00505154D01*
X00355573Y00502615D01*
X00363191D01*
X00370808Y00515311D02*
Y00512772D01*
X00368269D01*
X00373348D01*
X00370808D01*
Y00505154D01*
X00373348Y00502615D01*
X00380965Y00512772D02*
Y00502615D01*
Y00507693D01*
X00383504Y00510233D01*
X00386043Y00512772D01*
X00388582D01*
X00396200Y00502615D02*
X00401278D01*
X00398739D01*
Y00512772D01*
X00396200D01*
X00419053D02*
X00411435D01*
X00408896Y00510233D01*
Y00505154D01*
X00411435Y00502615D01*
X00419053D01*
X00424131Y00515311D02*
X00426670Y00517850D01*
X00431749D01*
X00434288Y00515311D01*
Y00512772D01*
X00431749Y00510233D01*
X00434288Y00507693D01*
Y00505154D01*
X00431749Y00502615D01*
X00426670D01*
X00424131Y00505154D01*
Y00507693D01*
X00426670Y00510233D01*
X00424131Y00512772D01*
Y00515311D01*
X00426670Y00510233D02*
X00431749D01*
X00292094Y00545791D02*
X00289555Y00548330D01*
X00284476D01*
X00281937Y00545791D01*
Y00543252D01*
X00284476Y00540713D01*
X00289555D01*
X00292094Y00538173D01*
Y00535634D01*
X00289555Y00533095D01*
X00284476D01*
X00281937Y00535634D01*
X00297172Y00533095D02*
X00302250D01*
X00299711D01*
Y00543252D01*
X00297172D01*
X00314946Y00528017D02*
X00317486D01*
X00320025Y00530556D01*
Y00543252D01*
X00312407D01*
X00309868Y00540713D01*
Y00535634D01*
X00312407Y00533095D01*
X00320025D01*
X00335260D02*
X00325103D01*
X00335260Y00543252D01*
Y00545791D01*
X00332721Y00548330D01*
X00327642D01*
X00325103Y00545791D01*
X00281937Y00578810D02*
Y00563575D01*
X00289555D01*
X00292094Y00566114D01*
Y00576271D01*
X00289555Y00578810D01*
X00281937D01*
X00297172Y00563575D02*
X00302250D01*
X00299711D01*
Y00573732D01*
X00297172D01*
X00317486Y00563575D02*
X00312407D01*
X00309868Y00566114D01*
Y00571193D01*
X00312407Y00573732D01*
X00317486D01*
X00320025Y00571193D01*
Y00568653D01*
X00309868D01*
X00325103Y00563575D02*
X00330181D01*
X00327642D01*
Y00578810D01*
X00325103D01*
X00345416Y00563575D02*
X00340338D01*
X00337799Y00566114D01*
Y00571193D01*
X00340338Y00573732D01*
X00345416D01*
X00347956Y00571193D01*
Y00568653D01*
X00337799D01*
X00363191Y00573732D02*
X00355573D01*
X00353034Y00571193D01*
Y00566114D01*
X00355573Y00563575D01*
X00363191D01*
X00370808Y00576271D02*
Y00573732D01*
X00368269D01*
X00373348D01*
X00370808D01*
Y00566114D01*
X00373348Y00563575D01*
X00380965Y00573732D02*
Y00563575D01*
Y00568653D01*
X00383504Y00571193D01*
X00386043Y00573732D01*
X00388582D01*
X00396200Y00563575D02*
X00401278D01*
X00398739D01*
Y00573732D01*
X00396200D01*
X00419053D02*
X00411435D01*
X00408896Y00571193D01*
Y00566114D01*
X00411435Y00563575D01*
X00419053D01*
X00434288Y00578810D02*
X00424131D01*
Y00571193D01*
X00429209Y00573732D01*
X00431749D01*
X00434288Y00571193D01*
Y00566114D01*
X00431749Y00563575D01*
X00426670D01*
X00424131Y00566114D01*
X00281937Y00594055D02*
Y00609290D01*
X00289555D01*
X00292094Y00606751D01*
Y00601673D01*
X00289555Y00599133D01*
X00281937D01*
X00297172Y00609290D02*
Y00594055D01*
X00302250Y00599133D01*
X00307329Y00594055D01*
Y00609290D01*
X00312407Y00594055D02*
Y00609290D01*
X00320025D01*
X00322564Y00606751D01*
Y00601673D01*
X00320025Y00599133D01*
X00312407D01*
X00317486D02*
X00322564Y00594055D01*
X00337799D02*
X00327642D01*
X00337799Y00604212D01*
Y00606751D01*
X00335260Y00609290D01*
X00330182D01*
X00327642Y00606751D01*
X00281937Y00639770D02*
Y00624535D01*
X00289555D01*
X00292094Y00627074D01*
Y00637231D01*
X00289555Y00639770D01*
X00281937D01*
X00297172Y00624535D02*
X00302250D01*
X00299711D01*
Y00634692D01*
X00297172D01*
X00317486Y00624535D02*
X00312407D01*
X00309868Y00627074D01*
Y00632153D01*
X00312407Y00634692D01*
X00317486D01*
X00320025Y00632153D01*
Y00629613D01*
X00309868D01*
X00325103Y00624535D02*
X00330181D01*
X00327642D01*
Y00639770D01*
X00325103D01*
X00345416Y00624535D02*
X00340338D01*
X00337799Y00627074D01*
Y00632153D01*
X00340338Y00634692D01*
X00345416D01*
X00347956Y00632153D01*
Y00629613D01*
X00337799D01*
X00363191Y00634692D02*
X00355573D01*
X00353034Y00632153D01*
Y00627074D01*
X00355573Y00624535D01*
X00363191D01*
X00370808Y00637231D02*
Y00634692D01*
X00368269D01*
X00373348D01*
X00370808D01*
Y00627074D01*
X00373348Y00624535D01*
X00380965Y00634692D02*
Y00624535D01*
Y00629613D01*
X00383504Y00632153D01*
X00386043Y00634692D01*
X00388582D01*
X00396200Y00624535D02*
X00401278D01*
X00398739D01*
Y00634692D01*
X00396200D01*
X00419053D02*
X00411435D01*
X00408896Y00632153D01*
Y00627074D01*
X00411435Y00624535D01*
X00419053D01*
X00431749D02*
Y00639770D01*
X00424131Y00632153D01*
X00434288D01*
X00281937Y00655015D02*
Y00670250D01*
X00289555D01*
X00292094Y00667711D01*
Y00662633D01*
X00289555Y00660094D01*
X00281937D01*
X00297172Y00670250D02*
Y00655015D01*
X00302250Y00660094D01*
X00307329Y00655015D01*
Y00670250D01*
X00312407Y00655015D02*
Y00670250D01*
X00320025D01*
X00322564Y00667711D01*
Y00662633D01*
X00320025Y00660094D01*
X00312407D01*
X00317486D02*
X00322564Y00655015D01*
X00327642D02*
X00332721D01*
X00330182D01*
Y00670250D01*
X00327642Y00667711D01*
X00281937Y00700730D02*
Y00685495D01*
X00289555D01*
X00292094Y00688034D01*
Y00698191D01*
X00289555Y00700730D01*
X00281937D01*
X00297172Y00685495D02*
X00302250D01*
X00299711D01*
Y00695652D01*
X00297172D01*
X00317486Y00685495D02*
X00312407D01*
X00309868Y00688034D01*
Y00693113D01*
X00312407Y00695652D01*
X00317486D01*
X00320025Y00693113D01*
Y00690574D01*
X00309868D01*
X00325103Y00685495D02*
X00330181D01*
X00327642D01*
Y00700730D01*
X00325103D01*
X00345416Y00685495D02*
X00340338D01*
X00337799Y00688034D01*
Y00693113D01*
X00340338Y00695652D01*
X00345416D01*
X00347956Y00693113D01*
Y00690574D01*
X00337799D01*
X00363191Y00695652D02*
X00355573D01*
X00353034Y00693113D01*
Y00688034D01*
X00355573Y00685495D01*
X00363191D01*
X00370808Y00698191D02*
Y00695652D01*
X00368269D01*
X00373348D01*
X00370808D01*
Y00688034D01*
X00373348Y00685495D01*
X00380965Y00695652D02*
Y00685495D01*
Y00690574D01*
X00383504Y00693113D01*
X00386043Y00695652D01*
X00388582D01*
X00396200Y00685495D02*
X00401278D01*
X00398739D01*
Y00695652D01*
X00396200D01*
X00419053D02*
X00411435D01*
X00408896Y00693113D01*
Y00688034D01*
X00411435Y00685495D01*
X00419053D01*
X00434288D02*
X00424131D01*
X00434288Y00695652D01*
Y00698191D01*
X00431749Y00700730D01*
X00426670D01*
X00424131Y00698191D01*
X00292094Y00728671D02*
X00289555Y00731210D01*
X00284476D01*
X00281937Y00728671D01*
Y00726132D01*
X00284476Y00723593D01*
X00289555D01*
X00292094Y00721053D01*
Y00718514D01*
X00289555Y00715975D01*
X00284476D01*
X00281937Y00718514D01*
X00297172Y00715975D02*
X00302250D01*
X00299711D01*
Y00726132D01*
X00297172D01*
X00314946Y00710897D02*
X00317486D01*
X00320025Y00713436D01*
Y00726132D01*
X00312407D01*
X00309868Y00723593D01*
Y00718514D01*
X00312407Y00715975D01*
X00320025D01*
X00325103D02*
X00330181D01*
X00327642D01*
Y00731210D01*
X00325103Y00728671D01*
X00281937Y00761690D02*
Y00746455D01*
X00289555D01*
X00292094Y00748994D01*
Y00759151D01*
X00289555Y00761690D01*
X00281937D01*
X00297172Y00746455D02*
X00302250D01*
X00299711D01*
Y00756612D01*
X00297172D01*
X00317486Y00746455D02*
X00312407D01*
X00309868Y00748994D01*
Y00754073D01*
X00312407Y00756612D01*
X00317486D01*
X00320025Y00754073D01*
Y00751534D01*
X00309868D01*
X00325103Y00746455D02*
X00330181D01*
X00327642D01*
Y00761690D01*
X00325103D01*
X00345416Y00746455D02*
X00340338D01*
X00337799Y00748994D01*
Y00754073D01*
X00340338Y00756612D01*
X00345416D01*
X00347956Y00754073D01*
Y00751534D01*
X00337799D01*
X00363191Y00756612D02*
X00355573D01*
X00353034Y00754073D01*
Y00748994D01*
X00355573Y00746455D01*
X00363191D01*
X00370808Y00759151D02*
Y00756612D01*
X00368269D01*
X00373348D01*
X00370808D01*
Y00748994D01*
X00373348Y00746455D01*
X00380965Y00756612D02*
Y00746455D01*
Y00751534D01*
X00383504Y00754073D01*
X00386043Y00756612D01*
X00388582D01*
X00396200Y00746455D02*
X00401278D01*
X00398739D01*
Y00756612D01*
X00396200D01*
X00419053D02*
X00411435D01*
X00408896Y00754073D01*
Y00748994D01*
X00411435Y00746455D01*
X00419053D01*
X00424131Y00759151D02*
X00426670Y00761690D01*
X00431749D01*
X00434288Y00759151D01*
Y00756612D01*
X00431749Y00754073D01*
X00429209D01*
X00431749D01*
X00434288Y00751534D01*
Y00748994D01*
X00431749Y00746455D01*
X00426670D01*
X00424131Y00748994D01*
X00292094Y00789631D02*
X00289555Y00792170D01*
X00284476D01*
X00281937Y00789631D01*
Y00779474D01*
X00284476Y00776935D01*
X00289555D01*
X00292094Y00779474D01*
Y00784553D01*
X00287015D01*
X00297172Y00776935D02*
Y00792170D01*
X00307329Y00776935D01*
Y00792170D01*
X00312407D02*
Y00776935D01*
X00320025D01*
X00322564Y00779474D01*
Y00789631D01*
X00320025Y00792170D01*
X00312407D01*
X00327642Y00776935D02*
X00332721D01*
X00330182D01*
Y00792170D01*
X00327642Y00789631D01*
X00281937Y00822650D02*
Y00807415D01*
X00289555D01*
X00292094Y00809954D01*
Y00820111D01*
X00289555Y00822650D01*
X00281937D01*
X00297172Y00807415D02*
X00302250D01*
X00299711D01*
Y00817572D01*
X00297172D01*
X00317486Y00807415D02*
X00312407D01*
X00309868Y00809954D01*
Y00815033D01*
X00312407Y00817572D01*
X00317486D01*
X00320025Y00815033D01*
Y00812494D01*
X00309868D01*
X00325103Y00807415D02*
X00330181D01*
X00327642D01*
Y00822650D01*
X00325103D01*
X00345416Y00807415D02*
X00340338D01*
X00337799Y00809954D01*
Y00815033D01*
X00340338Y00817572D01*
X00345416D01*
X00347956Y00815033D01*
Y00812494D01*
X00337799D01*
X00363191Y00817572D02*
X00355573D01*
X00353034Y00815033D01*
Y00809954D01*
X00355573Y00807415D01*
X00363191D01*
X00370808Y00820111D02*
Y00817572D01*
X00368269D01*
X00373348D01*
X00370808D01*
Y00809954D01*
X00373348Y00807415D01*
X00380965Y00817572D02*
Y00807415D01*
Y00812494D01*
X00383504Y00815033D01*
X00386043Y00817572D01*
X00388582D01*
X00396200Y00807415D02*
X00401278D01*
X00398739D01*
Y00817572D01*
X00396200D01*
X00419053D02*
X00411435D01*
X00408896Y00815033D01*
Y00809954D01*
X00411435Y00807415D01*
X00419053D01*
X00424131D02*
X00429209D01*
X00426670D01*
Y00822650D01*
X00424131Y00820111D01*
X00281937Y00853130D02*
X00292094D01*
X00287015D01*
Y00837895D01*
X00299711D02*
X00304790D01*
X00307329Y00840434D01*
Y00845513D01*
X00304790Y00848052D01*
X00299711D01*
X00297172Y00845513D01*
Y00840434D01*
X00299711Y00837895D01*
X00312407Y00832817D02*
Y00848052D01*
X00320025D01*
X00322564Y00845513D01*
Y00840434D01*
X00320025Y00837895D01*
X00312407D01*
X00342877Y00853130D02*
Y00837895D01*
X00353034D01*
X00360652Y00848052D02*
X00365730D01*
X00368269Y00845513D01*
Y00837895D01*
X00360652D01*
X00358112Y00840434D01*
X00360652Y00842973D01*
X00368269D01*
X00373348Y00848052D02*
Y00840434D01*
X00375887Y00837895D01*
X00383504D01*
Y00835356D01*
X00380965Y00832817D01*
X00378426D01*
X00383504Y00837895D02*
Y00848052D01*
X00396200Y00837895D02*
X00391122D01*
X00388583Y00840434D01*
Y00845513D01*
X00391122Y00848052D01*
X00396200D01*
X00398739Y00845513D01*
Y00842973D01*
X00388583D01*
X00403818Y00848052D02*
Y00837895D01*
Y00842973D01*
X00406357Y00845513D01*
X00408896Y00848052D01*
X00411435D01*
X00281937Y00883610D02*
X00292094D01*
X00287015D01*
Y00868375D01*
X00299711D02*
X00304790D01*
X00307329Y00870914D01*
Y00875993D01*
X00304790Y00878532D01*
X00299711D01*
X00297172Y00875993D01*
Y00870914D01*
X00299711Y00868375D01*
X00312407Y00863297D02*
Y00878532D01*
X00320025D01*
X00322564Y00875993D01*
Y00870914D01*
X00320025Y00868375D01*
X00312407D01*
X00353034Y00881071D02*
X00350495Y00883610D01*
X00345416D01*
X00342877Y00881071D01*
Y00878532D01*
X00345416Y00875993D01*
X00350495D01*
X00353034Y00873454D01*
Y00870914D01*
X00350495Y00868375D01*
X00345416D01*
X00342877Y00870914D01*
X00360652Y00868375D02*
X00365730D01*
X00368269Y00870914D01*
Y00875993D01*
X00365730Y00878532D01*
X00360652D01*
X00358112Y00875993D01*
Y00870914D01*
X00360652Y00868375D01*
X00373348D02*
X00378426D01*
X00375887D01*
Y00883610D01*
X00373348D01*
X00396200D02*
Y00868375D01*
X00388583D01*
X00386043Y00870914D01*
Y00875993D01*
X00388583Y00878532D01*
X00396200D01*
X00408896Y00868375D02*
X00403818D01*
X00401278Y00870914D01*
Y00875993D01*
X00403818Y00878532D01*
X00408896D01*
X00411435Y00875993D01*
Y00873454D01*
X00401278D01*
X00416513Y00878532D02*
Y00868375D01*
Y00873454D01*
X00419053Y00875993D01*
X00421592Y00878532D01*
X00424131D01*
X00281937Y00914090D02*
X00292094D01*
X00287015D01*
Y00898855D01*
X00299711D02*
X00304790D01*
X00307329Y00901394D01*
Y00906473D01*
X00304790Y00909012D01*
X00299711D01*
X00297172Y00906473D01*
Y00901394D01*
X00299711Y00898855D01*
X00312407Y00893777D02*
Y00909012D01*
X00320025D01*
X00322564Y00906473D01*
Y00901394D01*
X00320025Y00898855D01*
X00312407D01*
X00350495Y00914090D02*
X00345416D01*
X00342877Y00911551D01*
Y00901394D01*
X00345416Y00898855D01*
X00350495D01*
X00353034Y00901394D01*
Y00911551D01*
X00350495Y00914090D01*
X00358112Y00909012D02*
X00363191Y00898855D01*
X00368269Y00909012D01*
X00380965Y00898855D02*
X00375887D01*
X00373348Y00901394D01*
Y00906473D01*
X00375887Y00909012D01*
X00380965D01*
X00383504Y00906473D01*
Y00903933D01*
X00373348D01*
X00388583Y00909012D02*
Y00898855D01*
Y00903933D01*
X00391122Y00906473D01*
X00393661Y00909012D01*
X00396200D01*
X00403818Y00898855D02*
X00408896D01*
X00406357D01*
Y00914090D01*
X00403818D01*
X00419053Y00909012D02*
X00424131D01*
X00426670Y00906473D01*
Y00898855D01*
X00419053D01*
X00416513Y00901394D01*
X00419053Y00903933D01*
X00426670D01*
X00431749Y00909012D02*
Y00901394D01*
X00434288Y00898855D01*
X00441905D01*
Y00896316D01*
X00439366Y00893777D01*
X00436827D01*
X00441905Y00898855D02*
Y00909012D01*
X00518092Y00929335D02*
Y00944570D01*
X00523171Y00939492D01*
X00528249Y00944570D01*
Y00929335D01*
X00535866Y00939492D02*
X00540945D01*
X00543484Y00936953D01*
Y00929335D01*
X00535866D01*
X00533327Y00931874D01*
X00535866Y00934414D01*
X00543484D01*
X00551101Y00942031D02*
Y00939492D01*
X00548562D01*
X00553641D01*
X00551101D01*
Y00931874D01*
X00553641Y00929335D01*
X00568876D02*
X00563797D01*
X00561258Y00931874D01*
Y00936953D01*
X00563797Y00939492D01*
X00568876D01*
X00571415Y00936953D01*
Y00934414D01*
X00561258D01*
X00576493Y00939492D02*
Y00929335D01*
Y00934414D01*
X00579032Y00936953D01*
X00581572Y00939492D01*
X00584111D01*
X00591728Y00929335D02*
X00596807D01*
X00594268D01*
Y00939492D01*
X00591728D01*
X00606963D02*
X00612042D01*
X00614581Y00936953D01*
Y00929335D01*
X00606963D01*
X00604424Y00931874D01*
X00606963Y00934414D01*
X00614581D01*
X00619659Y00929335D02*
X00624738D01*
X00622198D01*
Y00944570D01*
X00619659D01*
X00528249Y00393391D02*
X00525710Y00395930D01*
X00520631D01*
X00518092Y00393391D01*
Y00390852D01*
X00520631Y00388313D01*
X00525710D01*
X00528249Y00385774D01*
Y00383234D01*
X00525710Y00380695D01*
X00520631D01*
X00518092Y00383234D01*
X00535866Y00380695D02*
X00540945D01*
X00543484Y00383234D01*
Y00388313D01*
X00540945Y00390852D01*
X00535866D01*
X00533327Y00388313D01*
Y00383234D01*
X00535866Y00380695D01*
X00548562D02*
X00553641D01*
X00551101D01*
Y00395930D01*
X00548562D01*
X00571415D02*
Y00380695D01*
X00563797D01*
X00561258Y00383234D01*
Y00388313D01*
X00563797Y00390852D01*
X00571415D01*
X00584111Y00380695D02*
X00579032D01*
X00576493Y00383234D01*
Y00388313D01*
X00579032Y00390852D01*
X00584111D01*
X00586650Y00388313D01*
Y00385774D01*
X00576493D01*
X00591728Y00390852D02*
Y00380695D01*
Y00385774D01*
X00594268Y00388313D01*
X00596807Y00390852D01*
X00599346D01*
X00622198Y00380695D02*
Y00395930D01*
X00629816D01*
X00632355Y00393391D01*
Y00388313D01*
X00629816Y00385774D01*
X00622198D01*
X00627277D02*
X00632355Y00380695D01*
X00645051D02*
X00639973D01*
X00637434Y00383234D01*
Y00388313D01*
X00639973Y00390852D01*
X00645051D01*
X00647590Y00388313D01*
Y00385774D01*
X00637434D01*
X00652669Y00380695D02*
X00660286D01*
X00662825Y00383234D01*
X00660286Y00385774D01*
X00655208D01*
X00652669Y00388313D01*
X00655208Y00390852D01*
X00662825D01*
X00667904Y00380695D02*
X00672982D01*
X00670443D01*
Y00390852D01*
X00667904D01*
X00680600Y00380695D02*
X00688217D01*
X00690756Y00383234D01*
X00688217Y00385774D01*
X00683139D01*
X00680600Y00388313D01*
X00683139Y00390852D01*
X00690756D01*
X00698374Y00393391D02*
Y00390852D01*
X00695835D01*
X00700913D01*
X00698374D01*
Y00383234D01*
X00700913Y00380695D01*
X00528249Y00423871D02*
X00525710Y00426410D01*
X00520631D01*
X00518092Y00423871D01*
Y00413714D01*
X00520631Y00411175D01*
X00525710D01*
X00528249Y00413714D01*
X00535866Y00411175D02*
X00540945D01*
X00543484Y00413714D01*
Y00418793D01*
X00540945Y00421332D01*
X00535866D01*
X00533327Y00418793D01*
Y00413714D01*
X00535866Y00411175D01*
X00548562Y00406097D02*
Y00421332D01*
X00556180D01*
X00558719Y00418793D01*
Y00413714D01*
X00556180Y00411175D01*
X00548562D01*
X00563797Y00406097D02*
Y00421332D01*
X00571415D01*
X00573954Y00418793D01*
Y00413714D01*
X00571415Y00411175D01*
X00563797D01*
X00586650D02*
X00581572D01*
X00579032Y00413714D01*
Y00418793D01*
X00581572Y00421332D01*
X00586650D01*
X00589189Y00418793D01*
Y00416254D01*
X00579032D01*
X00594268Y00421332D02*
Y00411175D01*
Y00416254D01*
X00596807Y00418793D01*
X00599346Y00421332D01*
X00601885D01*
X00528249Y00456890D02*
X00518092D01*
Y00449273D01*
X00523171D01*
X00518092D01*
Y00441655D01*
X00533327D02*
Y00456890D01*
X00540945D01*
X00543484Y00454351D01*
Y00449273D01*
X00540945Y00446734D01*
X00533327D01*
X00538406D02*
X00543484Y00441655D01*
X00548562Y00449273D02*
X00558719D01*
X00571415Y00441655D02*
Y00456890D01*
X00563797Y00449273D01*
X00573954D01*
X00594268Y00456890D02*
Y00441655D01*
Y00449273D01*
X00604424D01*
Y00456890D01*
Y00441655D01*
X00609503D02*
X00614581D01*
X00612042D01*
Y00451812D01*
X00609503D01*
X00627277Y00436577D02*
X00629816D01*
X00632355Y00439116D01*
Y00451812D01*
X00624738D01*
X00622198Y00449273D01*
Y00444194D01*
X00624738Y00441655D01*
X00632355D01*
X00637434Y00456890D02*
Y00441655D01*
Y00449273D01*
X00639973Y00451812D01*
X00645051D01*
X00647590Y00449273D01*
Y00441655D01*
X00667904Y00456890D02*
X00678060D01*
X00672982D01*
Y00441655D01*
X00688217Y00436577D02*
X00690756D01*
X00693296Y00439116D01*
Y00451812D01*
X00685678D01*
X00683139Y00449273D01*
Y00444194D01*
X00685678Y00441655D01*
X00693296D01*
X00528249Y00484831D02*
X00525710Y00487370D01*
X00520631D01*
X00518092Y00484831D01*
Y00474674D01*
X00520631Y00472135D01*
X00525710D01*
X00528249Y00474674D01*
X00535866Y00472135D02*
X00540945D01*
X00543484Y00474674D01*
Y00479753D01*
X00540945Y00482292D01*
X00535866D01*
X00533327Y00479753D01*
Y00474674D01*
X00535866Y00472135D01*
X00548562Y00467057D02*
Y00482292D01*
X00556180D01*
X00558719Y00479753D01*
Y00474674D01*
X00556180Y00472135D01*
X00548562D01*
X00563797Y00467057D02*
Y00482292D01*
X00571415D01*
X00573954Y00479753D01*
Y00474674D01*
X00571415Y00472135D01*
X00563797D01*
X00586650D02*
X00581572D01*
X00579032Y00474674D01*
Y00479753D01*
X00581572Y00482292D01*
X00586650D01*
X00589189Y00479753D01*
Y00477214D01*
X00579032D01*
X00594268Y00482292D02*
Y00472135D01*
Y00477214D01*
X00596807Y00479753D01*
X00599346Y00482292D01*
X00601885D01*
X00528249Y00517850D02*
X00518092D01*
Y00510233D01*
X00523171D01*
X00518092D01*
Y00502615D01*
X00533327D02*
Y00517850D01*
X00540945D01*
X00543484Y00515311D01*
Y00510233D01*
X00540945Y00507693D01*
X00533327D01*
X00538406D02*
X00543484Y00502615D01*
X00548562Y00510233D02*
X00558719D01*
X00571415Y00502615D02*
Y00517850D01*
X00563797Y00510233D01*
X00573954D01*
X00594268Y00517850D02*
Y00502615D01*
Y00510233D01*
X00604424D01*
Y00517850D01*
Y00502615D01*
X00609503D02*
X00614581D01*
X00612042D01*
Y00512772D01*
X00609503D01*
X00627277Y00497537D02*
X00629816D01*
X00632355Y00500076D01*
Y00512772D01*
X00624738D01*
X00622198Y00510233D01*
Y00505154D01*
X00624738Y00502615D01*
X00632355D01*
X00637434Y00517850D02*
Y00502615D01*
Y00510233D01*
X00639973Y00512772D01*
X00645051D01*
X00647590Y00510233D01*
Y00502615D01*
X00667904Y00517850D02*
X00678060D01*
X00672982D01*
Y00502615D01*
X00688217Y00497537D02*
X00690756D01*
X00693296Y00500076D01*
Y00512772D01*
X00685678D01*
X00683139Y00510233D01*
Y00505154D01*
X00685678Y00502615D01*
X00693296D01*
X00528249Y00545791D02*
X00525710Y00548330D01*
X00520631D01*
X00518092Y00545791D01*
Y00535634D01*
X00520631Y00533095D01*
X00525710D01*
X00528249Y00535634D01*
X00535866Y00533095D02*
X00540945D01*
X00543484Y00535634D01*
Y00540713D01*
X00540945Y00543252D01*
X00535866D01*
X00533327Y00540713D01*
Y00535634D01*
X00535866Y00533095D01*
X00548562Y00528017D02*
Y00543252D01*
X00556180D01*
X00558719Y00540713D01*
Y00535634D01*
X00556180Y00533095D01*
X00548562D01*
X00563797Y00528017D02*
Y00543252D01*
X00571415D01*
X00573954Y00540713D01*
Y00535634D01*
X00571415Y00533095D01*
X00563797D01*
X00586650D02*
X00581572D01*
X00579032Y00535634D01*
Y00540713D01*
X00581572Y00543252D01*
X00586650D01*
X00589189Y00540713D01*
Y00538173D01*
X00579032D01*
X00594268Y00543252D02*
Y00533095D01*
Y00538173D01*
X00596807Y00540713D01*
X00599346Y00543252D01*
X00601885D01*
X00528249Y00578810D02*
X00518092D01*
Y00571193D01*
X00523171D01*
X00518092D01*
Y00563575D01*
X00533327D02*
Y00578810D01*
X00540945D01*
X00543484Y00576271D01*
Y00571193D01*
X00540945Y00568653D01*
X00533327D01*
X00538406D02*
X00543484Y00563575D01*
X00548562Y00571193D02*
X00558719D01*
X00571415Y00563575D02*
Y00578810D01*
X00563797Y00571193D01*
X00573954D01*
X00594268Y00578810D02*
Y00563575D01*
Y00571193D01*
X00604424D01*
Y00578810D01*
Y00563575D01*
X00609503D02*
X00614581D01*
X00612042D01*
Y00573732D01*
X00609503D01*
X00627277Y00558497D02*
X00629816D01*
X00632355Y00561036D01*
Y00573732D01*
X00624738D01*
X00622198Y00571193D01*
Y00566114D01*
X00624738Y00563575D01*
X00632355D01*
X00637434Y00578810D02*
Y00563575D01*
Y00571193D01*
X00639973Y00573732D01*
X00645051D01*
X00647590Y00571193D01*
Y00563575D01*
X00667904Y00578810D02*
X00678060D01*
X00672982D01*
Y00563575D01*
X00688217Y00558497D02*
X00690756D01*
X00693296Y00561036D01*
Y00573732D01*
X00685678D01*
X00683139Y00571193D01*
Y00566114D01*
X00685678Y00563575D01*
X00693296D01*
X00528249Y00606751D02*
X00525710Y00609290D01*
X00520631D01*
X00518092Y00606751D01*
Y00596594D01*
X00520631Y00594055D01*
X00525710D01*
X00528249Y00596594D01*
X00535866Y00594055D02*
X00540945D01*
X00543484Y00596594D01*
Y00601673D01*
X00540945Y00604212D01*
X00535866D01*
X00533327Y00601673D01*
Y00596594D01*
X00535866Y00594055D01*
X00548562Y00588977D02*
Y00604212D01*
X00556180D01*
X00558719Y00601673D01*
Y00596594D01*
X00556180Y00594055D01*
X00548562D01*
X00563797Y00588977D02*
Y00604212D01*
X00571415D01*
X00573954Y00601673D01*
Y00596594D01*
X00571415Y00594055D01*
X00563797D01*
X00586650D02*
X00581572D01*
X00579032Y00596594D01*
Y00601673D01*
X00581572Y00604212D01*
X00586650D01*
X00589189Y00601673D01*
Y00599133D01*
X00579032D01*
X00594268Y00604212D02*
Y00594055D01*
Y00599133D01*
X00596807Y00601673D01*
X00599346Y00604212D01*
X00601885D01*
X00528249Y00639770D02*
X00518092D01*
Y00632153D01*
X00523171D01*
X00518092D01*
Y00624535D01*
X00533327D02*
Y00639770D01*
X00540945D01*
X00543484Y00637231D01*
Y00632153D01*
X00540945Y00629613D01*
X00533327D01*
X00538406D02*
X00543484Y00624535D01*
X00548562Y00632153D02*
X00558719D01*
X00571415Y00624535D02*
Y00639770D01*
X00563797Y00632153D01*
X00573954D01*
X00594268Y00639770D02*
Y00624535D01*
Y00632153D01*
X00604424D01*
Y00639770D01*
Y00624535D01*
X00609503D02*
X00614581D01*
X00612042D01*
Y00634692D01*
X00609503D01*
X00627277Y00619457D02*
X00629816D01*
X00632355Y00621996D01*
Y00634692D01*
X00624738D01*
X00622198Y00632153D01*
Y00627074D01*
X00624738Y00624535D01*
X00632355D01*
X00637434Y00639770D02*
Y00624535D01*
Y00632153D01*
X00639973Y00634692D01*
X00645051D01*
X00647590Y00632153D01*
Y00624535D01*
X00667904Y00639770D02*
X00678060D01*
X00672982D01*
Y00624535D01*
X00688217Y00619457D02*
X00690756D01*
X00693296Y00621996D01*
Y00634692D01*
X00685678D01*
X00683139Y00632153D01*
Y00627074D01*
X00685678Y00624535D01*
X00693296D01*
X00528249Y00667711D02*
X00525710Y00670250D01*
X00520631D01*
X00518092Y00667711D01*
Y00657554D01*
X00520631Y00655015D01*
X00525710D01*
X00528249Y00657554D01*
X00535866Y00655015D02*
X00540945D01*
X00543484Y00657554D01*
Y00662633D01*
X00540945Y00665172D01*
X00535866D01*
X00533327Y00662633D01*
Y00657554D01*
X00535866Y00655015D01*
X00548562Y00649937D02*
Y00665172D01*
X00556180D01*
X00558719Y00662633D01*
Y00657554D01*
X00556180Y00655015D01*
X00548562D01*
X00563797Y00649937D02*
Y00665172D01*
X00571415D01*
X00573954Y00662633D01*
Y00657554D01*
X00571415Y00655015D01*
X00563797D01*
X00586650D02*
X00581572D01*
X00579032Y00657554D01*
Y00662633D01*
X00581572Y00665172D01*
X00586650D01*
X00589189Y00662633D01*
Y00660094D01*
X00579032D01*
X00594268Y00665172D02*
Y00655015D01*
Y00660094D01*
X00596807Y00662633D01*
X00599346Y00665172D01*
X00601885D01*
X00528249Y00700730D02*
X00518092D01*
Y00693113D01*
X00523171D01*
X00518092D01*
Y00685495D01*
X00533327D02*
Y00700730D01*
X00540945D01*
X00543484Y00698191D01*
Y00693113D01*
X00540945Y00690574D01*
X00533327D01*
X00538406D02*
X00543484Y00685495D01*
X00548562Y00693113D02*
X00558719D01*
X00571415Y00685495D02*
Y00700730D01*
X00563797Y00693113D01*
X00573954D01*
X00594268Y00700730D02*
Y00685495D01*
Y00693113D01*
X00604424D01*
Y00700730D01*
Y00685495D01*
X00609503D02*
X00614581D01*
X00612042D01*
Y00695652D01*
X00609503D01*
X00627277Y00680417D02*
X00629816D01*
X00632355Y00682956D01*
Y00695652D01*
X00624738D01*
X00622198Y00693113D01*
Y00688034D01*
X00624738Y00685495D01*
X00632355D01*
X00637434Y00700730D02*
Y00685495D01*
Y00693113D01*
X00639973Y00695652D01*
X00645051D01*
X00647590Y00693113D01*
Y00685495D01*
X00667904Y00700730D02*
X00678060D01*
X00672982D01*
Y00685495D01*
X00688217Y00680417D02*
X00690756D01*
X00693296Y00682956D01*
Y00695652D01*
X00685678D01*
X00683139Y00693113D01*
Y00688034D01*
X00685678Y00685495D01*
X00693296D01*
X00528249Y00728671D02*
X00525710Y00731210D01*
X00520631D01*
X00518092Y00728671D01*
Y00718514D01*
X00520631Y00715975D01*
X00525710D01*
X00528249Y00718514D01*
X00535866Y00715975D02*
X00540945D01*
X00543484Y00718514D01*
Y00723593D01*
X00540945Y00726132D01*
X00535866D01*
X00533327Y00723593D01*
Y00718514D01*
X00535866Y00715975D01*
X00548562Y00710897D02*
Y00726132D01*
X00556180D01*
X00558719Y00723593D01*
Y00718514D01*
X00556180Y00715975D01*
X00548562D01*
X00563797Y00710897D02*
Y00726132D01*
X00571415D01*
X00573954Y00723593D01*
Y00718514D01*
X00571415Y00715975D01*
X00563797D01*
X00586650D02*
X00581572D01*
X00579032Y00718514D01*
Y00723593D01*
X00581572Y00726132D01*
X00586650D01*
X00589189Y00723593D01*
Y00721053D01*
X00579032D01*
X00594268Y00726132D02*
Y00715975D01*
Y00721053D01*
X00596807Y00723593D01*
X00599346Y00726132D01*
X00601885D01*
X00528249Y00761690D02*
X00518092D01*
Y00754073D01*
X00523171D01*
X00518092D01*
Y00746455D01*
X00533327D02*
Y00761690D01*
X00540945D01*
X00543484Y00759151D01*
Y00754073D01*
X00540945Y00751534D01*
X00533327D01*
X00538406D02*
X00543484Y00746455D01*
X00548562Y00754073D02*
X00558719D01*
X00571415Y00746455D02*
Y00761690D01*
X00563797Y00754073D01*
X00573954D01*
X00594268Y00761690D02*
Y00746455D01*
Y00754073D01*
X00604424D01*
Y00761690D01*
Y00746455D01*
X00609503D02*
X00614581D01*
X00612042D01*
Y00756612D01*
X00609503D01*
X00627277Y00741377D02*
X00629816D01*
X00632355Y00743916D01*
Y00756612D01*
X00624738D01*
X00622198Y00754073D01*
Y00748994D01*
X00624738Y00746455D01*
X00632355D01*
X00637434Y00761690D02*
Y00746455D01*
Y00754073D01*
X00639973Y00756612D01*
X00645051D01*
X00647590Y00754073D01*
Y00746455D01*
X00667904Y00761690D02*
X00678060D01*
X00672982D01*
Y00746455D01*
X00688217Y00741377D02*
X00690756D01*
X00693296Y00743916D01*
Y00756612D01*
X00685678D01*
X00683139Y00754073D01*
Y00748994D01*
X00685678Y00746455D01*
X00693296D01*
X00528249Y00789631D02*
X00525710Y00792170D01*
X00520631D01*
X00518092Y00789631D01*
Y00779474D01*
X00520631Y00776935D01*
X00525710D01*
X00528249Y00779474D01*
X00535866Y00776935D02*
X00540945D01*
X00543484Y00779474D01*
Y00784553D01*
X00540945Y00787092D01*
X00535866D01*
X00533327Y00784553D01*
Y00779474D01*
X00535866Y00776935D01*
X00548562Y00771857D02*
Y00787092D01*
X00556180D01*
X00558719Y00784553D01*
Y00779474D01*
X00556180Y00776935D01*
X00548562D01*
X00563797Y00771857D02*
Y00787092D01*
X00571415D01*
X00573954Y00784553D01*
Y00779474D01*
X00571415Y00776935D01*
X00563797D01*
X00586650D02*
X00581572D01*
X00579032Y00779474D01*
Y00784553D01*
X00581572Y00787092D01*
X00586650D01*
X00589189Y00784553D01*
Y00782013D01*
X00579032D01*
X00594268Y00787092D02*
Y00776935D01*
Y00782013D01*
X00596807Y00784553D01*
X00599346Y00787092D01*
X00601885D01*
X00528249Y00822650D02*
X00518092D01*
Y00815033D01*
X00523171D01*
X00518092D01*
Y00807415D01*
X00533327D02*
Y00822650D01*
X00540945D01*
X00543484Y00820111D01*
Y00815033D01*
X00540945Y00812494D01*
X00533327D01*
X00538406D02*
X00543484Y00807415D01*
X00548562Y00815033D02*
X00558719D01*
X00571415Y00807415D02*
Y00822650D01*
X00563797Y00815033D01*
X00573954D01*
X00594268Y00822650D02*
Y00807415D01*
Y00815033D01*
X00604424D01*
Y00822650D01*
Y00807415D01*
X00609503D02*
X00614581D01*
X00612042D01*
Y00817572D01*
X00609503D01*
X00627277Y00802337D02*
X00629816D01*
X00632355Y00804876D01*
Y00817572D01*
X00624738D01*
X00622198Y00815033D01*
Y00809954D01*
X00624738Y00807415D01*
X00632355D01*
X00637434Y00822650D02*
Y00807415D01*
Y00815033D01*
X00639973Y00817572D01*
X00645051D01*
X00647590Y00815033D01*
Y00807415D01*
X00667904Y00822650D02*
X00678060D01*
X00672982D01*
Y00807415D01*
X00688217Y00802337D02*
X00690756D01*
X00693296Y00804876D01*
Y00817572D01*
X00685678D01*
X00683139Y00815033D01*
Y00809954D01*
X00685678Y00807415D01*
X00693296D01*
X00528249Y00850591D02*
X00525710Y00853130D01*
X00520631D01*
X00518092Y00850591D01*
Y00840434D01*
X00520631Y00837895D01*
X00525710D01*
X00528249Y00840434D01*
X00535866Y00837895D02*
X00540945D01*
X00543484Y00840434D01*
Y00845513D01*
X00540945Y00848052D01*
X00535866D01*
X00533327Y00845513D01*
Y00840434D01*
X00535866Y00837895D01*
X00548562Y00832817D02*
Y00848052D01*
X00556180D01*
X00558719Y00845513D01*
Y00840434D01*
X00556180Y00837895D01*
X00548562D01*
X00563797Y00832817D02*
Y00848052D01*
X00571415D01*
X00573954Y00845513D01*
Y00840434D01*
X00571415Y00837895D01*
X00563797D01*
X00586650D02*
X00581572D01*
X00579032Y00840434D01*
Y00845513D01*
X00581572Y00848052D01*
X00586650D01*
X00589189Y00845513D01*
Y00842973D01*
X00579032D01*
X00594268Y00848052D02*
Y00837895D01*
Y00842973D01*
X00596807Y00845513D01*
X00599346Y00848052D01*
X00601885D01*
X00528249Y00881071D02*
X00525710Y00883610D01*
X00520631D01*
X00518092Y00881071D01*
Y00878532D01*
X00520631Y00875993D01*
X00525710D01*
X00528249Y00873454D01*
Y00870914D01*
X00525710Y00868375D01*
X00520631D01*
X00518092Y00870914D01*
X00535866Y00868375D02*
X00540945D01*
X00543484Y00870914D01*
Y00875993D01*
X00540945Y00878532D01*
X00535866D01*
X00533327Y00875993D01*
Y00870914D01*
X00535866Y00868375D01*
X00548562D02*
X00553641D01*
X00551101D01*
Y00883610D01*
X00548562D01*
X00571415D02*
Y00868375D01*
X00563797D01*
X00561258Y00870914D01*
Y00875993D01*
X00563797Y00878532D01*
X00571415D01*
X00584111Y00868375D02*
X00579032D01*
X00576493Y00870914D01*
Y00875993D01*
X00579032Y00878532D01*
X00584111D01*
X00586650Y00875993D01*
Y00873454D01*
X00576493D01*
X00591728Y00878532D02*
Y00868375D01*
Y00873454D01*
X00594268Y00875993D01*
X00596807Y00878532D01*
X00599346D01*
X00622198Y00868375D02*
Y00883610D01*
X00629816D01*
X00632355Y00881071D01*
Y00875993D01*
X00629816Y00873454D01*
X00622198D01*
X00627277D02*
X00632355Y00868375D01*
X00645051D02*
X00639973D01*
X00637434Y00870914D01*
Y00875993D01*
X00639973Y00878532D01*
X00645051D01*
X00647590Y00875993D01*
Y00873454D01*
X00637434D01*
X00652669Y00868375D02*
X00660286D01*
X00662825Y00870914D01*
X00660286Y00873454D01*
X00655208D01*
X00652669Y00875993D01*
X00655208Y00878532D01*
X00662825D01*
X00667904Y00868375D02*
X00672982D01*
X00670443D01*
Y00878532D01*
X00667904D01*
X00680600Y00868375D02*
X00688217D01*
X00690756Y00870914D01*
X00688217Y00873454D01*
X00683139D01*
X00680600Y00875993D01*
X00683139Y00878532D01*
X00690756D01*
X00698374Y00881071D02*
Y00878532D01*
X00695835D01*
X00700913D01*
X00698374D01*
Y00870914D01*
X00700913Y00868375D01*
X00736473Y00944570D02*
X00746630D01*
X00741551D01*
Y00929335D01*
X00751708Y00944570D02*
Y00929335D01*
Y00936953D01*
X00754247Y00939492D01*
X00759326D01*
X00761865Y00936953D01*
Y00929335D01*
X00766943D02*
X00772021D01*
X00769482D01*
Y00939492D01*
X00766943D01*
X00789796D02*
X00782178D01*
X00779639Y00936953D01*
Y00931874D01*
X00782178Y00929335D01*
X00789796D01*
X00794874D02*
Y00944570D01*
Y00934414D02*
X00802492Y00939492D01*
X00794874Y00934414D02*
X00802492Y00929335D01*
X00810109D02*
Y00939492D01*
X00817727D01*
X00820266Y00936953D01*
Y00929335D01*
X00832962D02*
X00827883D01*
X00825344Y00931874D01*
Y00936953D01*
X00827883Y00939492D01*
X00832962D01*
X00835501Y00936953D01*
Y00934414D01*
X00825344D01*
X00840579Y00929335D02*
X00848197D01*
X00850736Y00931874D01*
X00848197Y00934414D01*
X00843119D01*
X00840579Y00936953D01*
X00843119Y00939492D01*
X00850736D01*
X00855814Y00929335D02*
X00863432D01*
X00865971Y00931874D01*
X00863432Y00934414D01*
X00858354D01*
X00855814Y00936953D01*
X00858354Y00939492D01*
X00865971D01*
X00736473Y00393391D02*
X00739012Y00395930D01*
X00744090D01*
X00746630Y00393391D01*
Y00383234D01*
X00744090Y00380695D01*
X00739012D01*
X00736473Y00383234D01*
Y00393391D01*
X00751708Y00380695D02*
Y00383234D01*
X00754247D01*
Y00380695D01*
X00751708D01*
X00774561Y00395930D02*
X00764404D01*
Y00388313D01*
X00769482Y00390852D01*
X00772021D01*
X00774561Y00388313D01*
Y00383234D01*
X00772021Y00380695D01*
X00766943D01*
X00764404Y00383234D01*
X00779639Y00393391D02*
X00782178Y00395930D01*
X00787257D01*
X00789796Y00393391D01*
Y00383234D01*
X00787257Y00380695D01*
X00782178D01*
X00779639Y00383234D01*
Y00393391D01*
X00794874Y00380695D02*
Y00390852D01*
X00797413D01*
X00799952Y00388313D01*
Y00380695D01*
Y00388313D01*
X00802492Y00390852D01*
X00805031Y00388313D01*
Y00380695D01*
X00810109D02*
X00815188D01*
X00812648D01*
Y00390852D01*
X00810109D01*
X00822805Y00380695D02*
X00827883D01*
X00825344D01*
Y00395930D01*
X00822805D01*
X00736473Y00411175D02*
X00741551D01*
X00739012D01*
Y00426410D01*
X00736473Y00423871D01*
X00749169Y00411175D02*
Y00413714D01*
X00751708D01*
Y00411175D01*
X00749169D01*
X00761865Y00423871D02*
X00764404Y00426410D01*
X00769482D01*
X00772021Y00423871D01*
Y00421332D01*
X00769482Y00418793D01*
X00766943D01*
X00769482D01*
X00772021Y00416254D01*
Y00413714D01*
X00769482Y00411175D01*
X00764404D01*
X00761865Y00413714D01*
X00777100Y00426410D02*
X00787257D01*
Y00423871D01*
X00777100Y00413714D01*
Y00411175D01*
X00792335D02*
Y00421332D01*
X00794874D01*
X00797413Y00418793D01*
Y00411175D01*
Y00418793D01*
X00799952Y00421332D01*
X00802492Y00418793D01*
Y00411175D01*
X00807570D02*
X00812648D01*
X00810109D01*
Y00421332D01*
X00807570D01*
X00820266Y00411175D02*
X00825344D01*
X00822805D01*
Y00426410D01*
X00820266D01*
X00736473Y00454351D02*
X00739012Y00456890D01*
X00744090D01*
X00746630Y00454351D01*
Y00451812D01*
X00744090Y00449273D01*
X00741551D01*
X00744090D01*
X00746630Y00446734D01*
Y00444194D01*
X00744090Y00441655D01*
X00739012D01*
X00736473Y00444194D01*
X00751708Y00441655D02*
Y00444194D01*
X00754247D01*
Y00441655D01*
X00751708D01*
X00764404Y00456890D02*
X00774561D01*
Y00454351D01*
X00764404Y00444194D01*
Y00441655D01*
X00779639Y00454351D02*
X00782178Y00456890D01*
X00787257D01*
X00789796Y00454351D01*
Y00444194D01*
X00787257Y00441655D01*
X00782178D01*
X00779639Y00444194D01*
Y00454351D01*
X00794874Y00441655D02*
Y00451812D01*
X00797413D01*
X00799952Y00449273D01*
Y00441655D01*
Y00449273D01*
X00802492Y00451812D01*
X00805031Y00449273D01*
Y00441655D01*
X00810109D02*
X00815188D01*
X00812648D01*
Y00451812D01*
X00810109D01*
X00822805Y00441655D02*
X00827883D01*
X00825344D01*
Y00456890D01*
X00822805D01*
X00746630Y00472135D02*
X00736473D01*
X00746630Y00482292D01*
Y00484831D01*
X00744090Y00487370D01*
X00739012D01*
X00736473Y00484831D01*
X00751708Y00472135D02*
Y00474674D01*
X00754247D01*
Y00472135D01*
X00751708D01*
X00772021D02*
Y00487370D01*
X00764404Y00479753D01*
X00774561D01*
X00779639Y00484831D02*
X00782178Y00487370D01*
X00787257D01*
X00789796Y00484831D01*
Y00474674D01*
X00787257Y00472135D01*
X00782178D01*
X00779639Y00474674D01*
Y00484831D01*
X00794874Y00472135D02*
Y00482292D01*
X00797413D01*
X00799952Y00479753D01*
Y00472135D01*
Y00479753D01*
X00802492Y00482292D01*
X00805031Y00479753D01*
Y00472135D01*
X00810109D02*
X00815188D01*
X00812648D01*
Y00482292D01*
X00810109D01*
X00822805Y00472135D02*
X00827883D01*
X00825344D01*
Y00487370D01*
X00822805D01*
X00744090Y00502615D02*
Y00517850D01*
X00736473Y00510233D01*
X00746630D01*
X00751708Y00502615D02*
Y00505154D01*
X00754247D01*
Y00502615D01*
X00751708D01*
X00774561Y00517850D02*
X00764404D01*
Y00510233D01*
X00769482Y00512772D01*
X00772021D01*
X00774561Y00510233D01*
Y00505154D01*
X00772021Y00502615D01*
X00766943D01*
X00764404Y00505154D01*
X00779639Y00515311D02*
X00782178Y00517850D01*
X00787257D01*
X00789796Y00515311D01*
Y00505154D01*
X00787257Y00502615D01*
X00782178D01*
X00779639Y00505154D01*
Y00515311D01*
X00794874Y00502615D02*
Y00512772D01*
X00797413D01*
X00799952Y00510233D01*
Y00502615D01*
Y00510233D01*
X00802492Y00512772D01*
X00805031Y00510233D01*
Y00502615D01*
X00810109D02*
X00815188D01*
X00812648D01*
Y00512772D01*
X00810109D01*
X00822805Y00502615D02*
X00827883D01*
X00825344D01*
Y00517850D01*
X00822805D01*
X00736473Y00533095D02*
X00741551D01*
X00739012D01*
Y00548330D01*
X00736473Y00545791D01*
X00749169Y00533095D02*
Y00535634D01*
X00751708D01*
Y00533095D01*
X00749169D01*
X00772021D02*
X00761865D01*
X00772021Y00543252D01*
Y00545791D01*
X00769482Y00548330D01*
X00764404D01*
X00761865Y00545791D01*
X00777100D02*
X00779639Y00548330D01*
X00784717D01*
X00787257Y00545791D01*
Y00535634D01*
X00784717Y00533095D01*
X00779639D01*
X00777100Y00535634D01*
Y00545791D01*
X00792335Y00533095D02*
Y00543252D01*
X00794874D01*
X00797413Y00540713D01*
Y00533095D01*
Y00540713D01*
X00799952Y00543252D01*
X00802492Y00540713D01*
Y00533095D01*
X00807570D02*
X00812648D01*
X00810109D01*
Y00543252D01*
X00807570D01*
X00820266Y00533095D02*
X00825344D01*
X00822805D01*
Y00548330D01*
X00820266D01*
X00736473Y00563575D02*
X00741551D01*
X00739012D01*
Y00578810D01*
X00736473Y00576271D01*
X00759326Y00563575D02*
X00749169D01*
X00759326Y00573732D01*
Y00576271D01*
X00756786Y00578810D01*
X00751708D01*
X00749169Y00576271D01*
X00764404Y00563575D02*
Y00566114D01*
X00766943D01*
Y00563575D01*
X00764404D01*
X00777100Y00576271D02*
X00779639Y00578810D01*
X00784717D01*
X00787257Y00576271D01*
Y00566114D01*
X00784717Y00563575D01*
X00779639D01*
X00777100Y00566114D01*
Y00576271D01*
X00792335D02*
X00794874Y00578810D01*
X00799952D01*
X00802492Y00576271D01*
Y00566114D01*
X00799952Y00563575D01*
X00794874D01*
X00792335Y00566114D01*
Y00576271D01*
X00807570Y00563575D02*
Y00573732D01*
X00810109D01*
X00812648Y00571193D01*
Y00563575D01*
Y00571193D01*
X00815188Y00573732D01*
X00817727Y00571193D01*
Y00563575D01*
X00822805D02*
X00827883D01*
X00825344D01*
Y00573732D01*
X00822805D01*
X00835501Y00563575D02*
X00840579D01*
X00838040D01*
Y00578810D01*
X00835501D01*
X00746630Y00594055D02*
X00736473D01*
X00746630Y00604212D01*
Y00606751D01*
X00744090Y00609290D01*
X00739012D01*
X00736473Y00606751D01*
X00751708Y00594055D02*
Y00596594D01*
X00754247D01*
Y00594055D01*
X00751708D01*
X00772021D02*
Y00609290D01*
X00764404Y00601673D01*
X00774561D01*
X00779639Y00606751D02*
X00782178Y00609290D01*
X00787257D01*
X00789796Y00606751D01*
Y00596594D01*
X00787257Y00594055D01*
X00782178D01*
X00779639Y00596594D01*
Y00606751D01*
X00794874Y00594055D02*
Y00604212D01*
X00797413D01*
X00799952Y00601673D01*
Y00594055D01*
Y00601673D01*
X00802492Y00604212D01*
X00805031Y00601673D01*
Y00594055D01*
X00810109D02*
X00815188D01*
X00812648D01*
Y00604212D01*
X00810109D01*
X00822805Y00594055D02*
X00827883D01*
X00825344D01*
Y00609290D01*
X00822805D01*
X00736473Y00637231D02*
X00739012Y00639770D01*
X00744090D01*
X00746630Y00637231D01*
Y00634692D01*
X00744090Y00632153D01*
X00746630Y00629613D01*
Y00627074D01*
X00744090Y00624535D01*
X00739012D01*
X00736473Y00627074D01*
Y00629613D01*
X00739012Y00632153D01*
X00736473Y00634692D01*
Y00637231D01*
X00739012Y00632153D02*
X00744090D01*
X00751708Y00624535D02*
Y00627074D01*
X00754247D01*
Y00624535D01*
X00751708D01*
X00764404Y00637231D02*
X00766943Y00639770D01*
X00772021D01*
X00774561Y00637231D01*
Y00627074D01*
X00772021Y00624535D01*
X00766943D01*
X00764404Y00627074D01*
Y00637231D01*
X00779639D02*
X00782178Y00639770D01*
X00787257D01*
X00789796Y00637231D01*
Y00627074D01*
X00787257Y00624535D01*
X00782178D01*
X00779639Y00627074D01*
Y00637231D01*
X00794874Y00624535D02*
Y00634692D01*
X00797413D01*
X00799952Y00632153D01*
Y00624535D01*
Y00632153D01*
X00802492Y00634692D01*
X00805031Y00632153D01*
Y00624535D01*
X00810109D02*
X00815188D01*
X00812648D01*
Y00634692D01*
X00810109D01*
X00822805Y00624535D02*
X00827883D01*
X00825344D01*
Y00639770D01*
X00822805D01*
X00746630Y00655015D02*
X00736473D01*
X00746630Y00665172D01*
Y00667711D01*
X00744090Y00670250D01*
X00739012D01*
X00736473Y00667711D01*
X00751708Y00655015D02*
Y00657554D01*
X00754247D01*
Y00655015D01*
X00751708D01*
X00772021D02*
Y00670250D01*
X00764404Y00662633D01*
X00774561D01*
X00779639Y00667711D02*
X00782178Y00670250D01*
X00787257D01*
X00789796Y00667711D01*
Y00657554D01*
X00787257Y00655015D01*
X00782178D01*
X00779639Y00657554D01*
Y00667711D01*
X00794874Y00655015D02*
Y00665172D01*
X00797413D01*
X00799952Y00662633D01*
Y00655015D01*
Y00662633D01*
X00802492Y00665172D01*
X00805031Y00662633D01*
Y00655015D01*
X00810109D02*
X00815188D01*
X00812648D01*
Y00665172D01*
X00810109D01*
X00822805Y00655015D02*
X00827883D01*
X00825344D01*
Y00670250D01*
X00822805D01*
X00736473Y00685495D02*
X00741551D01*
X00739012D01*
Y00700730D01*
X00736473Y00698191D01*
X00759326Y00685495D02*
X00749169D01*
X00759326Y00695652D01*
Y00698191D01*
X00756786Y00700730D01*
X00751708D01*
X00749169Y00698191D01*
X00764404Y00685495D02*
Y00688034D01*
X00766943D01*
Y00685495D01*
X00764404D01*
X00777100Y00698191D02*
X00779639Y00700730D01*
X00784717D01*
X00787257Y00698191D01*
Y00688034D01*
X00784717Y00685495D01*
X00779639D01*
X00777100Y00688034D01*
Y00698191D01*
X00792335D02*
X00794874Y00700730D01*
X00799952D01*
X00802492Y00698191D01*
Y00688034D01*
X00799952Y00685495D01*
X00794874D01*
X00792335Y00688034D01*
Y00698191D01*
X00807570Y00685495D02*
Y00695652D01*
X00810109D01*
X00812648Y00693113D01*
Y00685495D01*
Y00693113D01*
X00815188Y00695652D01*
X00817727Y00693113D01*
Y00685495D01*
X00822805D02*
X00827883D01*
X00825344D01*
Y00695652D01*
X00822805D01*
X00835501Y00685495D02*
X00840579D01*
X00838040D01*
Y00700730D01*
X00835501D01*
X00736473Y00715975D02*
X00741551D01*
X00739012D01*
Y00731210D01*
X00736473Y00728671D01*
X00749169Y00715975D02*
Y00718514D01*
X00751708D01*
Y00715975D01*
X00749169D01*
X00772021D02*
X00761865D01*
X00772021Y00726132D01*
Y00728671D01*
X00769482Y00731210D01*
X00764404D01*
X00761865Y00728671D01*
X00777100D02*
X00779639Y00731210D01*
X00784717D01*
X00787257Y00728671D01*
Y00718514D01*
X00784717Y00715975D01*
X00779639D01*
X00777100Y00718514D01*
Y00728671D01*
X00792335Y00715975D02*
Y00726132D01*
X00794874D01*
X00797413Y00723593D01*
Y00715975D01*
Y00723593D01*
X00799952Y00726132D01*
X00802492Y00723593D01*
Y00715975D01*
X00807570D02*
X00812648D01*
X00810109D01*
Y00726132D01*
X00807570D01*
X00820266Y00715975D02*
X00825344D01*
X00822805D01*
Y00731210D01*
X00820266D01*
X00744090Y00746455D02*
Y00761690D01*
X00736473Y00754073D01*
X00746630D01*
X00751708Y00746455D02*
Y00748994D01*
X00754247D01*
Y00746455D01*
X00751708D01*
X00774561Y00761690D02*
X00764404D01*
Y00754073D01*
X00769482Y00756612D01*
X00772021D01*
X00774561Y00754073D01*
Y00748994D01*
X00772021Y00746455D01*
X00766943D01*
X00764404Y00748994D01*
X00779639Y00759151D02*
X00782178Y00761690D01*
X00787257D01*
X00789796Y00759151D01*
Y00748994D01*
X00787257Y00746455D01*
X00782178D01*
X00779639Y00748994D01*
Y00759151D01*
X00794874Y00746455D02*
Y00756612D01*
X00797413D01*
X00799952Y00754073D01*
Y00746455D01*
Y00754073D01*
X00802492Y00756612D01*
X00805031Y00754073D01*
Y00746455D01*
X00810109D02*
X00815188D01*
X00812648D01*
Y00756612D01*
X00810109D01*
X00822805Y00746455D02*
X00827883D01*
X00825344D01*
Y00761690D01*
X00822805D01*
X00746630Y00776935D02*
X00736473D01*
X00746630Y00787092D01*
Y00789631D01*
X00744090Y00792170D01*
X00739012D01*
X00736473Y00789631D01*
X00751708Y00776935D02*
Y00779474D01*
X00754247D01*
Y00776935D01*
X00751708D01*
X00772021D02*
Y00792170D01*
X00764404Y00784553D01*
X00774561D01*
X00779639Y00789631D02*
X00782178Y00792170D01*
X00787257D01*
X00789796Y00789631D01*
Y00779474D01*
X00787257Y00776935D01*
X00782178D01*
X00779639Y00779474D01*
Y00789631D01*
X00794874Y00776935D02*
Y00787092D01*
X00797413D01*
X00799952Y00784553D01*
Y00776935D01*
Y00784553D01*
X00802492Y00787092D01*
X00805031Y00784553D01*
Y00776935D01*
X00810109D02*
X00815188D01*
X00812648D01*
Y00787092D01*
X00810109D01*
X00822805Y00776935D02*
X00827883D01*
X00825344D01*
Y00792170D01*
X00822805D01*
X00736473Y00820111D02*
X00739012Y00822650D01*
X00744090D01*
X00746630Y00820111D01*
Y00817572D01*
X00744090Y00815033D01*
X00741551D01*
X00744090D01*
X00746630Y00812494D01*
Y00809954D01*
X00744090Y00807415D01*
X00739012D01*
X00736473Y00809954D01*
X00751708Y00807415D02*
Y00809954D01*
X00754247D01*
Y00807415D01*
X00751708D01*
X00764404Y00822650D02*
X00774561D01*
Y00820111D01*
X00764404Y00809954D01*
Y00807415D01*
X00779639Y00820111D02*
X00782178Y00822650D01*
X00787257D01*
X00789796Y00820111D01*
Y00809954D01*
X00787257Y00807415D01*
X00782178D01*
X00779639Y00809954D01*
Y00820111D01*
X00794874Y00807415D02*
Y00817572D01*
X00797413D01*
X00799952Y00815033D01*
Y00807415D01*
Y00815033D01*
X00802492Y00817572D01*
X00805031Y00815033D01*
Y00807415D01*
X00810109D02*
X00815188D01*
X00812648D01*
Y00817572D01*
X00810109D01*
X00822805Y00807415D02*
X00827883D01*
X00825344D01*
Y00822650D01*
X00822805D01*
X00736473Y00837895D02*
X00741551D01*
X00739012D01*
Y00853130D01*
X00736473Y00850591D01*
X00749169Y00837895D02*
Y00840434D01*
X00751708D01*
Y00837895D01*
X00749169D01*
X00761865Y00850591D02*
X00764404Y00853130D01*
X00769482D01*
X00772021Y00850591D01*
Y00848052D01*
X00769482Y00845513D01*
X00766943D01*
X00769482D01*
X00772021Y00842973D01*
Y00840434D01*
X00769482Y00837895D01*
X00764404D01*
X00761865Y00840434D01*
X00777100Y00853130D02*
X00787257D01*
Y00850591D01*
X00777100Y00840434D01*
Y00837895D01*
X00792335D02*
Y00848052D01*
X00794874D01*
X00797413Y00845513D01*
Y00837895D01*
Y00845513D01*
X00799952Y00848052D01*
X00802492Y00845513D01*
Y00837895D01*
X00807570D02*
X00812648D01*
X00810109D01*
Y00848052D01*
X00807570D01*
X00820266Y00837895D02*
X00825344D01*
X00822805D01*
Y00853130D01*
X00820266D01*
X00736473Y00881071D02*
X00739012Y00883610D01*
X00744090D01*
X00746630Y00881071D01*
Y00870914D01*
X00744090Y00868375D01*
X00739012D01*
X00736473Y00870914D01*
Y00881071D01*
X00751708Y00868375D02*
Y00870914D01*
X00754247D01*
Y00868375D01*
X00751708D01*
X00774561Y00883610D02*
X00764404D01*
Y00875993D01*
X00769482Y00878532D01*
X00772021D01*
X00774561Y00875993D01*
Y00870914D01*
X00772021Y00868375D01*
X00766943D01*
X00764404Y00870914D01*
X00779639Y00881071D02*
X00782178Y00883610D01*
X00787257D01*
X00789796Y00881071D01*
Y00870914D01*
X00787257Y00868375D01*
X00782178D01*
X00779639Y00870914D01*
Y00881071D01*
X00794874Y00868375D02*
Y00878532D01*
X00797413D01*
X00799952Y00875993D01*
Y00868375D01*
Y00875993D01*
X00802492Y00878532D01*
X00805031Y00875993D01*
Y00868375D01*
X00810109D02*
X00815188D01*
X00812648D01*
Y00878532D01*
X00810109D01*
X00822805Y00868375D02*
X00827883D01*
X00825344D01*
Y00883610D01*
X00822805D01*
X00911688Y00942031D02*
X00909149Y00944570D01*
X00904070D01*
X00901531Y00942031D01*
Y00931874D01*
X00904070Y00929335D01*
X00909149D01*
X00911688Y00931874D01*
X00919305Y00929335D02*
X00924384D01*
X00926923Y00931874D01*
Y00936953D01*
X00924384Y00939492D01*
X00919305D01*
X00916766Y00936953D01*
Y00931874D01*
X00919305Y00929335D01*
X00932001D02*
Y00939492D01*
X00939619D01*
X00942158Y00936953D01*
Y00929335D01*
X00947236D02*
X00954854D01*
X00957393Y00931874D01*
X00954854Y00934414D01*
X00949775D01*
X00947236Y00936953D01*
X00949775Y00939492D01*
X00957393D01*
X00965011Y00942031D02*
Y00939492D01*
X00962471D01*
X00967550D01*
X00965011D01*
Y00931874D01*
X00967550Y00929335D01*
X00977707Y00939492D02*
X00982785D01*
X00985324Y00936953D01*
Y00929335D01*
X00977707D01*
X00975167Y00931874D01*
X00977707Y00934414D01*
X00985324D01*
X00990402Y00929335D02*
Y00939492D01*
X00998020D01*
X01000559Y00936953D01*
Y00929335D01*
X01008177Y00942031D02*
Y00939492D01*
X01005637D01*
X01010716D01*
X01008177D01*
Y00931874D01*
X01010716Y00929335D01*
X00901531Y00393391D02*
X00904070Y00395930D01*
X00909149D01*
X00911688Y00393391D01*
Y00390852D01*
X00909149Y00388313D01*
X00906609D01*
X00909149D01*
X00911688Y00385774D01*
Y00383234D01*
X00909149Y00380695D01*
X00904070D01*
X00901531Y00383234D01*
X00916766Y00380695D02*
Y00383234D01*
X00919305D01*
Y00380695D01*
X00916766D01*
X00939619Y00395930D02*
X00929462D01*
Y00388313D01*
X00934540Y00390852D01*
X00937080D01*
X00939619Y00388313D01*
Y00383234D01*
X00937080Y00380695D01*
X00932001D01*
X00929462Y00383234D01*
X00909149Y00441655D02*
Y00456890D01*
X00901531Y00449273D01*
X00911688D01*
X00916766Y00441655D02*
Y00444194D01*
X00919305D01*
Y00441655D01*
X00916766D01*
X00939619D02*
X00929462D01*
X00939619Y00451812D01*
Y00454351D01*
X00937080Y00456890D01*
X00932001D01*
X00929462Y00454351D01*
X00909149Y00502615D02*
Y00517850D01*
X00901531Y00510233D01*
X00911688D01*
X00916766Y00502615D02*
Y00505154D01*
X00919305D01*
Y00502615D01*
X00916766D01*
X00939619D02*
X00929462D01*
X00939619Y00512772D01*
Y00515311D01*
X00937080Y00517850D01*
X00932001D01*
X00929462Y00515311D01*
X00909149Y00563575D02*
Y00578810D01*
X00901531Y00571193D01*
X00911688D01*
X00916766Y00563575D02*
Y00566114D01*
X00919305D01*
Y00563575D01*
X00916766D01*
X00939619D02*
X00929462D01*
X00939619Y00573732D01*
Y00576271D01*
X00937080Y00578810D01*
X00932001D01*
X00929462Y00576271D01*
X00909149Y00624535D02*
Y00639770D01*
X00901531Y00632153D01*
X00911688D01*
X00916766Y00624535D02*
Y00627074D01*
X00919305D01*
Y00624535D01*
X00916766D01*
X00939619D02*
X00929462D01*
X00939619Y00634692D01*
Y00637231D01*
X00937080Y00639770D01*
X00932001D01*
X00929462Y00637231D01*
X00909149Y00685495D02*
Y00700730D01*
X00901531Y00693113D01*
X00911688D01*
X00916766Y00685495D02*
Y00688034D01*
X00919305D01*
Y00685495D01*
X00916766D01*
X00939619D02*
X00929462D01*
X00939619Y00695652D01*
Y00698191D01*
X00937080Y00700730D01*
X00932001D01*
X00929462Y00698191D01*
X00909149Y00746455D02*
Y00761690D01*
X00901531Y00754073D01*
X00911688D01*
X00916766Y00746455D02*
Y00748994D01*
X00919305D01*
Y00746455D01*
X00916766D01*
X00939619D02*
X00929462D01*
X00939619Y00756612D01*
Y00759151D01*
X00937080Y00761690D01*
X00932001D01*
X00929462Y00759151D01*
X00909149Y00807415D02*
Y00822650D01*
X00901531Y00815033D01*
X00911688D01*
X00916766Y00807415D02*
Y00809954D01*
X00919305D01*
Y00807415D01*
X00916766D01*
X00939619D02*
X00929462D01*
X00939619Y00817572D01*
Y00820111D01*
X00937080Y00822650D01*
X00932001D01*
X00929462Y00820111D01*
X00901531Y00881071D02*
X00904070Y00883610D01*
X00909149D01*
X00911688Y00881071D01*
Y00878532D01*
X00909149Y00875993D01*
X00906609D01*
X00909149D01*
X00911688Y00873454D01*
Y00870914D01*
X00909149Y00868375D01*
X00904070D01*
X00901531Y00870914D01*
X00916766Y00868375D02*
Y00870914D01*
X00919305D01*
Y00868375D01*
X00916766D01*
X00939619Y00883610D02*
X00929462D01*
Y00875993D01*
X00934540Y00878532D01*
X00937080D01*
X00939619Y00875993D01*
Y00870914D01*
X00937080Y00868375D01*
X00932001D01*
X00929462Y00870914D01*
X01046276Y00944570D02*
Y00929335D01*
X01053893D01*
X01056432Y00931874D01*
Y00934414D01*
X01053893Y00936953D01*
X01046276D01*
X01053893D01*
X01056432Y00939492D01*
Y00942031D01*
X01053893Y00944570D01*
X01046276D01*
X01064050Y00929335D02*
X01069128D01*
X01071668Y00931874D01*
Y00936953D01*
X01069128Y00939492D01*
X01064050D01*
X01061511Y00936953D01*
Y00931874D01*
X01064050Y00929335D01*
X01079285Y00939492D02*
X01084363D01*
X01086903Y00936953D01*
Y00929335D01*
X01079285D01*
X01076746Y00931874D01*
X01079285Y00934414D01*
X01086903D01*
X01091981Y00939492D02*
Y00929335D01*
Y00934414D01*
X01094520Y00936953D01*
X01097059Y00939492D01*
X01099598D01*
X01117373Y00944570D02*
Y00929335D01*
X01109755D01*
X01107216Y00931874D01*
Y00936953D01*
X01109755Y00939492D01*
X01117373D01*
X01137686Y00944570D02*
Y00929335D01*
X01147843D01*
X01155461Y00939492D02*
X01160539D01*
X01163078Y00936953D01*
Y00929335D01*
X01155461D01*
X01152921Y00931874D01*
X01155461Y00934414D01*
X01163078D01*
X01168156Y00939492D02*
Y00931874D01*
X01170696Y00929335D01*
X01178313D01*
Y00926796D01*
X01175774Y00924257D01*
X01173235D01*
X01178313Y00929335D02*
Y00939492D01*
X01191009Y00929335D02*
X01185931D01*
X01183391Y00931874D01*
Y00936953D01*
X01185931Y00939492D01*
X01191009D01*
X01193548Y00936953D01*
Y00934414D01*
X01183391D01*
X01198626Y00939492D02*
Y00929335D01*
Y00934414D01*
X01201166Y00936953D01*
X01203705Y00939492D01*
X01206244D01*
X01239253Y00942031D02*
X01236714Y00944570D01*
X01231636D01*
X01229097Y00942031D01*
Y00939492D01*
X01231636Y00936953D01*
X01236714D01*
X01239253Y00934414D01*
Y00931874D01*
X01236714Y00929335D01*
X01231636D01*
X01229097Y00931874D01*
X01246871Y00942031D02*
Y00939492D01*
X01244332D01*
X01249410D01*
X01246871D01*
Y00931874D01*
X01249410Y00929335D01*
X01259567Y00939492D02*
X01264645D01*
X01267184Y00936953D01*
Y00929335D01*
X01259567D01*
X01257028Y00931874D01*
X01259567Y00934414D01*
X01267184D01*
X01282419Y00939492D02*
X01274802D01*
X01272263Y00936953D01*
Y00931874D01*
X01274802Y00929335D01*
X01282419D01*
X01287498D02*
Y00944570D01*
Y00934414D02*
X01295115Y00939492D01*
X01287498Y00934414D02*
X01295115Y00929335D01*
X01263777Y00208195D02*
Y00259842D01*
X01050417Y00208195D02*
Y00259842D01*
X00102489Y00208195D02*
X01779397D01*
X00102489Y00156549D02*
X01778889D01*
X00102489Y00104902D02*
X01119759D01*
X00102616Y00259842D02*
X01779397D01*
X00102616Y00104902D02*
Y00259842D01*
Y00104902D02*
X00502793D01*
X00102489D02*
Y00259842D01*
X00728599Y00104902D02*
Y00259842D01*
X01779397Y00104902D02*
Y00259842D01*
X01119759Y00104902D02*
X01779397D01*
X01421765Y00103251D02*
Y00154771D01*
G54D25*
X00322326Y00171579D02*
Y00186814D01*
X00327404Y00181735D01*
X00332483Y00186814D01*
Y00171579D01*
X00337561D02*
X00342639D01*
X00340100D01*
Y00186814D01*
X00337561Y00184275D01*
X00360414Y00171579D02*
X00350257D01*
X00360414Y00181735D01*
Y00184275D01*
X00357874Y00186814D01*
X00352796D01*
X00350257Y00184275D01*
X00390884D02*
X00388345Y00186814D01*
X00383266D01*
X00380727Y00184275D01*
Y00181735D01*
X00383266Y00179196D01*
X00388345D01*
X00390884Y00176657D01*
Y00174118D01*
X00388345Y00171579D01*
X00383266D01*
X00380727Y00174118D01*
X00398501Y00184275D02*
Y00181735D01*
X00395962D01*
X00401040D01*
X00398501D01*
Y00174118D01*
X00401040Y00171579D01*
X00411197Y00181735D02*
X00416276D01*
X00418815Y00179196D01*
Y00171579D01*
X00411197D01*
X00408658Y00174118D01*
X00411197Y00176657D01*
X00418815D01*
X00434050Y00181735D02*
X00426432D01*
X00423893Y00179196D01*
Y00174118D01*
X00426432Y00171579D01*
X00434050D01*
X00439128D02*
Y00186814D01*
Y00176657D02*
X00446746Y00181735D01*
X00439128Y00176657D02*
X00446746Y00171579D01*
X00454363Y00181735D02*
Y00174118D01*
X00456903Y00171579D01*
X00464520D01*
Y00181735D01*
X00469598Y00166500D02*
Y00181735D01*
X00477216D01*
X00479755Y00179196D01*
Y00174118D01*
X00477216Y00171579D01*
X00469598D01*
X01441196Y00223097D02*
Y00238332D01*
X01451353Y00223097D01*
Y00238332D01*
X01458970Y00223097D02*
X01464049D01*
X01466588Y00225636D01*
Y00230714D01*
X01464049Y00233253D01*
X01458970D01*
X01456431Y00230714D01*
Y00225636D01*
X01458970Y00223097D01*
X01474205Y00235793D02*
Y00233253D01*
X01471666D01*
X01476745D01*
X01474205D01*
Y00225636D01*
X01476745Y00223097D01*
X01499597Y00238332D02*
X01504675D01*
X01502136D01*
Y00223097D01*
X01499597D01*
X01504675D01*
X01512293D02*
Y00233253D01*
X01519910D01*
X01522450Y00230714D01*
Y00223097D01*
X01542763Y00238332D02*
Y00228175D01*
X01547841Y00223097D01*
X01552920Y00228175D01*
Y00238332D01*
X01565616Y00223097D02*
X01560537D01*
X01557998Y00225636D01*
Y00230714D01*
X01560537Y00233253D01*
X01565616D01*
X01568155Y00230714D01*
Y00228175D01*
X01557998D01*
X01573233Y00233253D02*
Y00223097D01*
Y00228175D01*
X01575773Y00230714D01*
X01578312Y00233253D01*
X01580851D01*
X01588468Y00223097D02*
X01596086D01*
X01598625Y00225636D01*
X01596086Y00228175D01*
X01591008D01*
X01588468Y00230714D01*
X01591008Y00233253D01*
X01598625D01*
X01603703Y00223097D02*
X01608782D01*
X01606243D01*
Y00233253D01*
X01603703D01*
X01618938Y00223097D02*
X01624017D01*
X01626556Y00225636D01*
Y00230714D01*
X01624017Y00233253D01*
X01618938D01*
X01616399Y00230714D01*
Y00225636D01*
X01618938Y00223097D01*
X01631634D02*
Y00233253D01*
X01639252D01*
X01641791Y00230714D01*
Y00223097D01*
X01657026Y00235793D02*
X01654487Y00238332D01*
X01649409D01*
X01646870Y00235793D01*
Y00225636D01*
X01649409Y00223097D01*
X01654487D01*
X01657026Y00225636D01*
X01664644Y00223097D02*
X01669722D01*
X01672261Y00225636D01*
Y00230714D01*
X01669722Y00233253D01*
X01664644D01*
X01662104Y00230714D01*
Y00225636D01*
X01664644Y00223097D01*
X01677340D02*
Y00233253D01*
X01684957D01*
X01687496Y00230714D01*
Y00223097D01*
X01695114Y00235793D02*
Y00233253D01*
X01692575D01*
X01697653D01*
X01695114D01*
Y00225636D01*
X01697653Y00223097D01*
X01705271Y00233253D02*
Y00223097D01*
Y00228175D01*
X01707810Y00230714D01*
X01710349Y00233253D01*
X01712888D01*
X01723045Y00223097D02*
X01728123D01*
X01730662Y00225636D01*
Y00230714D01*
X01728123Y00233253D01*
X01723045D01*
X01720506Y00230714D01*
Y00225636D01*
X01723045Y00223097D01*
X01735741D02*
X01740819D01*
X01738280D01*
Y00238332D01*
X01735741D01*
X01322829Y00235793D02*
X01320289Y00238332D01*
X01315211D01*
X01312672Y00235793D01*
Y00233253D01*
X01315211Y00230714D01*
X01320289D01*
X01322829Y00228175D01*
Y00225636D01*
X01320289Y00223097D01*
X01315211D01*
X01312672Y00225636D01*
X01327907Y00238332D02*
Y00228175D01*
X01332985Y00223097D01*
X01338064Y00228175D01*
Y00238332D01*
X01343142Y00223097D02*
Y00238332D01*
X01353299Y00223097D01*
Y00238332D01*
X01373612Y00223097D02*
Y00238332D01*
X01381230D01*
X01383769Y00235793D01*
Y00230714D01*
X01381230Y00228175D01*
X01373612D01*
X01378691D02*
X01383769Y00223097D01*
X01399004Y00238332D02*
X01388847D01*
Y00223097D01*
X01399004D01*
X01388847Y00230714D02*
X01393926D01*
X01404082Y00238332D02*
Y00228175D01*
X01409161Y00223097D01*
X01414239Y00228175D01*
Y00238332D01*
X01419317Y00233253D02*
X01421857D01*
Y00230714D01*
X01419317D01*
Y00233253D01*
Y00225636D02*
X01421857D01*
Y00223097D01*
X01419317D01*
Y00225636D01*
X01099820Y00223097D02*
Y00238332D01*
X01107438D01*
X01109977Y00235793D01*
Y00230714D01*
X01107438Y00228175D01*
X01099820D01*
X01104898D02*
X01109977Y00223097D01*
X01125212Y00238332D02*
X01115055D01*
Y00223097D01*
X01125212D01*
X01115055Y00230714D02*
X01120133D01*
X01130290Y00238332D02*
Y00228175D01*
X01135368Y00223097D01*
X01140447Y00228175D01*
Y00238332D01*
X01145525Y00233253D02*
X01148064D01*
Y00230714D01*
X01145525D01*
Y00233253D01*
Y00225636D02*
X01148064D01*
Y00223097D01*
X01145525D01*
Y00225636D01*
X00322326Y00119295D02*
Y00134530D01*
X00329944D01*
X00332483Y00131991D01*
Y00126912D01*
X00329944Y00124373D01*
X00322326D01*
X00337561Y00119295D02*
Y00134530D01*
X00345179D01*
X00347718Y00131991D01*
Y00126912D01*
X00345179Y00124373D01*
X00337561D01*
X00342639D02*
X00347718Y00119295D01*
X00360414Y00134530D02*
X00355335D01*
X00352796Y00131991D01*
Y00121834D01*
X00355335Y00119295D01*
X00360414D01*
X00362953Y00121834D01*
Y00131991D01*
X00360414Y00134530D01*
X00378188Y00131991D02*
X00375649Y00134530D01*
X00370570D01*
X00368031Y00131991D01*
Y00121834D01*
X00370570Y00119295D01*
X00375649D01*
X00378188Y00121834D01*
X00383266Y00131991D02*
X00385806Y00134530D01*
X00390884D01*
X00393423Y00131991D01*
Y00121834D01*
X00390884Y00119295D01*
X00385806D01*
X00383266Y00121834D01*
Y00131991D01*
X00398501Y00121834D02*
X00401040Y00119295D01*
X00406119D01*
X00408658Y00121834D01*
Y00131991D01*
X00406119Y00134530D01*
X00401040D01*
X00398501Y00131991D01*
Y00129452D01*
X00401040Y00126912D01*
X00408658D01*
X00413736Y00119295D02*
X00418815D01*
X00416276D01*
Y00134530D01*
X00413736Y00131991D01*
X00436589Y00134530D02*
X00426432D01*
Y00126912D01*
X00431511D01*
X00426432D01*
Y00119295D01*
X00441667D02*
Y00121834D01*
X00444207D01*
Y00119295D01*
X00441667D01*
X00464520Y00131991D02*
X00461981Y00134530D01*
X00456903D01*
X00454363Y00131991D01*
Y00121834D01*
X00456903Y00119295D01*
X00461981D01*
X00464520Y00121834D01*
Y00126912D01*
X00459442D01*
X00469598Y00119295D02*
Y00134530D01*
X00474677Y00129452D01*
X00479755Y00134530D01*
Y00119295D01*
X00484833D02*
X00489912D01*
X00487373D01*
Y00134530D01*
X00484833Y00131991D01*
X00507686Y00119295D02*
X00497529D01*
X00507686Y00129452D01*
Y00131991D01*
X00505147Y00134530D01*
X00500069D01*
X00497529Y00131991D01*
X00968121Y00119295D02*
X00973199D01*
X00970660D01*
Y00134530D01*
X00968121Y00131991D01*
X00980817Y00119295D02*
X00985895D01*
X00983356D01*
Y00134530D01*
X00980817Y00131991D01*
X00993513Y00126912D02*
X01003670D01*
X01008748Y00119295D02*
X01013826D01*
X01011287D01*
Y00134530D01*
X01008748Y00131991D01*
X01021444Y00119295D02*
X01026522D01*
X01023983D01*
Y00134530D01*
X01021444Y00131991D01*
X01034140Y00126912D02*
X01044296D01*
X01059531Y00119295D02*
X01049375D01*
X01059531Y00129452D01*
Y00131991D01*
X01056992Y00134530D01*
X01051914D01*
X01049375Y00131991D01*
X01064610D02*
X01067149Y00134530D01*
X01072227D01*
X01074766Y00131991D01*
Y00121834D01*
X01072227Y00119295D01*
X01067149D01*
X01064610Y00121834D01*
Y00131991D01*
X01090002Y00119295D02*
X01079845D01*
X01090002Y00129452D01*
Y00131991D01*
X01087462Y00134530D01*
X01082384D01*
X01079845Y00131991D01*
X01095080D02*
X01097619Y00134530D01*
X01102697D01*
X01105237Y00131991D01*
Y00121834D01*
X01102697Y00119295D01*
X01097619D01*
X01095080Y00121834D01*
Y00131991D01*
X00757425D02*
X00754885Y00134530D01*
X00749807D01*
X00747268Y00131991D01*
Y00121834D01*
X00749807Y00119295D01*
X00754885D01*
X00757425Y00121834D01*
Y00126912D01*
X00752346D01*
X00772660Y00134530D02*
X00762503D01*
Y00119295D01*
X00772660D01*
X00762503Y00126912D02*
X00767581D01*
X00777738Y00119295D02*
Y00134530D01*
X00787895Y00119295D01*
Y00134530D01*
X00803130D02*
X00792973D01*
Y00119295D01*
X00803130D01*
X00792973Y00126912D02*
X00798052D01*
X00808208Y00119295D02*
Y00134530D01*
X00815826D01*
X00818365Y00131991D01*
Y00126912D01*
X00815826Y00124373D01*
X00808208D01*
X00813287D02*
X00818365Y00119295D01*
X00823443D02*
Y00129452D01*
X00828522Y00134530D01*
X00833600Y00129452D01*
Y00119295D01*
Y00126912D01*
X00823443D01*
X00838678Y00134530D02*
X00848835D01*
X00843757D01*
Y00119295D01*
X00864070Y00134530D02*
X00853913D01*
Y00119295D01*
X00864070D01*
X00853913Y00126912D02*
X00858992D01*
X00869149Y00134530D02*
Y00119295D01*
X00876766D01*
X00879305Y00121834D01*
Y00131991D01*
X00876766Y00134530D01*
X00869149D01*
X00945324Y00129452D02*
X00947863D01*
Y00126912D01*
X00945324D01*
Y00129452D01*
Y00121834D02*
X00947863D01*
Y00119295D01*
X00945324D01*
Y00121834D01*
X00117729Y00223097D02*
Y00233253D01*
X00122807Y00238332D01*
X00127886Y00233253D01*
Y00223097D01*
Y00230714D01*
X00117729D01*
X00132964Y00238332D02*
Y00223097D01*
X00143121D01*
X00148199Y00238332D02*
Y00223097D01*
X00158356D01*
X00178669D02*
Y00233253D01*
X00183748Y00238332D01*
X00188826Y00233253D01*
Y00223097D01*
Y00230714D01*
X00178669D01*
X00193904Y00223097D02*
Y00238332D01*
X00201522D01*
X00204061Y00235793D01*
Y00230714D01*
X00201522Y00228175D01*
X00193904D01*
X00198983D02*
X00204061Y00223097D01*
X00209139Y00238332D02*
X00219296D01*
X00214218D01*
Y00223097D01*
X00224375Y00238332D02*
Y00223097D01*
X00229453Y00228175D01*
X00234531Y00223097D01*
Y00238332D01*
X00247227D02*
X00242149D01*
X00239610Y00235793D01*
Y00225636D01*
X00242149Y00223097D01*
X00247227D01*
X00249766Y00225636D01*
Y00235793D01*
X00247227Y00238332D01*
X00254845Y00223097D02*
Y00238332D01*
X00262462D01*
X00265001Y00235793D01*
Y00230714D01*
X00262462Y00228175D01*
X00254845D01*
X00259923D02*
X00265001Y00223097D01*
X00270080Y00238332D02*
Y00223097D01*
Y00228175D01*
X00280236Y00238332D01*
X00272619Y00230714D01*
X00280236Y00223097D01*
X00300550Y00238332D02*
Y00228175D01*
X00305628Y00223097D01*
X00310707Y00228175D01*
Y00238332D01*
X00315785D02*
X00320863D01*
X00318324D01*
Y00223097D01*
X00315785D01*
X00320863D01*
X00338638Y00238332D02*
X00328481D01*
Y00223097D01*
X00338638D01*
X00328481Y00230714D02*
X00333559D01*
X00343716Y00238332D02*
Y00223097D01*
X00348794Y00228175D01*
X00353873Y00223097D01*
Y00238332D01*
X00369108D02*
X00358951D01*
Y00223097D01*
X00369108D01*
X00358951Y00230714D02*
X00364029D01*
X00374186Y00238332D02*
Y00223097D01*
X00381804D01*
X00384343Y00225636D01*
Y00235793D01*
X00381804Y00238332D01*
X00374186D01*
X00414813D02*
X00404656D01*
Y00230714D01*
X00409734D01*
X00404656D01*
Y00223097D01*
X00419891D02*
Y00238332D01*
X00427509D01*
X00430048Y00235793D01*
Y00230714D01*
X00427509Y00228175D01*
X00419891D01*
X00424970D02*
X00430048Y00223097D01*
X00442744Y00238332D02*
X00437665D01*
X00435126Y00235793D01*
Y00225636D01*
X00437665Y00223097D01*
X00442744D01*
X00445283Y00225636D01*
Y00235793D01*
X00442744Y00238332D01*
X00450361Y00223097D02*
Y00238332D01*
X00455440Y00233253D01*
X00460518Y00238332D01*
Y00223097D01*
X00480832Y00238332D02*
X00490988D01*
X00485910D01*
Y00223097D01*
X00503684Y00238332D02*
X00498606D01*
X00496067Y00235793D01*
Y00225636D01*
X00498606Y00223097D01*
X00503684D01*
X00506223Y00225636D01*
Y00235793D01*
X00503684Y00238332D01*
X00511302Y00223097D02*
Y00238332D01*
X00518919D01*
X00521458Y00235793D01*
Y00230714D01*
X00518919Y00228175D01*
X00511302D01*
X00551929Y00235793D02*
X00549389Y00238332D01*
X00544311D01*
X00541772Y00235793D01*
Y00233253D01*
X00544311Y00230714D01*
X00549389D01*
X00551929Y00228175D01*
Y00225636D01*
X00549389Y00223097D01*
X00544311D01*
X00541772Y00225636D01*
X00557007Y00238332D02*
X00562085D01*
X00559546D01*
Y00223097D01*
X00557007D01*
X00562085D01*
X00569703Y00238332D02*
Y00223097D01*
X00577320D01*
X00579860Y00225636D01*
Y00235793D01*
X00577320Y00238332D01*
X00569703D01*
X00595095D02*
X00584938D01*
Y00223097D01*
X00595095D01*
X00584938Y00230714D02*
X00590016D01*
X01184018Y00238332D02*
X01173861D01*
Y00230714D01*
X01178939D01*
X01173861D01*
Y00223097D01*
X00885317D02*
Y00238332D01*
X00892934D01*
X00895474Y00235793D01*
Y00230714D01*
X00892934Y00228175D01*
X00885317D01*
X00900552Y00223097D02*
Y00238332D01*
X00908170D01*
X00910709Y00235793D01*
Y00230714D01*
X00908170Y00228175D01*
X00900552D01*
X00905630D02*
X00910709Y00223097D01*
X00923405Y00238332D02*
X00918326D01*
X00915787Y00235793D01*
Y00225636D01*
X00918326Y00223097D01*
X00923405D01*
X00925944Y00225636D01*
Y00235793D01*
X00923405Y00238332D01*
X00941179Y00235793D02*
X00938640Y00238332D01*
X00933561D01*
X00931022Y00235793D01*
Y00225636D01*
X00933561Y00223097D01*
X00938640D01*
X00941179Y00225636D01*
X00946257Y00235793D02*
X00948796Y00238332D01*
X00953875D01*
X00956414Y00235793D01*
Y00225636D01*
X00953875Y00223097D01*
X00948796D01*
X00946257Y00225636D01*
Y00235793D01*
X00961492Y00225636D02*
X00964032Y00223097D01*
X00969110D01*
X00971649Y00225636D01*
Y00235793D01*
X00969110Y00238332D01*
X00964032D01*
X00961492Y00235793D01*
Y00233253D01*
X00964032Y00230714D01*
X00971649D01*
X00976727Y00223097D02*
X00981806D01*
X00979267D01*
Y00238332D01*
X00976727Y00235793D01*
X00746760Y00238332D02*
Y00223097D01*
X00754378D01*
X00756917Y00225636D01*
Y00228175D01*
X00754378Y00230714D01*
X00746760D01*
X00754378D01*
X00756917Y00233253D01*
Y00235793D01*
X00754378Y00238332D01*
X00746760D01*
X00769613D02*
X00764534D01*
X00761995Y00235793D01*
Y00225636D01*
X00764534Y00223097D01*
X00769613D01*
X00772152Y00225636D01*
Y00235793D01*
X00769613Y00238332D01*
X00777230Y00223097D02*
Y00233253D01*
X00782309Y00238332D01*
X00787387Y00233253D01*
Y00223097D01*
Y00230714D01*
X00777230D01*
X00792465Y00223097D02*
Y00238332D01*
X00800083D01*
X00802622Y00235793D01*
Y00230714D01*
X00800083Y00228175D01*
X00792465D01*
X00797544D02*
X00802622Y00223097D01*
X00807700Y00238332D02*
Y00223097D01*
X00815318D01*
X00817857Y00225636D01*
Y00235793D01*
X00815318Y00238332D01*
X00807700D01*
X00840710Y00223097D02*
Y00238332D01*
X00845788D02*
Y00223097D01*
X00838170Y00233253D02*
X00845788D01*
X00848327D01*
X00838170Y00228175D02*
X00848327D01*
X00853406Y00233253D02*
X00855945D01*
Y00230714D01*
X00853406D01*
Y00233253D01*
Y00225636D02*
X00855945D01*
Y00223097D01*
X00853406D01*
Y00225636D01*
X00117729Y00186814D02*
Y00171579D01*
X00127886D01*
X00132964D02*
Y00181735D01*
X00138042Y00186814D01*
X00143121Y00181735D01*
Y00171579D01*
Y00179196D01*
X00132964D01*
X00148199Y00186814D02*
Y00184275D01*
X00153278Y00179196D01*
X00158356Y00184275D01*
Y00186814D01*
X00153278Y00179196D02*
Y00171579D01*
X00173591Y00186814D02*
X00163434D01*
Y00171579D01*
X00173591D01*
X00163434Y00179196D02*
X00168513D01*
X00178669Y00171579D02*
Y00186814D01*
X00186287D01*
X00188826Y00184275D01*
Y00179196D01*
X00186287Y00176657D01*
X00178669D01*
X00183748D02*
X00188826Y00171579D01*
X00209139D02*
Y00186814D01*
X00219296Y00171579D01*
Y00186814D01*
X00224375Y00171579D02*
Y00181735D01*
X00229453Y00186814D01*
X00234531Y00181735D01*
Y00171579D01*
Y00179196D01*
X00224375D01*
X00239610Y00171579D02*
Y00186814D01*
X00244688Y00181735D01*
X00249766Y00186814D01*
Y00171579D01*
X00265001Y00186814D02*
X00254845D01*
Y00171579D01*
X00265001D01*
X00254845Y00179196D02*
X00259923D01*
X00285315Y00176657D02*
X00295471D01*
X00285315Y00181735D02*
X00295471D01*
X00117729Y00119295D02*
Y00134530D01*
X00125346D01*
X00127886Y00131991D01*
Y00126912D01*
X00125346Y00124373D01*
X00117729D01*
X00132964Y00134530D02*
Y00119295D01*
X00143121D01*
X00155817Y00134530D02*
X00150738D01*
X00148199Y00131991D01*
Y00121834D01*
X00150738Y00119295D01*
X00155817D01*
X00158356Y00121834D01*
Y00131991D01*
X00155817Y00134530D01*
X00163434D02*
X00173591D01*
X00168513D01*
Y00119295D01*
X00193904D02*
Y00134530D01*
X00204061Y00119295D01*
Y00134530D01*
X00209139Y00119295D02*
Y00129452D01*
X00214218Y00134530D01*
X00219296Y00129452D01*
Y00119295D01*
Y00126912D01*
X00209139D01*
X00224375Y00119295D02*
Y00134530D01*
X00229453Y00129452D01*
X00234531Y00134530D01*
Y00119295D01*
X00249766Y00134530D02*
X00239610D01*
Y00119295D01*
X00249766D01*
X00239610Y00126912D02*
X00244688D01*
X00270080Y00124373D02*
X00280236D01*
X00270080Y00129452D02*
X00280236D01*
X01163444Y00119295D02*
X01153287D01*
X01163444Y00129452D01*
Y00131991D01*
X01160904Y00134530D01*
X01155826D01*
X01153287Y00131991D01*
X01168522D02*
X01171061Y00134530D01*
X01176140D01*
X01178679Y00131991D01*
Y00121834D01*
X01176140Y00119295D01*
X01171061D01*
X01168522Y00121834D01*
Y00131991D01*
X01183757Y00129452D02*
X01186296D01*
Y00126912D01*
X01183757D01*
Y00129452D01*
Y00121834D02*
X01186296D01*
Y00119295D01*
X01183757D01*
Y00121834D01*
X01206610Y00119295D02*
X01196453D01*
X01206610Y00129452D01*
Y00131991D01*
X01204071Y00134530D01*
X01198992D01*
X01196453Y00131991D01*
X01211688Y00121834D02*
X01214227Y00119295D01*
X01219306D01*
X01221845Y00121834D01*
Y00131991D01*
X01219306Y00134530D01*
X01214227D01*
X01211688Y00131991D01*
Y00129452D01*
X01214227Y00126912D01*
X01221845D01*
X01226923Y00129452D02*
X01229462D01*
Y00126912D01*
X01226923D01*
Y00129452D01*
Y00121834D02*
X01229462D01*
Y00119295D01*
X01226923D01*
Y00121834D01*
X01247237Y00119295D02*
Y00134530D01*
X01239619Y00126912D01*
X01249776D01*
X01262472Y00119295D02*
Y00134530D01*
X01254854Y00126912D01*
X01265011D01*
X01474470Y00134530D02*
X01484627D01*
X01479548D01*
Y00119295D01*
X01499862Y00134530D02*
X01489705D01*
Y00119295D01*
X01499862D01*
X01489705Y00126912D02*
X01494783D01*
X01504940Y00134530D02*
X01515097Y00119295D01*
Y00134530D02*
X01504940Y00119295D01*
X01520175D02*
Y00129452D01*
X01525254Y00134530D01*
X01530332Y00129452D01*
Y00119295D01*
Y00126912D01*
X01520175D01*
X01545567Y00131991D02*
X01543028Y00134530D01*
X01537950D01*
X01535410Y00131991D01*
Y00129452D01*
X01537950Y00126912D01*
X01543028D01*
X01545567Y00124373D01*
Y00121834D01*
X01543028Y00119295D01*
X01537950D01*
X01535410Y00121834D01*
X01565880Y00134530D02*
X01570959D01*
X01568420D01*
Y00119295D01*
X01565880D01*
X01570959D01*
X01578576D02*
Y00134530D01*
X01588733Y00119295D01*
Y00134530D01*
X01603968Y00131991D02*
X01601429Y00134530D01*
X01596351D01*
X01593811Y00131991D01*
Y00129452D01*
X01596351Y00126912D01*
X01601429D01*
X01603968Y00124373D01*
Y00121834D01*
X01601429Y00119295D01*
X01596351D01*
X01593811Y00121834D01*
X01609046Y00134530D02*
X01619203D01*
X01614125D01*
Y00119295D01*
X01624281D02*
Y00134530D01*
X01631899D01*
X01634438Y00131991D01*
Y00126912D01*
X01631899Y00124373D01*
X01624281D01*
X01629360D02*
X01634438Y00119295D01*
X01639517Y00134530D02*
Y00121834D01*
X01642056Y00119295D01*
X01647134D01*
X01649673Y00121834D01*
Y00134530D01*
X01654752Y00119295D02*
Y00134530D01*
X01659830Y00129452D01*
X01664908Y00134530D01*
Y00119295D01*
X01680143Y00134530D02*
X01669987D01*
Y00119295D01*
X01680143D01*
X01669987Y00126912D02*
X01675065D01*
X01685222Y00119295D02*
Y00134530D01*
X01695379Y00119295D01*
Y00134530D01*
X01700457D02*
X01710614D01*
X01705535D01*
Y00119295D01*
X01725849Y00131991D02*
X01723309Y00134530D01*
X01718231D01*
X01715692Y00131991D01*
Y00129452D01*
X01718231Y00126912D01*
X01723309D01*
X01725849Y00124373D01*
Y00121834D01*
X01723309Y00119295D01*
X01718231D01*
X01715692Y00121834D01*
X00746760Y00186685D02*
X00756917D01*
X00751838D01*
Y00171450D01*
X00761995Y00186685D02*
X00767073D01*
X00764534D01*
Y00171450D01*
X00761995D01*
X00767073D01*
X00774691Y00186685D02*
Y00171450D01*
X00782309D01*
X00784848Y00173989D01*
Y00184146D01*
X00782309Y00186685D01*
X00774691D01*
X00807700Y00171450D02*
Y00186685D01*
X00812779D02*
Y00171450D01*
X00805161Y00181607D02*
X00812779D01*
X00815318D01*
X00805161Y00176528D02*
X00815318D01*
X00820396Y00181607D02*
X00822935D01*
Y00179067D01*
X00820396D01*
Y00181607D01*
Y00173989D02*
X00822935D01*
Y00171450D01*
X00820396D01*
Y00173989D01*
X00885317Y00171450D02*
Y00186685D01*
X00895474Y00171450D01*
Y00186685D01*
X00900552Y00171450D02*
X00910709Y00181607D01*
X00915787Y00171450D02*
Y00181607D01*
X00920865Y00186685D01*
X00925944Y00181607D01*
Y00171450D01*
Y00179067D01*
X00915787D01*
G54D154*
X00162579Y00921715D02*
X01315435D01*
X00162579Y00952195D02*
X01315435D01*
X00162579Y00342595D02*
Y00952195D01*
Y00342595D02*
X00266697D01*
X00162579Y00373075D02*
X00266697D01*
X00162579Y00403555D02*
X00266697D01*
X00162579Y00434035D02*
X00266697D01*
X00162579Y00464515D02*
X00266697D01*
X00162579Y00494995D02*
X00266697D01*
X00162579Y00525475D02*
X00266697D01*
X00162579Y00555955D02*
X00266697D01*
X00162579Y00586435D02*
X00266697D01*
X00162579Y00616915D02*
X00266697D01*
X00162579Y00647395D02*
X00266697D01*
X00162579Y00677875D02*
X00266697D01*
X00162579Y00708355D02*
X00266697D01*
X00162579Y00738835D02*
X00266697D01*
X00162579Y00769315D02*
X00266697D01*
X00162579Y00799795D02*
X00266697D01*
X00162579Y00830275D02*
X00266697D01*
X00162579Y00860755D02*
X00266697D01*
X00162579Y00891235D02*
X00266697D01*
Y00342595D02*
Y00952195D01*
Y00342595D02*
X00502852D01*
X00266697Y00373075D02*
X00502852D01*
X00266697Y00403555D02*
X00502852D01*
X00266697Y00434035D02*
X00502852D01*
X00266697Y00464515D02*
X00502852D01*
X00266697Y00494995D02*
X00502852D01*
X00266697Y00525475D02*
X00502852D01*
X00266697Y00555955D02*
X00502852D01*
X00266697Y00586435D02*
X00502852D01*
X00266697Y00616915D02*
X00502852D01*
X00266697Y00647395D02*
X00502852D01*
X00266697Y00677875D02*
X00502852D01*
X00266697Y00708355D02*
X00502852D01*
X00266697Y00738835D02*
X00502852D01*
X00266697Y00769315D02*
X00502852D01*
X00266697Y00799795D02*
X00502852D01*
X00266697Y00830275D02*
X00502852D01*
X00266697Y00860755D02*
X00502852D01*
X00266697Y00891235D02*
X00502852D01*
Y00342595D02*
Y00952195D01*
Y00342595D02*
X00721233D01*
X00502852Y00373075D02*
X00721233D01*
X00502852Y00403555D02*
X00721233D01*
X00502852Y00434035D02*
X00721233D01*
X00502852Y00464515D02*
X00721233D01*
X00502852Y00494995D02*
X00721233D01*
X00502852Y00525475D02*
X00721233D01*
X00502852Y00555955D02*
X00721233D01*
X00502852Y00586435D02*
X00721233D01*
X00502852Y00616915D02*
X00721233D01*
X00502852Y00647395D02*
X00721233D01*
X00502852Y00677875D02*
X00721233D01*
X00502852Y00708355D02*
X00721233D01*
X00502852Y00738835D02*
X00721233D01*
X00502852Y00769315D02*
X00721233D01*
X00502852Y00799795D02*
X00721233D01*
X00502852Y00830275D02*
X00721233D01*
X00502852Y00860755D02*
X00721233D01*
X00502852Y00891235D02*
X00721233D01*
Y00342595D02*
Y00952195D01*
Y00342595D02*
X00886291D01*
X00721233Y00373075D02*
X00886291D01*
X00721233Y00403555D02*
X00886291D01*
X00721233Y00434035D02*
X00886291D01*
X00721233Y00464515D02*
X00886291D01*
X00721233Y00494995D02*
X00886291D01*
X00721233Y00525475D02*
X00886291D01*
X00721233Y00555955D02*
X00886291D01*
X00721233Y00586435D02*
X00886291D01*
X00721233Y00616915D02*
X00886291D01*
X00721233Y00647395D02*
X00886291D01*
X00721233Y00677875D02*
X00886291D01*
X00721233Y00708355D02*
X00886291D01*
X00721233Y00738835D02*
X00886291D01*
X00721233Y00769315D02*
X00886291D01*
X00721233Y00799795D02*
X00886291D01*
X00721233Y00830275D02*
X00886291D01*
X00721233Y00860755D02*
X00886291D01*
X00721233Y00891235D02*
X00886291D01*
Y00342595D02*
Y00952195D01*
Y00342595D02*
X01031036D01*
X00886291Y00373075D02*
X01031036D01*
X00886291Y00403555D02*
X01031036D01*
X00886291Y00434035D02*
X01031036D01*
X00886291Y00464515D02*
X01031036D01*
X00886291Y00494995D02*
X01031036D01*
X00886291Y00525475D02*
X01031036D01*
X00886291Y00555955D02*
X01031036D01*
X00886291Y00586435D02*
X01031036D01*
X00886291Y00616915D02*
X01031036D01*
X00886291Y00647395D02*
X01031036D01*
X00886291Y00677875D02*
X01031036D01*
X00886291Y00708355D02*
X01031036D01*
X00886291Y00738835D02*
X01031036D01*
X00886291Y00769315D02*
X01031036D01*
X00886291Y00799795D02*
X01031036D01*
X00886291Y00830275D02*
X01031036D01*
X00886291Y00860755D02*
X01031036D01*
X00886291Y00891235D02*
X01031036D01*
Y00342595D02*
Y00952195D01*
Y00342595D02*
X01315435D01*
X01031036Y00373075D02*
X01315435D01*
X01031036Y00403555D02*
X01315435D01*
X01031036Y00434035D02*
X01315435D01*
X01031036Y00464515D02*
X01315435D01*
X01031036Y00494995D02*
X01315435D01*
X01031036Y00525475D02*
X01315435D01*
X01031036Y00555955D02*
X01315435D01*
X01031036Y00586435D02*
X01315435D01*
X01031036Y00616915D02*
X01315435D01*
X01031036Y00647395D02*
X01315435D01*
X01031036Y00677875D02*
X01315435D01*
X01031036Y00708355D02*
X01315435D01*
X01031036Y00738835D02*
X01315435D01*
X01031036Y00769315D02*
X01315435D01*
X01031036Y00799795D02*
X01315435D01*
X01031036Y00830275D02*
X01315435D01*
X01031036Y00860755D02*
X01315435D01*
X01031036Y00891235D02*
X01315435D01*
Y00342595D02*
Y00952195D01*
G54D218*
X01300195Y00342595D02*
X01315435Y00357835D01*
X01284955Y00342595D02*
X01315435Y00373075D01*
X01269715Y00342595D02*
X01300195Y00373075D01*
X01254475Y00342595D02*
X01284955Y00373075D01*
X01239235Y00342595D02*
X01269715Y00373075D01*
X01223995Y00342595D02*
X01254475Y00373075D01*
X01208755Y00342595D02*
X01239235Y00373075D01*
X01193515Y00342595D02*
X01223995Y00373075D01*
X01178275Y00342595D02*
X01208755Y00373075D01*
X01163035Y00342595D02*
X01193515Y00373075D01*
X01147795Y00342595D02*
X01178275Y00373075D01*
X01132555Y00342595D02*
X01163035Y00373075D01*
X01117315Y00342595D02*
X01147795Y00373075D01*
X01102075Y00342595D02*
X01132555Y00373075D01*
X01086835Y00342595D02*
X01117315Y00373075D01*
X01071595Y00342595D02*
X01102075Y00373075D01*
X01056355Y00342595D02*
X01086835Y00373075D01*
X01041115Y00342595D02*
X01071595Y00373075D01*
X01031036Y00347756D02*
X01056355Y00373075D01*
X01031036Y00362996D02*
X01041115Y00373075D01*
X01300195D02*
X01315435Y00388315D01*
X01284955Y00373075D02*
X01315435Y00403555D01*
X01269715Y00373075D02*
X01300195Y00403555D01*
X01254475Y00373075D02*
X01284955Y00403555D01*
X01239235Y00373075D02*
X01269715Y00403555D01*
X01223995Y00373075D02*
X01254475Y00403555D01*
X01208755Y00373075D02*
X01239235Y00403555D01*
X01193515Y00373075D02*
X01223995Y00403555D01*
X01178275Y00373075D02*
X01208755Y00403555D01*
X01163035Y00373075D02*
X01193515Y00403555D01*
X01147795Y00373075D02*
X01178275Y00403555D01*
X01132555Y00373075D02*
X01163035Y00403555D01*
X01117315Y00373075D02*
X01147795Y00403555D01*
X01102075Y00373075D02*
X01132555Y00403555D01*
X01086835Y00373075D02*
X01117315Y00403555D01*
X01071595Y00373075D02*
X01102075Y00403555D01*
X01056355Y00373075D02*
X01086835Y00403555D01*
X01041115Y00373075D02*
X01071595Y00403555D01*
X01031036Y00378236D02*
X01056355Y00403555D01*
X01031036Y00393476D02*
X01041115Y00403555D01*
X01300195D02*
X01315435Y00418795D01*
X01284955Y00403555D02*
X01315435Y00434035D01*
X01269715Y00403555D02*
X01300195Y00434035D01*
X01254475Y00403555D02*
X01284955Y00434035D01*
X01239235Y00403555D02*
X01269715Y00434035D01*
X01223995Y00403555D02*
X01254475Y00434035D01*
X01208755Y00403555D02*
X01239235Y00434035D01*
X01193515Y00403555D02*
X01223995Y00434035D01*
X01178275Y00403555D02*
X01208755Y00434035D01*
X01163035Y00403555D02*
X01193515Y00434035D01*
X01147795Y00403555D02*
X01178275Y00434035D01*
X01132555Y00403555D02*
X01163035Y00434035D01*
X01117315Y00403555D02*
X01147795Y00434035D01*
X01102075Y00403555D02*
X01132555Y00434035D01*
X01086835Y00403555D02*
X01117315Y00434035D01*
X01071595Y00403555D02*
X01102075Y00434035D01*
X01056355Y00403555D02*
X01086835Y00434035D01*
X01041115Y00403555D02*
X01071595Y00434035D01*
X01031036Y00408716D02*
X01056355Y00434035D01*
X01031036Y00423956D02*
X01041115Y00434035D01*
X01300195D02*
X01315435Y00449275D01*
X01284955Y00434035D02*
X01315435Y00464515D01*
X01269715Y00434035D02*
X01300195Y00464515D01*
X01254475Y00434035D02*
X01284955Y00464515D01*
X01239235Y00434035D02*
X01269715Y00464515D01*
X01223995Y00434035D02*
X01254475Y00464515D01*
X01208755Y00434035D02*
X01239235Y00464515D01*
X01193515Y00434035D02*
X01223995Y00464515D01*
X01178275Y00434035D02*
X01208755Y00464515D01*
X01163035Y00434035D02*
X01193515Y00464515D01*
X01147795Y00434035D02*
X01178275Y00464515D01*
X01132555Y00434035D02*
X01163035Y00464515D01*
X01117315Y00434035D02*
X01147795Y00464515D01*
X01102075Y00434035D02*
X01132555Y00464515D01*
X01086835Y00434035D02*
X01117315Y00464515D01*
X01071595Y00434035D02*
X01102075Y00464515D01*
X01056355Y00434035D02*
X01086835Y00464515D01*
X01041115Y00434035D02*
X01071595Y00464515D01*
X01031036Y00439196D02*
X01056355Y00464515D01*
X01031036Y00454436D02*
X01041115Y00464515D01*
X01300195D02*
X01315435Y00479755D01*
X01284955Y00464515D02*
X01315435Y00494995D01*
X01269715Y00464515D02*
X01300195Y00494995D01*
X01254475Y00464515D02*
X01284955Y00494995D01*
X01239235Y00464515D02*
X01269715Y00494995D01*
X01223995Y00464515D02*
X01254475Y00494995D01*
X01208755Y00464515D02*
X01239235Y00494995D01*
X01193515Y00464515D02*
X01223995Y00494995D01*
X01178275Y00464515D02*
X01208755Y00494995D01*
X01163035Y00464515D02*
X01193515Y00494995D01*
X01147795Y00464515D02*
X01178275Y00494995D01*
X01132555Y00464515D02*
X01163035Y00494995D01*
X01117315Y00464515D02*
X01147795Y00494995D01*
X01102075Y00464515D02*
X01132555Y00494995D01*
X01086835Y00464515D02*
X01117315Y00494995D01*
X01071595Y00464515D02*
X01102075Y00494995D01*
X01056355Y00464515D02*
X01086835Y00494995D01*
X01041115Y00464515D02*
X01071595Y00494995D01*
X01031036Y00469676D02*
X01056355Y00494995D01*
X01031036Y00484916D02*
X01041115Y00494995D01*
X01300195D02*
X01315435Y00510235D01*
X01284955Y00494995D02*
X01315435Y00525475D01*
X01269715Y00494995D02*
X01300195Y00525475D01*
X01254475Y00494995D02*
X01284955Y00525475D01*
X01239235Y00494995D02*
X01269715Y00525475D01*
X01223995Y00494995D02*
X01254475Y00525475D01*
X01208755Y00494995D02*
X01239235Y00525475D01*
X01193515Y00494995D02*
X01223995Y00525475D01*
X01178275Y00494995D02*
X01208755Y00525475D01*
X01163035Y00494995D02*
X01193515Y00525475D01*
X01147795Y00494995D02*
X01178275Y00525475D01*
X01132555Y00494995D02*
X01163035Y00525475D01*
X01117315Y00494995D02*
X01147795Y00525475D01*
X01102075Y00494995D02*
X01132555Y00525475D01*
X01086835Y00494995D02*
X01117315Y00525475D01*
X01071595Y00494995D02*
X01102075Y00525475D01*
X01056355Y00494995D02*
X01086835Y00525475D01*
X01041115Y00494995D02*
X01071595Y00525475D01*
X01031036Y00500156D02*
X01056355Y00525475D01*
X01031036Y00515396D02*
X01041115Y00525475D01*
X01300195D02*
X01315435Y00540715D01*
X01284955Y00525475D02*
X01315435Y00555955D01*
X01269715Y00525475D02*
X01300195Y00555955D01*
X01254475Y00525475D02*
X01284955Y00555955D01*
X01239235Y00525475D02*
X01269715Y00555955D01*
X01223995Y00525475D02*
X01254475Y00555955D01*
X01208755Y00525475D02*
X01239235Y00555955D01*
X01193515Y00525475D02*
X01223995Y00555955D01*
X01178275Y00525475D02*
X01208755Y00555955D01*
X01163035Y00525475D02*
X01193515Y00555955D01*
X01147795Y00525475D02*
X01178275Y00555955D01*
X01132555Y00525475D02*
X01163035Y00555955D01*
X01117315Y00525475D02*
X01147795Y00555955D01*
X01102075Y00525475D02*
X01132555Y00555955D01*
X01086835Y00525475D02*
X01117315Y00555955D01*
X01071595Y00525475D02*
X01102075Y00555955D01*
X01056355Y00525475D02*
X01086835Y00555955D01*
X01041115Y00525475D02*
X01071595Y00555955D01*
X01031036Y00530636D02*
X01056355Y00555955D01*
X01031036Y00545876D02*
X01041115Y00555955D01*
X01300195D02*
X01315435Y00571195D01*
X01284955Y00555955D02*
X01315435Y00586435D01*
X01269715Y00555955D02*
X01300195Y00586435D01*
X01254475Y00555955D02*
X01284955Y00586435D01*
X01239235Y00555955D02*
X01269715Y00586435D01*
X01223995Y00555955D02*
X01254475Y00586435D01*
X01208755Y00555955D02*
X01239235Y00586435D01*
X01193515Y00555955D02*
X01223995Y00586435D01*
X01178275Y00555955D02*
X01208755Y00586435D01*
X01163035Y00555955D02*
X01193515Y00586435D01*
X01147795Y00555955D02*
X01178275Y00586435D01*
X01132555Y00555955D02*
X01163035Y00586435D01*
X01117315Y00555955D02*
X01147795Y00586435D01*
X01102075Y00555955D02*
X01132555Y00586435D01*
X01086835Y00555955D02*
X01117315Y00586435D01*
X01071595Y00555955D02*
X01102075Y00586435D01*
X01056355Y00555955D02*
X01086835Y00586435D01*
X01041115Y00555955D02*
X01071595Y00586435D01*
X01031036Y00561116D02*
X01056355Y00586435D01*
X01031036Y00576356D02*
X01041115Y00586435D01*
X01300195D02*
X01315435Y00601675D01*
X01284955Y00586435D02*
X01315435Y00616915D01*
X01269715Y00586435D02*
X01300195Y00616915D01*
X01254475Y00586435D02*
X01284955Y00616915D01*
X01239235Y00586435D02*
X01269715Y00616915D01*
X01223995Y00586435D02*
X01254475Y00616915D01*
X01208755Y00586435D02*
X01239235Y00616915D01*
X01193515Y00586435D02*
X01223995Y00616915D01*
X01178275Y00586435D02*
X01208755Y00616915D01*
X01163035Y00586435D02*
X01193515Y00616915D01*
X01147795Y00586435D02*
X01178275Y00616915D01*
X01132555Y00586435D02*
X01163035Y00616915D01*
X01117315Y00586435D02*
X01147795Y00616915D01*
X01102075Y00586435D02*
X01132555Y00616915D01*
X01086835Y00586435D02*
X01117315Y00616915D01*
X01071595Y00586435D02*
X01102075Y00616915D01*
X01056355Y00586435D02*
X01086835Y00616915D01*
X01041115Y00586435D02*
X01071595Y00616915D01*
X01031036Y00591596D02*
X01056355Y00616915D01*
X01031036Y00606836D02*
X01041115Y00616915D01*
X01300195D02*
X01315435Y00632155D01*
X01284955Y00616915D02*
X01315435Y00647395D01*
X01269715Y00616915D02*
X01300195Y00647395D01*
X01254475Y00616915D02*
X01284955Y00647395D01*
X01239235Y00616915D02*
X01269715Y00647395D01*
X01223995Y00616915D02*
X01254475Y00647395D01*
X01208755Y00616915D02*
X01239235Y00647395D01*
X01193515Y00616915D02*
X01223995Y00647395D01*
X01178275Y00616915D02*
X01208755Y00647395D01*
X01163035Y00616915D02*
X01193515Y00647395D01*
X01147795Y00616915D02*
X01178275Y00647395D01*
X01132555Y00616915D02*
X01163035Y00647395D01*
X01117315Y00616915D02*
X01147795Y00647395D01*
X01102075Y00616915D02*
X01132555Y00647395D01*
X01086835Y00616915D02*
X01117315Y00647395D01*
X01071595Y00616915D02*
X01102075Y00647395D01*
X01056355Y00616915D02*
X01086835Y00647395D01*
X01041115Y00616915D02*
X01071595Y00647395D01*
X01031036Y00622076D02*
X01056355Y00647395D01*
X01031036Y00637316D02*
X01041115Y00647395D01*
X01300195D02*
X01315435Y00662635D01*
X01284955Y00647395D02*
X01315435Y00677875D01*
X01269715Y00647395D02*
X01300195Y00677875D01*
X01254475Y00647395D02*
X01284955Y00677875D01*
X01239235Y00647395D02*
X01269715Y00677875D01*
X01223995Y00647395D02*
X01254475Y00677875D01*
X01208755Y00647395D02*
X01239235Y00677875D01*
X01193515Y00647395D02*
X01223995Y00677875D01*
X01178275Y00647395D02*
X01208755Y00677875D01*
X01163035Y00647395D02*
X01193515Y00677875D01*
X01147795Y00647395D02*
X01178275Y00677875D01*
X01132555Y00647395D02*
X01163035Y00677875D01*
X01117315Y00647395D02*
X01147795Y00677875D01*
X01102075Y00647395D02*
X01132555Y00677875D01*
X01086835Y00647395D02*
X01117315Y00677875D01*
X01071595Y00647395D02*
X01102075Y00677875D01*
X01056355Y00647395D02*
X01086835Y00677875D01*
X01041115Y00647395D02*
X01071595Y00677875D01*
X01031036Y00652556D02*
X01056355Y00677875D01*
X01031036Y00667796D02*
X01041115Y00677875D01*
X01300195D02*
X01315435Y00693115D01*
X01284955Y00677875D02*
X01315435Y00708355D01*
X01269715Y00677875D02*
X01300195Y00708355D01*
X01254475Y00677875D02*
X01284955Y00708355D01*
X01239235Y00677875D02*
X01269715Y00708355D01*
X01223995Y00677875D02*
X01254475Y00708355D01*
X01208755Y00677875D02*
X01239235Y00708355D01*
X01193515Y00677875D02*
X01223995Y00708355D01*
X01178275Y00677875D02*
X01208755Y00708355D01*
X01163035Y00677875D02*
X01193515Y00708355D01*
X01147795Y00677875D02*
X01178275Y00708355D01*
X01132555Y00677875D02*
X01163035Y00708355D01*
X01117315Y00677875D02*
X01147795Y00708355D01*
X01102075Y00677875D02*
X01132555Y00708355D01*
X01086835Y00677875D02*
X01117315Y00708355D01*
X01071595Y00677875D02*
X01102075Y00708355D01*
X01056355Y00677875D02*
X01086835Y00708355D01*
X01041115Y00677875D02*
X01071595Y00708355D01*
X01031036Y00683036D02*
X01056355Y00708355D01*
X01031036Y00698276D02*
X01041115Y00708355D01*
X01300195D02*
X01315435Y00723595D01*
X01284955Y00708355D02*
X01315435Y00738835D01*
X01269715Y00708355D02*
X01300195Y00738835D01*
X01254475Y00708355D02*
X01284955Y00738835D01*
X01239235Y00708355D02*
X01269715Y00738835D01*
X01223995Y00708355D02*
X01254475Y00738835D01*
X01208755Y00708355D02*
X01239235Y00738835D01*
X01193515Y00708355D02*
X01223995Y00738835D01*
X01178275Y00708355D02*
X01208755Y00738835D01*
X01163035Y00708355D02*
X01193515Y00738835D01*
X01147795Y00708355D02*
X01178275Y00738835D01*
X01132555Y00708355D02*
X01163035Y00738835D01*
X01117315Y00708355D02*
X01147795Y00738835D01*
X01102075Y00708355D02*
X01132555Y00738835D01*
X01086835Y00708355D02*
X01117315Y00738835D01*
X01071595Y00708355D02*
X01102075Y00738835D01*
X01056355Y00708355D02*
X01086835Y00738835D01*
X01041115Y00708355D02*
X01071595Y00738835D01*
X01031036Y00713516D02*
X01056355Y00738835D01*
X01031036Y00728756D02*
X01041115Y00738835D01*
X01300195D02*
X01315435Y00754075D01*
X01284955Y00738835D02*
X01315435Y00769315D01*
X01269715Y00738835D02*
X01300195Y00769315D01*
X01254475Y00738835D02*
X01284955Y00769315D01*
X01239235Y00738835D02*
X01269715Y00769315D01*
X01223995Y00738835D02*
X01254475Y00769315D01*
X01208755Y00738835D02*
X01239235Y00769315D01*
X01193515Y00738835D02*
X01223995Y00769315D01*
X01178275Y00738835D02*
X01208755Y00769315D01*
X01163035Y00738835D02*
X01193515Y00769315D01*
X01147795Y00738835D02*
X01178275Y00769315D01*
X01132555Y00738835D02*
X01163035Y00769315D01*
X01117315Y00738835D02*
X01147795Y00769315D01*
X01102075Y00738835D02*
X01132555Y00769315D01*
X01086835Y00738835D02*
X01117315Y00769315D01*
X01071595Y00738835D02*
X01102075Y00769315D01*
X01056355Y00738835D02*
X01086835Y00769315D01*
X01041115Y00738835D02*
X01071595Y00769315D01*
X01031036Y00743996D02*
X01056355Y00769315D01*
X01031036Y00759236D02*
X01041115Y00769315D01*
X01300195D02*
X01315435Y00784555D01*
X01284955Y00769315D02*
X01315435Y00799795D01*
X01269715Y00769315D02*
X01300195Y00799795D01*
X01254475Y00769315D02*
X01284955Y00799795D01*
X01239235Y00769315D02*
X01269715Y00799795D01*
X01223995Y00769315D02*
X01254475Y00799795D01*
X01208755Y00769315D02*
X01239235Y00799795D01*
X01193515Y00769315D02*
X01223995Y00799795D01*
X01178275Y00769315D02*
X01208755Y00799795D01*
X01163035Y00769315D02*
X01193515Y00799795D01*
X01147795Y00769315D02*
X01178275Y00799795D01*
X01132555Y00769315D02*
X01163035Y00799795D01*
X01117315Y00769315D02*
X01147795Y00799795D01*
X01102075Y00769315D02*
X01132555Y00799795D01*
X01086835Y00769315D02*
X01117315Y00799795D01*
X01071595Y00769315D02*
X01102075Y00799795D01*
X01056355Y00769315D02*
X01086835Y00799795D01*
X01041115Y00769315D02*
X01071595Y00799795D01*
X01031036Y00774476D02*
X01056355Y00799795D01*
X01031036Y00789716D02*
X01041115Y00799795D01*
X01300195D02*
X01315435Y00815035D01*
X01284955Y00799795D02*
X01315435Y00830275D01*
X01269715Y00799795D02*
X01300195Y00830275D01*
X01254475Y00799795D02*
X01284955Y00830275D01*
X01239235Y00799795D02*
X01269715Y00830275D01*
X01223995Y00799795D02*
X01254475Y00830275D01*
X01208755Y00799795D02*
X01239235Y00830275D01*
X01193515Y00799795D02*
X01223995Y00830275D01*
X01178275Y00799795D02*
X01208755Y00830275D01*
X01163035Y00799795D02*
X01193515Y00830275D01*
X01147795Y00799795D02*
X01178275Y00830275D01*
X01132555Y00799795D02*
X01163035Y00830275D01*
X01117315Y00799795D02*
X01147795Y00830275D01*
X01102075Y00799795D02*
X01132555Y00830275D01*
X01086835Y00799795D02*
X01117315Y00830275D01*
X01071595Y00799795D02*
X01102075Y00830275D01*
X01056355Y00799795D02*
X01086835Y00830275D01*
X01041115Y00799795D02*
X01071595Y00830275D01*
X01031036Y00804956D02*
X01056355Y00830275D01*
X01031036Y00820196D02*
X01041115Y00830275D01*
X01300195D02*
X01315435Y00845515D01*
X01284955Y00830275D02*
X01315435Y00860755D01*
X01269715Y00830275D02*
X01300195Y00860755D01*
X01254475Y00830275D02*
X01284955Y00860755D01*
X01239235Y00830275D02*
X01269715Y00860755D01*
X01223995Y00830275D02*
X01254475Y00860755D01*
X01208755Y00830275D02*
X01239235Y00860755D01*
X01193515Y00830275D02*
X01223995Y00860755D01*
X01178275Y00830275D02*
X01208755Y00860755D01*
X01163035Y00830275D02*
X01193515Y00860755D01*
X01147795Y00830275D02*
X01178275Y00860755D01*
X01132555Y00830275D02*
X01163035Y00860755D01*
X01117315Y00830275D02*
X01147795Y00860755D01*
X01102075Y00830275D02*
X01132555Y00860755D01*
X01086835Y00830275D02*
X01117315Y00860755D01*
X01071595Y00830275D02*
X01102075Y00860755D01*
X01056355Y00830275D02*
X01086835Y00860755D01*
X01041115Y00830275D02*
X01071595Y00860755D01*
X01031036Y00835436D02*
X01056355Y00860755D01*
X01031036Y00850676D02*
X01041115Y00860755D01*
X01300195D02*
X01315435Y00875995D01*
X01284955Y00860755D02*
X01315435Y00891235D01*
X01269715Y00860755D02*
X01300195Y00891235D01*
X01254475Y00860755D02*
X01284955Y00891235D01*
X01239235Y00860755D02*
X01269715Y00891235D01*
X01223995Y00860755D02*
X01254475Y00891235D01*
X01208755Y00860755D02*
X01239235Y00891235D01*
X01193515Y00860755D02*
X01223995Y00891235D01*
X01178275Y00860755D02*
X01208755Y00891235D01*
X01163035Y00860755D02*
X01193515Y00891235D01*
X01147795Y00860755D02*
X01178275Y00891235D01*
X01132555Y00860755D02*
X01163035Y00891235D01*
X01117315Y00860755D02*
X01147795Y00891235D01*
X01102075Y00860755D02*
X01132555Y00891235D01*
X01086835Y00860755D02*
X01117315Y00891235D01*
X01071595Y00860755D02*
X01102075Y00891235D01*
X01056355Y00860755D02*
X01086835Y00891235D01*
X01041115Y00860755D02*
X01071595Y00891235D01*
X01031036Y00865916D02*
X01056355Y00891235D01*
X01031036Y00881156D02*
X01041115Y00891235D01*
X01300195D02*
X01315435Y00906475D01*
X01284955Y00891235D02*
X01315435Y00921715D01*
X01269715Y00891235D02*
X01300195Y00921715D01*
X01254475Y00891235D02*
X01284955Y00921715D01*
X01239235Y00891235D02*
X01269715Y00921715D01*
X01223995Y00891235D02*
X01254475Y00921715D01*
X01208755Y00891235D02*
X01239235Y00921715D01*
X01193515Y00891235D02*
X01223995Y00921715D01*
X01178275Y00891235D02*
X01208755Y00921715D01*
X01163035Y00891235D02*
X01193515Y00921715D01*
X01147795Y00891235D02*
X01178275Y00921715D01*
X01132555Y00891235D02*
X01163035Y00921715D01*
X01117315Y00891235D02*
X01147795Y00921715D01*
X01102075Y00891235D02*
X01132555Y00921715D01*
X01086835Y00891235D02*
X01117315Y00921715D01*
X01071595Y00891235D02*
X01102075Y00921715D01*
X01056355Y00891235D02*
X01086835Y00921715D01*
X01041115Y00891235D02*
X01071595Y00921715D01*
X01031036Y00896396D02*
X01056355Y00921715D01*
X01031036Y00911636D02*
X01041115Y00921715D01*
M02*
