G04*
G04 #@! TF.GenerationSoftware,Altium Limited,Altium Designer,18.0.9 (584)*
G04*
G04 Layer_Color=8388736*
%FSAX44Y44*%
%MOMM*%
G71*
G01*
G75*
%ADD22C,0.1524*%
%ADD23C,0.2540*%
%ADD25C,0.2032*%
G54D22*
X01242827Y01425448D02*
X01258062Y01435605D01*
X01242827D02*
X01258062Y01425448D01*
X01245366Y01440683D02*
X01242827Y01443222D01*
Y01448301D01*
X01245366Y01450840D01*
X01247905D01*
X01250444Y01448301D01*
Y01445761D01*
Y01448301D01*
X01252984Y01450840D01*
X01255523D01*
X01258062Y01448301D01*
Y01443222D01*
X01255523Y01440683D01*
X01162050Y01229355D02*
X01172207Y01214120D01*
Y01229355D02*
X01162050Y01214120D01*
X01177285D02*
X01182363D01*
X01179824D01*
Y01229355D01*
X01177285Y01226816D01*
X01200138Y01214120D02*
X01189981D01*
X01200138Y01224277D01*
Y01226816D01*
X01197598Y01229355D01*
X01192520D01*
X01189981Y01226816D01*
X02002282Y01233165D02*
X02012439Y01217930D01*
Y01233165D02*
X02002282Y01217930D01*
X02027674D02*
X02017517D01*
X02027674Y01228087D01*
Y01230626D01*
X02025135Y01233165D01*
X02020056D01*
X02017517Y01230626D01*
X02040370Y01217930D02*
Y01233165D01*
X02032752Y01225547D01*
X02042909D01*
X01342390Y01275075D02*
X01352547Y01259840D01*
Y01275075D02*
X01342390Y01259840D01*
X01357625Y01272536D02*
X01360164Y01275075D01*
X01365243D01*
X01367782Y01272536D01*
Y01269997D01*
X01365243Y01267458D01*
X01362703D01*
X01365243D01*
X01367782Y01264918D01*
Y01262379D01*
X01365243Y01259840D01*
X01360164D01*
X01357625Y01262379D01*
X00920671Y01404532D02*
Y01409610D01*
Y01407071D01*
X00905436D01*
X00907975Y01404532D01*
X00905436Y01427384D02*
Y01417227D01*
X00913054D01*
X00910515Y01422306D01*
Y01424845D01*
X00913054Y01427384D01*
X00918132D01*
X00920671Y01424845D01*
Y01419767D01*
X00918132Y01417227D01*
X00920671Y01432463D02*
X00918132D01*
Y01435002D01*
X00920671D01*
Y01432463D01*
X00905436Y01455315D02*
X00907975Y01450237D01*
X00913054Y01445159D01*
X00918132D01*
X00920671Y01447698D01*
Y01452776D01*
X00918132Y01455315D01*
X00915593D01*
X00913054Y01452776D01*
Y01445159D01*
X00907975Y01460394D02*
X00905436Y01462933D01*
Y01468011D01*
X00907975Y01470550D01*
X00918132D01*
X00920671Y01468011D01*
Y01462933D01*
X00918132Y01460394D01*
X00907975D01*
X01559146Y01658109D02*
X01548990D01*
Y01650492D01*
X01554068Y01653031D01*
X01556607D01*
X01559146Y01650492D01*
Y01645414D01*
X01556607Y01642874D01*
X01551529D01*
X01548990Y01645414D01*
X01574381Y01642874D02*
X01564225D01*
X01574381Y01653031D01*
Y01655570D01*
X01571842Y01658109D01*
X01566764D01*
X01564225Y01655570D01*
X01579460Y01642874D02*
Y01645414D01*
X01581999D01*
Y01642874D01*
X01579460D01*
X01592156Y01645414D02*
X01594695Y01642874D01*
X01599773D01*
X01602312Y01645414D01*
Y01655570D01*
X01599773Y01658109D01*
X01594695D01*
X01592156Y01655570D01*
Y01653031D01*
X01594695Y01650492D01*
X01602312D01*
X01607391Y01645414D02*
X01609930Y01642874D01*
X01615008D01*
X01617547Y01645414D01*
Y01655570D01*
X01615008Y01658109D01*
X01609930D01*
X01607391Y01655570D01*
Y01653031D01*
X01609930Y01650492D01*
X01617547D01*
X01928620Y01417870D02*
Y01407713D01*
X01918463Y01417870D01*
X01915924D01*
X01913385Y01415331D01*
Y01410252D01*
X01915924Y01407713D01*
Y01422948D02*
X01913385Y01425487D01*
Y01430566D01*
X01915924Y01433105D01*
X01918463D01*
X01921002Y01430566D01*
Y01428026D01*
Y01430566D01*
X01923541Y01433105D01*
X01926080D01*
X01928620Y01430566D01*
Y01425487D01*
X01926080Y01422948D01*
X01928620Y01438183D02*
X01926080D01*
Y01440722D01*
X01928620D01*
Y01438183D01*
X01915924Y01450879D02*
X01913385Y01453418D01*
Y01458497D01*
X01915924Y01461036D01*
X01926080D01*
X01928620Y01458497D01*
Y01453418D01*
X01926080Y01450879D01*
X01915924D01*
X01928620Y01466114D02*
Y01471192D01*
Y01468653D01*
X01913385D01*
X01915924Y01466114D01*
X01359150Y01172974D02*
X01361689Y01170434D01*
X01366767D01*
X01369307Y01172974D01*
Y01183130D01*
X01366767Y01185669D01*
X01361689D01*
X01359150Y01183130D01*
Y01180591D01*
X01361689Y01178052D01*
X01369307D01*
X01374385Y01170434D02*
X01379463D01*
X01376924D01*
Y01185669D01*
X01374385Y01183130D01*
X01387081Y01170434D02*
Y01172974D01*
X01389620D01*
Y01170434D01*
X01387081D01*
X01409933D02*
X01399777D01*
X01409933Y01180591D01*
Y01183130D01*
X01407394Y01185669D01*
X01402316D01*
X01399777Y01183130D01*
X01415012D02*
X01417551Y01185669D01*
X01422629D01*
X01425168Y01183130D01*
Y01172974D01*
X01422629Y01170434D01*
X01417551D01*
X01415012Y01172974D01*
Y01183130D01*
X01069594Y01214120D02*
Y01229355D01*
X01077212D01*
X01079751Y01226816D01*
Y01221738D01*
X01077212Y01219198D01*
X01069594D01*
X01074672D02*
X01079751Y01214120D01*
X01100064Y01226816D02*
X01102603Y01229355D01*
X01107682D01*
X01110221Y01226816D01*
Y01216659D01*
X01107682Y01214120D01*
X01102603D01*
X01100064Y01216659D01*
Y01226816D01*
X01115299Y01214120D02*
Y01216659D01*
X01117838D01*
Y01214120D01*
X01115299D01*
X01138152Y01229355D02*
X01133074Y01226816D01*
X01127995Y01221738D01*
Y01216659D01*
X01130534Y01214120D01*
X01135613D01*
X01138152Y01216659D01*
Y01219198D01*
X01135613Y01221738D01*
X01127995D01*
X01150848Y01214120D02*
Y01229355D01*
X01143230Y01221738D01*
X01153387D01*
X01259083Y01368615D02*
Y01373693D01*
Y01371154D01*
X01243848D01*
X01246387Y01368615D01*
X01259083Y01381311D02*
X01256544D01*
Y01383850D01*
X01259083D01*
Y01381311D01*
X01256544Y01394007D02*
X01259083Y01396546D01*
Y01401624D01*
X01256544Y01404163D01*
X01246387D01*
X01243848Y01401624D01*
Y01396546D01*
X01246387Y01394007D01*
X01248926D01*
X01251465Y01396546D01*
Y01404163D01*
X01246387Y01409241D02*
X01243848Y01411781D01*
Y01416859D01*
X01246387Y01419398D01*
X01256544D01*
X01259083Y01416859D01*
Y01411781D01*
X01256544Y01409241D01*
X01246387D01*
X01283658Y01260104D02*
X01288736D01*
X01286197D01*
Y01275339D01*
X01283658Y01272800D01*
X01296354Y01260104D02*
Y01262643D01*
X01298893D01*
Y01260104D01*
X01296354D01*
X01309050Y01272800D02*
X01311589Y01275339D01*
X01316667D01*
X01319207Y01272800D01*
Y01270261D01*
X01316667Y01267721D01*
X01319207Y01265182D01*
Y01262643D01*
X01316667Y01260104D01*
X01311589D01*
X01309050Y01262643D01*
Y01265182D01*
X01311589Y01267721D01*
X01309050Y01270261D01*
Y01272800D01*
X01311589Y01267721D02*
X01316667D01*
X01334442Y01275339D02*
X01324285D01*
Y01267721D01*
X01329363Y01270261D01*
X01331902D01*
X01334442Y01267721D01*
Y01262643D01*
X01331902Y01260104D01*
X01326824D01*
X01324285Y01262643D01*
X01914906Y01218438D02*
Y01233673D01*
X01922523D01*
X01925063Y01231134D01*
Y01226056D01*
X01922523Y01223516D01*
X01914906D01*
X01919984D02*
X01925063Y01218438D01*
X01945376D02*
X01950455D01*
X01947915D01*
Y01233673D01*
X01945376Y01231134D01*
X01958072Y01218438D02*
Y01220977D01*
X01960611D01*
Y01218438D01*
X01958072D01*
X01980925D02*
X01970768D01*
X01980925Y01228595D01*
Y01231134D01*
X01978385Y01233673D01*
X01973307D01*
X01970768Y01231134D01*
X01996160Y01218438D02*
X01986003D01*
X01996160Y01228595D01*
Y01231134D01*
X01993620Y01233673D01*
X01988542D01*
X01986003Y01231134D01*
X00790704Y01405245D02*
X00788165Y01407785D01*
Y01412863D01*
X00790704Y01415402D01*
X00793243D01*
X00795782Y01412863D01*
Y01410324D01*
Y01412863D01*
X00798321Y01415402D01*
X00800860D01*
X00803400Y01412863D01*
Y01407785D01*
X00800860Y01405245D01*
X00788165Y01420480D02*
Y01430637D01*
X00790704D01*
X00800860Y01420480D01*
X00803400D01*
Y01435716D02*
X00800860D01*
Y01438255D01*
X00803400D01*
Y01435716D01*
X00788165Y01448412D02*
Y01458568D01*
X00790704D01*
X00800860Y01448412D01*
X00803400D01*
X00790704Y01463647D02*
X00788165Y01466186D01*
Y01471264D01*
X00790704Y01473803D01*
X00800860D01*
X00803400Y01471264D01*
Y01466186D01*
X00800860Y01463647D01*
X00790704D01*
X00833879Y01370926D02*
Y01360769D01*
X00823723Y01370926D01*
X00821184D01*
X00818644Y01368387D01*
Y01363308D01*
X00821184Y01360769D01*
Y01376004D02*
X00818644Y01378543D01*
Y01383622D01*
X00821184Y01386161D01*
X00823723D01*
X00826262Y01383622D01*
X00828801Y01386161D01*
X00831340D01*
X00833879Y01383622D01*
Y01378543D01*
X00831340Y01376004D01*
X00828801D01*
X00826262Y01378543D01*
X00823723Y01376004D01*
X00821184D01*
X00826262Y01378543D02*
Y01383622D01*
X00833879Y01391239D02*
X00831340D01*
Y01393779D01*
X00833879D01*
Y01391239D01*
X00821184Y01403935D02*
X00818644Y01406474D01*
Y01411553D01*
X00821184Y01414092D01*
X00823723D01*
X00826262Y01411553D01*
X00828801Y01414092D01*
X00831340D01*
X00833879Y01411553D01*
Y01406474D01*
X00831340Y01403935D01*
X00828801D01*
X00826262Y01406474D01*
X00823723Y01403935D01*
X00821184D01*
X00826262Y01406474D02*
Y01411553D01*
X00821184Y01419170D02*
X00818644Y01421709D01*
Y01426788D01*
X00821184Y01429327D01*
X00831340D01*
X00833879Y01426788D01*
Y01421709D01*
X00831340Y01419170D01*
X00821184D01*
X00862838Y01358643D02*
Y01348486D01*
X00852681Y01358643D01*
X00850142D01*
X00847603Y01356104D01*
Y01351025D01*
X00850142Y01348486D01*
X00847603Y01373878D02*
X00850142Y01368799D01*
X00855220Y01363721D01*
X00860299D01*
X00862838Y01366260D01*
Y01371339D01*
X00860299Y01373878D01*
X00857760D01*
X00855220Y01371339D01*
Y01363721D01*
X00862838Y01378956D02*
X00860299D01*
Y01381495D01*
X00862838D01*
Y01378956D01*
Y01399270D02*
X00847603D01*
X00855220Y01391652D01*
Y01401809D01*
X00847603Y01417044D02*
Y01406887D01*
X00855220D01*
X00852681Y01411965D01*
Y01414505D01*
X00855220Y01417044D01*
X00860299D01*
X00862838Y01414505D01*
Y01409426D01*
X00860299Y01406887D01*
X00890778Y01180846D02*
Y01185924D01*
Y01183385D01*
X00875543D01*
X00878082Y01180846D01*
Y01193542D02*
X00875543Y01196081D01*
Y01201159D01*
X00878082Y01203699D01*
X00888239D01*
X00890778Y01201159D01*
Y01196081D01*
X00888239Y01193542D01*
X00878082D01*
X00890778Y01208777D02*
X00888239D01*
Y01211316D01*
X00890778D01*
Y01208777D01*
X00878082Y01221473D02*
X00875543Y01224012D01*
Y01229090D01*
X00878082Y01231630D01*
X00880621D01*
X00883160Y01229090D01*
X00885700Y01231630D01*
X00888239D01*
X00890778Y01229090D01*
Y01224012D01*
X00888239Y01221473D01*
X00885700D01*
X00883160Y01224012D01*
X00880621Y01221473D01*
X00878082D01*
X00883160Y01224012D02*
Y01229090D01*
X00875543Y01246865D02*
Y01236708D01*
X00883160D01*
X00880621Y01241786D01*
Y01244325D01*
X00883160Y01246865D01*
X00888239D01*
X00890778Y01244325D01*
Y01239247D01*
X00888239Y01236708D01*
X00906022Y01193546D02*
X00903483Y01196085D01*
Y01201163D01*
X00906022Y01203703D01*
X00908561D01*
X00911100Y01201163D01*
X00913640Y01203703D01*
X00916179D01*
X00918718Y01201163D01*
Y01196085D01*
X00916179Y01193546D01*
X00913640D01*
X00911100Y01196085D01*
X00908561Y01193546D01*
X00906022D01*
X00911100Y01196085D02*
Y01201163D01*
X00918718Y01208781D02*
X00916179D01*
Y01211320D01*
X00918718D01*
Y01208781D01*
X00903483Y01231634D02*
Y01221477D01*
X00911100D01*
X00908561Y01226555D01*
Y01229094D01*
X00911100Y01231634D01*
X00916179D01*
X00918718Y01229094D01*
Y01224016D01*
X00916179Y01221477D01*
X00906022Y01236712D02*
X00903483Y01239251D01*
Y01244330D01*
X00906022Y01246869D01*
X00916179D01*
X00918718Y01244330D01*
Y01239251D01*
X00916179Y01236712D01*
X00906022D01*
G54D23*
X00911530Y01519620D02*
X00916610Y01504380D01*
X00906450D02*
X00911530Y01519620D01*
X00906450Y01378830D02*
X00911530Y01363590D01*
X00916610Y01378830D01*
X00911530Y01474614D02*
Y01519620D01*
Y01363590D02*
Y01400468D01*
X00908990Y01519620D02*
X00948583D01*
X00908990Y01363590D02*
X00948583D01*
X01322362Y01652016D02*
X01337602Y01657096D01*
X01322362Y01652016D02*
X01337602Y01646936D01*
X01837063D02*
X01852303Y01652016D01*
X01837063Y01657096D02*
X01852303Y01652016D01*
X01322362D02*
X01544926D01*
X01621611D02*
X01852303D01*
X01322362Y01550255D02*
Y01654556D01*
X01852303Y01550188D02*
Y01654556D01*
X01919478Y01558563D02*
X01924558Y01543323D01*
X01914398D02*
X01919478Y01558563D01*
X01914398Y01343710D02*
X01919478Y01328470D01*
X01924558Y01343710D01*
X01919478Y01475257D02*
Y01558563D01*
Y01328470D02*
Y01403649D01*
X01843921Y01558563D02*
X01922018D01*
X01843854Y01328470D02*
X01922018D01*
X00940201Y01179576D02*
X00955441Y01184656D01*
X00940201Y01179576D02*
X00955441Y01174496D01*
X01837005D02*
X01852245Y01179576D01*
X01837005Y01184656D02*
X01852245Y01179576D01*
X00940201D02*
X01355086D01*
X01429232D02*
X01852245D01*
X00940201Y01177036D02*
Y01263489D01*
X01852245Y01177036D02*
Y01263489D01*
X01298548Y01376081D02*
X01305732Y01390449D01*
X01291364Y01383265D02*
X01305732Y01390449D01*
X01160970Y01245687D02*
X01305732Y01390449D01*
X01160581Y01245298D02*
X01160970Y01245687D01*
X01269746Y01430411D02*
X01277366Y01407551D01*
X01284986Y01430411D01*
X01277366Y01388589D02*
X01284986Y01365730D01*
X01269746D02*
X01277366Y01388589D01*
Y01407551D02*
Y01432951D01*
Y01363190D02*
Y01388589D01*
X01274826D02*
X01312195D01*
X01274826Y01407551D02*
X01306412D01*
X01288632Y01291590D02*
X01303872Y01296670D01*
X01288632Y01301750D02*
X01303872Y01296670D01*
X01322355D02*
X01337595Y01301750D01*
X01322355Y01296670D02*
X01337595Y01291590D01*
X01278472Y01296670D02*
X01303872D01*
X01322355D02*
X01347755D01*
X01322355Y01294130D02*
Y01397391D01*
X01303872Y01294130D02*
Y01391129D01*
X01848674Y01258678D02*
X01863043Y01251494D01*
X01848674Y01258678D02*
X01855858Y01244310D01*
X01848674Y01258678D02*
X01895370Y01211982D01*
Y01233166D01*
X00789178Y01270347D02*
X00794258Y01255107D01*
X00799338Y01270347D01*
X00794258Y01632070D02*
X00799338Y01616830D01*
X00789178D02*
X00794258Y01632070D01*
Y01255107D02*
Y01401181D01*
Y01477867D02*
Y01632070D01*
X00791718Y01255107D02*
X00948583D01*
X00791718Y01632070D02*
X00948583D01*
X00819658Y01270347D02*
X00824738Y01255107D01*
X00829818Y01270347D01*
X00824738Y01543117D02*
X00829818Y01527877D01*
X00819658D02*
X00824738Y01543117D01*
Y01255107D02*
Y01356705D01*
Y01433391D02*
Y01543117D01*
X00822198Y01255107D02*
X00948583D01*
X00822198Y01543117D02*
X00949198D01*
X00851408Y01270347D02*
X00856488Y01255107D01*
X00861568Y01270347D01*
X00856488Y01519620D02*
X00861568Y01504380D01*
X00851408D02*
X00856488Y01519620D01*
Y01255107D02*
Y01344422D01*
Y01421108D02*
Y01519620D01*
X00853948Y01255107D02*
X00948583D01*
X00853948Y01519620D02*
X00948583D01*
X00879348Y01270347D02*
X00884428Y01255107D01*
X00889508Y01270347D01*
X00884428Y01363590D02*
X00889508Y01348350D01*
X00879348D02*
X00884428Y01363590D01*
Y01255107D02*
Y01309348D01*
Y01363590D01*
X00881888Y01255107D02*
X00948583D01*
X00881888Y01363590D02*
X00948583D01*
X00904748Y01270347D02*
X00909828Y01255107D01*
X00914908Y01270347D01*
X00909828Y01340090D02*
X00914908Y01324850D01*
X00904748D02*
X00909828Y01340090D01*
Y01255107D02*
Y01297598D01*
Y01340090D01*
X00907288Y01255107D02*
X00948583D01*
X00907288Y01340090D02*
X00949198D01*
X01263777Y00208195D02*
Y00259842D01*
X01050417Y00208195D02*
Y00259842D01*
X00102489Y00208195D02*
X01779397D01*
X00102489Y00156549D02*
X01778889D01*
X00102489Y00104902D02*
X01119759D01*
X00102616Y00259842D02*
X01779397D01*
X00102616Y00104902D02*
Y00259842D01*
Y00104902D02*
X00502793D01*
X00102489D02*
Y00259842D01*
X00728599Y00104902D02*
Y00259842D01*
X01779397Y00104902D02*
Y00259842D01*
X01119759Y00104902D02*
X01779397D01*
X01421765Y00103251D02*
Y00154771D01*
G54D25*
X00322326Y00171579D02*
Y00186814D01*
X00327404Y00181735D01*
X00332483Y00186814D01*
Y00171579D01*
X00347718D02*
X00337561D01*
X00347718Y00181735D01*
Y00184275D01*
X00345179Y00186814D01*
X00340100D01*
X00337561Y00184275D01*
X00368031Y00186814D02*
Y00171579D01*
X00375649D01*
X00378188Y00174118D01*
Y00176657D01*
X00375649Y00179196D01*
X00368031D01*
X00375649D01*
X00378188Y00181735D01*
Y00184275D01*
X00375649Y00186814D01*
X00368031D01*
X00385806Y00171579D02*
X00390884D01*
X00393423Y00174118D01*
Y00179196D01*
X00390884Y00181735D01*
X00385806D01*
X00383266Y00179196D01*
Y00174118D01*
X00385806Y00171579D01*
X00401040Y00181735D02*
X00406119D01*
X00408658Y00179196D01*
Y00171579D01*
X00401040D01*
X00398501Y00174118D01*
X00401040Y00176657D01*
X00408658D01*
X00413736Y00181735D02*
Y00171579D01*
Y00176657D01*
X00416276Y00179196D01*
X00418815Y00181735D01*
X00421354D01*
X00439128Y00186814D02*
Y00171579D01*
X00431511D01*
X00428971Y00174118D01*
Y00179196D01*
X00431511Y00181735D01*
X00439128D01*
X00459442Y00186814D02*
Y00171579D01*
X00467059D01*
X00469598Y00174118D01*
Y00184275D01*
X00467059Y00186814D01*
X00459442D01*
X00474677Y00171579D02*
X00479755D01*
X00477216D01*
Y00181735D01*
X00474677D01*
X00487373Y00171579D02*
Y00181735D01*
X00489912D01*
X00492451Y00179196D01*
Y00171579D01*
Y00179196D01*
X00494990Y00181735D01*
X00497529Y00179196D01*
Y00171579D01*
X00510225D02*
X00505147D01*
X00502608Y00174118D01*
Y00179196D01*
X00505147Y00181735D01*
X00510225D01*
X00512764Y00179196D01*
Y00176657D01*
X00502608D01*
X00517843Y00171579D02*
Y00181735D01*
X00525460D01*
X00527999Y00179196D01*
Y00171579D01*
X00533078D02*
X00540695D01*
X00543234Y00174118D01*
X00540695Y00176657D01*
X00535617D01*
X00533078Y00179196D01*
X00535617Y00181735D01*
X00543234D01*
X00548313Y00171579D02*
X00553391D01*
X00550852D01*
Y00181735D01*
X00548313D01*
X00563548Y00171579D02*
X00568626D01*
X00571166Y00174118D01*
Y00179196D01*
X00568626Y00181735D01*
X00563548D01*
X00561009Y00179196D01*
Y00174118D01*
X00563548Y00171579D01*
X00576244D02*
Y00181735D01*
X00583861D01*
X00586401Y00179196D01*
Y00171579D01*
X00591479D02*
X00599096D01*
X00601636Y00174118D01*
X00599096Y00176657D01*
X00594018D01*
X00591479Y00179196D01*
X00594018Y00181735D01*
X00601636D01*
X01441196Y00223097D02*
Y00238332D01*
X01451353Y00223097D01*
Y00238332D01*
X01458970Y00223097D02*
X01464049D01*
X01466588Y00225636D01*
Y00230714D01*
X01464049Y00233253D01*
X01458970D01*
X01456431Y00230714D01*
Y00225636D01*
X01458970Y00223097D01*
X01474205Y00235793D02*
Y00233253D01*
X01471666D01*
X01476745D01*
X01474205D01*
Y00225636D01*
X01476745Y00223097D01*
X01499597Y00238332D02*
X01504675D01*
X01502136D01*
Y00223097D01*
X01499597D01*
X01504675D01*
X01512293D02*
Y00233253D01*
X01519910D01*
X01522450Y00230714D01*
Y00223097D01*
X01542763Y00238332D02*
Y00228175D01*
X01547841Y00223097D01*
X01552920Y00228175D01*
Y00238332D01*
X01565616Y00223097D02*
X01560537D01*
X01557998Y00225636D01*
Y00230714D01*
X01560537Y00233253D01*
X01565616D01*
X01568155Y00230714D01*
Y00228175D01*
X01557998D01*
X01573233Y00233253D02*
Y00223097D01*
Y00228175D01*
X01575773Y00230714D01*
X01578312Y00233253D01*
X01580851D01*
X01588468Y00223097D02*
X01596086D01*
X01598625Y00225636D01*
X01596086Y00228175D01*
X01591008D01*
X01588468Y00230714D01*
X01591008Y00233253D01*
X01598625D01*
X01603703Y00223097D02*
X01608782D01*
X01606243D01*
Y00233253D01*
X01603703D01*
X01618938Y00223097D02*
X01624017D01*
X01626556Y00225636D01*
Y00230714D01*
X01624017Y00233253D01*
X01618938D01*
X01616399Y00230714D01*
Y00225636D01*
X01618938Y00223097D01*
X01631634D02*
Y00233253D01*
X01639252D01*
X01641791Y00230714D01*
Y00223097D01*
X01657026Y00235793D02*
X01654487Y00238332D01*
X01649409D01*
X01646870Y00235793D01*
Y00225636D01*
X01649409Y00223097D01*
X01654487D01*
X01657026Y00225636D01*
X01664644Y00223097D02*
X01669722D01*
X01672261Y00225636D01*
Y00230714D01*
X01669722Y00233253D01*
X01664644D01*
X01662104Y00230714D01*
Y00225636D01*
X01664644Y00223097D01*
X01677340D02*
Y00233253D01*
X01684957D01*
X01687496Y00230714D01*
Y00223097D01*
X01695114Y00235793D02*
Y00233253D01*
X01692575D01*
X01697653D01*
X01695114D01*
Y00225636D01*
X01697653Y00223097D01*
X01705271Y00233253D02*
Y00223097D01*
Y00228175D01*
X01707810Y00230714D01*
X01710349Y00233253D01*
X01712888D01*
X01723045Y00223097D02*
X01728123D01*
X01730662Y00225636D01*
Y00230714D01*
X01728123Y00233253D01*
X01723045D01*
X01720506Y00230714D01*
Y00225636D01*
X01723045Y00223097D01*
X01735741D02*
X01740819D01*
X01738280D01*
Y00238332D01*
X01735741D01*
X01322829Y00235793D02*
X01320289Y00238332D01*
X01315211D01*
X01312672Y00235793D01*
Y00233253D01*
X01315211Y00230714D01*
X01320289D01*
X01322829Y00228175D01*
Y00225636D01*
X01320289Y00223097D01*
X01315211D01*
X01312672Y00225636D01*
X01327907Y00238332D02*
Y00228175D01*
X01332985Y00223097D01*
X01338064Y00228175D01*
Y00238332D01*
X01343142Y00223097D02*
Y00238332D01*
X01353299Y00223097D01*
Y00238332D01*
X01373612Y00223097D02*
Y00238332D01*
X01381230D01*
X01383769Y00235793D01*
Y00230714D01*
X01381230Y00228175D01*
X01373612D01*
X01378691D02*
X01383769Y00223097D01*
X01399004Y00238332D02*
X01388847D01*
Y00223097D01*
X01399004D01*
X01388847Y00230714D02*
X01393926D01*
X01404082Y00238332D02*
Y00228175D01*
X01409161Y00223097D01*
X01414239Y00228175D01*
Y00238332D01*
X01419317Y00233253D02*
X01421857D01*
Y00230714D01*
X01419317D01*
Y00233253D01*
Y00225636D02*
X01421857D01*
Y00223097D01*
X01419317D01*
Y00225636D01*
X01099820Y00223097D02*
Y00238332D01*
X01107438D01*
X01109977Y00235793D01*
Y00230714D01*
X01107438Y00228175D01*
X01099820D01*
X01104898D02*
X01109977Y00223097D01*
X01125212Y00238332D02*
X01115055D01*
Y00223097D01*
X01125212D01*
X01115055Y00230714D02*
X01120133D01*
X01130290Y00238332D02*
Y00228175D01*
X01135368Y00223097D01*
X01140447Y00228175D01*
Y00238332D01*
X01145525Y00233253D02*
X01148064D01*
Y00230714D01*
X01145525D01*
Y00233253D01*
Y00225636D02*
X01148064D01*
Y00223097D01*
X01145525D01*
Y00225636D01*
X00322326Y00119295D02*
Y00134530D01*
X00329944D01*
X00332483Y00131991D01*
Y00126912D01*
X00329944Y00124373D01*
X00322326D01*
X00337561Y00119295D02*
Y00134530D01*
X00345179D01*
X00347718Y00131991D01*
Y00126912D01*
X00345179Y00124373D01*
X00337561D01*
X00342639D02*
X00347718Y00119295D01*
X00360414Y00134530D02*
X00355335D01*
X00352796Y00131991D01*
Y00121834D01*
X00355335Y00119295D01*
X00360414D01*
X00362953Y00121834D01*
Y00131991D01*
X00360414Y00134530D01*
X00378188Y00131991D02*
X00375649Y00134530D01*
X00370570D01*
X00368031Y00131991D01*
Y00121834D01*
X00370570Y00119295D01*
X00375649D01*
X00378188Y00121834D01*
X00383266Y00131991D02*
X00385806Y00134530D01*
X00390884D01*
X00393423Y00131991D01*
Y00121834D01*
X00390884Y00119295D01*
X00385806D01*
X00383266Y00121834D01*
Y00131991D01*
X00398501Y00121834D02*
X00401040Y00119295D01*
X00406119D01*
X00408658Y00121834D01*
Y00131991D01*
X00406119Y00134530D01*
X00401040D01*
X00398501Y00131991D01*
Y00129452D01*
X00401040Y00126912D01*
X00408658D01*
X00413736Y00119295D02*
X00418815D01*
X00416276D01*
Y00134530D01*
X00413736Y00131991D01*
X00436589Y00134530D02*
X00426432D01*
Y00126912D01*
X00431511D01*
X00426432D01*
Y00119295D01*
X00441667D02*
Y00121834D01*
X00444207D01*
Y00119295D01*
X00441667D01*
X00464520Y00131991D02*
X00461981Y00134530D01*
X00456903D01*
X00454363Y00131991D01*
Y00121834D01*
X00456903Y00119295D01*
X00461981D01*
X00464520Y00121834D01*
Y00126912D01*
X00459442D01*
X00469598Y00119295D02*
Y00134530D01*
X00474677Y00129452D01*
X00479755Y00134530D01*
Y00119295D01*
X00494990D02*
X00484833D01*
X00494990Y00129452D01*
Y00131991D01*
X00492451Y00134530D01*
X00487373D01*
X00484833Y00131991D01*
X00968121Y00119295D02*
X00973199D01*
X00970660D01*
Y00134530D01*
X00968121Y00131991D01*
X00980817Y00119295D02*
X00985895D01*
X00983356D01*
Y00134530D01*
X00980817Y00131991D01*
X00993513Y00126912D02*
X01003670D01*
X01008748Y00119295D02*
X01013826D01*
X01011287D01*
Y00134530D01*
X01008748Y00131991D01*
X01021444Y00119295D02*
X01026522D01*
X01023983D01*
Y00134530D01*
X01021444Y00131991D01*
X01034140Y00126912D02*
X01044296D01*
X01059531Y00119295D02*
X01049375D01*
X01059531Y00129452D01*
Y00131991D01*
X01056992Y00134530D01*
X01051914D01*
X01049375Y00131991D01*
X01064610D02*
X01067149Y00134530D01*
X01072227D01*
X01074766Y00131991D01*
Y00121834D01*
X01072227Y00119295D01*
X01067149D01*
X01064610Y00121834D01*
Y00131991D01*
X01090002Y00119295D02*
X01079845D01*
X01090002Y00129452D01*
Y00131991D01*
X01087462Y00134530D01*
X01082384D01*
X01079845Y00131991D01*
X01095080D02*
X01097619Y00134530D01*
X01102697D01*
X01105237Y00131991D01*
Y00121834D01*
X01102697Y00119295D01*
X01097619D01*
X01095080Y00121834D01*
Y00131991D01*
X00757425D02*
X00754885Y00134530D01*
X00749807D01*
X00747268Y00131991D01*
Y00121834D01*
X00749807Y00119295D01*
X00754885D01*
X00757425Y00121834D01*
Y00126912D01*
X00752346D01*
X00772660Y00134530D02*
X00762503D01*
Y00119295D01*
X00772660D01*
X00762503Y00126912D02*
X00767581D01*
X00777738Y00119295D02*
Y00134530D01*
X00787895Y00119295D01*
Y00134530D01*
X00803130D02*
X00792973D01*
Y00119295D01*
X00803130D01*
X00792973Y00126912D02*
X00798052D01*
X00808208Y00119295D02*
Y00134530D01*
X00815826D01*
X00818365Y00131991D01*
Y00126912D01*
X00815826Y00124373D01*
X00808208D01*
X00813287D02*
X00818365Y00119295D01*
X00823443D02*
Y00129452D01*
X00828522Y00134530D01*
X00833600Y00129452D01*
Y00119295D01*
Y00126912D01*
X00823443D01*
X00838678Y00134530D02*
X00848835D01*
X00843757D01*
Y00119295D01*
X00864070Y00134530D02*
X00853913D01*
Y00119295D01*
X00864070D01*
X00853913Y00126912D02*
X00858992D01*
X00869149Y00134530D02*
Y00119295D01*
X00876766D01*
X00879305Y00121834D01*
Y00131991D01*
X00876766Y00134530D01*
X00869149D01*
X00945324Y00129452D02*
X00947863D01*
Y00126912D01*
X00945324D01*
Y00129452D01*
Y00121834D02*
X00947863D01*
Y00119295D01*
X00945324D01*
Y00121834D01*
X00117729Y00223097D02*
Y00233253D01*
X00122807Y00238332D01*
X00127886Y00233253D01*
Y00223097D01*
Y00230714D01*
X00117729D01*
X00132964Y00238332D02*
Y00223097D01*
X00143121D01*
X00148199Y00238332D02*
Y00223097D01*
X00158356D01*
X00178669D02*
Y00233253D01*
X00183748Y00238332D01*
X00188826Y00233253D01*
Y00223097D01*
Y00230714D01*
X00178669D01*
X00193904Y00223097D02*
Y00238332D01*
X00201522D01*
X00204061Y00235793D01*
Y00230714D01*
X00201522Y00228175D01*
X00193904D01*
X00198983D02*
X00204061Y00223097D01*
X00209139Y00238332D02*
X00219296D01*
X00214218D01*
Y00223097D01*
X00224375Y00238332D02*
Y00223097D01*
X00229453Y00228175D01*
X00234531Y00223097D01*
Y00238332D01*
X00247227D02*
X00242149D01*
X00239610Y00235793D01*
Y00225636D01*
X00242149Y00223097D01*
X00247227D01*
X00249766Y00225636D01*
Y00235793D01*
X00247227Y00238332D01*
X00254845Y00223097D02*
Y00238332D01*
X00262462D01*
X00265001Y00235793D01*
Y00230714D01*
X00262462Y00228175D01*
X00254845D01*
X00259923D02*
X00265001Y00223097D01*
X00270080Y00238332D02*
Y00223097D01*
Y00228175D01*
X00280236Y00238332D01*
X00272619Y00230714D01*
X00280236Y00223097D01*
X00300550Y00238332D02*
Y00228175D01*
X00305628Y00223097D01*
X00310707Y00228175D01*
Y00238332D01*
X00315785D02*
X00320863D01*
X00318324D01*
Y00223097D01*
X00315785D01*
X00320863D01*
X00338638Y00238332D02*
X00328481D01*
Y00223097D01*
X00338638D01*
X00328481Y00230714D02*
X00333559D01*
X00343716Y00238332D02*
Y00223097D01*
X00348794Y00228175D01*
X00353873Y00223097D01*
Y00238332D01*
X00369108D02*
X00358951D01*
Y00223097D01*
X00369108D01*
X00358951Y00230714D02*
X00364029D01*
X00374186Y00238332D02*
Y00223097D01*
X00381804D01*
X00384343Y00225636D01*
Y00235793D01*
X00381804Y00238332D01*
X00374186D01*
X00414813D02*
X00404656D01*
Y00230714D01*
X00409734D01*
X00404656D01*
Y00223097D01*
X00419891D02*
Y00238332D01*
X00427509D01*
X00430048Y00235793D01*
Y00230714D01*
X00427509Y00228175D01*
X00419891D01*
X00424970D02*
X00430048Y00223097D01*
X00442744Y00238332D02*
X00437665D01*
X00435126Y00235793D01*
Y00225636D01*
X00437665Y00223097D01*
X00442744D01*
X00445283Y00225636D01*
Y00235793D01*
X00442744Y00238332D01*
X00450361Y00223097D02*
Y00238332D01*
X00455440Y00233253D01*
X00460518Y00238332D01*
Y00223097D01*
X00480832Y00238332D02*
X00490988D01*
X00485910D01*
Y00223097D01*
X00503684Y00238332D02*
X00498606D01*
X00496067Y00235793D01*
Y00225636D01*
X00498606Y00223097D01*
X00503684D01*
X00506223Y00225636D01*
Y00235793D01*
X00503684Y00238332D01*
X00511302Y00223097D02*
Y00238332D01*
X00518919D01*
X00521458Y00235793D01*
Y00230714D01*
X00518919Y00228175D01*
X00511302D01*
X00551929Y00235793D02*
X00549389Y00238332D01*
X00544311D01*
X00541772Y00235793D01*
Y00233253D01*
X00544311Y00230714D01*
X00549389D01*
X00551929Y00228175D01*
Y00225636D01*
X00549389Y00223097D01*
X00544311D01*
X00541772Y00225636D01*
X00557007Y00238332D02*
X00562085D01*
X00559546D01*
Y00223097D01*
X00557007D01*
X00562085D01*
X00569703Y00238332D02*
Y00223097D01*
X00577320D01*
X00579860Y00225636D01*
Y00235793D01*
X00577320Y00238332D01*
X00569703D01*
X00595095D02*
X00584938D01*
Y00223097D01*
X00595095D01*
X00584938Y00230714D02*
X00590016D01*
X01184018Y00238332D02*
X01173861D01*
Y00230714D01*
X01178939D01*
X01173861D01*
Y00223097D01*
X00885317D02*
Y00238332D01*
X00892934D01*
X00895474Y00235793D01*
Y00230714D01*
X00892934Y00228175D01*
X00885317D01*
X00900552Y00223097D02*
Y00238332D01*
X00908170D01*
X00910709Y00235793D01*
Y00230714D01*
X00908170Y00228175D01*
X00900552D01*
X00905630D02*
X00910709Y00223097D01*
X00923405Y00238332D02*
X00918326D01*
X00915787Y00235793D01*
Y00225636D01*
X00918326Y00223097D01*
X00923405D01*
X00925944Y00225636D01*
Y00235793D01*
X00923405Y00238332D01*
X00941179Y00235793D02*
X00938640Y00238332D01*
X00933561D01*
X00931022Y00235793D01*
Y00225636D01*
X00933561Y00223097D01*
X00938640D01*
X00941179Y00225636D01*
X00946257Y00235793D02*
X00948796Y00238332D01*
X00953875D01*
X00956414Y00235793D01*
Y00225636D01*
X00953875Y00223097D01*
X00948796D01*
X00946257Y00225636D01*
Y00235793D01*
X00961492Y00225636D02*
X00964032Y00223097D01*
X00969110D01*
X00971649Y00225636D01*
Y00235793D01*
X00969110Y00238332D01*
X00964032D01*
X00961492Y00235793D01*
Y00233253D01*
X00964032Y00230714D01*
X00971649D01*
X00976727Y00223097D02*
X00981806D01*
X00979267D01*
Y00238332D01*
X00976727Y00235793D01*
X00746760Y00238332D02*
Y00223097D01*
X00754378D01*
X00756917Y00225636D01*
Y00228175D01*
X00754378Y00230714D01*
X00746760D01*
X00754378D01*
X00756917Y00233253D01*
Y00235793D01*
X00754378Y00238332D01*
X00746760D01*
X00769613D02*
X00764534D01*
X00761995Y00235793D01*
Y00225636D01*
X00764534Y00223097D01*
X00769613D01*
X00772152Y00225636D01*
Y00235793D01*
X00769613Y00238332D01*
X00777230Y00223097D02*
Y00233253D01*
X00782309Y00238332D01*
X00787387Y00233253D01*
Y00223097D01*
Y00230714D01*
X00777230D01*
X00792465Y00223097D02*
Y00238332D01*
X00800083D01*
X00802622Y00235793D01*
Y00230714D01*
X00800083Y00228175D01*
X00792465D01*
X00797544D02*
X00802622Y00223097D01*
X00807700Y00238332D02*
Y00223097D01*
X00815318D01*
X00817857Y00225636D01*
Y00235793D01*
X00815318Y00238332D01*
X00807700D01*
X00840710Y00223097D02*
Y00238332D01*
X00845788D02*
Y00223097D01*
X00838170Y00233253D02*
X00845788D01*
X00848327D01*
X00838170Y00228175D02*
X00848327D01*
X00853406Y00233253D02*
X00855945D01*
Y00230714D01*
X00853406D01*
Y00233253D01*
Y00225636D02*
X00855945D01*
Y00223097D01*
X00853406D01*
Y00225636D01*
X00117729Y00186814D02*
Y00171579D01*
X00127886D01*
X00132964D02*
Y00181735D01*
X00138042Y00186814D01*
X00143121Y00181735D01*
Y00171579D01*
Y00179196D01*
X00132964D01*
X00148199Y00186814D02*
Y00184275D01*
X00153278Y00179196D01*
X00158356Y00184275D01*
Y00186814D01*
X00153278Y00179196D02*
Y00171579D01*
X00173591Y00186814D02*
X00163434D01*
Y00171579D01*
X00173591D01*
X00163434Y00179196D02*
X00168513D01*
X00178669Y00171579D02*
Y00186814D01*
X00186287D01*
X00188826Y00184275D01*
Y00179196D01*
X00186287Y00176657D01*
X00178669D01*
X00183748D02*
X00188826Y00171579D01*
X00209139D02*
Y00186814D01*
X00219296Y00171579D01*
Y00186814D01*
X00224375Y00171579D02*
Y00181735D01*
X00229453Y00186814D01*
X00234531Y00181735D01*
Y00171579D01*
Y00179196D01*
X00224375D01*
X00239610Y00171579D02*
Y00186814D01*
X00244688Y00181735D01*
X00249766Y00186814D01*
Y00171579D01*
X00265001Y00186814D02*
X00254845D01*
Y00171579D01*
X00265001D01*
X00254845Y00179196D02*
X00259923D01*
X00285315Y00176657D02*
X00295471D01*
X00285315Y00181735D02*
X00295471D01*
X00117729Y00119295D02*
Y00134530D01*
X00125346D01*
X00127886Y00131991D01*
Y00126912D01*
X00125346Y00124373D01*
X00117729D01*
X00132964Y00134530D02*
Y00119295D01*
X00143121D01*
X00155817Y00134530D02*
X00150738D01*
X00148199Y00131991D01*
Y00121834D01*
X00150738Y00119295D01*
X00155817D01*
X00158356Y00121834D01*
Y00131991D01*
X00155817Y00134530D01*
X00163434D02*
X00173591D01*
X00168513D01*
Y00119295D01*
X00193904D02*
Y00134530D01*
X00204061Y00119295D01*
Y00134530D01*
X00209139Y00119295D02*
Y00129452D01*
X00214218Y00134530D01*
X00219296Y00129452D01*
Y00119295D01*
Y00126912D01*
X00209139D01*
X00224375Y00119295D02*
Y00134530D01*
X00229453Y00129452D01*
X00234531Y00134530D01*
Y00119295D01*
X00249766Y00134530D02*
X00239610D01*
Y00119295D01*
X00249766D01*
X00239610Y00126912D02*
X00244688D01*
X00270080Y00124373D02*
X00280236D01*
X00270080Y00129452D02*
X00280236D01*
X01163444Y00119295D02*
X01153287D01*
X01163444Y00129452D01*
Y00131991D01*
X01160904Y00134530D01*
X01155826D01*
X01153287Y00131991D01*
X01168522D02*
X01171061Y00134530D01*
X01176140D01*
X01178679Y00131991D01*
Y00121834D01*
X01176140Y00119295D01*
X01171061D01*
X01168522Y00121834D01*
Y00131991D01*
X01183757Y00129452D02*
X01186296D01*
Y00126912D01*
X01183757D01*
Y00129452D01*
Y00121834D02*
X01186296D01*
Y00119295D01*
X01183757D01*
Y00121834D01*
X01206610Y00119295D02*
X01196453D01*
X01206610Y00129452D01*
Y00131991D01*
X01204071Y00134530D01*
X01198992D01*
X01196453Y00131991D01*
X01211688Y00121834D02*
X01214227Y00119295D01*
X01219306D01*
X01221845Y00121834D01*
Y00131991D01*
X01219306Y00134530D01*
X01214227D01*
X01211688Y00131991D01*
Y00129452D01*
X01214227Y00126912D01*
X01221845D01*
X01226923Y00129452D02*
X01229462D01*
Y00126912D01*
X01226923D01*
Y00129452D01*
Y00121834D02*
X01229462D01*
Y00119295D01*
X01226923D01*
Y00121834D01*
X01247237Y00119295D02*
Y00134530D01*
X01239619Y00126912D01*
X01249776D01*
X01262472Y00119295D02*
Y00134530D01*
X01254854Y00126912D01*
X01265011D01*
X01474470Y00134530D02*
X01484627D01*
X01479548D01*
Y00119295D01*
X01499862Y00134530D02*
X01489705D01*
Y00119295D01*
X01499862D01*
X01489705Y00126912D02*
X01494783D01*
X01504940Y00134530D02*
X01515097Y00119295D01*
Y00134530D02*
X01504940Y00119295D01*
X01520175D02*
Y00129452D01*
X01525254Y00134530D01*
X01530332Y00129452D01*
Y00119295D01*
Y00126912D01*
X01520175D01*
X01545567Y00131991D02*
X01543028Y00134530D01*
X01537950D01*
X01535410Y00131991D01*
Y00129452D01*
X01537950Y00126912D01*
X01543028D01*
X01545567Y00124373D01*
Y00121834D01*
X01543028Y00119295D01*
X01537950D01*
X01535410Y00121834D01*
X01565880Y00134530D02*
X01570959D01*
X01568420D01*
Y00119295D01*
X01565880D01*
X01570959D01*
X01578576D02*
Y00134530D01*
X01588733Y00119295D01*
Y00134530D01*
X01603968Y00131991D02*
X01601429Y00134530D01*
X01596351D01*
X01593811Y00131991D01*
Y00129452D01*
X01596351Y00126912D01*
X01601429D01*
X01603968Y00124373D01*
Y00121834D01*
X01601429Y00119295D01*
X01596351D01*
X01593811Y00121834D01*
X01609046Y00134530D02*
X01619203D01*
X01614125D01*
Y00119295D01*
X01624281D02*
Y00134530D01*
X01631899D01*
X01634438Y00131991D01*
Y00126912D01*
X01631899Y00124373D01*
X01624281D01*
X01629360D02*
X01634438Y00119295D01*
X01639517Y00134530D02*
Y00121834D01*
X01642056Y00119295D01*
X01647134D01*
X01649673Y00121834D01*
Y00134530D01*
X01654752Y00119295D02*
Y00134530D01*
X01659830Y00129452D01*
X01664908Y00134530D01*
Y00119295D01*
X01680143Y00134530D02*
X01669987D01*
Y00119295D01*
X01680143D01*
X01669987Y00126912D02*
X01675065D01*
X01685222Y00119295D02*
Y00134530D01*
X01695379Y00119295D01*
Y00134530D01*
X01700457D02*
X01710614D01*
X01705535D01*
Y00119295D01*
X01725849Y00131991D02*
X01723309Y00134530D01*
X01718231D01*
X01715692Y00131991D01*
Y00129452D01*
X01718231Y00126912D01*
X01723309D01*
X01725849Y00124373D01*
Y00121834D01*
X01723309Y00119295D01*
X01718231D01*
X01715692Y00121834D01*
X00746760Y00186685D02*
X00756917D01*
X00751838D01*
Y00171450D01*
X00761995Y00186685D02*
X00767073D01*
X00764534D01*
Y00171450D01*
X00761995D01*
X00767073D01*
X00774691Y00186685D02*
Y00171450D01*
X00782309D01*
X00784848Y00173989D01*
Y00184146D01*
X00782309Y00186685D01*
X00774691D01*
X00807700Y00171450D02*
Y00186685D01*
X00812779D02*
Y00171450D01*
X00805161Y00181607D02*
X00812779D01*
X00815318D01*
X00805161Y00176528D02*
X00815318D01*
X00820396Y00181607D02*
X00822935D01*
Y00179067D01*
X00820396D01*
Y00181607D01*
Y00173989D02*
X00822935D01*
Y00171450D01*
X00820396D01*
Y00173989D01*
X00885317Y00171450D02*
Y00186685D01*
X00895474Y00171450D01*
Y00186685D01*
X00900552Y00171450D02*
X00910709Y00181607D01*
X00915787Y00171450D02*
Y00181607D01*
X00920865Y00186685D01*
X00925944Y00181607D01*
Y00171450D01*
Y00179067D01*
X00915787D01*
M02*
