G04*
G04 #@! TF.GenerationSoftware,Altium Limited,Altium Designer,18.0.9 (584)*
G04*
G04 Layer_Color=16711935*
%FSAX44Y44*%
%MOMM*%
G71*
G01*
G75*
%ADD23C,0.2540*%
%ADD25C,0.2032*%
G04:AMPARAMS|DCode=50|XSize=0.3541mm|YSize=0.2627mm|CornerRadius=0.0499mm|HoleSize=0mm|Usage=FLASHONLY|Rotation=90.000|XOffset=0mm|YOffset=0mm|HoleType=Round|Shape=RoundedRectangle|*
%AMROUNDEDRECTD50*
21,1,0.3541,0.1629,0,0,90.0*
21,1,0.2543,0.2627,0,0,90.0*
1,1,0.0998,0.0815,0.1271*
1,1,0.0998,0.0815,-0.1271*
1,1,0.0998,-0.0815,-0.1271*
1,1,0.0998,-0.0815,0.1271*
%
%ADD50ROUNDEDRECTD50*%
G04:AMPARAMS|DCode=51|XSize=0.3382mm|YSize=0.2725mm|CornerRadius=0.0504mm|HoleSize=0mm|Usage=FLASHONLY|Rotation=0.000|XOffset=0mm|YOffset=0mm|HoleType=Round|Shape=RoundedRectangle|*
%AMROUNDEDRECTD51*
21,1,0.3382,0.1717,0,0,0.0*
21,1,0.2374,0.2725,0,0,0.0*
1,1,0.1008,0.1187,-0.0858*
1,1,0.1008,-0.1187,-0.0858*
1,1,0.1008,-0.1187,0.0858*
1,1,0.1008,0.1187,0.0858*
%
%ADD51ROUNDEDRECTD51*%
G04:AMPARAMS|DCode=52|XSize=0.5153mm|YSize=0.4725mm|CornerRadius=0.0496mm|HoleSize=0mm|Usage=FLASHONLY|Rotation=0.000|XOffset=0mm|YOffset=0mm|HoleType=Round|Shape=RoundedRectangle|*
%AMROUNDEDRECTD52*
21,1,0.5153,0.3733,0,0,0.0*
21,1,0.4161,0.4725,0,0,0.0*
1,1,0.0992,0.2081,-0.1866*
1,1,0.0992,-0.2081,-0.1866*
1,1,0.0992,-0.2081,0.1866*
1,1,0.0992,0.2081,0.1866*
%
%ADD52ROUNDEDRECTD52*%
G04:AMPARAMS|DCode=53|XSize=0.35mm|YSize=0.4mm|CornerRadius=0.0508mm|HoleSize=0mm|Usage=FLASHONLY|Rotation=0.000|XOffset=0mm|YOffset=0mm|HoleType=Round|Shape=RoundedRectangle|*
%AMROUNDEDRECTD53*
21,1,0.3500,0.2985,0,0,0.0*
21,1,0.2485,0.4000,0,0,0.0*
1,1,0.1015,0.1243,-0.1493*
1,1,0.1015,-0.1243,-0.1493*
1,1,0.1015,-0.1243,0.1493*
1,1,0.1015,0.1243,0.1493*
%
%ADD53ROUNDEDRECTD53*%
G04:AMPARAMS|DCode=55|XSize=0.3541mm|YSize=0.2627mm|CornerRadius=0.0499mm|HoleSize=0mm|Usage=FLASHONLY|Rotation=0.000|XOffset=0mm|YOffset=0mm|HoleType=Round|Shape=RoundedRectangle|*
%AMROUNDEDRECTD55*
21,1,0.3541,0.1629,0,0,0.0*
21,1,0.2543,0.2627,0,0,0.0*
1,1,0.0998,0.1271,-0.0815*
1,1,0.0998,-0.1271,-0.0815*
1,1,0.0998,-0.1271,0.0815*
1,1,0.0998,0.1271,0.0815*
%
%ADD55ROUNDEDRECTD55*%
G04:AMPARAMS|DCode=58|XSize=0.5153mm|YSize=0.4725mm|CornerRadius=0.0496mm|HoleSize=0mm|Usage=FLASHONLY|Rotation=90.000|XOffset=0mm|YOffset=0mm|HoleType=Round|Shape=RoundedRectangle|*
%AMROUNDEDRECTD58*
21,1,0.5153,0.3733,0,0,90.0*
21,1,0.4161,0.4725,0,0,90.0*
1,1,0.0992,0.1866,0.2081*
1,1,0.0992,0.1866,-0.2081*
1,1,0.0992,-0.1866,-0.2081*
1,1,0.0992,-0.1866,0.2081*
%
%ADD58ROUNDEDRECTD58*%
G04:AMPARAMS|DCode=79|XSize=0.35mm|YSize=0.4mm|CornerRadius=0.0508mm|HoleSize=0mm|Usage=FLASHONLY|Rotation=90.000|XOffset=0mm|YOffset=0mm|HoleType=Round|Shape=RoundedRectangle|*
%AMROUNDEDRECTD79*
21,1,0.3500,0.2985,0,0,90.0*
21,1,0.2485,0.4000,0,0,90.0*
1,1,0.1015,0.1493,0.1243*
1,1,0.1015,0.1493,-0.1243*
1,1,0.1015,-0.1493,-0.1243*
1,1,0.1015,-0.1493,0.1243*
%
%ADD79ROUNDEDRECTD79*%
G04:AMPARAMS|DCode=81|XSize=0.3382mm|YSize=0.2725mm|CornerRadius=0.0504mm|HoleSize=0mm|Usage=FLASHONLY|Rotation=90.000|XOffset=0mm|YOffset=0mm|HoleType=Round|Shape=RoundedRectangle|*
%AMROUNDEDRECTD81*
21,1,0.3382,0.1717,0,0,90.0*
21,1,0.2374,0.2725,0,0,90.0*
1,1,0.1008,0.0858,0.1187*
1,1,0.1008,0.0858,-0.1187*
1,1,0.1008,-0.0858,-0.1187*
1,1,0.1008,-0.0858,0.1187*
%
%ADD81ROUNDEDRECTD81*%
G04:AMPARAMS|DCode=85|XSize=0.402mm|YSize=0.3034mm|CornerRadius=0.0501mm|HoleSize=0mm|Usage=FLASHONLY|Rotation=0.000|XOffset=0mm|YOffset=0mm|HoleType=Round|Shape=RoundedRectangle|*
%AMROUNDEDRECTD85*
21,1,0.4020,0.2033,0,0,0.0*
21,1,0.3019,0.3034,0,0,0.0*
1,1,0.1001,0.1510,-0.1016*
1,1,0.1001,-0.1510,-0.1016*
1,1,0.1001,-0.1510,0.1016*
1,1,0.1001,0.1510,0.1016*
%
%ADD85ROUNDEDRECTD85*%
G04:AMPARAMS|DCode=90|XSize=0.402mm|YSize=0.3034mm|CornerRadius=0.0501mm|HoleSize=0mm|Usage=FLASHONLY|Rotation=270.000|XOffset=0mm|YOffset=0mm|HoleType=Round|Shape=RoundedRectangle|*
%AMROUNDEDRECTD90*
21,1,0.4020,0.2033,0,0,270.0*
21,1,0.3019,0.3034,0,0,270.0*
1,1,0.1001,-0.1016,-0.1510*
1,1,0.1001,-0.1016,0.1510*
1,1,0.1001,0.1016,0.1510*
1,1,0.1001,0.1016,-0.1510*
%
%ADD90ROUNDEDRECTD90*%
%ADD93C,0.5080*%
%ADD96R,0.8000X0.3000*%
%ADD97R,0.7000X0.3000*%
%ADD98R,0.3000X0.7000*%
%ADD99R,0.7000X0.4000*%
%ADD100R,0.3000X0.6500*%
G04:AMPARAMS|DCode=104|XSize=0.7mm|YSize=0.35mm|CornerRadius=0.1mm|HoleSize=0mm|Usage=FLASHONLY|Rotation=0.000|XOffset=0mm|YOffset=0mm|HoleType=Round|Shape=RoundedRectangle|*
%AMROUNDEDRECTD104*
21,1,0.7000,0.1500,0,0,0.0*
21,1,0.5000,0.3500,0,0,0.0*
1,1,0.2000,0.2500,-0.0750*
1,1,0.2000,-0.2500,-0.0750*
1,1,0.2000,-0.2500,0.0750*
1,1,0.2000,0.2500,0.0750*
%
%ADD104ROUNDEDRECTD104*%
G04:AMPARAMS|DCode=114|XSize=0.4mm|YSize=0.7mm|CornerRadius=0.0995mm|HoleSize=0mm|Usage=FLASHONLY|Rotation=90.000|XOffset=0mm|YOffset=0mm|HoleType=Round|Shape=RoundedRectangle|*
%AMROUNDEDRECTD114*
21,1,0.4000,0.5010,0,0,90.0*
21,1,0.2010,0.7000,0,0,90.0*
1,1,0.1990,0.2505,0.1005*
1,1,0.1990,0.2505,-0.1005*
1,1,0.1990,-0.2505,-0.1005*
1,1,0.1990,-0.2505,0.1005*
%
%ADD114ROUNDEDRECTD114*%
%ADD116R,2.0000X1.6000*%
%ADD117R,1.4500X0.5000*%
%ADD120R,0.6000X0.7000*%
%ADD121R,0.7096X0.4810*%
%ADD122R,0.4165X0.4565*%
%ADD123C,2.0000*%
%ADD124R,0.4565X0.4165*%
%ADD125R,0.7000X0.6000*%
%ADD128R,0.4810X0.7096*%
%ADD130R,0.9000X0.9500*%
%ADD131R,2.0000X1.3000*%
%ADD132C,1.6240*%
%ADD133C,0.1000*%
%ADD134C,1.1000*%
G04:AMPARAMS|DCode=135|XSize=1.1mm|YSize=1.1mm|CornerRadius=0.0495mm|HoleSize=0mm|Usage=FLASHONLY|Rotation=0.000|XOffset=0mm|YOffset=0mm|HoleType=Round|Shape=RoundedRectangle|*
%AMROUNDEDRECTD135*
21,1,1.1000,1.0010,0,0,0.0*
21,1,1.0010,1.1000,0,0,0.0*
1,1,0.0990,0.5005,-0.5005*
1,1,0.0990,-0.5005,-0.5005*
1,1,0.0990,-0.5005,0.5005*
1,1,0.0990,0.5005,0.5005*
%
%ADD135ROUNDEDRECTD135*%
G04:AMPARAMS|DCode=136|XSize=1.1mm|YSize=1.1mm|CornerRadius=0.0495mm|HoleSize=0mm|Usage=FLASHONLY|Rotation=90.000|XOffset=0mm|YOffset=0mm|HoleType=Round|Shape=RoundedRectangle|*
%AMROUNDEDRECTD136*
21,1,1.1000,1.0010,0,0,90.0*
21,1,1.0010,1.1000,0,0,90.0*
1,1,0.0990,0.5005,0.5005*
1,1,0.0990,0.5005,-0.5005*
1,1,0.0990,-0.5005,-0.5005*
1,1,0.0990,-0.5005,0.5005*
%
%ADD136ROUNDEDRECTD136*%
%ADD137C,1.1200*%
G04:AMPARAMS|DCode=138|XSize=1.12mm|YSize=1.12mm|CornerRadius=0.0504mm|HoleSize=0mm|Usage=FLASHONLY|Rotation=0.000|XOffset=0mm|YOffset=0mm|HoleType=Round|Shape=RoundedRectangle|*
%AMROUNDEDRECTD138*
21,1,1.1200,1.0192,0,0,0.0*
21,1,1.0192,1.1200,0,0,0.0*
1,1,0.1008,0.5096,-0.5096*
1,1,0.1008,-0.5096,-0.5096*
1,1,0.1008,-0.5096,0.5096*
1,1,0.1008,0.5096,0.5096*
%
%ADD138ROUNDEDRECTD138*%
%ADD139C,2.5000*%
%ADD140C,1.5500*%
%ADD141O,2.0000X1.3000*%
%ADD142C,2.6924*%
%ADD143C,0.9652*%
%ADD144C,2.3876*%
G04:AMPARAMS|DCode=175|XSize=0.175mm|YSize=0.3mm|CornerRadius=0.0499mm|HoleSize=0mm|Usage=FLASHONLY|Rotation=90.000|XOffset=0mm|YOffset=0mm|HoleType=Round|Shape=RoundedRectangle|*
%AMROUNDEDRECTD175*
21,1,0.1750,0.2003,0,0,90.0*
21,1,0.0753,0.3000,0,0,90.0*
1,1,0.0998,0.1001,0.0376*
1,1,0.0998,0.1001,-0.0376*
1,1,0.0998,-0.1001,-0.0376*
1,1,0.0998,-0.1001,0.0376*
%
%ADD175ROUNDEDRECTD175*%
G04:AMPARAMS|DCode=176|XSize=2.7mm|YSize=2.7mm|CornerRadius=0.054mm|HoleSize=0mm|Usage=FLASHONLY|Rotation=180.000|XOffset=0mm|YOffset=0mm|HoleType=Round|Shape=RoundedRectangle|*
%AMROUNDEDRECTD176*
21,1,2.7000,2.5920,0,0,180.0*
21,1,2.5920,2.7000,0,0,180.0*
1,1,0.1080,-1.2960,1.2960*
1,1,0.1080,1.2960,1.2960*
1,1,0.1080,1.2960,-1.2960*
1,1,0.1080,-1.2960,-1.2960*
%
%ADD176ROUNDEDRECTD176*%
G04:AMPARAMS|DCode=177|XSize=0.2393mm|YSize=0.9791mm|CornerRadius=0.1196mm|HoleSize=0mm|Usage=FLASHONLY|Rotation=180.000|XOffset=0mm|YOffset=0mm|HoleType=Round|Shape=RoundedRectangle|*
%AMROUNDEDRECTD177*
21,1,0.2393,0.7398,0,0,180.0*
21,1,0.0000,0.9791,0,0,180.0*
1,1,0.2393,0.0000,0.3699*
1,1,0.2393,0.0000,0.3699*
1,1,0.2393,0.0000,-0.3699*
1,1,0.2393,0.0000,-0.3699*
%
%ADD177ROUNDEDRECTD177*%
G04:AMPARAMS|DCode=178|XSize=0.9791mm|YSize=0.2393mm|CornerRadius=0.1196mm|HoleSize=0mm|Usage=FLASHONLY|Rotation=180.000|XOffset=0mm|YOffset=0mm|HoleType=Round|Shape=RoundedRectangle|*
%AMROUNDEDRECTD178*
21,1,0.9791,0.0000,0,0,180.0*
21,1,0.7398,0.2393,0,0,180.0*
1,1,0.2393,-0.3699,0.0000*
1,1,0.2393,0.3699,0.0000*
1,1,0.2393,0.3699,0.0000*
1,1,0.2393,-0.3699,0.0000*
%
%ADD178ROUNDEDRECTD178*%
G04:AMPARAMS|DCode=179|XSize=0.9791mm|YSize=0.2393mm|CornerRadius=0.0503mm|HoleSize=0mm|Usage=FLASHONLY|Rotation=180.000|XOffset=0mm|YOffset=0mm|HoleType=Round|Shape=RoundedRectangle|*
%AMROUNDEDRECTD179*
21,1,0.9791,0.1388,0,0,180.0*
21,1,0.8786,0.2393,0,0,180.0*
1,1,0.1005,-0.4393,0.0694*
1,1,0.1005,0.4393,0.0694*
1,1,0.1005,0.4393,-0.0694*
1,1,0.1005,-0.4393,-0.0694*
%
%ADD179ROUNDEDRECTD179*%
G04:AMPARAMS|DCode=180|XSize=1.6mm|YSize=1mm|CornerRadius=0.05mm|HoleSize=0mm|Usage=FLASHONLY|Rotation=270.000|XOffset=0mm|YOffset=0mm|HoleType=Round|Shape=RoundedRectangle|*
%AMROUNDEDRECTD180*
21,1,1.6000,0.9000,0,0,270.0*
21,1,1.5000,1.0000,0,0,270.0*
1,1,0.1000,-0.4500,-0.7500*
1,1,0.1000,-0.4500,0.7500*
1,1,0.1000,0.4500,0.7500*
1,1,0.1000,0.4500,-0.7500*
%
%ADD180ROUNDEDRECTD180*%
G04:AMPARAMS|DCode=181|XSize=1.5397mm|YSize=0.5658mm|CornerRadius=0.2829mm|HoleSize=0mm|Usage=FLASHONLY|Rotation=270.000|XOffset=0mm|YOffset=0mm|HoleType=Round|Shape=RoundedRectangle|*
%AMROUNDEDRECTD181*
21,1,1.5397,0.0000,0,0,270.0*
21,1,0.9739,0.5658,0,0,270.0*
1,1,0.5658,0.0000,-0.4869*
1,1,0.5658,0.0000,0.4869*
1,1,0.5658,0.0000,0.4869*
1,1,0.5658,0.0000,-0.4869*
%
%ADD181ROUNDEDRECTD181*%
G04:AMPARAMS|DCode=182|XSize=1.5397mm|YSize=0.5658mm|CornerRadius=0.0509mm|HoleSize=0mm|Usage=FLASHONLY|Rotation=270.000|XOffset=0mm|YOffset=0mm|HoleType=Round|Shape=RoundedRectangle|*
%AMROUNDEDRECTD182*
21,1,1.5397,0.4640,0,0,270.0*
21,1,1.4379,0.5658,0,0,270.0*
1,1,0.1018,-0.2320,-0.7189*
1,1,0.1018,-0.2320,0.7189*
1,1,0.1018,0.2320,0.7189*
1,1,0.1018,0.2320,-0.7189*
%
%ADD182ROUNDEDRECTD182*%
G04:AMPARAMS|DCode=183|XSize=0.25mm|YSize=0.575mm|CornerRadius=0.05mm|HoleSize=0mm|Usage=FLASHONLY|Rotation=270.000|XOffset=0mm|YOffset=0mm|HoleType=Round|Shape=RoundedRectangle|*
%AMROUNDEDRECTD183*
21,1,0.2500,0.4750,0,0,270.0*
21,1,0.1500,0.5750,0,0,270.0*
1,1,0.1000,-0.2375,-0.0750*
1,1,0.1000,-0.2375,0.0750*
1,1,0.1000,0.2375,0.0750*
1,1,0.1000,0.2375,-0.0750*
%
%ADD183ROUNDEDRECTD183*%
G04:AMPARAMS|DCode=184|XSize=0.675mm|YSize=0.25mm|CornerRadius=0.05mm|HoleSize=0mm|Usage=FLASHONLY|Rotation=270.000|XOffset=0mm|YOffset=0mm|HoleType=Round|Shape=RoundedRectangle|*
%AMROUNDEDRECTD184*
21,1,0.6750,0.1500,0,0,270.0*
21,1,0.5750,0.2500,0,0,270.0*
1,1,0.1000,-0.0750,-0.2875*
1,1,0.1000,-0.0750,0.2875*
1,1,0.1000,0.0750,0.2875*
1,1,0.1000,0.0750,-0.2875*
%
%ADD184ROUNDEDRECTD184*%
G04:AMPARAMS|DCode=185|XSize=0.5mm|YSize=1mm|CornerRadius=0.05mm|HoleSize=0mm|Usage=FLASHONLY|Rotation=0.000|XOffset=0mm|YOffset=0mm|HoleType=Round|Shape=RoundedRectangle|*
%AMROUNDEDRECTD185*
21,1,0.5000,0.9000,0,0,0.0*
21,1,0.4000,1.0000,0,0,0.0*
1,1,0.1000,0.2000,-0.4500*
1,1,0.1000,-0.2000,-0.4500*
1,1,0.1000,-0.2000,0.4500*
1,1,0.1000,0.2000,0.4500*
%
%ADD185ROUNDEDRECTD185*%
G04:AMPARAMS|DCode=186|XSize=0.3627mm|YSize=0.2627mm|CornerRadius=0.0499mm|HoleSize=0mm|Usage=FLASHONLY|Rotation=0.000|XOffset=0mm|YOffset=0mm|HoleType=Round|Shape=RoundedRectangle|*
%AMROUNDEDRECTD186*
21,1,0.3627,0.1629,0,0,0.0*
21,1,0.2629,0.2627,0,0,0.0*
1,1,0.0998,0.1315,-0.0815*
1,1,0.0998,-0.1315,-0.0815*
1,1,0.0998,-0.1315,0.0815*
1,1,0.0998,0.1315,0.0815*
%
%ADD186ROUNDEDRECTD186*%
G04:AMPARAMS|DCode=195|XSize=0.3mm|YSize=1.7mm|CornerRadius=0.1mm|HoleSize=0mm|Usage=FLASHONLY|Rotation=0.000|XOffset=0mm|YOffset=0mm|HoleType=Round|Shape=RoundedRectangle|*
%AMROUNDEDRECTD195*
21,1,0.3000,1.5000,0,0,0.0*
21,1,0.1000,1.7000,0,0,0.0*
1,1,0.2000,0.0500,-0.7500*
1,1,0.2000,-0.0500,-0.7500*
1,1,0.2000,-0.0500,0.7500*
1,1,0.2000,0.0500,0.7500*
%
%ADD195ROUNDEDRECTD195*%
%ADD196R,0.5300X2.6400*%
%ADD197R,0.5300X4.8000*%
%ADD198R,2.3700X0.3790*%
G04:AMPARAMS|DCode=199|XSize=0.3mm|YSize=0.8mm|CornerRadius=0.1mm|HoleSize=0mm|Usage=FLASHONLY|Rotation=90.000|XOffset=0mm|YOffset=0mm|HoleType=Round|Shape=RoundedRectangle|*
%AMROUNDEDRECTD199*
21,1,0.3000,0.6000,0,0,90.0*
21,1,0.1000,0.8000,0,0,90.0*
1,1,0.2000,0.3000,0.0500*
1,1,0.2000,0.3000,-0.0500*
1,1,0.2000,-0.3000,-0.0500*
1,1,0.2000,-0.3000,0.0500*
%
%ADD199ROUNDEDRECTD199*%
G04:AMPARAMS|DCode=200|XSize=0.3mm|YSize=0.8mm|CornerRadius=0.1mm|HoleSize=0mm|Usage=FLASHONLY|Rotation=0.000|XOffset=0mm|YOffset=0mm|HoleType=Round|Shape=RoundedRectangle|*
%AMROUNDEDRECTD200*
21,1,0.3000,0.6000,0,0,0.0*
21,1,0.1000,0.8000,0,0,0.0*
1,1,0.2000,0.0500,-0.3000*
1,1,0.2000,-0.0500,-0.3000*
1,1,0.2000,-0.0500,0.3000*
1,1,0.2000,0.0500,0.3000*
%
%ADD200ROUNDEDRECTD200*%
G04:AMPARAMS|DCode=201|XSize=0.4mm|YSize=0.77mm|CornerRadius=0.0995mm|HoleSize=0mm|Usage=FLASHONLY|Rotation=180.000|XOffset=0mm|YOffset=0mm|HoleType=Round|Shape=RoundedRectangle|*
%AMROUNDEDRECTD201*
21,1,0.4000,0.5710,0,0,180.0*
21,1,0.2010,0.7700,0,0,180.0*
1,1,0.1990,-0.1005,0.2855*
1,1,0.1990,0.1005,0.2855*
1,1,0.1990,0.1005,-0.2855*
1,1,0.1990,-0.1005,-0.2855*
%
%ADD201ROUNDEDRECTD201*%
G04:AMPARAMS|DCode=202|XSize=1.75mm|YSize=2.5mm|CornerRadius=0.0995mm|HoleSize=0mm|Usage=FLASHONLY|Rotation=0.000|XOffset=0mm|YOffset=0mm|HoleType=Round|Shape=RoundedRectangle|*
%AMROUNDEDRECTD202*
21,1,1.7500,2.3010,0,0,0.0*
21,1,1.5510,2.5000,0,0,0.0*
1,1,0.1990,0.7755,-1.1505*
1,1,0.1990,-0.7755,-1.1505*
1,1,0.1990,-0.7755,1.1505*
1,1,0.1990,0.7755,1.1505*
%
%ADD202ROUNDEDRECTD202*%
G04:AMPARAMS|DCode=203|XSize=0.7mm|YSize=1.1mm|CornerRadius=0.101mm|HoleSize=0mm|Usage=FLASHONLY|Rotation=180.000|XOffset=0mm|YOffset=0mm|HoleType=Round|Shape=RoundedRectangle|*
%AMROUNDEDRECTD203*
21,1,0.7000,0.8980,0,0,180.0*
21,1,0.4980,1.1000,0,0,180.0*
1,1,0.2020,-0.2490,0.4490*
1,1,0.2020,0.2490,0.4490*
1,1,0.2020,0.2490,-0.4490*
1,1,0.2020,-0.2490,-0.4490*
%
%ADD203ROUNDEDRECTD203*%
%ADD204R,1.7002X1.3700*%
%ADD205R,0.8000X1.1500*%
%ADD206R,0.8000X0.6200*%
G04:AMPARAMS|DCode=207|XSize=1.7mm|YSize=2.5mm|CornerRadius=0.098mm|HoleSize=0mm|Usage=FLASHONLY|Rotation=90.000|XOffset=0mm|YOffset=0mm|HoleType=Round|Shape=RoundedRectangle|*
%AMROUNDEDRECTD207*
21,1,1.7000,2.3040,0,0,90.0*
21,1,1.5040,2.5000,0,0,90.0*
1,1,0.1960,1.1520,0.7520*
1,1,0.1960,1.1520,-0.7520*
1,1,0.1960,-1.1520,-0.7520*
1,1,0.1960,-1.1520,0.7520*
%
%ADD207ROUNDEDRECTD207*%
G04:AMPARAMS|DCode=208|XSize=0.4mm|YSize=0.7mm|CornerRadius=0.0995mm|HoleSize=0mm|Usage=FLASHONLY|Rotation=0.000|XOffset=0mm|YOffset=0mm|HoleType=Round|Shape=RoundedRectangle|*
%AMROUNDEDRECTD208*
21,1,0.4000,0.5010,0,0,0.0*
21,1,0.2010,0.7000,0,0,0.0*
1,1,0.1990,0.1005,-0.2505*
1,1,0.1990,-0.1005,-0.2505*
1,1,0.1990,-0.1005,0.2505*
1,1,0.1990,0.1005,0.2505*
%
%ADD208ROUNDEDRECTD208*%
G36*
X01208310Y01463139D02*
Y01452866D01*
X01234271Y01452866D01*
Y01442569D01*
X01242847Y01442569D01*
X01242847Y01409796D01*
X01227582Y01409796D01*
X01178066Y01409796D01*
Y01462255D01*
X01178965Y01463153D01*
X01208310Y01463139D01*
D02*
G37*
G36*
X01323086Y01414149D02*
Y01409292D01*
X01321816Y01408766D01*
X01321800Y01408782D01*
X01321800Y01408782D01*
X01320792Y01409456D01*
X01320791Y01409456D01*
X01318458Y01410423D01*
X01318458Y01410423D01*
X01317269Y01410659D01*
X01310223D01*
X01310222Y01410659D01*
X01308959D01*
X01308959Y01410659D01*
X01307770Y01410423D01*
X01307770Y01410423D01*
X01305436Y01409456D01*
X01305436Y01409456D01*
X01304428Y01408782D01*
X01304428Y01408782D01*
X01302642Y01406996D01*
X01302641Y01406996D01*
X01301968Y01405988D01*
X01301968Y01405988D01*
X01301001Y01403654D01*
X01300765Y01402464D01*
Y01394940D01*
X01300764Y01394940D01*
Y01393676D01*
X01300764Y01393676D01*
X01301001Y01392487D01*
X01301968Y01390153D01*
X01302164Y01389860D01*
X01301485Y01388590D01*
X01300000D01*
X01295146Y01393444D01*
X01295146Y01410103D01*
X01300992Y01415949D01*
X01321286Y01415949D01*
X01323086Y01414149D01*
D02*
G37*
G36*
X01324867Y01515496D02*
X01324866Y01498406D01*
X01323596Y01498021D01*
X01323589Y01498032D01*
X01323589Y01498032D01*
X01321802Y01499818D01*
X01321802Y01499818D01*
X01320794Y01500492D01*
X01320794Y01500492D01*
X01318460Y01501458D01*
X01318460Y01501458D01*
X01317271Y01501695D01*
X01310225D01*
X01310225Y01501695D01*
X01308962D01*
X01308962Y01501695D01*
X01307772Y01501459D01*
X01307772Y01501458D01*
X01305439Y01500492D01*
X01305439Y01500492D01*
X01304430Y01499818D01*
X01304430Y01499818D01*
X01302644Y01498032D01*
X01302644Y01498032D01*
X01301970Y01497024D01*
X01301970Y01497023D01*
X01301004Y01494690D01*
X01300767Y01493501D01*
Y01485976D01*
X01300767Y01485975D01*
Y01484713D01*
X01300767Y01484712D01*
X01301004Y01483523D01*
X01301970Y01481189D01*
X01302644Y01480181D01*
X01302644Y01480181D01*
X01304430Y01478395D01*
X01304430Y01478395D01*
X01305439Y01477721D01*
X01305439Y01477721D01*
X01307772Y01476754D01*
X01308962Y01476518D01*
X01316008D01*
X01316008Y01476518D01*
X01317271D01*
X01317271Y01476518D01*
X01318460Y01476754D01*
X01320794Y01477721D01*
X01321802Y01478395D01*
X01321802Y01478395D01*
X01323588Y01480181D01*
X01323589Y01480181D01*
X01323595Y01480190D01*
X01324865Y01479805D01*
X01324863Y01452565D01*
X01323593Y01452180D01*
X01323588Y01452188D01*
X01323588Y01452188D01*
X01321801Y01453974D01*
X01321801Y01453974D01*
X01320793Y01454648D01*
X01320793Y01454648D01*
X01318459Y01455615D01*
X01318459Y01455615D01*
X01317270Y01455851D01*
X01316007D01*
X01316007Y01455851D01*
X01308961D01*
X01308961Y01455851D01*
X01307772Y01455615D01*
X01307772Y01455615D01*
X01305438Y01454648D01*
X01305438Y01454648D01*
X01304430Y01453974D01*
X01304430Y01453974D01*
X01302644Y01452188D01*
X01302644Y01452188D01*
X01301970Y01451180D01*
X01301970Y01451180D01*
X01301003Y01448846D01*
X01300767Y01447657D01*
Y01438991D01*
X01300767Y01438991D01*
Y01437728D01*
X01300767Y01437728D01*
X01301003Y01436539D01*
X01301970Y01434205D01*
X01302643Y01433197D01*
X01302644Y01433196D01*
X01304430Y01431410D01*
X01304430Y01431410D01*
X01305438Y01430737D01*
X01305438Y01430737D01*
X01307772Y01429770D01*
X01308961Y01429533D01*
X01317270Y01429533D01*
X01317270Y01429533D01*
X01318459Y01429770D01*
X01320793Y01430737D01*
X01321801Y01431410D01*
X01321801Y01431410D01*
X01323587Y01433196D01*
X01323588Y01433196D01*
X01323592Y01433203D01*
X01324862Y01432818D01*
X01324862Y01423416D01*
X01297432Y01423416D01*
X01297432Y01443482D01*
X01299210Y01445260D01*
Y01474724D01*
X01291147Y01482787D01*
X01291147Y01516395D01*
X01323969D01*
X01324867Y01515496D01*
D02*
G37*
G54D23*
X01263777Y00208195D02*
Y00259842D01*
X01050417Y00208195D02*
Y00259842D01*
X00102489Y00208195D02*
X01779397D01*
X00102489Y00156549D02*
X01778889D01*
X00102489Y00104902D02*
X01119759D01*
X00102616Y00259842D02*
X01779397D01*
X00102616Y00104902D02*
Y00259842D01*
Y00104902D02*
X00502793D01*
X00102489D02*
Y00259842D01*
X00728599Y00104902D02*
Y00259842D01*
X01779397Y00104902D02*
Y00259842D01*
X01119759Y00104902D02*
X01779397D01*
X01421765Y00103251D02*
Y00154771D01*
G54D25*
X00322326Y00186814D02*
Y00171579D01*
X00329944D01*
X00332483Y00174118D01*
Y00176657D01*
X00329944Y00179196D01*
X00322326D01*
X00329944D01*
X00332483Y00181735D01*
Y00184275D01*
X00329944Y00186814D01*
X00322326D01*
X00340100Y00171579D02*
X00345179D01*
X00347718Y00174118D01*
Y00179196D01*
X00345179Y00181735D01*
X00340100D01*
X00337561Y00179196D01*
Y00174118D01*
X00340100Y00171579D01*
X00355335Y00184275D02*
Y00181735D01*
X00352796D01*
X00357874D01*
X00355335D01*
Y00174118D01*
X00357874Y00171579D01*
X00368031Y00184275D02*
Y00181735D01*
X00365492D01*
X00370570D01*
X00368031D01*
Y00174118D01*
X00370570Y00171579D01*
X00380727D02*
X00385806D01*
X00388345Y00174118D01*
Y00179196D01*
X00385806Y00181735D01*
X00380727D01*
X00378188Y00179196D01*
Y00174118D01*
X00380727Y00171579D01*
X00393423D02*
Y00181735D01*
X00395962D01*
X00398501Y00179196D01*
Y00171579D01*
Y00179196D01*
X00401040Y00181735D01*
X00403580Y00179196D01*
Y00171579D01*
X00434050Y00184275D02*
X00431511Y00186814D01*
X00426432D01*
X00423893Y00184275D01*
Y00181735D01*
X00426432Y00179196D01*
X00431511D01*
X00434050Y00176657D01*
Y00174118D01*
X00431511Y00171579D01*
X00426432D01*
X00423893Y00174118D01*
X00441667Y00171579D02*
X00446746D01*
X00449285Y00174118D01*
Y00179196D01*
X00446746Y00181735D01*
X00441667D01*
X00439128Y00179196D01*
Y00174118D01*
X00441667Y00171579D01*
X00454363D02*
X00459442D01*
X00456903D01*
Y00186814D01*
X00454363D01*
X00477216D02*
Y00171579D01*
X00469598D01*
X00467059Y00174118D01*
Y00179196D01*
X00469598Y00181735D01*
X00477216D01*
X00489912Y00171579D02*
X00484833D01*
X00482294Y00174118D01*
Y00179196D01*
X00484833Y00181735D01*
X00489912D01*
X00492451Y00179196D01*
Y00176657D01*
X00482294D01*
X00497529Y00181735D02*
Y00171579D01*
Y00176657D01*
X00500069Y00179196D01*
X00502608Y00181735D01*
X00505147D01*
X01441196Y00223097D02*
Y00238332D01*
X01451353Y00223097D01*
Y00238332D01*
X01458970Y00223097D02*
X01464049D01*
X01466588Y00225636D01*
Y00230714D01*
X01464049Y00233253D01*
X01458970D01*
X01456431Y00230714D01*
Y00225636D01*
X01458970Y00223097D01*
X01474205Y00235793D02*
Y00233253D01*
X01471666D01*
X01476745D01*
X01474205D01*
Y00225636D01*
X01476745Y00223097D01*
X01499597Y00238332D02*
X01504675D01*
X01502136D01*
Y00223097D01*
X01499597D01*
X01504675D01*
X01512293D02*
Y00233253D01*
X01519910D01*
X01522450Y00230714D01*
Y00223097D01*
X01542763Y00238332D02*
Y00228175D01*
X01547841Y00223097D01*
X01552920Y00228175D01*
Y00238332D01*
X01565616Y00223097D02*
X01560537D01*
X01557998Y00225636D01*
Y00230714D01*
X01560537Y00233253D01*
X01565616D01*
X01568155Y00230714D01*
Y00228175D01*
X01557998D01*
X01573233Y00233253D02*
Y00223097D01*
Y00228175D01*
X01575773Y00230714D01*
X01578312Y00233253D01*
X01580851D01*
X01588468Y00223097D02*
X01596086D01*
X01598625Y00225636D01*
X01596086Y00228175D01*
X01591008D01*
X01588468Y00230714D01*
X01591008Y00233253D01*
X01598625D01*
X01603703Y00223097D02*
X01608782D01*
X01606243D01*
Y00233253D01*
X01603703D01*
X01618938Y00223097D02*
X01624017D01*
X01626556Y00225636D01*
Y00230714D01*
X01624017Y00233253D01*
X01618938D01*
X01616399Y00230714D01*
Y00225636D01*
X01618938Y00223097D01*
X01631634D02*
Y00233253D01*
X01639252D01*
X01641791Y00230714D01*
Y00223097D01*
X01657026Y00235793D02*
X01654487Y00238332D01*
X01649409D01*
X01646870Y00235793D01*
Y00225636D01*
X01649409Y00223097D01*
X01654487D01*
X01657026Y00225636D01*
X01664644Y00223097D02*
X01669722D01*
X01672261Y00225636D01*
Y00230714D01*
X01669722Y00233253D01*
X01664644D01*
X01662104Y00230714D01*
Y00225636D01*
X01664644Y00223097D01*
X01677340D02*
Y00233253D01*
X01684957D01*
X01687496Y00230714D01*
Y00223097D01*
X01695114Y00235793D02*
Y00233253D01*
X01692575D01*
X01697653D01*
X01695114D01*
Y00225636D01*
X01697653Y00223097D01*
X01705271Y00233253D02*
Y00223097D01*
Y00228175D01*
X01707810Y00230714D01*
X01710349Y00233253D01*
X01712888D01*
X01723045Y00223097D02*
X01728123D01*
X01730662Y00225636D01*
Y00230714D01*
X01728123Y00233253D01*
X01723045D01*
X01720506Y00230714D01*
Y00225636D01*
X01723045Y00223097D01*
X01735741D02*
X01740819D01*
X01738280D01*
Y00238332D01*
X01735741D01*
X01322829Y00235793D02*
X01320289Y00238332D01*
X01315211D01*
X01312672Y00235793D01*
Y00233253D01*
X01315211Y00230714D01*
X01320289D01*
X01322829Y00228175D01*
Y00225636D01*
X01320289Y00223097D01*
X01315211D01*
X01312672Y00225636D01*
X01327907Y00238332D02*
Y00228175D01*
X01332985Y00223097D01*
X01338064Y00228175D01*
Y00238332D01*
X01343142Y00223097D02*
Y00238332D01*
X01353299Y00223097D01*
Y00238332D01*
X01373612Y00223097D02*
Y00238332D01*
X01381230D01*
X01383769Y00235793D01*
Y00230714D01*
X01381230Y00228175D01*
X01373612D01*
X01378691D02*
X01383769Y00223097D01*
X01399004Y00238332D02*
X01388847D01*
Y00223097D01*
X01399004D01*
X01388847Y00230714D02*
X01393926D01*
X01404082Y00238332D02*
Y00228175D01*
X01409161Y00223097D01*
X01414239Y00228175D01*
Y00238332D01*
X01419317Y00233253D02*
X01421857D01*
Y00230714D01*
X01419317D01*
Y00233253D01*
Y00225636D02*
X01421857D01*
Y00223097D01*
X01419317D01*
Y00225636D01*
X01099820Y00223097D02*
Y00238332D01*
X01107438D01*
X01109977Y00235793D01*
Y00230714D01*
X01107438Y00228175D01*
X01099820D01*
X01104898D02*
X01109977Y00223097D01*
X01125212Y00238332D02*
X01115055D01*
Y00223097D01*
X01125212D01*
X01115055Y00230714D02*
X01120133D01*
X01130290Y00238332D02*
Y00228175D01*
X01135368Y00223097D01*
X01140447Y00228175D01*
Y00238332D01*
X01145525Y00233253D02*
X01148064D01*
Y00230714D01*
X01145525D01*
Y00233253D01*
Y00225636D02*
X01148064D01*
Y00223097D01*
X01145525D01*
Y00225636D01*
X00322326Y00119295D02*
Y00134530D01*
X00329944D01*
X00332483Y00131991D01*
Y00126912D01*
X00329944Y00124373D01*
X00322326D01*
X00337561Y00119295D02*
Y00134530D01*
X00345179D01*
X00347718Y00131991D01*
Y00126912D01*
X00345179Y00124373D01*
X00337561D01*
X00342639D02*
X00347718Y00119295D01*
X00360414Y00134530D02*
X00355335D01*
X00352796Y00131991D01*
Y00121834D01*
X00355335Y00119295D01*
X00360414D01*
X00362953Y00121834D01*
Y00131991D01*
X00360414Y00134530D01*
X00378188Y00131991D02*
X00375649Y00134530D01*
X00370570D01*
X00368031Y00131991D01*
Y00121834D01*
X00370570Y00119295D01*
X00375649D01*
X00378188Y00121834D01*
X00383266Y00131991D02*
X00385806Y00134530D01*
X00390884D01*
X00393423Y00131991D01*
Y00121834D01*
X00390884Y00119295D01*
X00385806D01*
X00383266Y00121834D01*
Y00131991D01*
X00398501Y00121834D02*
X00401040Y00119295D01*
X00406119D01*
X00408658Y00121834D01*
Y00131991D01*
X00406119Y00134530D01*
X00401040D01*
X00398501Y00131991D01*
Y00129452D01*
X00401040Y00126912D01*
X00408658D01*
X00413736Y00119295D02*
X00418815D01*
X00416276D01*
Y00134530D01*
X00413736Y00131991D01*
X00436589Y00134530D02*
X00426432D01*
Y00126912D01*
X00431511D01*
X00426432D01*
Y00119295D01*
X00441667D02*
Y00121834D01*
X00444207D01*
Y00119295D01*
X00441667D01*
X00464520Y00131991D02*
X00461981Y00134530D01*
X00456903D01*
X00454363Y00131991D01*
Y00121834D01*
X00456903Y00119295D01*
X00461981D01*
X00464520Y00121834D01*
Y00126912D01*
X00459442D01*
X00469598Y00134530D02*
Y00119295D01*
X00477216D01*
X00479755Y00121834D01*
Y00124373D01*
X00477216Y00126912D01*
X00469598D01*
X00477216D01*
X00479755Y00129452D01*
Y00131991D01*
X00477216Y00134530D01*
X00469598D01*
X00494990Y00131991D02*
X00492451Y00134530D01*
X00487373D01*
X00484833Y00131991D01*
Y00129452D01*
X00487373Y00126912D01*
X00492451D01*
X00494990Y00124373D01*
Y00121834D01*
X00492451Y00119295D01*
X00487373D01*
X00484833Y00121834D01*
X00968121Y00119295D02*
X00973199D01*
X00970660D01*
Y00134530D01*
X00968121Y00131991D01*
X00980817Y00119295D02*
X00985895D01*
X00983356D01*
Y00134530D01*
X00980817Y00131991D01*
X00993513Y00126912D02*
X01003670D01*
X01008748Y00119295D02*
X01013826D01*
X01011287D01*
Y00134530D01*
X01008748Y00131991D01*
X01021444Y00119295D02*
X01026522D01*
X01023983D01*
Y00134530D01*
X01021444Y00131991D01*
X01034140Y00126912D02*
X01044296D01*
X01059531Y00119295D02*
X01049375D01*
X01059531Y00129452D01*
Y00131991D01*
X01056992Y00134530D01*
X01051914D01*
X01049375Y00131991D01*
X01064610D02*
X01067149Y00134530D01*
X01072227D01*
X01074766Y00131991D01*
Y00121834D01*
X01072227Y00119295D01*
X01067149D01*
X01064610Y00121834D01*
Y00131991D01*
X01090002Y00119295D02*
X01079845D01*
X01090002Y00129452D01*
Y00131991D01*
X01087462Y00134530D01*
X01082384D01*
X01079845Y00131991D01*
X01095080D02*
X01097619Y00134530D01*
X01102697D01*
X01105237Y00131991D01*
Y00121834D01*
X01102697Y00119295D01*
X01097619D01*
X01095080Y00121834D01*
Y00131991D01*
X00757425D02*
X00754885Y00134530D01*
X00749807D01*
X00747268Y00131991D01*
Y00121834D01*
X00749807Y00119295D01*
X00754885D01*
X00757425Y00121834D01*
Y00126912D01*
X00752346D01*
X00772660Y00134530D02*
X00762503D01*
Y00119295D01*
X00772660D01*
X00762503Y00126912D02*
X00767581D01*
X00777738Y00119295D02*
Y00134530D01*
X00787895Y00119295D01*
Y00134530D01*
X00803130D02*
X00792973D01*
Y00119295D01*
X00803130D01*
X00792973Y00126912D02*
X00798052D01*
X00808208Y00119295D02*
Y00134530D01*
X00815826D01*
X00818365Y00131991D01*
Y00126912D01*
X00815826Y00124373D01*
X00808208D01*
X00813287D02*
X00818365Y00119295D01*
X00823443D02*
Y00129452D01*
X00828522Y00134530D01*
X00833600Y00129452D01*
Y00119295D01*
Y00126912D01*
X00823443D01*
X00838678Y00134530D02*
X00848835D01*
X00843757D01*
Y00119295D01*
X00864070Y00134530D02*
X00853913D01*
Y00119295D01*
X00864070D01*
X00853913Y00126912D02*
X00858992D01*
X00869149Y00134530D02*
Y00119295D01*
X00876766D01*
X00879305Y00121834D01*
Y00131991D01*
X00876766Y00134530D01*
X00869149D01*
X00945324Y00129452D02*
X00947863D01*
Y00126912D01*
X00945324D01*
Y00129452D01*
Y00121834D02*
X00947863D01*
Y00119295D01*
X00945324D01*
Y00121834D01*
X00117729Y00223097D02*
Y00233253D01*
X00122807Y00238332D01*
X00127886Y00233253D01*
Y00223097D01*
Y00230714D01*
X00117729D01*
X00132964Y00238332D02*
Y00223097D01*
X00143121D01*
X00148199Y00238332D02*
Y00223097D01*
X00158356D01*
X00178669D02*
Y00233253D01*
X00183748Y00238332D01*
X00188826Y00233253D01*
Y00223097D01*
Y00230714D01*
X00178669D01*
X00193904Y00223097D02*
Y00238332D01*
X00201522D01*
X00204061Y00235793D01*
Y00230714D01*
X00201522Y00228175D01*
X00193904D01*
X00198983D02*
X00204061Y00223097D01*
X00209139Y00238332D02*
X00219296D01*
X00214218D01*
Y00223097D01*
X00224375Y00238332D02*
Y00223097D01*
X00229453Y00228175D01*
X00234531Y00223097D01*
Y00238332D01*
X00247227D02*
X00242149D01*
X00239610Y00235793D01*
Y00225636D01*
X00242149Y00223097D01*
X00247227D01*
X00249766Y00225636D01*
Y00235793D01*
X00247227Y00238332D01*
X00254845Y00223097D02*
Y00238332D01*
X00262462D01*
X00265001Y00235793D01*
Y00230714D01*
X00262462Y00228175D01*
X00254845D01*
X00259923D02*
X00265001Y00223097D01*
X00270080Y00238332D02*
Y00223097D01*
Y00228175D01*
X00280236Y00238332D01*
X00272619Y00230714D01*
X00280236Y00223097D01*
X00300550Y00238332D02*
Y00228175D01*
X00305628Y00223097D01*
X00310707Y00228175D01*
Y00238332D01*
X00315785D02*
X00320863D01*
X00318324D01*
Y00223097D01*
X00315785D01*
X00320863D01*
X00338638Y00238332D02*
X00328481D01*
Y00223097D01*
X00338638D01*
X00328481Y00230714D02*
X00333559D01*
X00343716Y00238332D02*
Y00223097D01*
X00348794Y00228175D01*
X00353873Y00223097D01*
Y00238332D01*
X00369108D02*
X00358951D01*
Y00223097D01*
X00369108D01*
X00358951Y00230714D02*
X00364029D01*
X00374186Y00238332D02*
Y00223097D01*
X00381804D01*
X00384343Y00225636D01*
Y00235793D01*
X00381804Y00238332D01*
X00374186D01*
X00414813D02*
X00404656D01*
Y00230714D01*
X00409734D01*
X00404656D01*
Y00223097D01*
X00419891D02*
Y00238332D01*
X00427509D01*
X00430048Y00235793D01*
Y00230714D01*
X00427509Y00228175D01*
X00419891D01*
X00424970D02*
X00430048Y00223097D01*
X00442744Y00238332D02*
X00437665D01*
X00435126Y00235793D01*
Y00225636D01*
X00437665Y00223097D01*
X00442744D01*
X00445283Y00225636D01*
Y00235793D01*
X00442744Y00238332D01*
X00450361Y00223097D02*
Y00238332D01*
X00455440Y00233253D01*
X00460518Y00238332D01*
Y00223097D01*
X00480832Y00238332D02*
X00490988D01*
X00485910D01*
Y00223097D01*
X00503684Y00238332D02*
X00498606D01*
X00496067Y00235793D01*
Y00225636D01*
X00498606Y00223097D01*
X00503684D01*
X00506223Y00225636D01*
Y00235793D01*
X00503684Y00238332D01*
X00511302Y00223097D02*
Y00238332D01*
X00518919D01*
X00521458Y00235793D01*
Y00230714D01*
X00518919Y00228175D01*
X00511302D01*
X00551929Y00235793D02*
X00549389Y00238332D01*
X00544311D01*
X00541772Y00235793D01*
Y00233253D01*
X00544311Y00230714D01*
X00549389D01*
X00551929Y00228175D01*
Y00225636D01*
X00549389Y00223097D01*
X00544311D01*
X00541772Y00225636D01*
X00557007Y00238332D02*
X00562085D01*
X00559546D01*
Y00223097D01*
X00557007D01*
X00562085D01*
X00569703Y00238332D02*
Y00223097D01*
X00577320D01*
X00579860Y00225636D01*
Y00235793D01*
X00577320Y00238332D01*
X00569703D01*
X00595095D02*
X00584938D01*
Y00223097D01*
X00595095D01*
X00584938Y00230714D02*
X00590016D01*
X01184018Y00238332D02*
X01173861D01*
Y00230714D01*
X01178939D01*
X01173861D01*
Y00223097D01*
X00885317D02*
Y00238332D01*
X00892934D01*
X00895474Y00235793D01*
Y00230714D01*
X00892934Y00228175D01*
X00885317D01*
X00900552Y00223097D02*
Y00238332D01*
X00908170D01*
X00910709Y00235793D01*
Y00230714D01*
X00908170Y00228175D01*
X00900552D01*
X00905630D02*
X00910709Y00223097D01*
X00923405Y00238332D02*
X00918326D01*
X00915787Y00235793D01*
Y00225636D01*
X00918326Y00223097D01*
X00923405D01*
X00925944Y00225636D01*
Y00235793D01*
X00923405Y00238332D01*
X00941179Y00235793D02*
X00938640Y00238332D01*
X00933561D01*
X00931022Y00235793D01*
Y00225636D01*
X00933561Y00223097D01*
X00938640D01*
X00941179Y00225636D01*
X00946257Y00235793D02*
X00948796Y00238332D01*
X00953875D01*
X00956414Y00235793D01*
Y00225636D01*
X00953875Y00223097D01*
X00948796D01*
X00946257Y00225636D01*
Y00235793D01*
X00961492Y00225636D02*
X00964032Y00223097D01*
X00969110D01*
X00971649Y00225636D01*
Y00235793D01*
X00969110Y00238332D01*
X00964032D01*
X00961492Y00235793D01*
Y00233253D01*
X00964032Y00230714D01*
X00971649D01*
X00976727Y00223097D02*
X00981806D01*
X00979267D01*
Y00238332D01*
X00976727Y00235793D01*
X00746760Y00238332D02*
Y00223097D01*
X00754378D01*
X00756917Y00225636D01*
Y00228175D01*
X00754378Y00230714D01*
X00746760D01*
X00754378D01*
X00756917Y00233253D01*
Y00235793D01*
X00754378Y00238332D01*
X00746760D01*
X00769613D02*
X00764534D01*
X00761995Y00235793D01*
Y00225636D01*
X00764534Y00223097D01*
X00769613D01*
X00772152Y00225636D01*
Y00235793D01*
X00769613Y00238332D01*
X00777230Y00223097D02*
Y00233253D01*
X00782309Y00238332D01*
X00787387Y00233253D01*
Y00223097D01*
Y00230714D01*
X00777230D01*
X00792465Y00223097D02*
Y00238332D01*
X00800083D01*
X00802622Y00235793D01*
Y00230714D01*
X00800083Y00228175D01*
X00792465D01*
X00797544D02*
X00802622Y00223097D01*
X00807700Y00238332D02*
Y00223097D01*
X00815318D01*
X00817857Y00225636D01*
Y00235793D01*
X00815318Y00238332D01*
X00807700D01*
X00840710Y00223097D02*
Y00238332D01*
X00845788D02*
Y00223097D01*
X00838170Y00233253D02*
X00845788D01*
X00848327D01*
X00838170Y00228175D02*
X00848327D01*
X00853406Y00233253D02*
X00855945D01*
Y00230714D01*
X00853406D01*
Y00233253D01*
Y00225636D02*
X00855945D01*
Y00223097D01*
X00853406D01*
Y00225636D01*
X00117729Y00186814D02*
Y00171579D01*
X00127886D01*
X00132964D02*
Y00181735D01*
X00138042Y00186814D01*
X00143121Y00181735D01*
Y00171579D01*
Y00179196D01*
X00132964D01*
X00148199Y00186814D02*
Y00184275D01*
X00153278Y00179196D01*
X00158356Y00184275D01*
Y00186814D01*
X00153278Y00179196D02*
Y00171579D01*
X00173591Y00186814D02*
X00163434D01*
Y00171579D01*
X00173591D01*
X00163434Y00179196D02*
X00168513D01*
X00178669Y00171579D02*
Y00186814D01*
X00186287D01*
X00188826Y00184275D01*
Y00179196D01*
X00186287Y00176657D01*
X00178669D01*
X00183748D02*
X00188826Y00171579D01*
X00209139D02*
Y00186814D01*
X00219296Y00171579D01*
Y00186814D01*
X00224375Y00171579D02*
Y00181735D01*
X00229453Y00186814D01*
X00234531Y00181735D01*
Y00171579D01*
Y00179196D01*
X00224375D01*
X00239610Y00171579D02*
Y00186814D01*
X00244688Y00181735D01*
X00249766Y00186814D01*
Y00171579D01*
X00265001Y00186814D02*
X00254845D01*
Y00171579D01*
X00265001D01*
X00254845Y00179196D02*
X00259923D01*
X00285315Y00176657D02*
X00295471D01*
X00285315Y00181735D02*
X00295471D01*
X00117729Y00119295D02*
Y00134530D01*
X00125346D01*
X00127886Y00131991D01*
Y00126912D01*
X00125346Y00124373D01*
X00117729D01*
X00132964Y00134530D02*
Y00119295D01*
X00143121D01*
X00155817Y00134530D02*
X00150738D01*
X00148199Y00131991D01*
Y00121834D01*
X00150738Y00119295D01*
X00155817D01*
X00158356Y00121834D01*
Y00131991D01*
X00155817Y00134530D01*
X00163434D02*
X00173591D01*
X00168513D01*
Y00119295D01*
X00193904D02*
Y00134530D01*
X00204061Y00119295D01*
Y00134530D01*
X00209139Y00119295D02*
Y00129452D01*
X00214218Y00134530D01*
X00219296Y00129452D01*
Y00119295D01*
Y00126912D01*
X00209139D01*
X00224375Y00119295D02*
Y00134530D01*
X00229453Y00129452D01*
X00234531Y00134530D01*
Y00119295D01*
X00249766Y00134530D02*
X00239610D01*
Y00119295D01*
X00249766D01*
X00239610Y00126912D02*
X00244688D01*
X00270080Y00124373D02*
X00280236D01*
X00270080Y00129452D02*
X00280236D01*
X01163444Y00119295D02*
X01153287D01*
X01163444Y00129452D01*
Y00131991D01*
X01160904Y00134530D01*
X01155826D01*
X01153287Y00131991D01*
X01168522D02*
X01171061Y00134530D01*
X01176140D01*
X01178679Y00131991D01*
Y00121834D01*
X01176140Y00119295D01*
X01171061D01*
X01168522Y00121834D01*
Y00131991D01*
X01183757Y00129452D02*
X01186296D01*
Y00126912D01*
X01183757D01*
Y00129452D01*
Y00121834D02*
X01186296D01*
Y00119295D01*
X01183757D01*
Y00121834D01*
X01206610Y00119295D02*
X01196453D01*
X01206610Y00129452D01*
Y00131991D01*
X01204071Y00134530D01*
X01198992D01*
X01196453Y00131991D01*
X01211688Y00121834D02*
X01214227Y00119295D01*
X01219306D01*
X01221845Y00121834D01*
Y00131991D01*
X01219306Y00134530D01*
X01214227D01*
X01211688Y00131991D01*
Y00129452D01*
X01214227Y00126912D01*
X01221845D01*
X01226923Y00129452D02*
X01229462D01*
Y00126912D01*
X01226923D01*
Y00129452D01*
Y00121834D02*
X01229462D01*
Y00119295D01*
X01226923D01*
Y00121834D01*
X01247237Y00119295D02*
Y00134530D01*
X01239619Y00126912D01*
X01249776D01*
X01262472Y00119295D02*
Y00134530D01*
X01254854Y00126912D01*
X01265011D01*
X01474470Y00134530D02*
X01484627D01*
X01479548D01*
Y00119295D01*
X01499862Y00134530D02*
X01489705D01*
Y00119295D01*
X01499862D01*
X01489705Y00126912D02*
X01494783D01*
X01504940Y00134530D02*
X01515097Y00119295D01*
Y00134530D02*
X01504940Y00119295D01*
X01520175D02*
Y00129452D01*
X01525254Y00134530D01*
X01530332Y00129452D01*
Y00119295D01*
Y00126912D01*
X01520175D01*
X01545567Y00131991D02*
X01543028Y00134530D01*
X01537950D01*
X01535410Y00131991D01*
Y00129452D01*
X01537950Y00126912D01*
X01543028D01*
X01545567Y00124373D01*
Y00121834D01*
X01543028Y00119295D01*
X01537950D01*
X01535410Y00121834D01*
X01565880Y00134530D02*
X01570959D01*
X01568420D01*
Y00119295D01*
X01565880D01*
X01570959D01*
X01578576D02*
Y00134530D01*
X01588733Y00119295D01*
Y00134530D01*
X01603968Y00131991D02*
X01601429Y00134530D01*
X01596351D01*
X01593811Y00131991D01*
Y00129452D01*
X01596351Y00126912D01*
X01601429D01*
X01603968Y00124373D01*
Y00121834D01*
X01601429Y00119295D01*
X01596351D01*
X01593811Y00121834D01*
X01609046Y00134530D02*
X01619203D01*
X01614125D01*
Y00119295D01*
X01624281D02*
Y00134530D01*
X01631899D01*
X01634438Y00131991D01*
Y00126912D01*
X01631899Y00124373D01*
X01624281D01*
X01629360D02*
X01634438Y00119295D01*
X01639517Y00134530D02*
Y00121834D01*
X01642056Y00119295D01*
X01647134D01*
X01649673Y00121834D01*
Y00134530D01*
X01654752Y00119295D02*
Y00134530D01*
X01659830Y00129452D01*
X01664908Y00134530D01*
Y00119295D01*
X01680143Y00134530D02*
X01669987D01*
Y00119295D01*
X01680143D01*
X01669987Y00126912D02*
X01675065D01*
X01685222Y00119295D02*
Y00134530D01*
X01695379Y00119295D01*
Y00134530D01*
X01700457D02*
X01710614D01*
X01705535D01*
Y00119295D01*
X01725849Y00131991D02*
X01723309Y00134530D01*
X01718231D01*
X01715692Y00131991D01*
Y00129452D01*
X01718231Y00126912D01*
X01723309D01*
X01725849Y00124373D01*
Y00121834D01*
X01723309Y00119295D01*
X01718231D01*
X01715692Y00121834D01*
X00746760Y00186685D02*
X00756917D01*
X00751838D01*
Y00171450D01*
X00761995Y00186685D02*
X00767073D01*
X00764534D01*
Y00171450D01*
X00761995D01*
X00767073D01*
X00774691Y00186685D02*
Y00171450D01*
X00782309D01*
X00784848Y00173989D01*
Y00184146D01*
X00782309Y00186685D01*
X00774691D01*
X00807700Y00171450D02*
Y00186685D01*
X00812779D02*
Y00171450D01*
X00805161Y00181607D02*
X00812779D01*
X00815318D01*
X00805161Y00176528D02*
X00815318D01*
X00820396Y00181607D02*
X00822935D01*
Y00179067D01*
X00820396D01*
Y00181607D01*
Y00173989D02*
X00822935D01*
Y00171450D01*
X00820396D01*
Y00173989D01*
X00885317Y00171450D02*
Y00186685D01*
X00895474Y00171450D01*
Y00186685D01*
X00900552Y00171450D02*
X00910709Y00181607D01*
X00915787Y00171450D02*
Y00181607D01*
X00920865Y00186685D01*
X00925944Y00181607D01*
Y00171450D01*
Y00179067D01*
X00915787D01*
G54D50*
X01646091Y01369181D02*
D03*
Y01364095D02*
D03*
X01611725Y01349537D02*
D03*
Y01354623D02*
D03*
X01524322Y01418574D02*
D03*
Y01413487D02*
D03*
X01485817Y01377799D02*
D03*
Y01372712D02*
D03*
X01495831Y01355234D02*
D03*
Y01350148D02*
D03*
X01208465Y01378485D02*
D03*
Y01373399D02*
D03*
X01137382Y01451548D02*
D03*
Y01446461D02*
D03*
X01623305Y01383654D02*
D03*
Y01378568D02*
D03*
X01648232Y01385119D02*
D03*
Y01380032D02*
D03*
X01638983Y01335495D02*
D03*
Y01340581D02*
D03*
X01611738Y01378599D02*
D03*
Y01383685D02*
D03*
X01630884Y01383692D02*
D03*
Y01378605D02*
D03*
X01640975Y01378525D02*
D03*
Y01383611D02*
D03*
X01597675Y01338851D02*
D03*
Y01333764D02*
D03*
X01572213Y01459634D02*
D03*
Y01454547D02*
D03*
X01547970Y01496411D02*
D03*
Y01491324D02*
D03*
X01588737Y01468563D02*
D03*
Y01473649D02*
D03*
G54D51*
X01499526Y01518510D02*
D03*
X01504869D02*
D03*
X01521130Y01542055D02*
D03*
X01515787D02*
D03*
X01530705Y01426259D02*
D03*
X01536048D02*
D03*
X01275457Y01484568D02*
D03*
X01270114D02*
D03*
X01167988Y01398553D02*
D03*
X01173331D02*
D03*
X01275457Y01478980D02*
D03*
X01270114D02*
D03*
X01270954Y01462724D02*
D03*
X01265611D02*
D03*
X01270954Y01468955D02*
D03*
X01265611D02*
D03*
X01100637Y01373995D02*
D03*
X01095294D02*
D03*
X01097760Y01420838D02*
D03*
X01092417D02*
D03*
X01145981Y01400279D02*
D03*
X01140638D02*
D03*
X01136679Y01383476D02*
D03*
X01142022D02*
D03*
X01284722Y01462783D02*
D03*
X01279379D02*
D03*
X01224892Y01385925D02*
D03*
X01219549D02*
D03*
X01259658Y01445082D02*
D03*
X01265001D02*
D03*
X01120284Y01441968D02*
D03*
X01114941D02*
D03*
X01715479Y01402827D02*
D03*
X01720822D02*
D03*
G54D52*
X01714111Y01389752D02*
D03*
X01721682D02*
D03*
X01692980Y01441822D02*
D03*
X01685409D02*
D03*
X01153955Y01422863D02*
D03*
X01146384D02*
D03*
G54D53*
X01424526Y01531484D02*
D03*
X01431026D02*
D03*
X01553102Y01372650D02*
D03*
X01559602D02*
D03*
X01571644Y01389244D02*
D03*
X01578144D02*
D03*
X01445186Y01407905D02*
D03*
X01451686D02*
D03*
X01498779Y01508472D02*
D03*
X01505279D02*
D03*
X01444802Y01415018D02*
D03*
X01451302D02*
D03*
G54D55*
X01796636Y01334264D02*
D03*
X01801723D02*
D03*
X01422146Y01385570D02*
D03*
X01427232D02*
D03*
X01517103Y01431772D02*
D03*
X01512017D02*
D03*
X01567528Y01394578D02*
D03*
X01572614D02*
D03*
X01533246Y01541986D02*
D03*
X01528160D02*
D03*
X01611565Y01341461D02*
D03*
X01616651D02*
D03*
X01504790Y01535294D02*
D03*
X01499704D02*
D03*
X01529759Y01496411D02*
D03*
X01524672D02*
D03*
X01504725Y01527435D02*
D03*
X01499639D02*
D03*
X01553301Y01384570D02*
D03*
X01558387D02*
D03*
X01558391Y01378830D02*
D03*
X01553304D02*
D03*
X01692034Y01451674D02*
D03*
X01686948D02*
D03*
X01506015Y01412977D02*
D03*
X01500929D02*
D03*
X01504449Y01431802D02*
D03*
X01499362D02*
D03*
X01263644Y01414570D02*
D03*
X01268730D02*
D03*
X01128525Y01375452D02*
D03*
X01123439D02*
D03*
X01284643Y01467893D02*
D03*
X01279556D02*
D03*
X01430528Y01389873D02*
D03*
X01435614D02*
D03*
X01131554Y01437570D02*
D03*
X01136640D02*
D03*
X01730617Y01344961D02*
D03*
X01735703D02*
D03*
X01253154Y01463548D02*
D03*
X01258240D02*
D03*
X01661008Y01487244D02*
D03*
X01655922D02*
D03*
X01649486Y01487020D02*
D03*
X01644400D02*
D03*
X01733133Y01389570D02*
D03*
X01738219D02*
D03*
X01514188Y01498972D02*
D03*
X01509102D02*
D03*
X01679556Y01389207D02*
D03*
X01674470D02*
D03*
X01648802Y01400151D02*
D03*
X01653888D02*
D03*
G54D58*
X01247024Y01458007D02*
D03*
Y01450436D02*
D03*
X01238906Y01457768D02*
D03*
Y01450197D02*
D03*
G54D79*
X01543133Y01356426D02*
D03*
Y01349926D02*
D03*
X01491631Y01446780D02*
D03*
Y01440280D02*
D03*
X01504283Y01469939D02*
D03*
Y01463439D02*
D03*
X01091184Y01448202D02*
D03*
Y01441702D02*
D03*
X01105916Y01508193D02*
D03*
Y01514693D02*
D03*
X01147396Y01497540D02*
D03*
Y01504040D02*
D03*
X01152860Y01497540D02*
D03*
Y01504040D02*
D03*
X01084386Y01471314D02*
D03*
Y01464814D02*
D03*
X01266876Y01436902D02*
D03*
Y01430402D02*
D03*
G54D81*
X01515072Y01413174D02*
D03*
Y01418517D02*
D03*
X01477010Y01388110D02*
D03*
Y01382767D02*
D03*
X01487557Y01396956D02*
D03*
Y01402299D02*
D03*
X01487280Y01410600D02*
D03*
Y01415943D02*
D03*
X01177676Y01380167D02*
D03*
Y01374824D02*
D03*
X01592340Y01415667D02*
D03*
Y01410324D02*
D03*
X01538167Y01412866D02*
D03*
Y01418209D02*
D03*
X01478009Y01415948D02*
D03*
Y01410605D02*
D03*
X01487119Y01390041D02*
D03*
Y01384698D02*
D03*
X01478399Y01402274D02*
D03*
Y01396931D02*
D03*
X01590134Y01491131D02*
D03*
Y01496474D02*
D03*
G54D85*
X01791495Y01399794D02*
D03*
X01796509D02*
D03*
X01128550Y01370506D02*
D03*
X01123536D02*
D03*
G54D90*
X01752542Y01356326D02*
D03*
Y01361340D02*
D03*
X01486471Y01350169D02*
D03*
Y01355183D02*
D03*
G54D93*
X01486358Y01525553D02*
D03*
X01246961Y01498648D02*
D03*
X01255954Y01490116D02*
D03*
X01263064Y01505100D02*
D03*
X01271270Y01504935D02*
D03*
X01136904Y01429197D02*
D03*
X01143657Y01441644D02*
D03*
X01134471Y01512730D02*
D03*
X01716372Y01345556D02*
D03*
X01266596Y01491259D02*
D03*
X01740381Y01407580D02*
D03*
G54D96*
X01531195Y01525867D02*
D03*
G54D97*
X01531695Y01521867D02*
D03*
Y01517867D02*
D03*
Y01513867D02*
D03*
X01515695D02*
D03*
Y01517867D02*
D03*
Y01521867D02*
D03*
Y01525867D02*
D03*
G54D98*
X01529695Y01507867D02*
D03*
X01525695D02*
D03*
X01521695D02*
D03*
X01517695D02*
D03*
Y01531867D02*
D03*
X01521695D02*
D03*
X01525695D02*
D03*
X01529695D02*
D03*
G54D99*
X01584106Y01410294D02*
D03*
X01566106D02*
D03*
G54D100*
X01567606Y01417044D02*
D03*
X01572606D02*
D03*
X01577606D02*
D03*
X01582606D02*
D03*
Y01403544D02*
D03*
X01577606D02*
D03*
X01572606D02*
D03*
X01567606D02*
D03*
G54D104*
X01124560Y01381544D02*
D03*
Y01386544D02*
D03*
Y01391544D02*
D03*
Y01396544D02*
D03*
X01096561D02*
D03*
Y01391544D02*
D03*
Y01386544D02*
D03*
Y01381544D02*
D03*
G54D114*
X01741548Y01357904D02*
D03*
Y01364404D02*
D03*
Y01370904D02*
D03*
Y01377404D02*
D03*
X01713548D02*
D03*
Y01370904D02*
D03*
Y01364404D02*
D03*
Y01357904D02*
D03*
G54D116*
X00954622Y01457490D02*
D03*
Y01437490D02*
D03*
G54D117*
X00981622Y01460490D02*
D03*
Y01453990D02*
D03*
Y01447490D02*
D03*
Y01440990D02*
D03*
Y01434490D02*
D03*
G54D120*
X01178950Y01473927D02*
D03*
Y01483927D02*
D03*
X00995884Y01444490D02*
D03*
Y01434490D02*
D03*
X01149858Y01448468D02*
D03*
Y01458468D02*
D03*
X01591564Y01509985D02*
D03*
Y01519985D02*
D03*
G54D121*
X01221019Y01501266D02*
D03*
Y01491106D02*
D03*
X00995248Y01485494D02*
D03*
Y01495654D02*
D03*
G54D122*
X01160111Y01385018D02*
D03*
Y01379418D02*
D03*
X01153160Y01491494D02*
D03*
Y01485894D02*
D03*
X01172049Y01380942D02*
D03*
Y01375342D02*
D03*
X01135834Y01421186D02*
D03*
Y01415586D02*
D03*
X01149858Y01388166D02*
D03*
Y01382566D02*
D03*
X01117161Y01414149D02*
D03*
Y01408549D02*
D03*
X01088992Y01380944D02*
D03*
Y01386544D02*
D03*
X01124298Y01414149D02*
D03*
Y01408549D02*
D03*
X01092294Y01413794D02*
D03*
Y01408194D02*
D03*
X01133679Y01389568D02*
D03*
Y01395168D02*
D03*
X01293650Y01438912D02*
D03*
Y01444512D02*
D03*
X01248537Y01428273D02*
D03*
Y01422673D02*
D03*
X01260119Y01437341D02*
D03*
Y01431741D02*
D03*
X01119476Y01429197D02*
D03*
Y01434797D02*
D03*
X01723792Y01345582D02*
D03*
Y01339982D02*
D03*
X01709768Y01337470D02*
D03*
Y01343070D02*
D03*
G54D123*
X01788745Y01280507D02*
D03*
X01003701Y01606670D02*
D03*
Y01280507D02*
D03*
G54D124*
X01520370Y01465444D02*
D03*
X01514770D02*
D03*
X01236826Y01501710D02*
D03*
X01231226D02*
D03*
X01231747Y01509624D02*
D03*
X01237347D02*
D03*
X01220734Y01509817D02*
D03*
X01226334D02*
D03*
X01257796Y01452702D02*
D03*
X01263396D02*
D03*
X01170946Y01446022D02*
D03*
X01165346D02*
D03*
X01171206Y01461008D02*
D03*
X01165606D02*
D03*
X01165198Y01509584D02*
D03*
X01159598D02*
D03*
X01175115Y01493617D02*
D03*
X01180715D02*
D03*
X01175114Y01509584D02*
D03*
X01180714D02*
D03*
X01180715Y01501626D02*
D03*
X01175115D02*
D03*
X01212826Y01493606D02*
D03*
X01207226D02*
D03*
X01213204Y01501584D02*
D03*
X01207604D02*
D03*
X01212825Y01509613D02*
D03*
X01207225D02*
D03*
X01196830Y01493557D02*
D03*
X01191230D02*
D03*
X01196914Y01501605D02*
D03*
X01191314D02*
D03*
X01196914Y01509605D02*
D03*
X01191314D02*
D03*
X01201075Y01377956D02*
D03*
X01195474D02*
D03*
X01263438Y01396664D02*
D03*
X01269037D02*
D03*
X01263130Y01420571D02*
D03*
X01268730D02*
D03*
X01450912Y01401402D02*
D03*
X01445312D02*
D03*
X01293527Y01451814D02*
D03*
X01287927D02*
D03*
X01246497Y01400601D02*
D03*
X01240897D02*
D03*
X01233773Y01392037D02*
D03*
X01228173D02*
D03*
X01246931Y01436014D02*
D03*
X01252531D02*
D03*
X01108408Y01442560D02*
D03*
X01102808D02*
D03*
X01720950Y01396985D02*
D03*
X01715350D02*
D03*
X01572780Y01337045D02*
D03*
X01578380D02*
D03*
G54D125*
X01240042Y01491753D02*
D03*
X01230042D02*
D03*
X01166622Y01474470D02*
D03*
X01156622D02*
D03*
X01181274Y01401794D02*
D03*
X01191274D02*
D03*
X01572862Y01509985D02*
D03*
X01582862D02*
D03*
X01553822Y01509912D02*
D03*
X01563822D02*
D03*
X01555092Y01459094D02*
D03*
X01565092D02*
D03*
G54D128*
X01789422Y01334717D02*
D03*
X01779262D02*
D03*
X01219277Y01402066D02*
D03*
X01229437D02*
D03*
X01173226Y01438148D02*
D03*
X01163066D02*
D03*
X01174242Y01453388D02*
D03*
X01164082D02*
D03*
X01159002Y01491234D02*
D03*
X01169162D02*
D03*
X01160526Y01482598D02*
D03*
X01170686D02*
D03*
X01196568Y01486187D02*
D03*
X01206728D02*
D03*
X01197106Y01476075D02*
D03*
X01186946D02*
D03*
G54D130*
X01215612Y01463817D02*
D03*
X01229612D02*
D03*
X01157435Y01409452D02*
D03*
X01171435D02*
D03*
X01221676Y01477036D02*
D03*
X01207676D02*
D03*
G54D131*
X00954623Y01476486D02*
D03*
Y01418494D02*
D03*
G54D132*
X00952015Y01508134D02*
D03*
G54D133*
X01404742Y01341689D02*
D03*
Y01542989D02*
D03*
G54D134*
X01481401Y01543401D02*
D03*
X01468701D02*
D03*
X01456001D02*
D03*
X01837690Y01354836D02*
D03*
Y01367536D02*
D03*
X01575148Y01541644D02*
D03*
X01562448D02*
D03*
G54D135*
X01443301Y01543401D02*
D03*
X01549748Y01541644D02*
D03*
G54D136*
X01837690Y01342136D02*
D03*
G54D137*
X01658230Y01526588D02*
D03*
X01645530D02*
D03*
X01632830D02*
D03*
X01620130D02*
D03*
X01607430D02*
D03*
X01658230Y01539288D02*
D03*
X01645530D02*
D03*
X01632830D02*
D03*
X01620130D02*
D03*
G54D138*
X01607430D02*
D03*
G54D139*
X01464096Y01514976D02*
D03*
G54D140*
X01809928Y01420191D02*
D03*
Y01470191D02*
D03*
X00981622Y01422490D02*
D03*
Y01472490D02*
D03*
G54D141*
X01836928Y01480192D02*
D03*
Y01410191D02*
D03*
X00954622Y01482490D02*
D03*
Y01412490D02*
D03*
G54D142*
X01449481Y01353383D02*
D03*
X01676643Y01353386D02*
D03*
G54D143*
X00981428Y01523681D02*
D03*
X00994128D02*
D03*
X01006828D02*
D03*
X01148108D02*
D03*
X01135408D02*
D03*
X01122708D02*
D03*
X01248438D02*
D03*
X01261138D02*
D03*
X01273838D02*
D03*
X01379248Y01562691D02*
D03*
X01366548D02*
D03*
X01353848D02*
D03*
X01731800Y01562641D02*
D03*
X01744500D02*
D03*
X01757200D02*
D03*
Y01324535D02*
D03*
X01744500D02*
D03*
X01731800D02*
D03*
X01353848Y01324486D02*
D03*
X01366548D02*
D03*
X01379248D02*
D03*
X01273838Y01359526D02*
D03*
X01261138D02*
D03*
X01248438D02*
D03*
X01122708D02*
D03*
X01135408D02*
D03*
X01148108D02*
D03*
X01006828D02*
D03*
X00994128D02*
D03*
X00981428D02*
D03*
X01568478Y01324436D02*
D03*
X01555778D02*
D03*
X01543078D02*
D03*
G54D144*
X00965601Y01606670D02*
D03*
X01826845D02*
D03*
X00965601Y01280507D02*
D03*
X01826845D02*
D03*
G54D175*
X01433752Y01423987D02*
D03*
Y01427987D02*
D03*
Y01431987D02*
D03*
Y01435987D02*
D03*
X01428251D02*
D03*
Y01431987D02*
D03*
Y01427987D02*
D03*
Y01423987D02*
D03*
X01435780Y01394495D02*
D03*
Y01398495D02*
D03*
Y01402495D02*
D03*
Y01406495D02*
D03*
X01430280D02*
D03*
Y01402495D02*
D03*
Y01398495D02*
D03*
Y01394495D02*
D03*
X01433917Y01453903D02*
D03*
Y01457903D02*
D03*
Y01461903D02*
D03*
Y01465903D02*
D03*
X01428417D02*
D03*
Y01461903D02*
D03*
Y01457903D02*
D03*
Y01453903D02*
D03*
X01433554Y01482794D02*
D03*
Y01486794D02*
D03*
Y01490794D02*
D03*
Y01494794D02*
D03*
X01428054D02*
D03*
Y01490794D02*
D03*
Y01486794D02*
D03*
Y01482794D02*
D03*
X01433662Y01509545D02*
D03*
Y01513546D02*
D03*
Y01517545D02*
D03*
Y01521546D02*
D03*
X01428162D02*
D03*
Y01517545D02*
D03*
Y01513546D02*
D03*
Y01509545D02*
D03*
G54D176*
X01113699Y01477314D02*
D03*
G54D177*
X01126199Y01497210D02*
D03*
X01121199D02*
D03*
X01116199D02*
D03*
X01111199D02*
D03*
X01106199D02*
D03*
X01101199D02*
D03*
Y01457419D02*
D03*
X01106199D02*
D03*
X01111199D02*
D03*
X01116199D02*
D03*
X01121199D02*
D03*
X01126199D02*
D03*
G54D178*
X01093804Y01489814D02*
D03*
Y01484814D02*
D03*
Y01479814D02*
D03*
Y01474814D02*
D03*
Y01469814D02*
D03*
Y01464814D02*
D03*
X01133595D02*
D03*
Y01469814D02*
D03*
Y01474814D02*
D03*
Y01479814D02*
D03*
Y01484814D02*
D03*
G54D179*
Y01489814D02*
D03*
G54D180*
X01287813Y01426896D02*
D03*
Y01376096D02*
D03*
G54D181*
X01578136Y01351574D02*
D03*
X01597136D02*
D03*
Y01375884D02*
D03*
X01587636D02*
D03*
G54D182*
X01578136D02*
D03*
G54D183*
X01497542Y01389570D02*
D03*
Y01384570D02*
D03*
Y01379570D02*
D03*
Y01374570D02*
D03*
X01543792D02*
D03*
Y01379570D02*
D03*
Y01384570D02*
D03*
Y01389570D02*
D03*
G54D184*
X01543167Y01397695D02*
D03*
X01538167D02*
D03*
X01533167D02*
D03*
X01528167D02*
D03*
X01523167D02*
D03*
X01518167D02*
D03*
X01513167D02*
D03*
X01508167D02*
D03*
X01503167D02*
D03*
X01498167D02*
D03*
X01503167Y01366445D02*
D03*
X01508167D02*
D03*
X01513167D02*
D03*
X01518167D02*
D03*
X01523167D02*
D03*
X01528167D02*
D03*
X01533167D02*
D03*
X01538167D02*
D03*
X01543167D02*
D03*
X01498167D02*
D03*
G54D185*
X01507025Y01339819D02*
D03*
X01518024D02*
D03*
G54D186*
X01520954Y01353641D02*
D03*
X01515954D02*
D03*
X01504332Y01353599D02*
D03*
X01509332D02*
D03*
G54D195*
X01110561Y01389044D02*
D03*
G54D196*
X01378042Y01522989D02*
D03*
Y01361689D02*
D03*
G54D197*
Y01474089D02*
D03*
Y01410589D02*
D03*
G54D198*
X01349392Y01369839D02*
D03*
Y01374839D02*
D03*
Y01379839D02*
D03*
Y01384839D02*
D03*
Y01389839D02*
D03*
Y01394839D02*
D03*
Y01399839D02*
D03*
Y01404839D02*
D03*
Y01409839D02*
D03*
Y01414839D02*
D03*
Y01419839D02*
D03*
Y01424839D02*
D03*
Y01429839D02*
D03*
Y01434839D02*
D03*
Y01439839D02*
D03*
Y01444839D02*
D03*
Y01449839D02*
D03*
Y01454839D02*
D03*
Y01459839D02*
D03*
Y01464839D02*
D03*
Y01469839D02*
D03*
Y01474839D02*
D03*
Y01479839D02*
D03*
Y01484839D02*
D03*
Y01489839D02*
D03*
Y01494839D02*
D03*
Y01499839D02*
D03*
Y01504839D02*
D03*
Y01509839D02*
D03*
Y01514839D02*
D03*
X01406692Y01369839D02*
D03*
Y01374839D02*
D03*
Y01379839D02*
D03*
Y01384839D02*
D03*
Y01389839D02*
D03*
Y01394839D02*
D03*
Y01399839D02*
D03*
Y01404839D02*
D03*
Y01409839D02*
D03*
Y01414839D02*
D03*
Y01419839D02*
D03*
Y01424839D02*
D03*
Y01429839D02*
D03*
Y01434839D02*
D03*
Y01439839D02*
D03*
Y01444839D02*
D03*
Y01449839D02*
D03*
Y01454839D02*
D03*
Y01459839D02*
D03*
Y01464839D02*
D03*
Y01469839D02*
D03*
Y01474839D02*
D03*
Y01479839D02*
D03*
Y01484839D02*
D03*
Y01489839D02*
D03*
Y01494839D02*
D03*
Y01499839D02*
D03*
Y01504839D02*
D03*
Y01509839D02*
D03*
Y01514839D02*
D03*
G54D199*
X01639493Y01361278D02*
D03*
X01622493D02*
D03*
G54D200*
X01638993Y01368278D02*
D03*
X01634993D02*
D03*
X01630992D02*
D03*
X01626993D02*
D03*
X01622993D02*
D03*
Y01354278D02*
D03*
X01626993D02*
D03*
X01630992D02*
D03*
X01634993D02*
D03*
X01638993D02*
D03*
G54D201*
X01509770Y01439833D02*
D03*
X01504770Y01454633D02*
D03*
X01509770D02*
D03*
X01514770D02*
D03*
Y01439833D02*
D03*
X01504770D02*
D03*
G54D202*
X01727548Y01367654D02*
D03*
G54D203*
X01784342Y01354199D02*
D03*
X01803342D02*
D03*
Y01381699D02*
D03*
X01793842D02*
D03*
X01784342D02*
D03*
G54D204*
X01694727Y01426167D02*
D03*
Y01405847D02*
D03*
G54D205*
X00996070Y01456731D02*
D03*
G54D206*
Y01465881D02*
D03*
G54D207*
X01568342Y01482474D02*
D03*
G54D208*
X01578092Y01496474D02*
D03*
X01571592D02*
D03*
X01565092D02*
D03*
X01558592D02*
D03*
Y01468474D02*
D03*
X01565092D02*
D03*
X01571592D02*
D03*
X01578092D02*
D03*
M02*
