G04*
G04 #@! TF.GenerationSoftware,Altium Limited,Altium Designer,18.0.9 (584)*
G04*
G04 Layer_Physical_Order=6*
G04 Layer_Color=16711935*
%FSAX44Y44*%
%MOMM*%
G71*
G01*
G75*
%ADD23C,0.2540*%
%ADD24C,0.1016*%
%ADD25C,0.2032*%
%ADD119C,0.5000*%
%ADD134C,1.1000*%
G04:AMPARAMS|DCode=135|XSize=1.1mm|YSize=1.1mm|CornerRadius=0.0495mm|HoleSize=0mm|Usage=FLASHONLY|Rotation=0.000|XOffset=0mm|YOffset=0mm|HoleType=Round|Shape=RoundedRectangle|*
%AMROUNDEDRECTD135*
21,1,1.1000,1.0010,0,0,0.0*
21,1,1.0010,1.1000,0,0,0.0*
1,1,0.0990,0.5005,-0.5005*
1,1,0.0990,-0.5005,-0.5005*
1,1,0.0990,-0.5005,0.5005*
1,1,0.0990,0.5005,0.5005*
%
%ADD135ROUNDEDRECTD135*%
G04:AMPARAMS|DCode=136|XSize=1.1mm|YSize=1.1mm|CornerRadius=0.0495mm|HoleSize=0mm|Usage=FLASHONLY|Rotation=90.000|XOffset=0mm|YOffset=0mm|HoleType=Round|Shape=RoundedRectangle|*
%AMROUNDEDRECTD136*
21,1,1.1000,1.0010,0,0,90.0*
21,1,1.0010,1.1000,0,0,90.0*
1,1,0.0990,0.5005,0.5005*
1,1,0.0990,0.5005,-0.5005*
1,1,0.0990,-0.5005,-0.5005*
1,1,0.0990,-0.5005,0.5005*
%
%ADD136ROUNDEDRECTD136*%
%ADD137C,1.1200*%
G04:AMPARAMS|DCode=138|XSize=1.12mm|YSize=1.12mm|CornerRadius=0.0504mm|HoleSize=0mm|Usage=FLASHONLY|Rotation=0.000|XOffset=0mm|YOffset=0mm|HoleType=Round|Shape=RoundedRectangle|*
%AMROUNDEDRECTD138*
21,1,1.1200,1.0192,0,0,0.0*
21,1,1.0192,1.1200,0,0,0.0*
1,1,0.1008,0.5096,-0.5096*
1,1,0.1008,-0.5096,-0.5096*
1,1,0.1008,-0.5096,0.5096*
1,1,0.1008,0.5096,0.5096*
%
%ADD138ROUNDEDRECTD138*%
%ADD139C,2.5000*%
%ADD154C,0.3810*%
%ADD156C,0.1067*%
%ADD158C,1.5240*%
%ADD159C,1.4500*%
%ADD160O,1.9000X1.2000*%
%ADD161C,2.4130*%
%ADD162C,0.6858*%
%ADD163C,2.1082*%
%ADD164C,0.4572*%
%ADD165C,0.4318*%
%ADD167C,0.5080*%
%ADD168C,0.4572*%
G36*
X01353410Y01556563D02*
X01353848Y01556476D01*
X01354286Y01556563D01*
X01366119Y01556561D01*
X01366548Y01556476D01*
X01366976Y01556561D01*
X01377152Y01556559D01*
X01377537Y01555289D01*
X01377454Y01555234D01*
X01376713Y01554125D01*
X01376453Y01552816D01*
X01376713Y01551508D01*
X01377454Y01550399D01*
X01378563Y01549658D01*
X01379871Y01549398D01*
X01381180Y01549658D01*
X01382289Y01550399D01*
X01383029Y01551508D01*
X01383290Y01552816D01*
X01383029Y01554125D01*
X01382289Y01555234D01*
X01382206Y01555289D01*
X01382592Y01556559D01*
X01428522Y01556552D01*
X01429008Y01555378D01*
X01421312Y01547683D01*
X01420745Y01546834D01*
X01419467Y01546919D01*
X01419390Y01546970D01*
X01418082Y01547231D01*
X01416774Y01546970D01*
X01415665Y01546229D01*
X01414924Y01545120D01*
X01414664Y01543812D01*
X01414924Y01542504D01*
X01415665Y01541395D01*
X01416774Y01540654D01*
X01418082Y01540394D01*
X01418755Y01540527D01*
X01419852Y01539558D01*
X01419856Y01539550D01*
X01419743Y01538986D01*
X01420004Y01537678D01*
X01420745Y01536569D01*
X01420948Y01536433D01*
X01420562Y01535163D01*
X01418568D01*
X01416782Y01536949D01*
X01415933Y01537516D01*
X01414932Y01537715D01*
X01411286D01*
X01410659Y01538985D01*
X01410971Y01539392D01*
X01411690Y01541127D01*
X01411935Y01542989D01*
X01411690Y01544851D01*
X01410971Y01546586D01*
X01409828Y01548076D01*
X01408338Y01549219D01*
X01406603Y01549937D01*
X01404742Y01550182D01*
X01402880Y01549937D01*
X01401145Y01549219D01*
X01399655Y01548076D01*
X01398512Y01546586D01*
X01397793Y01544851D01*
X01397548Y01542989D01*
X01397793Y01541127D01*
X01398512Y01539392D01*
X01398824Y01538985D01*
X01398198Y01537715D01*
X01393931D01*
X01388483Y01543163D01*
X01387635Y01543730D01*
X01386634Y01543929D01*
X01381680D01*
X01372842Y01552766D01*
X01371994Y01553333D01*
X01370993Y01553533D01*
X01345341D01*
X01344341Y01553333D01*
X01343492Y01552766D01*
X01331381Y01540655D01*
X01330814Y01539807D01*
X01330614Y01538806D01*
Y01531200D01*
X01330072Y01530388D01*
X01329881Y01529430D01*
X01327494Y01527043D01*
X01326927Y01526195D01*
X01326728Y01525194D01*
Y01519397D01*
X01324567Y01517236D01*
X01322362D01*
X01322362Y01524491D01*
X01322645Y01524914D01*
X01322723Y01525103D01*
X01322836Y01525272D01*
X01323751Y01527480D01*
X01323791Y01527680D01*
X01323869Y01527869D01*
X01324335Y01530213D01*
Y01530367D01*
X01324372Y01530516D01*
X01324431Y01531711D01*
X01324424Y01531762D01*
X01324434Y01531812D01*
Y01546445D01*
X01324434Y01547442D01*
X01324823Y01549397D01*
X01325586Y01551239D01*
X01326693Y01552897D01*
X01328103Y01554306D01*
X01329760Y01555414D01*
X01331602Y01556177D01*
X01333557Y01556566D01*
X01334554D01*
X01353410Y01556563D01*
D02*
G37*
G36*
X01467376Y01527938D02*
X01468224Y01527371D01*
X01469225Y01527172D01*
X01471409D01*
X01478530Y01520051D01*
Y01503783D01*
X01477260Y01503104D01*
X01476992Y01503282D01*
X01475684Y01503542D01*
X01474376Y01503282D01*
X01473267Y01502541D01*
X01472526Y01501432D01*
X01472367Y01500631D01*
X01472174Y01500092D01*
X01471056Y01499696D01*
X01470660Y01499774D01*
X01469352Y01499514D01*
X01468243Y01498773D01*
X01467502Y01497664D01*
X01467242Y01496356D01*
X01467490Y01495106D01*
X01467436Y01495025D01*
X01466385Y01494415D01*
X01441530Y01519270D01*
X01442148Y01520194D01*
X01442408Y01521502D01*
X01442148Y01522810D01*
X01441407Y01523919D01*
X01440298Y01524660D01*
X01438990Y01524920D01*
X01437681Y01524660D01*
X01436572Y01523919D01*
X01435831Y01522810D01*
X01435571Y01521502D01*
X01435620Y01521259D01*
X01434814Y01520277D01*
X01373069D01*
X01370494Y01522852D01*
X01370496Y01522922D01*
X01371496Y01524122D01*
X01375584D01*
X01376585Y01524321D01*
X01377434Y01524888D01*
X01384491Y01531945D01*
X01385448Y01532135D01*
X01386557Y01532876D01*
X01386721Y01533121D01*
X01387985Y01533246D01*
X01390114Y01531117D01*
X01390963Y01530550D01*
X01391964Y01530350D01*
X01407423D01*
X01410035Y01527738D01*
X01410883Y01527171D01*
X01411884Y01526972D01*
X01414325D01*
X01415367Y01525702D01*
X01415332Y01525524D01*
X01415592Y01524216D01*
X01416333Y01523107D01*
X01417442Y01522366D01*
X01418750Y01522106D01*
X01420059Y01522366D01*
X01421168Y01523107D01*
X01421909Y01524216D01*
X01422169Y01525524D01*
X01422134Y01525702D01*
X01423176Y01526972D01*
X01451356D01*
X01452357Y01527171D01*
X01453206Y01527738D01*
X01457851Y01532383D01*
X01458418Y01533232D01*
X01458617Y01534233D01*
Y01534901D01*
X01459887Y01535427D01*
X01467376Y01527938D01*
D02*
G37*
G36*
X01485595Y01548566D02*
X01495996Y01538166D01*
Y01522296D01*
X01494726Y01521618D01*
X01494668Y01521656D01*
X01493360Y01521916D01*
X01492803Y01521805D01*
X01491533Y01522720D01*
Y01523185D01*
X01491334Y01524186D01*
X01490767Y01525034D01*
X01475549Y01540252D01*
X01476039Y01541435D01*
X01476298Y01543401D01*
X01476039Y01545367D01*
X01475280Y01547200D01*
X01474073Y01548773D01*
X01473177Y01549461D01*
X01473608Y01550731D01*
X01483431D01*
X01485595Y01548566D01*
D02*
G37*
G36*
X01340089Y01505280D02*
X01340645Y01504168D01*
X01339212Y01502735D01*
X01339057Y01502504D01*
X01337574Y01502516D01*
X01337238Y01503018D01*
X01336129Y01503759D01*
X01334821Y01504019D01*
X01333513Y01503759D01*
X01332404Y01503018D01*
X01330836Y01502958D01*
X01330149Y01503417D01*
X01328841Y01503677D01*
X01327533Y01503417D01*
X01326424Y01502676D01*
X01325683Y01501567D01*
X01325423Y01500258D01*
X01325683Y01498950D01*
X01326424Y01497841D01*
X01327533Y01497100D01*
X01328841Y01496840D01*
X01329976Y01497066D01*
X01330430Y01496661D01*
X01330828Y01496039D01*
X01330573Y01494754D01*
X01330833Y01493446D01*
X01331574Y01492337D01*
X01332683Y01491596D01*
X01333991Y01491336D01*
X01335299Y01491596D01*
X01336408Y01492337D01*
X01337149Y01493446D01*
X01337176Y01493580D01*
X01338446Y01493455D01*
Y01485020D01*
X01325168Y01471742D01*
X01322362D01*
Y01478954D01*
X01323588Y01480181D01*
X01323589Y01480181D01*
X01324262Y01481189D01*
X01324262Y01481189D01*
X01325229Y01483523D01*
X01325229Y01483523D01*
X01325466Y01484712D01*
Y01492237D01*
X01325466Y01492237D01*
Y01493500D01*
X01325466Y01493500D01*
X01325229Y01494690D01*
X01325229Y01494690D01*
X01324262Y01497023D01*
X01324262Y01497024D01*
X01323589Y01498032D01*
X01323589Y01498032D01*
X01322362Y01499258D01*
Y01505345D01*
X01340027D01*
X01340089Y01505280D01*
D02*
G37*
G36*
X01161297Y01502222D02*
Y01500518D01*
X01161111Y01500332D01*
X01160768Y01499819D01*
X01160648Y01499215D01*
X01160648Y01499214D01*
Y01496686D01*
X01156995Y01493033D01*
X01155822Y01493519D01*
Y01500017D01*
X01158012Y01502207D01*
X01158114Y01502186D01*
X01159422Y01502447D01*
X01160027Y01502851D01*
X01161297Y01502222D01*
D02*
G37*
G36*
X01430834Y01505611D02*
X01430418Y01504988D01*
X01430157Y01503680D01*
X01430418Y01502372D01*
X01431159Y01501263D01*
X01432268Y01500522D01*
X01433117Y01500353D01*
X01433722Y01499278D01*
X01433759Y01499029D01*
X01433430Y01498537D01*
X01433239Y01497579D01*
X01429065Y01493405D01*
X01391685D01*
X01391110Y01494675D01*
X01391558Y01495345D01*
X01391818Y01496653D01*
X01391558Y01497961D01*
X01390816Y01499070D01*
X01389707Y01499811D01*
X01388399Y01500072D01*
X01387091Y01499811D01*
X01385982Y01499070D01*
X01385241Y01497961D01*
X01384981Y01496653D01*
X01385241Y01495345D01*
X01385689Y01494675D01*
X01385114Y01493405D01*
X01379943D01*
X01378942Y01493206D01*
X01378094Y01492639D01*
X01375729Y01490274D01*
X01375119Y01490420D01*
X01374449Y01490790D01*
X01374233Y01491879D01*
X01373492Y01492988D01*
X01372383Y01493729D01*
X01371075Y01493989D01*
X01369767Y01493729D01*
X01368658Y01492988D01*
X01368234Y01492354D01*
X01368217Y01492347D01*
X01366817Y01492364D01*
X01366379Y01493018D01*
X01365367Y01493695D01*
X01365252Y01493848D01*
X01364987Y01495111D01*
X01376757Y01506881D01*
X01430220D01*
X01430834Y01505611D01*
D02*
G37*
G36*
X01250696Y01493293D02*
X01250696Y01486356D01*
X01245905Y01481565D01*
X01245774Y01481369D01*
X01238791D01*
X01238478Y01481837D01*
X01237369Y01482578D01*
X01236853Y01482681D01*
X01237081Y01483826D01*
X01236820Y01485134D01*
X01236079Y01486243D01*
X01234970Y01486984D01*
X01233662Y01487245D01*
X01232354Y01486984D01*
X01231305Y01486283D01*
X01230740Y01487129D01*
X01229631Y01487870D01*
X01228322Y01488130D01*
X01227014Y01487870D01*
X01225905Y01487129D01*
X01225164Y01486020D01*
X01224904Y01484712D01*
X01225164Y01483404D01*
X01225675Y01482639D01*
X01225233Y01481510D01*
X01225112Y01481369D01*
X01203604D01*
X01203537Y01481451D01*
X01203277Y01482759D01*
X01202536Y01483868D01*
X01201427Y01484609D01*
X01200119Y01484869D01*
X01198811Y01484609D01*
X01197701Y01483868D01*
X01196961Y01482759D01*
X01196700Y01481451D01*
X01196633Y01481369D01*
X01175820D01*
X01175820Y01416877D01*
X01173904Y01414962D01*
X01163092Y01414962D01*
X01162330Y01416232D01*
X01162507Y01417117D01*
X01162246Y01418425D01*
X01161505Y01419534D01*
X01160396Y01420275D01*
X01159510Y01420451D01*
X01159510Y01430505D01*
X01160531Y01431188D01*
X01161272Y01432297D01*
X01161533Y01433605D01*
X01161272Y01434913D01*
X01160531Y01436022D01*
X01159510Y01436705D01*
Y01446505D01*
X01160531Y01447188D01*
X01161272Y01448297D01*
X01161532Y01449605D01*
X01161272Y01450913D01*
X01160531Y01452022D01*
X01159510Y01452704D01*
X01159510Y01471954D01*
X01160051Y01472495D01*
X01160394Y01473007D01*
X01160514Y01473612D01*
X01160514Y01473612D01*
Y01488165D01*
X01164488Y01492139D01*
X01239724D01*
X01239724Y01492139D01*
X01240328Y01492259D01*
X01240841Y01492602D01*
X01241678Y01493439D01*
X01250550D01*
X01250696Y01493293D01*
D02*
G37*
G36*
X00952393Y01517549D02*
X00981012D01*
X00981428Y01517466D01*
X00981844Y01517549D01*
X00993712D01*
X00994128Y01517466D01*
X00994544Y01517549D01*
X01006412D01*
X01006828Y01517466D01*
X01007244Y01517549D01*
X01065209D01*
X01065359Y01517339D01*
X01065049Y01515614D01*
X01064307Y01514505D01*
X01064047Y01513197D01*
X01064307Y01511888D01*
X01065049Y01510779D01*
X01066158Y01510038D01*
X01067466Y01509778D01*
X01068774Y01510038D01*
X01069883Y01510779D01*
X01070624Y01511888D01*
X01070884Y01513197D01*
X01070624Y01514505D01*
X01069883Y01515614D01*
X01069573Y01517339D01*
X01069722Y01517549D01*
X01075868D01*
X01076211Y01516880D01*
X01076363Y01516279D01*
X01075711Y01515302D01*
X01075451Y01513994D01*
X01075711Y01512686D01*
X01076452Y01511577D01*
X01077561Y01510836D01*
X01078869Y01510576D01*
X01078980Y01510598D01*
X01080060Y01509518D01*
X01080023Y01509330D01*
X01080283Y01508022D01*
X01081024Y01506913D01*
X01082133Y01506172D01*
X01083441Y01505912D01*
X01084750Y01506172D01*
X01085859Y01506913D01*
X01086600Y01508022D01*
X01086860Y01509330D01*
X01086654Y01510366D01*
X01087339Y01511025D01*
X01087683Y01511205D01*
X01088010Y01510987D01*
X01089318Y01510727D01*
X01090626Y01510987D01*
X01091735Y01511728D01*
X01092476Y01512837D01*
X01092736Y01514145D01*
X01092476Y01515453D01*
X01091925Y01516279D01*
X01092272Y01517267D01*
X01092487Y01517549D01*
X01108645D01*
X01109324Y01516279D01*
X01109079Y01515912D01*
X01108819Y01514603D01*
X01109079Y01513295D01*
X01109820Y01512186D01*
X01110182Y01511944D01*
X01110223Y01511809D01*
X01110095Y01510475D01*
X01109435Y01510034D01*
X01108694Y01508925D01*
X01108434Y01507617D01*
X01108694Y01506309D01*
X01109435Y01505200D01*
X01110544Y01504459D01*
X01111852Y01504199D01*
X01113160Y01504459D01*
X01114269Y01505200D01*
X01115011Y01506309D01*
X01115271Y01507617D01*
X01115011Y01508925D01*
X01114269Y01510034D01*
X01113908Y01510276D01*
X01113866Y01510411D01*
X01113995Y01511745D01*
X01114654Y01512186D01*
X01115396Y01513295D01*
X01115656Y01514603D01*
X01115396Y01515912D01*
X01115150Y01516279D01*
X01115829Y01517549D01*
X01122292D01*
X01122708Y01517466D01*
X01123124Y01517549D01*
X01124210D01*
X01124889Y01516279D01*
X01124634Y01515897D01*
X01124374Y01514588D01*
X01124564Y01513632D01*
X01124304Y01513230D01*
X01123893Y01512832D01*
X01123566Y01512634D01*
X01122568Y01512832D01*
X01121260Y01512572D01*
X01120151Y01511831D01*
X01119410Y01510722D01*
X01119150Y01509414D01*
X01119410Y01508106D01*
X01120151Y01506997D01*
X01120563Y01506722D01*
X01120790Y01505153D01*
X01118462Y01502825D01*
X01103061D01*
X01102689Y01503862D01*
X01102645Y01504095D01*
X01103360Y01505166D01*
X01103621Y01506474D01*
X01103360Y01507782D01*
X01102619Y01508891D01*
X01101510Y01509632D01*
X01100202Y01509892D01*
X01098894Y01509632D01*
X01097785Y01508891D01*
X01097572Y01508572D01*
X01096300Y01508225D01*
X01096034Y01508383D01*
X01095171Y01508961D01*
X01093862Y01509221D01*
X01092554Y01508961D01*
X01091445Y01508220D01*
X01090704Y01507111D01*
X01090444Y01505802D01*
X01090704Y01504494D01*
X01090971Y01504095D01*
X01090292Y01502825D01*
X01067650D01*
X01066659Y01502628D01*
X01065819Y01502066D01*
X01025018Y01461266D01*
X00998438D01*
X00997447Y01461069D01*
X00996606Y01460507D01*
X00984552Y01448453D01*
X00973439D01*
X00972772Y01449451D01*
X00971663Y01450192D01*
X00970355Y01450453D01*
X00969046Y01450192D01*
X00967937Y01449451D01*
X00967196Y01448342D01*
X00966936Y01447034D01*
X00967196Y01445726D01*
X00967580Y01445152D01*
X00967833Y01444240D01*
X00967580Y01443328D01*
X00967196Y01442754D01*
X00966936Y01441446D01*
X00967196Y01440138D01*
X00967937Y01439029D01*
X00969046Y01438288D01*
X00970355Y01438028D01*
X00971663Y01438288D01*
X00972772Y01439029D01*
X00973513Y01440138D01*
X00973631Y01440734D01*
X00986677D01*
X00987668Y01440931D01*
X00988509Y01441492D01*
X01000563Y01453546D01*
X01027143D01*
X01028134Y01453743D01*
X01028974Y01454305D01*
X01069775Y01495105D01*
X01120586D01*
X01121578Y01495302D01*
X01122418Y01495864D01*
X01134538Y01507984D01*
X01134660Y01508166D01*
X01142005D01*
X01143172Y01508649D01*
X01146083Y01511561D01*
X01147095Y01511359D01*
X01148403Y01511620D01*
X01149512Y01512361D01*
X01150253Y01513470D01*
X01150513Y01514778D01*
X01150253Y01516086D01*
X01150124Y01516279D01*
X01150803Y01517549D01*
X01161297D01*
Y01511299D01*
X01156198D01*
X01155594Y01511178D01*
X01155081Y01510836D01*
X01155081Y01510836D01*
X01147783Y01503538D01*
X01147441Y01503025D01*
X01147320Y01502421D01*
X01147320Y01502421D01*
Y01489391D01*
X01141496Y01483567D01*
X01135009D01*
X01135009Y01483567D01*
X01134404Y01483447D01*
X01133892Y01483104D01*
X01133892Y01483104D01*
X01130517Y01479729D01*
X01130198Y01479792D01*
X01129197Y01479593D01*
X01128349Y01479026D01*
X01127782Y01478178D01*
X01127583Y01477177D01*
Y01473277D01*
X01122185Y01467879D01*
X01089190D01*
X01088188Y01467680D01*
X01087340Y01467113D01*
X01080469Y01460242D01*
X01079902Y01459394D01*
X01079703Y01458393D01*
Y01456753D01*
X01079161Y01455941D01*
X01078976Y01455011D01*
X01066910D01*
X01065909Y01454812D01*
X01065060Y01454245D01*
X01048078Y01437263D01*
X01047511Y01436415D01*
X01047312Y01435414D01*
Y01407870D01*
X01047511Y01406870D01*
X01048078Y01406021D01*
X01051230Y01402868D01*
Y01391479D01*
X01045392Y01385642D01*
X01044825Y01384793D01*
X01044626Y01383792D01*
Y01374192D01*
X01044825Y01373191D01*
X01045392Y01372343D01*
X01050804Y01366931D01*
X01050278Y01365661D01*
X01007229D01*
X01006828Y01365741D01*
X01006427Y01365661D01*
X00994529D01*
X00994128Y01365741D01*
X00993727Y01365661D01*
X00981829D01*
X00981428Y01365741D01*
X00981027Y01365661D01*
X00952393D01*
X00951397Y01365661D01*
X00949441Y01366050D01*
X00947599Y01366813D01*
X00945942Y01367921D01*
X00944532Y01369330D01*
X00943425Y01370988D01*
X00942662Y01372830D01*
X00942273Y01374785D01*
Y01375782D01*
Y01507428D01*
Y01508425D01*
X00942662Y01510380D01*
X00943425Y01512222D01*
X00944532Y01513880D01*
X00945942Y01515289D01*
X00947600Y01516397D01*
X00949441Y01517160D01*
X00951397Y01517549D01*
X00952393Y01517549D01*
D02*
G37*
G36*
X01200684Y01478677D02*
X01200857Y01478622D01*
X01201220Y01478380D01*
X01201379Y01478221D01*
X01201492Y01478174D01*
X01201773Y01477943D01*
X01201957Y01477888D01*
X01202118Y01477780D01*
X01202677Y01477669D01*
X01203223Y01477503D01*
X01203415Y01477522D01*
X01203604Y01477485D01*
X01225112D01*
X01225260Y01477514D01*
X01225410Y01477496D01*
X01225999Y01477661D01*
X01226599Y01477780D01*
X01227665Y01477791D01*
X01228774Y01477050D01*
X01229135Y01476978D01*
X01228978Y01476186D01*
X01229238Y01474878D01*
X01229979Y01473769D01*
X01231088Y01473028D01*
X01231856Y01472875D01*
X01231762Y01472402D01*
X01232022Y01471093D01*
X01232763Y01469984D01*
X01233872Y01469243D01*
X01234721Y01469075D01*
X01234675Y01468843D01*
X01234936Y01467534D01*
X01235676Y01466425D01*
X01236786Y01465684D01*
X01237488Y01465545D01*
Y01408430D01*
X01232738D01*
X01224356Y01400048D01*
X01216844D01*
X01216459Y01401318D01*
X01216531Y01401366D01*
X01217272Y01402475D01*
X01217533Y01403784D01*
X01217272Y01405092D01*
X01216531Y01406201D01*
X01215422Y01406942D01*
X01214114Y01407202D01*
X01212806Y01406942D01*
X01211697Y01406201D01*
X01210956Y01405092D01*
X01210761Y01404115D01*
X01209467D01*
X01209272Y01405092D01*
X01208531Y01406201D01*
X01207422Y01406942D01*
X01206114Y01407202D01*
X01204850Y01406951D01*
X01204801Y01406945D01*
X01203580Y01407650D01*
Y01413214D01*
X01203580Y01413214D01*
X01203460Y01413819D01*
X01203452Y01413830D01*
Y01415288D01*
X01199761Y01418979D01*
X01198415D01*
X01198067Y01419211D01*
X01197463Y01419332D01*
X01197463Y01419332D01*
X01179705D01*
X01179705Y01474345D01*
X01182845Y01477485D01*
X01196633D01*
X01196822Y01477522D01*
X01197014Y01477503D01*
X01197560Y01477669D01*
X01198120Y01477780D01*
X01198280Y01477888D01*
X01198465Y01477943D01*
X01198746Y01478174D01*
X01198858Y01478221D01*
X01199018Y01478380D01*
X01199380Y01478622D01*
X01199554Y01478677D01*
X01200119Y01478753D01*
X01200684Y01478677D01*
D02*
G37*
G36*
X01731391Y01556507D02*
X01731800Y01556426D01*
X01732208Y01556507D01*
X01744101Y01556505D01*
X01744500Y01556426D01*
X01744899Y01556505D01*
X01756810Y01556504D01*
X01757200Y01556426D01*
X01757589Y01556503D01*
X01816608Y01556495D01*
X01816608Y01486433D01*
X01849069Y01486433D01*
X01849069Y01336006D01*
X01849057Y01335977D01*
X01844729Y01331649D01*
X01842996Y01330931D01*
X01841040Y01330542D01*
X01840044D01*
X01776523Y01330552D01*
X01776148Y01331632D01*
X01776113Y01331822D01*
X01776834Y01332901D01*
X01777094Y01334209D01*
X01776834Y01335517D01*
X01776093Y01336626D01*
X01774984Y01337367D01*
X01773675Y01337628D01*
X01772367Y01337367D01*
X01771258Y01336626D01*
X01770517Y01335517D01*
X01770257Y01334209D01*
X01770517Y01332901D01*
X01771237Y01331823D01*
X01771201Y01331629D01*
X01770827Y01330553D01*
X01758185Y01330555D01*
X01757200Y01330751D01*
X01756216Y01330555D01*
X01745475Y01330557D01*
X01744500Y01330751D01*
X01743526Y01330557D01*
X01732765Y01330559D01*
X01731800Y01330751D01*
X01730836Y01330559D01*
X01726985Y01330560D01*
X01726826Y01330756D01*
X01726423Y01331830D01*
X01726950Y01332619D01*
X01727211Y01333927D01*
X01726950Y01335236D01*
X01726209Y01336345D01*
X01725100Y01337086D01*
X01723792Y01337346D01*
X01722484Y01337086D01*
X01721375Y01336345D01*
X01720634Y01335236D01*
X01720374Y01333927D01*
X01720634Y01332619D01*
X01721161Y01331831D01*
X01720757Y01330755D01*
X01720598Y01330561D01*
X01698149Y01330564D01*
X01697710Y01331756D01*
X01698013Y01332015D01*
X01701093Y01335621D01*
X01703571Y01339665D01*
X01705386Y01344046D01*
X01706494Y01348658D01*
X01706866Y01353386D01*
X01706494Y01358114D01*
X01705386Y01362725D01*
X01703571Y01367107D01*
X01701093Y01371150D01*
X01699061Y01373531D01*
X01699103Y01373834D01*
X01699615Y01374837D01*
X01700541Y01375021D01*
X01701650Y01375762D01*
X01702391Y01376871D01*
X01702651Y01378180D01*
X01702391Y01379488D01*
X01701650Y01380597D01*
X01700541Y01381338D01*
X01699232Y01381598D01*
X01697924Y01381338D01*
X01696815Y01380597D01*
X01696074Y01379488D01*
X01695835Y01378287D01*
X01695410Y01378001D01*
X01694624Y01377651D01*
X01694407Y01377836D01*
X01690364Y01380314D01*
X01685982Y01382129D01*
X01681371Y01383237D01*
X01677051Y01383577D01*
X01676574Y01384553D01*
X01676550Y01384872D01*
X01680222Y01388544D01*
X01680603Y01389114D01*
X01681749Y01389044D01*
X01681925Y01388980D01*
X01681982Y01388692D01*
X01682723Y01387583D01*
X01683832Y01386842D01*
X01685140Y01386582D01*
X01686449Y01386842D01*
X01687558Y01387583D01*
X01688298Y01388692D01*
X01688308Y01388739D01*
X01689092Y01389742D01*
X01689680Y01389625D01*
X01690401Y01389482D01*
X01691709Y01389742D01*
X01692818Y01390483D01*
X01693559Y01391592D01*
X01693819Y01392900D01*
X01693559Y01394208D01*
X01692818Y01395317D01*
X01691709Y01396058D01*
X01690401Y01396318D01*
X01689092Y01396058D01*
X01687983Y01395317D01*
X01687309Y01394307D01*
X01687146Y01394188D01*
X01685892Y01393928D01*
X01675992Y01403828D01*
X01675143Y01404395D01*
X01674142Y01404594D01*
X01647268D01*
X01641004Y01410858D01*
Y01507395D01*
X01645601Y01511992D01*
X01645618Y01511992D01*
X01646871Y01510982D01*
Y01476959D01*
X01646328Y01476147D01*
X01646068Y01474839D01*
X01646328Y01473531D01*
X01647069Y01472422D01*
X01648178Y01471681D01*
X01649486Y01471420D01*
X01650795Y01471681D01*
X01651904Y01472422D01*
X01652645Y01473531D01*
X01652683Y01473724D01*
X01653978D01*
X01654032Y01473451D01*
X01654773Y01472342D01*
X01655882Y01471601D01*
X01657190Y01471341D01*
X01658499Y01471601D01*
X01659608Y01472342D01*
X01660349Y01473451D01*
X01660609Y01474760D01*
X01660349Y01476068D01*
X01659608Y01477177D01*
X01658499Y01477918D01*
X01657541Y01478108D01*
X01654886Y01480763D01*
Y01508356D01*
X01669106Y01522576D01*
X01669673Y01523424D01*
X01669872Y01524425D01*
Y01530262D01*
X01669673Y01531263D01*
X01669106Y01532111D01*
X01665155Y01536062D01*
X01665666Y01537295D01*
X01665928Y01539288D01*
X01665666Y01541280D01*
X01664897Y01543136D01*
X01663673Y01544731D01*
X01662079Y01545954D01*
X01660222Y01546723D01*
X01658230Y01546985D01*
X01656238Y01546723D01*
X01654381Y01545954D01*
X01652787Y01544731D01*
X01652515Y01544377D01*
X01651245D01*
X01650973Y01544731D01*
X01649379Y01545954D01*
X01647522Y01546723D01*
X01645530Y01546985D01*
X01643538Y01546723D01*
X01641681Y01545954D01*
X01640087Y01544731D01*
X01638864Y01543136D01*
X01638095Y01541280D01*
X01637832Y01539288D01*
X01638095Y01537295D01*
X01638864Y01535439D01*
X01640087Y01533844D01*
X01640441Y01533573D01*
Y01532303D01*
X01640087Y01532031D01*
X01639815Y01531677D01*
X01638545D01*
X01638273Y01532031D01*
X01636679Y01533254D01*
X01634823Y01534023D01*
X01632830Y01534285D01*
X01630838Y01534023D01*
X01628981Y01533254D01*
X01627387Y01532031D01*
X01627115Y01531677D01*
X01625845D01*
X01625573Y01532031D01*
X01623979Y01533254D01*
X01622122Y01534023D01*
X01620130Y01534285D01*
X01618138Y01534023D01*
X01616281Y01533254D01*
X01616209Y01533199D01*
X01615057Y01533916D01*
X01615112Y01534192D01*
Y01544384D01*
X01614915Y01545373D01*
X01614355Y01546212D01*
X01613516Y01546772D01*
X01612526Y01546969D01*
X01602334D01*
X01601345Y01546772D01*
X01600506Y01546212D01*
X01599945Y01545373D01*
X01599749Y01544384D01*
Y01534192D01*
X01599945Y01533202D01*
X01600506Y01532363D01*
X01600595Y01532303D01*
X01600954Y01530684D01*
X01600764Y01530437D01*
X01599995Y01528580D01*
X01599732Y01526588D01*
X01599995Y01524595D01*
X01600764Y01522739D01*
X01601987Y01521144D01*
X01603581Y01519921D01*
X01604814Y01519410D01*
Y01513500D01*
X01604611Y01513362D01*
X01602886Y01513695D01*
X01602871Y01513717D01*
X01601762Y01514458D01*
X01600454Y01514718D01*
X01599146Y01514458D01*
X01598037Y01513717D01*
X01597296Y01512608D01*
X01597036Y01511300D01*
X01597296Y01509992D01*
X01598037Y01508883D01*
X01599146Y01508142D01*
X01600454Y01507881D01*
X01601762Y01508142D01*
X01602871Y01508883D01*
X01602886Y01508905D01*
X01604611Y01509238D01*
X01604814Y01509100D01*
Y01500017D01*
X01605014Y01499016D01*
X01605581Y01498167D01*
X01620612Y01483136D01*
Y01414085D01*
X01616033Y01409506D01*
X01615600Y01409420D01*
X01614491Y01408679D01*
X01613750Y01407570D01*
X01613490Y01406262D01*
X01613750Y01404953D01*
X01614491Y01403844D01*
X01615600Y01403103D01*
X01616155Y01402993D01*
X01616764Y01401618D01*
X01616504Y01401230D01*
X01616332Y01400367D01*
X01615038D01*
X01614903Y01401044D01*
X01614336Y01401893D01*
X01596449Y01419779D01*
X01595601Y01420346D01*
X01594600Y01420545D01*
X01594389D01*
X01593630Y01421815D01*
X01593807Y01422704D01*
X01593546Y01424012D01*
X01592805Y01425121D01*
X01592990Y01426417D01*
X01593409Y01426838D01*
X01605279D01*
X01606280Y01427037D01*
X01607129Y01427604D01*
X01616469Y01436945D01*
X01617036Y01437793D01*
X01617236Y01438794D01*
Y01473512D01*
X01617036Y01474513D01*
X01616469Y01475362D01*
X01609391Y01482440D01*
X01609200Y01483398D01*
X01608459Y01484507D01*
X01607350Y01485248D01*
X01606042Y01485509D01*
X01604734Y01485248D01*
X01604445Y01485055D01*
X01602865Y01485133D01*
X01601756Y01485874D01*
X01600448Y01486134D01*
X01599140Y01485874D01*
X01598328Y01485331D01*
X01595872D01*
X01594871Y01485132D01*
X01594022Y01484565D01*
X01580309Y01470852D01*
X01579742Y01470004D01*
X01579543Y01469003D01*
Y01464314D01*
X01578273Y01463412D01*
X01577688Y01463528D01*
X01576380Y01463268D01*
X01575271Y01462527D01*
X01574530Y01461418D01*
X01574270Y01460110D01*
X01574326Y01459826D01*
X01574152Y01459633D01*
X01572422Y01459583D01*
X01566494Y01465511D01*
Y01493293D01*
X01566295Y01494294D01*
X01565728Y01495142D01*
X01553870Y01507000D01*
Y01510252D01*
X01553671Y01511253D01*
X01553104Y01512102D01*
X01542988Y01522218D01*
X01542797Y01523175D01*
X01542056Y01524284D01*
X01540947Y01525025D01*
X01539639Y01525286D01*
X01538331Y01525025D01*
X01537222Y01524284D01*
X01536481Y01523175D01*
X01536221Y01521867D01*
X01536481Y01520559D01*
X01537222Y01519450D01*
X01537670Y01519151D01*
X01537714Y01519005D01*
X01537583Y01517681D01*
X01536917Y01517236D01*
X01536176Y01516127D01*
X01535916Y01514819D01*
X01536176Y01513511D01*
X01536917Y01512402D01*
X01538026Y01511661D01*
X01538984Y01511470D01*
X01545735Y01504719D01*
Y01502061D01*
X01544465Y01501146D01*
X01543909Y01501257D01*
X01542600Y01500996D01*
X01541491Y01500255D01*
X01541367Y01500069D01*
X01539732Y01499908D01*
X01539698Y01499942D01*
X01538850Y01500509D01*
X01537849Y01500708D01*
X01507763D01*
X01506762Y01500509D01*
X01506685Y01500457D01*
X01505990Y01500764D01*
X01505494Y01501189D01*
Y01537016D01*
X01505892Y01537296D01*
X01506764Y01537579D01*
X01507632Y01536999D01*
X01508940Y01536739D01*
X01510248Y01536999D01*
X01511357Y01537740D01*
X01512098Y01538849D01*
X01512359Y01540158D01*
X01512098Y01541466D01*
X01511357Y01542575D01*
X01510248Y01543316D01*
X01508940Y01543576D01*
X01507632Y01543316D01*
X01507328Y01543113D01*
X01506185Y01543876D01*
X01506297Y01544442D01*
X01506037Y01545750D01*
X01505296Y01546859D01*
X01504187Y01547600D01*
X01502879Y01547861D01*
X01501570Y01547600D01*
X01500461Y01546859D01*
X01500082Y01546291D01*
X01498574Y01546003D01*
X01489208Y01555370D01*
X01489694Y01556543D01*
X01731391Y01556507D01*
D02*
G37*
G36*
X01147387Y01476602D02*
X01147387Y01476602D01*
X01147900Y01476259D01*
X01148504Y01476139D01*
X01148504Y01476139D01*
X01153913D01*
X01153913Y01476139D01*
X01154371Y01476230D01*
X01154676Y01476150D01*
X01155641Y01475483D01*
Y01472553D01*
X01154159Y01471071D01*
X01146722D01*
X01145309Y01472483D01*
X01145533Y01473605D01*
X01145272Y01474913D01*
X01144596Y01475925D01*
X01144708Y01476413D01*
X01145061Y01477195D01*
X01146794D01*
X01147387Y01476602D01*
D02*
G37*
G36*
X01599140Y01479557D02*
X01600448Y01479297D01*
X01601756Y01479557D01*
X01602045Y01479751D01*
X01603625Y01479673D01*
X01604734Y01478932D01*
X01605692Y01478741D01*
X01611698Y01472735D01*
X01611594Y01471747D01*
X01610441Y01470969D01*
X01609667Y01471123D01*
X01608359Y01470862D01*
X01607250Y01470121D01*
X01606509Y01469012D01*
X01606248Y01467704D01*
X01606509Y01466396D01*
X01607250Y01465287D01*
X01608359Y01464546D01*
X01609667Y01464286D01*
X01610734Y01464498D01*
X01612004Y01463822D01*
Y01439878D01*
X01608146Y01436019D01*
X01607478Y01436210D01*
X01606884Y01436553D01*
X01606660Y01437678D01*
X01605919Y01438787D01*
X01604810Y01439528D01*
X01603502Y01439789D01*
X01602194Y01439528D01*
X01601085Y01438787D01*
X01600344Y01437678D01*
X01600083Y01436370D01*
X01600344Y01435062D01*
X01601085Y01433953D01*
X01602003Y01433339D01*
X01601951Y01432523D01*
X01601792Y01432069D01*
X01592509D01*
X01591696Y01432612D01*
X01590388Y01432872D01*
X01589080Y01432612D01*
X01587971Y01431871D01*
X01587230Y01430762D01*
X01586970Y01429454D01*
X01587230Y01428145D01*
X01587971Y01427036D01*
X01588261Y01426843D01*
Y01425315D01*
X01587971Y01425121D01*
X01587230Y01424012D01*
X01586970Y01422704D01*
X01587147Y01421815D01*
X01586387Y01420545D01*
X01576925D01*
X01574114Y01423356D01*
Y01426091D01*
X01574632Y01426417D01*
X01575384Y01426638D01*
X01576298Y01426027D01*
X01577606Y01425767D01*
X01578914Y01426027D01*
X01580023Y01426768D01*
X01580764Y01427877D01*
X01580955Y01428835D01*
X01584008Y01431888D01*
X01584575Y01432737D01*
X01584774Y01433738D01*
Y01453568D01*
X01585527Y01453919D01*
X01586044Y01454041D01*
X01587048Y01453370D01*
X01588356Y01453110D01*
X01589664Y01453370D01*
X01590773Y01454111D01*
X01591514Y01455220D01*
X01591775Y01456528D01*
X01591514Y01457836D01*
X01590773Y01458945D01*
X01589664Y01459686D01*
X01588356Y01459947D01*
X01587048Y01459686D01*
X01586044Y01459016D01*
X01585527Y01459137D01*
X01584774Y01459488D01*
Y01467919D01*
X01596955Y01480100D01*
X01598328D01*
X01599140Y01479557D01*
D02*
G37*
G36*
X01486302Y01522101D02*
Y01469157D01*
X01485178Y01468672D01*
X01484274Y01469399D01*
Y01491320D01*
X01484075Y01492321D01*
X01483761Y01492791D01*
Y01521135D01*
X01483562Y01522136D01*
X01482995Y01522984D01*
X01474342Y01531637D01*
X01473493Y01532204D01*
X01472493Y01532403D01*
X01470309D01*
X01468111Y01534601D01*
X01468701Y01535804D01*
X01470667Y01536063D01*
X01471850Y01536553D01*
X01486302Y01522101D01*
D02*
G37*
G36*
X01525953Y01481797D02*
X01526138Y01481520D01*
X01528415Y01479243D01*
X01528639Y01479094D01*
Y01467999D01*
X01527657Y01467193D01*
X01527368Y01467251D01*
X01526060Y01466990D01*
X01524951Y01466249D01*
X01524210Y01465140D01*
X01523950Y01463832D01*
X01524210Y01462524D01*
X01524951Y01461415D01*
X01526060Y01460674D01*
X01527368Y01460414D01*
X01527657Y01460471D01*
X01528639Y01459665D01*
Y01440770D01*
X01527817Y01439948D01*
X01526859Y01439758D01*
X01525750Y01439017D01*
X01525009Y01437908D01*
X01524749Y01436600D01*
X01525009Y01435291D01*
X01525750Y01434182D01*
X01526859Y01433441D01*
X01528167Y01433181D01*
X01529475Y01433441D01*
X01530584Y01434182D01*
X01531326Y01435291D01*
X01531516Y01436249D01*
X01533104Y01437837D01*
X01533671Y01438686D01*
X01533870Y01439687D01*
Y01442003D01*
X01535043Y01442489D01*
X01557903Y01419629D01*
X01557740Y01417997D01*
X01557491Y01417831D01*
X01556750Y01416721D01*
X01556559Y01415764D01*
X01552347Y01411551D01*
X01547774D01*
X01546857Y01412821D01*
X01546966Y01413374D01*
X01546706Y01414682D01*
X01545965Y01415791D01*
X01544856Y01416532D01*
X01543548Y01416792D01*
X01542240Y01416532D01*
X01541428Y01415989D01*
X01535174D01*
X01519359Y01431804D01*
Y01439601D01*
X01521906Y01442149D01*
X01522473Y01442997D01*
X01522672Y01443998D01*
Y01483419D01*
X01523846Y01483905D01*
X01525953Y01481797D01*
D02*
G37*
G36*
X01561262Y01492209D02*
Y01464428D01*
X01561461Y01463427D01*
X01562028Y01462578D01*
X01568882Y01455724D01*
Y01435554D01*
X01567709Y01435068D01*
X01543490Y01459287D01*
X01543524Y01460168D01*
X01544374Y01461145D01*
X01545682Y01461406D01*
X01546463Y01461928D01*
X01546617Y01461698D01*
X01547726Y01460957D01*
X01549034Y01460697D01*
X01550342Y01460957D01*
X01551452Y01461698D01*
X01552193Y01462807D01*
X01552453Y01464115D01*
X01552193Y01465423D01*
X01551452Y01466532D01*
X01550342Y01467273D01*
X01549034Y01467534D01*
X01547726Y01467273D01*
X01546945Y01466752D01*
X01546791Y01466981D01*
X01545682Y01467722D01*
X01544374Y01467982D01*
X01544088Y01467926D01*
X01543107Y01468731D01*
Y01474200D01*
X01550200Y01481293D01*
X01550767Y01482142D01*
X01550966Y01483143D01*
Y01500846D01*
X01552140Y01501332D01*
X01561262Y01492209D01*
D02*
G37*
G36*
X01139520Y01476413D02*
X01139632Y01475925D01*
X01138956Y01474913D01*
X01138696Y01473605D01*
X01138956Y01472297D01*
X01139697Y01471188D01*
X01140806Y01470447D01*
X01142114Y01470186D01*
X01142968Y01470356D01*
X01144950Y01468374D01*
X01144950Y01468374D01*
X01145463Y01468032D01*
X01146067Y01467911D01*
X01154813D01*
X01154813Y01467911D01*
X01155625Y01466778D01*
X01155625Y01452704D01*
X01155641Y01452624D01*
Y01452129D01*
X01150583Y01447071D01*
X01142652D01*
X01142652Y01447071D01*
X01142442Y01447029D01*
X01107230D01*
X01106521Y01448299D01*
X01106719Y01449296D01*
X01106459Y01450604D01*
X01105718Y01451713D01*
X01104609Y01452454D01*
X01103301Y01452715D01*
X01101992Y01452454D01*
X01100883Y01451713D01*
X01100142Y01450604D01*
X01099882Y01449296D01*
X01099841Y01449246D01*
X01088965D01*
X01088367Y01450516D01*
X01088622Y01450897D01*
X01088821Y01451898D01*
Y01456559D01*
X01089616Y01457244D01*
X01091017Y01457034D01*
X01091156Y01456826D01*
X01092265Y01456085D01*
X01093573Y01455825D01*
X01094882Y01456085D01*
X01095991Y01456826D01*
X01096731Y01457935D01*
X01096992Y01459244D01*
X01096934Y01459532D01*
X01097740Y01460514D01*
X01124294D01*
X01125295Y01460713D01*
X01126143Y01461280D01*
X01134182Y01469318D01*
X01134749Y01470167D01*
X01134948Y01471168D01*
X01134749Y01472169D01*
X01134182Y01473017D01*
X01134513Y01474274D01*
X01137434Y01477195D01*
X01139167D01*
X01139520Y01476413D01*
D02*
G37*
G36*
X01394929Y01454486D02*
Y01410499D01*
X01394616Y01410186D01*
X01390375D01*
X01388962Y01411599D01*
Y01429314D01*
X01388763Y01430315D01*
X01388196Y01431163D01*
X01386987Y01432372D01*
X01386138Y01432939D01*
X01385137Y01433138D01*
X01380338D01*
X01379337Y01432939D01*
X01378488Y01432372D01*
X01376932Y01430816D01*
X01376365Y01429967D01*
X01376166Y01428966D01*
Y01402370D01*
X01369333Y01395537D01*
X01368163Y01396163D01*
X01368299Y01396847D01*
X01368039Y01398155D01*
X01367496Y01398968D01*
X01367298Y01399264D01*
X01367705Y01400519D01*
X01367709Y01400522D01*
X01368450Y01401631D01*
X01368710Y01402939D01*
X01368450Y01404247D01*
X01367709Y01405356D01*
X01366600Y01406097D01*
X01365292Y01406358D01*
X01363983Y01406097D01*
X01362874Y01405356D01*
X01362133Y01404247D01*
X01361873Y01402939D01*
X01362133Y01401631D01*
X01362677Y01400818D01*
X01362874Y01400522D01*
X01362467Y01399267D01*
X01362463Y01399264D01*
X01361722Y01398155D01*
X01361462Y01396847D01*
X01361722Y01395539D01*
X01362463Y01394430D01*
X01363572Y01393689D01*
X01364880Y01393429D01*
X01365564Y01393565D01*
X01366190Y01392394D01*
X01354130Y01380334D01*
X01347577D01*
X01347091Y01381507D01*
X01351765Y01386181D01*
X01352332Y01387030D01*
X01352531Y01388031D01*
Y01413171D01*
Y01419234D01*
X01358976D01*
X01359843Y01419406D01*
X01360053Y01419394D01*
X01361265Y01418766D01*
X01361312Y01418531D01*
X01362053Y01417422D01*
X01363162Y01416681D01*
X01364470Y01416420D01*
X01365778Y01416681D01*
X01366887Y01417422D01*
X01366998Y01417588D01*
X01368526D01*
X01368658Y01417391D01*
X01369767Y01416650D01*
X01371075Y01416390D01*
X01372383Y01416650D01*
X01373492Y01417391D01*
X01374233Y01418500D01*
X01374493Y01419808D01*
X01374233Y01421117D01*
X01373492Y01422226D01*
X01372383Y01422967D01*
X01371075Y01423227D01*
X01369767Y01422967D01*
X01368658Y01422226D01*
X01368546Y01422059D01*
X01367019D01*
X01366887Y01422256D01*
X01365778Y01422997D01*
X01364470Y01423257D01*
X01363764Y01423117D01*
X01362600Y01423891D01*
X01362494Y01424061D01*
Y01424555D01*
X01362295Y01425556D01*
X01362216Y01425673D01*
X01363132Y01426589D01*
X01363973Y01426027D01*
X01365281Y01425767D01*
X01366589Y01426027D01*
X01367698Y01426768D01*
X01367749Y01426845D01*
X01368912Y01427391D01*
X01370021Y01426650D01*
X01371329Y01426390D01*
X01372637Y01426650D01*
X01373746Y01427391D01*
X01374487Y01428500D01*
X01374747Y01429808D01*
X01374487Y01431117D01*
X01373746Y01432226D01*
X01372637Y01432967D01*
X01372116Y01433070D01*
X01372108Y01433072D01*
Y01434367D01*
X01372143Y01434374D01*
X01372961Y01434536D01*
X01374070Y01435277D01*
X01374811Y01436386D01*
X01375071Y01437695D01*
X01374811Y01439003D01*
X01374070Y01440112D01*
X01372961Y01440853D01*
X01371653Y01441113D01*
X01370344Y01440853D01*
X01369235Y01440112D01*
X01368494Y01439003D01*
X01368234Y01437695D01*
X01368494Y01436386D01*
X01369235Y01435277D01*
X01370344Y01434536D01*
X01370866Y01434433D01*
X01370873Y01434431D01*
Y01433136D01*
X01370838Y01433129D01*
X01370021Y01432967D01*
X01368912Y01432226D01*
X01368860Y01432149D01*
X01367698Y01431602D01*
X01366589Y01432343D01*
X01365281Y01432604D01*
X01363973Y01432343D01*
X01363675Y01432144D01*
X01362263Y01432729D01*
X01362256Y01432769D01*
X01361689Y01433618D01*
X01360853Y01434454D01*
X01361728Y01435329D01*
X01362295Y01436178D01*
X01362494Y01437178D01*
Y01438982D01*
X01362295Y01439983D01*
X01361728Y01440831D01*
X01360826Y01441733D01*
X01359977Y01442300D01*
X01358976Y01442499D01*
X01352561D01*
X01352544Y01443769D01*
X01359968Y01451193D01*
X01360810Y01451160D01*
X01361814Y01450347D01*
X01362074Y01449039D01*
X01362815Y01447930D01*
X01363924Y01447189D01*
X01365232Y01446929D01*
X01366540Y01447189D01*
X01367649Y01447930D01*
X01368298D01*
X01368658Y01447391D01*
X01369767Y01446650D01*
X01371075Y01446390D01*
X01372383Y01446650D01*
X01373492Y01447391D01*
X01374233Y01448500D01*
X01374493Y01449808D01*
X01374386Y01450347D01*
X01375309Y01451617D01*
X01380405D01*
X01380645Y01451377D01*
X01380836Y01450419D01*
X01381577Y01449310D01*
X01382686Y01448569D01*
X01383994Y01448309D01*
X01384987Y01447236D01*
X01384993Y01447213D01*
X01385249Y01445926D01*
X01385990Y01444817D01*
X01387099Y01444076D01*
X01388407Y01443816D01*
X01389715Y01444076D01*
X01390824Y01444817D01*
X01391565Y01445926D01*
X01391825Y01447235D01*
X01391565Y01448543D01*
X01390824Y01449652D01*
X01389715Y01450393D01*
X01388407Y01450653D01*
X01387414Y01451726D01*
X01387408Y01451749D01*
X01387153Y01453036D01*
X01386544Y01453946D01*
X01386770Y01454706D01*
X01387095Y01455216D01*
X01394199D01*
X01394929Y01454486D01*
D02*
G37*
G36*
X01440085Y01449370D02*
X01439629Y01448030D01*
X01438910Y01447887D01*
X01437801Y01447146D01*
X01437060Y01446037D01*
X01436800Y01444728D01*
X01437060Y01443420D01*
X01437801Y01442311D01*
X01438748Y01441678D01*
X01438846Y01441023D01*
X01438762Y01440305D01*
X01437827Y01439680D01*
X01437086Y01438571D01*
X01436826Y01437263D01*
X01437086Y01435954D01*
X01437827Y01434845D01*
X01438936Y01434104D01*
X01440244Y01433844D01*
X01441081Y01433094D01*
X01440709Y01432828D01*
X01440069Y01432579D01*
X01438990Y01432794D01*
X01437681Y01432534D01*
X01436572Y01431793D01*
X01435831Y01430684D01*
X01435641Y01429726D01*
X01430502Y01424587D01*
X01429935Y01423739D01*
X01429736Y01422738D01*
Y01420638D01*
X01428950Y01420284D01*
X01428466Y01420173D01*
X01427453Y01420850D01*
X01426145Y01421110D01*
X01424836Y01420850D01*
X01423727Y01420109D01*
X01422986Y01419000D01*
X01422726Y01417692D01*
X01422986Y01416383D01*
X01423727Y01415274D01*
X01424708Y01414619D01*
X01424875Y01414319D01*
X01425075Y01413191D01*
X01399467Y01387583D01*
X01395377D01*
X01394891Y01388756D01*
X01402075Y01395939D01*
X01402642Y01396788D01*
X01402841Y01397789D01*
Y01462241D01*
X01402642Y01463242D01*
X01402075Y01464091D01*
X01395205Y01470961D01*
X01395699Y01472231D01*
X01417224D01*
X01440085Y01449370D01*
D02*
G37*
G36*
X01103806Y01444294D02*
Y01430125D01*
X01103043Y01429490D01*
X01101635Y01429728D01*
X01101387Y01430100D01*
X01100277Y01430841D01*
X01098969Y01431102D01*
X01097661Y01430841D01*
X01096552Y01430100D01*
X01095811Y01428991D01*
X01095551Y01427683D01*
X01095811Y01426375D01*
X01096552Y01425266D01*
X01097274Y01424783D01*
X01097318Y01424630D01*
X01096604Y01423387D01*
X01084012D01*
X01083200Y01423929D01*
X01081892Y01424190D01*
X01080583Y01423929D01*
X01079474Y01423188D01*
X01078733Y01422079D01*
X01078473Y01420771D01*
X01078733Y01419463D01*
X01079474Y01418354D01*
X01080583Y01417613D01*
X01081892Y01417353D01*
X01083200Y01417613D01*
X01084012Y01418155D01*
X01090783D01*
X01091269Y01416982D01*
X01083191Y01408905D01*
Y01398079D01*
X01084946Y01396324D01*
X01084983Y01396141D01*
X01085724Y01395032D01*
X01086833Y01394291D01*
X01088141Y01394030D01*
X01089449Y01394291D01*
X01090558Y01395032D01*
X01091060Y01395783D01*
X01097596Y01395783D01*
X01102606Y01390772D01*
X01103455Y01390205D01*
X01104456Y01390006D01*
X01134960D01*
X01135961Y01390205D01*
X01136809Y01390772D01*
X01137376Y01391621D01*
X01137575Y01392622D01*
X01137512Y01392940D01*
X01140983Y01396411D01*
X01151193D01*
X01154625Y01392978D01*
X01154268Y01391856D01*
X01149107Y01386695D01*
X01147120D01*
X01146516Y01386575D01*
X01146003Y01386232D01*
X01146003Y01386232D01*
X01142842Y01383071D01*
X01134534D01*
X01134354Y01383341D01*
X01133505Y01383908D01*
X01132504Y01384107D01*
X01131503Y01383908D01*
X01130655Y01383341D01*
X01120340Y01373026D01*
X01104553D01*
X01099049Y01378530D01*
X01098201Y01379097D01*
X01097778Y01379181D01*
X01096916Y01380043D01*
X01086768D01*
X01086547Y01380373D01*
X01085438Y01381114D01*
X01084130Y01381374D01*
X01082822Y01381114D01*
X01082401Y01380833D01*
X01078797Y01384437D01*
X01078814Y01384606D01*
X01079555Y01385715D01*
X01079815Y01387024D01*
X01079555Y01388332D01*
X01078814Y01389441D01*
X01077705Y01390182D01*
X01076634Y01390395D01*
X01076775Y01391101D01*
X01076515Y01392410D01*
X01075774Y01393519D01*
X01074665Y01394260D01*
X01073356Y01394520D01*
X01072048Y01394260D01*
X01070939Y01393519D01*
X01069825Y01393409D01*
X01058748Y01404487D01*
Y01404683D01*
X01058549Y01405684D01*
X01057982Y01406533D01*
X01054677Y01409838D01*
Y01429254D01*
X01066406Y01440984D01*
X01066824Y01440943D01*
X01067933Y01440202D01*
X01069241Y01439941D01*
X01070549Y01440202D01*
X01071658Y01440943D01*
X01072399Y01442052D01*
X01072659Y01443360D01*
X01072507Y01444126D01*
X01073324Y01445396D01*
X01074655D01*
X01075472Y01444126D01*
X01075320Y01443360D01*
X01075580Y01442052D01*
X01076321Y01440943D01*
X01077430Y01440202D01*
X01078385Y01440011D01*
Y01438717D01*
X01077448Y01438530D01*
X01076339Y01437789D01*
X01075598Y01436680D01*
X01075338Y01435372D01*
X01075598Y01434064D01*
X01076339Y01432955D01*
X01077448Y01432214D01*
X01078756Y01431953D01*
X01080064Y01432214D01*
X01081173Y01432955D01*
X01081914Y01434064D01*
X01082175Y01435372D01*
X01081914Y01436680D01*
X01081173Y01437789D01*
X01080064Y01438530D01*
X01079109Y01438720D01*
Y01440015D01*
X01080046Y01440202D01*
X01081155Y01440943D01*
X01081896Y01442052D01*
X01082157Y01443360D01*
X01082156Y01443365D01*
X01082319Y01444594D01*
X01083627Y01444854D01*
X01084736Y01445595D01*
X01085099Y01446138D01*
X01101962D01*
X01103806Y01444294D01*
D02*
G37*
G36*
X01601673Y01398105D02*
Y01389935D01*
X01601459Y01389820D01*
X01600403Y01389390D01*
X01599278Y01389614D01*
X01597970Y01389354D01*
X01596861Y01388613D01*
X01596265Y01387721D01*
X01595348Y01387578D01*
X01594849Y01387626D01*
X01594448Y01388227D01*
X01593339Y01388968D01*
X01592030Y01389228D01*
X01590722Y01388968D01*
X01589613Y01388227D01*
X01588913Y01387179D01*
X01588646Y01387141D01*
X01587604Y01387251D01*
X01587507Y01387735D01*
X01586766Y01388844D01*
X01585657Y01389585D01*
X01584349Y01389845D01*
X01583041Y01389585D01*
X01581932Y01388844D01*
X01581191Y01387735D01*
X01580931Y01386427D01*
X01581084Y01385656D01*
X01568245Y01372817D01*
X01566610Y01372978D01*
X01566516Y01373119D01*
X01565407Y01373860D01*
X01564099Y01374120D01*
X01562791Y01373860D01*
X01561682Y01373119D01*
X01560941Y01372010D01*
X01560750Y01371052D01*
X01556871Y01367173D01*
X01555399Y01367497D01*
X01554960Y01368154D01*
X01553851Y01368895D01*
X01552542Y01369156D01*
X01551234Y01368895D01*
X01550422Y01368353D01*
X01535672D01*
X01531173Y01372851D01*
X01531799Y01374022D01*
X01532476Y01373887D01*
X01533784Y01374147D01*
X01534893Y01374888D01*
X01535634Y01375997D01*
X01535895Y01377306D01*
X01535634Y01378614D01*
X01535092Y01379426D01*
Y01397995D01*
X01536136Y01398691D01*
X01536362Y01398733D01*
X01537237Y01398559D01*
X01557534D01*
X01558346Y01398016D01*
X01559654Y01397756D01*
X01560963Y01398016D01*
X01562072Y01398757D01*
X01562812Y01399866D01*
X01563073Y01401174D01*
X01562812Y01402483D01*
X01562523Y01402916D01*
X01563202Y01404186D01*
X01571113D01*
X01575742Y01399557D01*
X01575469Y01398034D01*
X01574941Y01397681D01*
X01574200Y01396572D01*
X01573940Y01395264D01*
X01574200Y01393955D01*
X01574941Y01392846D01*
X01576050Y01392105D01*
X01577358Y01391845D01*
X01578666Y01392105D01*
X01579707Y01392801D01*
X01579839Y01392862D01*
X01581359Y01392931D01*
X01582086Y01392446D01*
X01583394Y01392185D01*
X01584702Y01392446D01*
X01585811Y01393186D01*
X01586552Y01394296D01*
X01586812Y01395604D01*
X01586552Y01396912D01*
X01585811Y01398021D01*
X01584702Y01398762D01*
X01583744Y01398953D01*
X01577167Y01405530D01*
X01577653Y01406703D01*
X01582437D01*
X01586023Y01403117D01*
X01586214Y01402159D01*
X01586955Y01401050D01*
X01588064Y01400309D01*
X01589372Y01400049D01*
X01590681Y01400309D01*
X01591790Y01401050D01*
X01592531Y01402159D01*
X01592791Y01403468D01*
X01592531Y01404776D01*
X01591790Y01405885D01*
X01590681Y01406626D01*
X01589723Y01406816D01*
X01588875Y01407664D01*
X01589361Y01408837D01*
X01590941D01*
X01601673Y01398105D01*
D02*
G37*
G36*
X01508282Y01390389D02*
Y01360796D01*
X01508538Y01359507D01*
X01509268Y01358415D01*
X01529334Y01338349D01*
X01530426Y01337619D01*
X01531714Y01337363D01*
X01571348D01*
X01572636Y01337619D01*
X01573728Y01338349D01*
X01580870Y01345491D01*
X01588549D01*
X01588934Y01344221D01*
X01588833Y01344154D01*
X01588092Y01343045D01*
X01587832Y01341736D01*
X01588092Y01340428D01*
X01588833Y01339319D01*
X01589942Y01338578D01*
X01591251Y01338318D01*
X01592559Y01338578D01*
X01593668Y01339319D01*
X01594409Y01340428D01*
X01594669Y01341736D01*
X01594409Y01343045D01*
X01593668Y01344154D01*
X01593567Y01344221D01*
X01593952Y01345491D01*
X01620210D01*
X01621263Y01345701D01*
X01621434Y01344843D01*
X01622175Y01343733D01*
X01622675Y01343399D01*
X01622727Y01341907D01*
X01622690Y01341882D01*
X01621949Y01340773D01*
X01621689Y01339465D01*
X01621949Y01338156D01*
X01622690Y01337047D01*
X01623799Y01336306D01*
X01625107Y01336046D01*
X01626415Y01336306D01*
X01627525Y01337047D01*
X01628266Y01338156D01*
X01628283Y01338244D01*
X01629578D01*
X01629672Y01337770D01*
X01630413Y01336661D01*
X01631522Y01335920D01*
X01632830Y01335660D01*
X01634138Y01335920D01*
X01635247Y01336661D01*
X01635988Y01337770D01*
X01636249Y01339079D01*
X01635988Y01340387D01*
X01635247Y01341496D01*
X01634138Y01342237D01*
X01632830Y01342497D01*
X01631522Y01342237D01*
X01630413Y01341496D01*
X01629672Y01340387D01*
X01629655Y01340300D01*
X01628360D01*
X01628266Y01340773D01*
X01627525Y01341882D01*
X01627025Y01342216D01*
X01626972Y01343708D01*
X01627010Y01343733D01*
X01627751Y01344843D01*
X01628011Y01346151D01*
X01627751Y01347459D01*
X01627653Y01347605D01*
X01628331Y01348875D01*
X01643788D01*
X01644048Y01348824D01*
X01645356Y01349084D01*
X01645478Y01349165D01*
X01646473Y01348781D01*
X01646822Y01348535D01*
X01647899Y01344046D01*
X01649714Y01339665D01*
X01652192Y01335621D01*
X01655272Y01332015D01*
X01655568Y01331763D01*
X01655128Y01330571D01*
X01568814Y01330585D01*
X01568478Y01330651D01*
X01568143Y01330585D01*
X01556104Y01330587D01*
X01555778Y01330651D01*
X01555453Y01330587D01*
X01543394Y01330589D01*
X01543078Y01330651D01*
X01542763Y01330589D01*
X01471032Y01330600D01*
X01470592Y01331792D01*
X01470852Y01332013D01*
X01473932Y01335619D01*
X01476409Y01339663D01*
X01478224Y01344044D01*
X01479332Y01348656D01*
X01479704Y01353383D01*
X01479332Y01358111D01*
X01478224Y01362723D01*
X01476409Y01367104D01*
X01473932Y01371148D01*
X01472630Y01372672D01*
X01472774Y01373209D01*
X01473208Y01373951D01*
X01474267Y01374161D01*
X01475376Y01374902D01*
X01476117Y01376011D01*
X01476377Y01377320D01*
X01476117Y01378628D01*
X01475376Y01379737D01*
X01474267Y01380478D01*
X01472959Y01380738D01*
X01471651Y01380478D01*
X01470541Y01379737D01*
X01469800Y01378628D01*
X01469578Y01377512D01*
X01468945Y01377119D01*
X01468327Y01376911D01*
X01467245Y01377834D01*
X01463202Y01380312D01*
X01458820Y01382127D01*
X01454209Y01383234D01*
X01453849Y01383262D01*
X01453206Y01384587D01*
X01453498Y01385024D01*
X01453759Y01386332D01*
X01453701Y01386621D01*
X01454507Y01387603D01*
X01461088D01*
X01463522Y01385169D01*
X01464370Y01384602D01*
X01465371Y01384403D01*
X01484200D01*
X01485201Y01384602D01*
X01486049Y01385169D01*
X01488326Y01387446D01*
X01488893Y01388294D01*
X01489092Y01389295D01*
Y01399465D01*
X01489838Y01399815D01*
X01490362Y01399939D01*
X01491364Y01399269D01*
X01492672Y01399009D01*
X01493980Y01399269D01*
X01495089Y01400010D01*
X01495800Y01401074D01*
X01495840Y01401122D01*
X01497196Y01401475D01*
X01508282Y01390389D01*
D02*
G37*
G36*
X01482289Y01430522D02*
X01482127Y01428887D01*
X01481959Y01428775D01*
X01481218Y01427666D01*
X01480957Y01426357D01*
X01481218Y01425049D01*
X01481959Y01423940D01*
X01483068Y01423199D01*
X01484376Y01422939D01*
X01485684Y01423199D01*
X01486793Y01423940D01*
X01486906Y01424109D01*
X01488541Y01424270D01*
X01512919Y01399892D01*
Y01396934D01*
X01511745Y01396448D01*
X01491053Y01417140D01*
X01489961Y01417869D01*
X01488673Y01418126D01*
X01480210D01*
X01469828Y01428508D01*
Y01441187D01*
X01471098Y01441713D01*
X01482289Y01430522D01*
D02*
G37*
G36*
X01455435Y01427638D02*
X01456614Y01427245D01*
Y01423924D01*
X01456813Y01422923D01*
X01457134Y01422443D01*
X01456799Y01421200D01*
X01456651Y01421008D01*
X01455637Y01420330D01*
X01454896Y01419221D01*
X01454636Y01417912D01*
X01454896Y01416604D01*
X01455637Y01415495D01*
X01456746Y01414754D01*
X01458054Y01414494D01*
X01459362Y01414754D01*
X01460471Y01415495D01*
X01461149Y01416510D01*
X01461296Y01416622D01*
X01462564Y01416891D01*
X01465250Y01414205D01*
Y01407471D01*
X01465449Y01406470D01*
X01466016Y01405622D01*
X01473863Y01397775D01*
X01473445Y01396397D01*
X01473199Y01396348D01*
X01472387Y01395806D01*
X01466318D01*
X01458275Y01403848D01*
X01458583Y01405336D01*
X01459202Y01405749D01*
X01459942Y01406858D01*
X01460203Y01408167D01*
X01459942Y01409475D01*
X01459202Y01410584D01*
X01458092Y01411325D01*
X01456784Y01411585D01*
X01455476Y01411325D01*
X01454367Y01410584D01*
X01453954Y01409966D01*
X01452466Y01409657D01*
X01444914Y01417210D01*
X01455344Y01427640D01*
X01455435Y01427638D01*
D02*
G37*
G36*
X01635773Y01502422D02*
Y01409775D01*
X01635972Y01408774D01*
X01636539Y01407925D01*
X01644335Y01400129D01*
X01645184Y01399562D01*
X01646185Y01399363D01*
X01655878D01*
X01656364Y01398189D01*
X01653096Y01394921D01*
X01651573Y01395195D01*
X01651219Y01395725D01*
X01650110Y01396466D01*
X01648802Y01396726D01*
X01647494Y01396466D01*
X01646385Y01395725D01*
X01645987Y01395129D01*
X01645205Y01394691D01*
X01644391Y01394830D01*
X01643766Y01395247D01*
X01642809Y01395438D01*
X01632252Y01405995D01*
Y01500560D01*
X01634600Y01502908D01*
X01635773Y01502422D01*
D02*
G37*
G36*
X01331985Y01431762D02*
X01333293Y01431501D01*
X01334685Y01430483D01*
X01334723Y01430209D01*
X01334526Y01430011D01*
X01333959Y01429162D01*
X01333760Y01428161D01*
Y01426358D01*
X01333959Y01425357D01*
X01334526Y01424509D01*
X01335427Y01423607D01*
X01336276Y01423040D01*
X01337277Y01422841D01*
X01346568D01*
X01346830Y01422589D01*
X01347424Y01421571D01*
X01347300Y01420948D01*
Y01413171D01*
Y01389114D01*
X01345111Y01386925D01*
X01343841Y01387451D01*
Y01408882D01*
X01343642Y01409883D01*
X01343074Y01410732D01*
X01331185Y01422621D01*
X01330337Y01423188D01*
X01329336Y01423387D01*
X01322362D01*
Y01426444D01*
X01323840D01*
X01324841Y01426643D01*
X01325690Y01427210D01*
X01329542Y01431062D01*
X01329967Y01431699D01*
X01330228Y01431929D01*
X01331446Y01432122D01*
X01331985Y01431762D01*
D02*
G37*
G36*
X01601457Y01355853D02*
X01601472Y01355779D01*
X01600495Y01354509D01*
X01570546D01*
X01570035Y01355433D01*
X01569986Y01355744D01*
X01572451Y01358209D01*
X01573409Y01358399D01*
X01574518Y01359140D01*
X01575258Y01360249D01*
X01575519Y01361558D01*
X01575258Y01362866D01*
X01574518Y01363975D01*
X01573463Y01364679D01*
X01573404Y01364733D01*
X01573067Y01366079D01*
X01575756Y01368768D01*
X01588543D01*
X01601457Y01355853D01*
D02*
G37*
G36*
X01602550Y01382938D02*
X01613148Y01372340D01*
X01613997Y01371773D01*
X01614998Y01371574D01*
X01642639D01*
X01643165Y01370304D01*
X01641668Y01368807D01*
X01640938Y01367715D01*
X01640682Y01366426D01*
Y01355609D01*
X01623594D01*
X01622306Y01355353D01*
X01621214Y01354623D01*
X01618815Y01352224D01*
X01611915D01*
X01611429Y01353398D01*
X01611542Y01353510D01*
X01612109Y01354359D01*
X01612308Y01355360D01*
Y01368148D01*
X01612109Y01369149D01*
X01611542Y01369997D01*
X01599928Y01381611D01*
X01600346Y01382990D01*
X01600587Y01383037D01*
X01601696Y01383778D01*
X01602550Y01382938D01*
D02*
G37*
G36*
X01531559Y01349981D02*
X01532407Y01349414D01*
X01533408Y01349215D01*
X01552434D01*
X01552726Y01348794D01*
X01552997Y01347945D01*
X01552412Y01347070D01*
X01552152Y01345761D01*
X01552230Y01345366D01*
X01551239Y01344096D01*
X01533109D01*
X01515015Y01362190D01*
Y01364866D01*
X01516188Y01365352D01*
X01531559Y01349981D01*
D02*
G37*
%LPC*%
G36*
X01402842Y01528848D02*
X01401534Y01528587D01*
X01400425Y01527846D01*
X01399684Y01526737D01*
X01399424Y01525429D01*
X01399684Y01524121D01*
X01400425Y01523012D01*
X01401534Y01522271D01*
X01402842Y01522011D01*
X01404150Y01522271D01*
X01405259Y01523012D01*
X01406000Y01524121D01*
X01406261Y01525429D01*
X01406000Y01526737D01*
X01405259Y01527846D01*
X01404150Y01528587D01*
X01402842Y01528848D01*
D02*
G37*
G36*
X00967575Y01514225D02*
X00966266Y01513965D01*
X00965157Y01513224D01*
X00964416Y01512114D01*
X00964156Y01510806D01*
X00964416Y01509498D01*
X00963382Y01508760D01*
X00963136Y01508596D01*
X00962395Y01507487D01*
X00962135Y01506179D01*
X00962395Y01504870D01*
X00963136Y01503761D01*
X00962677Y01502634D01*
X00962443Y01502284D01*
X00962183Y01500975D01*
X00962443Y01499667D01*
X00963184Y01498558D01*
X00964293Y01497817D01*
X00965602Y01497557D01*
X00966910Y01497817D01*
X00968019Y01498558D01*
X00968760Y01499667D01*
X00969020Y01500975D01*
X00968760Y01502284D01*
X00968019Y01503393D01*
X00968478Y01504520D01*
X00968712Y01504870D01*
X00968972Y01506179D01*
X00968712Y01507487D01*
X00968998Y01507691D01*
X00969081Y01507736D01*
X00970218Y01508146D01*
X00971327Y01507405D01*
X00972636Y01507144D01*
X00973944Y01507405D01*
X00975053Y01508146D01*
X00975794Y01509255D01*
X00976054Y01510563D01*
X00975794Y01511871D01*
X00975053Y01512980D01*
X00973944Y01513721D01*
X00972636Y01513981D01*
X00971327Y01513721D01*
X00971218Y01513648D01*
X00971137Y01513607D01*
X00969992Y01513224D01*
X00968883Y01513965D01*
X00967575Y01514225D01*
D02*
G37*
G36*
X01015472Y01506575D02*
X01014164Y01506315D01*
X01013055Y01505574D01*
X01012314Y01504465D01*
X01012054Y01503157D01*
X01012314Y01501849D01*
X01013055Y01500740D01*
X01014164Y01499999D01*
X01015472Y01499738D01*
X01016781Y01499999D01*
X01017890Y01500740D01*
X01018631Y01501849D01*
X01018891Y01503157D01*
X01018631Y01504465D01*
X01017890Y01505574D01*
X01016781Y01506315D01*
X01015472Y01506575D01*
D02*
G37*
G36*
X00982037Y01497945D02*
X00980729Y01497685D01*
X00979620Y01496944D01*
X00978298Y01497253D01*
X00977792Y01497591D01*
X00976484Y01497851D01*
X00975176Y01497591D01*
X00974067Y01496850D01*
X00973326Y01495741D01*
X00973065Y01494432D01*
X00973326Y01493124D01*
X00974067Y01492015D01*
X00975176Y01491274D01*
X00976484Y01491014D01*
X00977792Y01491274D01*
X00978901Y01492015D01*
X00980222Y01491707D01*
X00980729Y01491368D01*
X00982037Y01491108D01*
X00983345Y01491368D01*
X00984454Y01492110D01*
X00985195Y01493219D01*
X00985455Y01494527D01*
X00985195Y01495835D01*
X00984454Y01496944D01*
X00983345Y01497685D01*
X00982037Y01497945D01*
D02*
G37*
G36*
X00999381Y01483968D02*
X00998073Y01483708D01*
X00997674Y01483441D01*
X00996464Y01482966D01*
X00995355Y01483707D01*
X00994047Y01483968D01*
X00992738Y01483707D01*
X00991629Y01482966D01*
X00990888Y01481857D01*
X00990628Y01480549D01*
X00990888Y01479241D01*
X00991629Y01478132D01*
X00992738Y01477391D01*
X00992760Y01477387D01*
Y01476092D01*
X00992738Y01476087D01*
X00991629Y01475347D01*
X00990888Y01474238D01*
X00990628Y01472929D01*
X00990888Y01471621D01*
X00991629Y01470512D01*
X00992738Y01469771D01*
X00994047Y01469511D01*
X00995355Y01469771D01*
X00995753Y01470037D01*
X00996964Y01470512D01*
X00998073Y01469771D01*
X00999381Y01469511D01*
X01000689Y01469771D01*
X01001798Y01470512D01*
X01002539Y01471621D01*
X01002799Y01472929D01*
X01002539Y01474238D01*
X01001798Y01475347D01*
X01000689Y01476088D01*
X01000667Y01476092D01*
Y01477387D01*
X01000689Y01477391D01*
X01001798Y01478132D01*
X01002539Y01479241D01*
X01002799Y01480549D01*
X01002539Y01481858D01*
X01001798Y01482967D01*
X01000689Y01483708D01*
X00999381Y01483968D01*
D02*
G37*
G36*
X01062203Y01483608D02*
X01060895Y01483348D01*
X01059786Y01482607D01*
X01059045Y01481498D01*
X01058785Y01480190D01*
X01059045Y01478882D01*
X01059135Y01478747D01*
X01059751Y01477714D01*
X01059135Y01476680D01*
X01059045Y01476546D01*
X01058785Y01475238D01*
X01059045Y01473930D01*
X01059786Y01472821D01*
X01060895Y01472080D01*
X01062203Y01471819D01*
X01063512Y01472080D01*
X01064621Y01472821D01*
X01065174Y01473649D01*
X01065384Y01473932D01*
X01066681Y01474053D01*
X01066982Y01473852D01*
X01068291Y01473591D01*
X01069599Y01473852D01*
X01070708Y01474593D01*
X01071449Y01475702D01*
X01071709Y01477010D01*
X01071449Y01478318D01*
X01070708Y01479427D01*
X01069599Y01480168D01*
X01068291Y01480428D01*
X01066982Y01480168D01*
X01066841Y01480074D01*
X01066695Y01480088D01*
X01065517Y01480717D01*
X01065362Y01481498D01*
X01064621Y01482607D01*
X01063512Y01483348D01*
X01062203Y01483608D01*
D02*
G37*
G36*
X01081846Y01479921D02*
X01080538Y01479661D01*
X01079429Y01478920D01*
X01078688Y01477811D01*
X01078428Y01476503D01*
X01078688Y01475194D01*
X01079429Y01474085D01*
X01080538Y01473344D01*
X01081846Y01473084D01*
X01083154Y01473344D01*
X01084263Y01474085D01*
X01085004Y01475194D01*
X01085264Y01476503D01*
X01085004Y01477811D01*
X01084263Y01478920D01*
X01083154Y01479661D01*
X01081846Y01479921D01*
D02*
G37*
G36*
X01024970Y01483608D02*
X01023662Y01483348D01*
X01022553Y01482607D01*
X01021812Y01481498D01*
X01021552Y01480190D01*
X01021812Y01478882D01*
X01021902Y01478747D01*
X01022518Y01477714D01*
X01021902Y01476680D01*
X01021812Y01476546D01*
X01021552Y01475238D01*
X01021812Y01473930D01*
X01022553Y01472821D01*
X01023662Y01472080D01*
X01024970Y01471819D01*
X01026279Y01472080D01*
X01027388Y01472821D01*
X01028129Y01473930D01*
X01028389Y01475238D01*
X01028129Y01476546D01*
X01028039Y01476680D01*
X01027423Y01477714D01*
X01028039Y01478747D01*
X01028129Y01478882D01*
X01028389Y01480190D01*
X01028129Y01481498D01*
X01027388Y01482607D01*
X01026279Y01483348D01*
X01024970Y01483608D01*
D02*
G37*
G36*
X01017268Y01473888D02*
X01015959Y01473627D01*
X01014850Y01472887D01*
X01014109Y01471777D01*
X01013849Y01470469D01*
X01014109Y01469161D01*
X01014850Y01468052D01*
X01015959Y01467311D01*
X01017268Y01467051D01*
X01018576Y01467311D01*
X01019685Y01468052D01*
X01020426Y01469161D01*
X01020686Y01470469D01*
X01020426Y01471777D01*
X01019685Y01472887D01*
X01018576Y01473627D01*
X01017268Y01473888D01*
D02*
G37*
G36*
X01009225Y01473315D02*
X01007917Y01473055D01*
X01006808Y01472314D01*
X01006067Y01471205D01*
X01005806Y01469897D01*
X01006067Y01468589D01*
X01006808Y01467480D01*
X01007917Y01466739D01*
X01009225Y01466478D01*
X01010533Y01466739D01*
X01011642Y01467480D01*
X01012383Y01468589D01*
X01012643Y01469897D01*
X01012383Y01471205D01*
X01011642Y01472314D01*
X01010533Y01473055D01*
X01009225Y01473315D01*
D02*
G37*
G36*
X01076283Y01469714D02*
X01074974Y01469453D01*
X01073865Y01468712D01*
X01073124Y01467603D01*
X01072864Y01466295D01*
X01073124Y01464987D01*
X01073865Y01463878D01*
X01074974Y01463137D01*
X01076283Y01462877D01*
X01077591Y01463137D01*
X01078700Y01463878D01*
X01079441Y01464987D01*
X01079701Y01466295D01*
X01079441Y01467603D01*
X01078700Y01468712D01*
X01077591Y01469453D01*
X01076283Y01469714D01*
D02*
G37*
G36*
X01009396Y01445885D02*
X01008088Y01445624D01*
X01006979Y01444883D01*
X01006238Y01443774D01*
X01005977Y01442466D01*
X01006238Y01441158D01*
X01006979Y01440049D01*
X01008088Y01439308D01*
X01009396Y01439048D01*
X01010704Y01439308D01*
X01011813Y01440049D01*
X01012554Y01441158D01*
X01012814Y01442466D01*
X01012554Y01443774D01*
X01011813Y01444883D01*
X01010704Y01445624D01*
X01009396Y01445885D01*
D02*
G37*
G36*
X01009068Y01426581D02*
X01007759Y01426320D01*
X01006650Y01425579D01*
X01005909Y01424470D01*
X01005649Y01423162D01*
X01005909Y01421854D01*
X01006650Y01420745D01*
X01007759Y01420004D01*
X01009068Y01419743D01*
X01010376Y01420004D01*
X01011485Y01420745D01*
X01012226Y01421854D01*
X01012486Y01423162D01*
X01012226Y01424470D01*
X01011485Y01425579D01*
X01010376Y01426320D01*
X01009068Y01426581D01*
D02*
G37*
G36*
X01016254Y01419469D02*
X01014946Y01419208D01*
X01013837Y01418467D01*
X01013096Y01417358D01*
X01012835Y01416050D01*
X01013096Y01414742D01*
X01013837Y01413633D01*
X01014946Y01412892D01*
X01016254Y01412632D01*
X01017562Y01412892D01*
X01018671Y01413633D01*
X01019412Y01414742D01*
X01019672Y01416050D01*
X01019412Y01417358D01*
X01018671Y01418467D01*
X01017562Y01419208D01*
X01016254Y01419469D01*
D02*
G37*
G36*
X01024970Y01419980D02*
X01023662Y01419720D01*
X01022553Y01418979D01*
X01021812Y01417870D01*
X01021552Y01416562D01*
X01021812Y01415254D01*
X01021902Y01415119D01*
X01022518Y01414086D01*
X01021902Y01413052D01*
X01021812Y01412918D01*
X01021552Y01411610D01*
X01021812Y01410302D01*
X01022553Y01409193D01*
X01023662Y01408452D01*
X01024970Y01408191D01*
X01026279Y01408452D01*
X01027388Y01409193D01*
X01028129Y01410302D01*
X01028389Y01411610D01*
X01028129Y01412918D01*
X01028039Y01413052D01*
X01027423Y01414086D01*
X01028039Y01415119D01*
X01028129Y01415254D01*
X01028389Y01416562D01*
X01028129Y01417870D01*
X01027388Y01418979D01*
X01026279Y01419720D01*
X01024970Y01419980D01*
D02*
G37*
G36*
X01032470Y01381302D02*
X01031162Y01381042D01*
X01031028Y01380952D01*
X01029994Y01380336D01*
X01028961Y01380952D01*
X01028827Y01381042D01*
X01027518Y01381302D01*
X01026210Y01381042D01*
X01026076Y01380952D01*
X01025042Y01380336D01*
X01024009Y01380952D01*
X01023875Y01381042D01*
X01022566Y01381302D01*
X01021258Y01381042D01*
X01020149Y01380301D01*
X01019408Y01379192D01*
X01019148Y01377884D01*
X01019408Y01376576D01*
X01020149Y01375467D01*
X01021258Y01374726D01*
X01022566Y01374465D01*
X01023875Y01374726D01*
X01024009Y01374815D01*
X01025042Y01375432D01*
X01026076Y01374815D01*
X01026210Y01374726D01*
X01027518Y01374465D01*
X01028827Y01374726D01*
X01028961Y01374815D01*
X01029994Y01375432D01*
X01031028Y01374815D01*
X01031162Y01374726D01*
X01032470Y01374465D01*
X01033779Y01374726D01*
X01034888Y01375467D01*
X01035629Y01376576D01*
X01035889Y01377884D01*
X01035629Y01379192D01*
X01034888Y01380301D01*
X01033779Y01381042D01*
X01032470Y01381302D01*
D02*
G37*
G36*
X01524980Y01551241D02*
X01523672Y01550981D01*
X01522563Y01550240D01*
X01521822Y01549131D01*
X01521562Y01547822D01*
X01521822Y01546514D01*
X01522563Y01545405D01*
X01523672Y01544664D01*
X01524980Y01544404D01*
X01526289Y01544664D01*
X01527398Y01545405D01*
X01528139Y01546514D01*
X01528399Y01547822D01*
X01528139Y01549131D01*
X01527398Y01550240D01*
X01526289Y01550981D01*
X01524980Y01551241D01*
D02*
G37*
G36*
X01554753Y01549225D02*
X01544743D01*
X01543757Y01549029D01*
X01542921Y01548470D01*
X01542363Y01547635D01*
X01542167Y01546649D01*
Y01536639D01*
X01542363Y01535653D01*
X01542921Y01534817D01*
X01543757Y01534258D01*
X01544743Y01534062D01*
X01554753D01*
X01555739Y01534258D01*
X01556575Y01534817D01*
X01557134Y01535653D01*
X01557330Y01536639D01*
Y01546649D01*
X01557134Y01547635D01*
X01556575Y01548470D01*
X01555739Y01549029D01*
X01554753Y01549225D01*
D02*
G37*
G36*
X01575148Y01549241D02*
X01573182Y01548982D01*
X01571350Y01548223D01*
X01569776Y01547016D01*
X01568569Y01545442D01*
X01567810Y01543610D01*
X01567551Y01541644D01*
X01567810Y01539677D01*
X01568569Y01537845D01*
X01569776Y01536272D01*
X01571350Y01535064D01*
X01573182Y01534306D01*
X01575148Y01534047D01*
X01577115Y01534306D01*
X01578947Y01535064D01*
X01580520Y01536272D01*
X01581727Y01537845D01*
X01582486Y01539677D01*
X01582745Y01541644D01*
X01582486Y01543610D01*
X01581727Y01545442D01*
X01580520Y01547016D01*
X01578947Y01548223D01*
X01577115Y01548982D01*
X01575148Y01549241D01*
D02*
G37*
G36*
X01537724Y01533270D02*
X01536416Y01533009D01*
X01535307Y01532268D01*
X01534566Y01531159D01*
X01534306Y01529851D01*
X01534566Y01528543D01*
X01535307Y01527434D01*
X01536416Y01526693D01*
X01537724Y01526432D01*
X01539033Y01526693D01*
X01540142Y01527434D01*
X01540883Y01528543D01*
X01541143Y01529851D01*
X01540883Y01531159D01*
X01540142Y01532268D01*
X01539033Y01533009D01*
X01537724Y01533270D01*
D02*
G37*
G36*
X01555893Y01530156D02*
X01554585Y01529896D01*
X01553476Y01529155D01*
X01552735Y01528046D01*
X01552475Y01526737D01*
X01552735Y01525429D01*
X01553476Y01524320D01*
X01554585Y01523579D01*
X01555893Y01523319D01*
X01557202Y01523579D01*
X01558311Y01524320D01*
X01559052Y01525429D01*
X01559312Y01526737D01*
X01559052Y01528046D01*
X01558311Y01529155D01*
X01557202Y01529896D01*
X01555893Y01530156D01*
D02*
G37*
G36*
X01752293Y01516549D02*
X01750985Y01516289D01*
X01749876Y01515548D01*
X01749135Y01514439D01*
X01748875Y01513131D01*
X01749135Y01511823D01*
X01749876Y01510714D01*
X01750985Y01509973D01*
X01752293Y01509713D01*
X01753601Y01509973D01*
X01754710Y01510714D01*
X01755451Y01511823D01*
X01755712Y01513131D01*
X01755451Y01514439D01*
X01754710Y01515548D01*
X01753601Y01516289D01*
X01752293Y01516549D01*
D02*
G37*
G36*
X01741546Y01513571D02*
X01740238Y01513311D01*
X01739129Y01512570D01*
X01738388Y01511461D01*
X01738128Y01510152D01*
X01738388Y01508844D01*
X01738742Y01508315D01*
X01738017Y01507474D01*
X01737855Y01507356D01*
X01736598Y01507607D01*
X01735290Y01507346D01*
X01734181Y01506605D01*
X01733440Y01505496D01*
X01733179Y01504188D01*
X01733440Y01502880D01*
X01734181Y01501771D01*
X01735290Y01501030D01*
X01736598Y01500770D01*
X01737906Y01501030D01*
X01739015Y01501771D01*
X01739756Y01502880D01*
X01740016Y01504188D01*
X01739756Y01505496D01*
X01739403Y01506025D01*
X01740128Y01506866D01*
X01740290Y01506984D01*
X01741546Y01506734D01*
X01742855Y01506994D01*
X01743964Y01507735D01*
X01744705Y01508844D01*
X01744965Y01510152D01*
X01744705Y01511461D01*
X01743964Y01512570D01*
X01742855Y01513311D01*
X01741546Y01513571D01*
D02*
G37*
G36*
X01511394Y01512804D02*
X01510086Y01512544D01*
X01508977Y01511803D01*
X01508236Y01510694D01*
X01507976Y01509386D01*
X01508236Y01508077D01*
X01508977Y01506968D01*
X01510086Y01506227D01*
X01511394Y01505967D01*
X01512702Y01506227D01*
X01513811Y01506968D01*
X01514552Y01508077D01*
X01514813Y01509386D01*
X01514552Y01510694D01*
X01513811Y01511803D01*
X01512702Y01512544D01*
X01511394Y01512804D01*
D02*
G37*
G36*
X01661949Y01507242D02*
X01660641Y01506982D01*
X01659532Y01506241D01*
X01658791Y01505132D01*
X01658531Y01503823D01*
X01658791Y01502515D01*
X01659532Y01501406D01*
X01660641Y01500665D01*
X01661949Y01500405D01*
X01663257Y01500665D01*
X01664367Y01501406D01*
X01665108Y01502515D01*
X01665368Y01503823D01*
X01665108Y01505132D01*
X01664367Y01506241D01*
X01663257Y01506982D01*
X01661949Y01507242D01*
D02*
G37*
G36*
X01590105Y01505476D02*
X01588797Y01505215D01*
X01587688Y01504474D01*
X01586947Y01503365D01*
X01586686Y01502057D01*
X01586947Y01500749D01*
X01587688Y01499640D01*
X01588797Y01498899D01*
X01590105Y01498639D01*
X01591413Y01498899D01*
X01592522Y01499640D01*
X01593263Y01500749D01*
X01593523Y01502057D01*
X01593263Y01503365D01*
X01592522Y01504474D01*
X01591413Y01505215D01*
X01590105Y01505476D01*
D02*
G37*
G36*
X01739646Y01498970D02*
X01738338Y01498710D01*
X01737229Y01497969D01*
X01736488Y01496860D01*
X01736228Y01495552D01*
X01736488Y01494244D01*
X01737229Y01493135D01*
X01738338Y01492394D01*
X01739646Y01492133D01*
X01740954Y01492394D01*
X01742063Y01493135D01*
X01742804Y01494244D01*
X01743065Y01495552D01*
X01742804Y01496860D01*
X01742063Y01497969D01*
X01740954Y01498710D01*
X01739646Y01498970D01*
D02*
G37*
G36*
X01756504Y01493035D02*
X01755196Y01492774D01*
X01754087Y01492033D01*
X01753346Y01490924D01*
X01753085Y01489616D01*
X01753346Y01488308D01*
X01754087Y01487199D01*
X01755196Y01486458D01*
X01756504Y01486198D01*
X01757812Y01486458D01*
X01758921Y01487199D01*
X01759662Y01488308D01*
X01759922Y01489616D01*
X01759662Y01490924D01*
X01758921Y01492033D01*
X01757812Y01492774D01*
X01756504Y01493035D01*
D02*
G37*
G36*
X01726854Y01493636D02*
X01725546Y01493376D01*
X01724437Y01492635D01*
X01723696Y01491526D01*
X01723435Y01490218D01*
X01723696Y01488910D01*
X01724437Y01487801D01*
X01724085Y01486509D01*
X01723534Y01485684D01*
X01723273Y01484376D01*
X01723534Y01483068D01*
X01724275Y01481959D01*
X01725384Y01481218D01*
X01726692Y01480957D01*
X01728000Y01481218D01*
X01729109Y01481959D01*
X01729850Y01483068D01*
X01730110Y01484376D01*
X01729850Y01485684D01*
X01729109Y01486793D01*
X01729461Y01488085D01*
X01730012Y01488910D01*
X01730272Y01490218D01*
X01730012Y01491526D01*
X01729271Y01492635D01*
X01728162Y01493376D01*
X01726854Y01493636D01*
D02*
G37*
G36*
X01726692Y01477888D02*
X01725384Y01477628D01*
X01724275Y01476887D01*
X01723660Y01475968D01*
X01723314Y01475739D01*
X01722192Y01475541D01*
X01721491Y01476010D01*
X01720183Y01476270D01*
X01718874Y01476010D01*
X01717765Y01475269D01*
X01717024Y01474160D01*
X01716764Y01472851D01*
X01717024Y01471543D01*
X01717765Y01470434D01*
X01718874Y01469693D01*
X01720183Y01469433D01*
X01721491Y01469693D01*
X01722600Y01470434D01*
X01723214Y01471354D01*
X01723560Y01471582D01*
X01724683Y01471780D01*
X01725384Y01471312D01*
X01726692Y01471051D01*
X01728000Y01471312D01*
X01729109Y01472053D01*
X01729850Y01473162D01*
X01730110Y01474470D01*
X01729850Y01475778D01*
X01729109Y01476887D01*
X01728000Y01477628D01*
X01726692Y01477888D01*
D02*
G37*
G36*
X01741170Y01482207D02*
X01739862Y01481946D01*
X01738753Y01481205D01*
X01738012Y01480096D01*
X01737751Y01478788D01*
X01738012Y01477480D01*
X01738753Y01476371D01*
X01739862Y01475630D01*
X01741170Y01475370D01*
X01742478Y01475630D01*
X01743587Y01476371D01*
X01744328Y01477480D01*
X01744588Y01478788D01*
X01744328Y01480096D01*
X01743587Y01481205D01*
X01742478Y01481946D01*
X01741170Y01482207D01*
D02*
G37*
G36*
X01768348Y01501510D02*
X01767040Y01501250D01*
X01765931Y01500509D01*
X01765190Y01499400D01*
X01764930Y01498092D01*
X01765190Y01496784D01*
X01765732Y01495972D01*
Y01487669D01*
X01760910Y01482847D01*
X01760343Y01481999D01*
X01760144Y01480998D01*
Y01454150D01*
X01760343Y01453149D01*
X01760910Y01452300D01*
X01766487Y01446724D01*
Y01396580D01*
X01765944Y01395768D01*
X01765684Y01394460D01*
X01765944Y01393152D01*
X01766685Y01392043D01*
X01767794Y01391302D01*
X01769102Y01391042D01*
X01770410Y01391302D01*
X01771519Y01392043D01*
X01772260Y01393152D01*
X01772521Y01394460D01*
X01772260Y01395768D01*
X01771718Y01396580D01*
Y01447808D01*
X01771519Y01448809D01*
X01770952Y01449657D01*
X01765376Y01455233D01*
Y01460562D01*
X01766646Y01460947D01*
X01766693Y01460877D01*
X01767802Y01460136D01*
X01769110Y01459875D01*
X01770418Y01460136D01*
X01771527Y01460877D01*
X01772268Y01461986D01*
X01772529Y01463294D01*
X01772268Y01464602D01*
X01771527Y01465711D01*
X01770418Y01466452D01*
X01770284Y01466479D01*
X01770016Y01467827D01*
X01770257Y01467989D01*
X01770998Y01469098D01*
X01771259Y01470406D01*
X01770998Y01471714D01*
X01770257Y01472823D01*
X01769148Y01473564D01*
X01767840Y01473824D01*
X01766646Y01473587D01*
X01766456Y01473614D01*
X01765376Y01474319D01*
Y01479914D01*
X01770198Y01484736D01*
X01770765Y01485585D01*
X01770964Y01486586D01*
Y01495972D01*
X01771506Y01496784D01*
X01771767Y01498092D01*
X01771506Y01499400D01*
X01770765Y01500509D01*
X01769656Y01501250D01*
X01768348Y01501510D01*
D02*
G37*
G36*
X01751838Y01461378D02*
X01750530Y01461118D01*
X01749718Y01460576D01*
X01748790D01*
X01747789Y01460377D01*
X01746940Y01459810D01*
X01744747Y01457616D01*
X01744180Y01456767D01*
X01743980Y01455766D01*
Y01419260D01*
X01744180Y01418259D01*
X01744747Y01417410D01*
X01747847Y01414310D01*
Y01349351D01*
X01747853Y01349319D01*
X01747656Y01349021D01*
X01746752Y01348341D01*
X01745846Y01348522D01*
X01744538Y01348261D01*
X01743429Y01347520D01*
X01742353Y01348153D01*
X01742210Y01348249D01*
X01741095Y01348471D01*
X01741018Y01348556D01*
X01740710Y01349129D01*
X01740525Y01349729D01*
X01741026Y01350480D01*
X01741286Y01351788D01*
X01741026Y01353096D01*
X01740285Y01354205D01*
X01739176Y01354946D01*
X01737868Y01355206D01*
X01736560Y01354946D01*
X01735451Y01354205D01*
X01734710Y01353096D01*
X01734449Y01351788D01*
X01734710Y01350480D01*
X01735451Y01349371D01*
X01736560Y01348630D01*
X01737675Y01348408D01*
X01737751Y01348323D01*
X01738060Y01347749D01*
X01738245Y01347150D01*
X01737743Y01346399D01*
X01737483Y01345091D01*
X01737743Y01343783D01*
X01738484Y01342673D01*
Y01342444D01*
X01737743Y01341335D01*
X01737483Y01340027D01*
X01737743Y01338719D01*
X01738484Y01337610D01*
X01739594Y01336868D01*
X01740902Y01336608D01*
X01742210Y01336868D01*
X01743319Y01337610D01*
X01744395Y01336976D01*
X01744538Y01336881D01*
X01745846Y01336621D01*
X01747154Y01336881D01*
X01748264Y01337622D01*
X01749005Y01338731D01*
X01749265Y01340039D01*
X01749005Y01341347D01*
X01748264Y01342456D01*
Y01342686D01*
X01749005Y01343795D01*
X01749256Y01345062D01*
X01749439Y01345186D01*
X01750448Y01345667D01*
X01752997Y01343117D01*
X01752998Y01343114D01*
X01753739Y01342005D01*
X01754848Y01341264D01*
X01756156Y01341004D01*
X01757464Y01341264D01*
X01758573Y01342005D01*
X01759314Y01343114D01*
X01759574Y01344422D01*
X01759314Y01345730D01*
X01758573Y01346839D01*
X01757464Y01347580D01*
X01756156Y01347841D01*
X01755752Y01347760D01*
X01753078Y01350434D01*
Y01415394D01*
X01752879Y01416395D01*
X01752312Y01417243D01*
X01749212Y01420343D01*
Y01448549D01*
X01750482Y01449173D01*
X01751584Y01448954D01*
X01752892Y01449214D01*
X01754001Y01449955D01*
X01754742Y01451064D01*
X01755002Y01452372D01*
X01754742Y01453680D01*
X01754001Y01454789D01*
X01754534Y01455961D01*
X01754996Y01456652D01*
X01755257Y01457960D01*
X01754996Y01459268D01*
X01754255Y01460377D01*
X01753146Y01461118D01*
X01751838Y01461378D01*
D02*
G37*
G36*
X01699862Y01471096D02*
X01698078Y01470741D01*
X01696566Y01469731D01*
X01695042Y01468206D01*
X01694032Y01466694D01*
X01693677Y01464910D01*
Y01446394D01*
X01694032Y01444610D01*
X01695042Y01443097D01*
X01696554Y01442087D01*
X01698338Y01441732D01*
X01700122Y01442087D01*
X01701635Y01443097D01*
X01702645Y01444610D01*
X01703000Y01446394D01*
Y01462979D01*
X01703159Y01463138D01*
X01704169Y01464650D01*
X01704524Y01466434D01*
X01704169Y01468218D01*
X01703159Y01469731D01*
X01701646Y01470741D01*
X01699862Y01471096D01*
D02*
G37*
G36*
X01707990Y01436604D02*
X01706682Y01436344D01*
X01705573Y01435603D01*
X01704832Y01434494D01*
X01704572Y01433186D01*
X01704832Y01431877D01*
X01705573Y01430768D01*
X01706682Y01430027D01*
X01707990Y01429767D01*
X01709299Y01430027D01*
X01710408Y01430768D01*
X01711149Y01431877D01*
X01711409Y01433186D01*
X01711149Y01434494D01*
X01710408Y01435603D01*
X01709299Y01436344D01*
X01707990Y01436604D01*
D02*
G37*
G36*
X01609921Y01424853D02*
X01608613Y01424592D01*
X01607504Y01423851D01*
X01606763Y01422742D01*
X01606502Y01421434D01*
X01606763Y01420126D01*
X01607504Y01419017D01*
X01608613Y01418276D01*
X01609921Y01418016D01*
X01611229Y01418276D01*
X01612338Y01419017D01*
X01613079Y01420126D01*
X01613339Y01421434D01*
X01613079Y01422742D01*
X01612338Y01423851D01*
X01611229Y01424592D01*
X01609921Y01424853D01*
D02*
G37*
G36*
X01758188Y01435217D02*
X01756880Y01434956D01*
X01755771Y01434215D01*
X01755030Y01433106D01*
X01754769Y01431798D01*
X01755030Y01430490D01*
X01755349Y01430011D01*
X01755667Y01429073D01*
X01755349Y01428135D01*
X01755030Y01427656D01*
X01754769Y01426348D01*
X01755030Y01425040D01*
X01755771Y01423931D01*
Y01422889D01*
X01755616Y01422785D01*
X01754875Y01421676D01*
X01754614Y01420368D01*
X01754875Y01419060D01*
X01755616Y01417951D01*
X01756725Y01417210D01*
X01758033Y01416949D01*
X01759341Y01417210D01*
X01760450Y01417951D01*
X01761191Y01419060D01*
X01761451Y01420368D01*
X01761191Y01421676D01*
X01760450Y01422785D01*
Y01423827D01*
X01760605Y01423931D01*
X01761346Y01425040D01*
X01761606Y01426348D01*
X01761346Y01427656D01*
X01761026Y01428135D01*
X01760709Y01429073D01*
X01761026Y01430011D01*
X01761346Y01430490D01*
X01761606Y01431798D01*
X01761346Y01433106D01*
X01760605Y01434215D01*
X01759496Y01434956D01*
X01758188Y01435217D01*
D02*
G37*
G36*
X01796542Y01408801D02*
X01795234Y01408540D01*
X01794125Y01407799D01*
X01793384Y01406690D01*
X01793123Y01405382D01*
X01793384Y01404074D01*
X01794125Y01402965D01*
X01795234Y01402224D01*
X01796542Y01401964D01*
X01797850Y01402224D01*
X01798959Y01402965D01*
X01799700Y01404074D01*
X01799960Y01405382D01*
X01799700Y01406690D01*
X01798959Y01407799D01*
X01797850Y01408540D01*
X01796542Y01408801D01*
D02*
G37*
G36*
X01729292Y01402206D02*
X01727984Y01401946D01*
X01726874Y01401205D01*
X01726133Y01400096D01*
X01725873Y01398788D01*
X01726133Y01397480D01*
X01726874Y01396371D01*
X01727984Y01395630D01*
X01729292Y01395369D01*
X01730600Y01395630D01*
X01731709Y01396371D01*
X01732450Y01397480D01*
X01732710Y01398788D01*
X01732450Y01400096D01*
X01731709Y01401205D01*
X01730600Y01401946D01*
X01729292Y01402206D01*
D02*
G37*
G36*
X01779262Y01399149D02*
X01777954Y01398888D01*
X01776845Y01398147D01*
X01776104Y01397038D01*
X01775844Y01395730D01*
X01776104Y01394422D01*
X01776845Y01393313D01*
X01777954Y01392572D01*
X01779262Y01392312D01*
X01780571Y01392572D01*
X01781680Y01393313D01*
X01782421Y01394422D01*
X01782681Y01395730D01*
X01782421Y01397038D01*
X01781680Y01398147D01*
X01780571Y01398888D01*
X01779262Y01399149D01*
D02*
G37*
G36*
X01837690Y01375133D02*
X01835724Y01374874D01*
X01833891Y01374115D01*
X01832318Y01372908D01*
X01831111Y01371335D01*
X01830352Y01369502D01*
X01830093Y01367536D01*
X01830352Y01365570D01*
X01831111Y01363737D01*
X01832318Y01362164D01*
X01833891Y01360957D01*
X01835724Y01360198D01*
X01837690Y01359939D01*
X01839656Y01360198D01*
X01841488Y01360957D01*
X01843062Y01362164D01*
X01844269Y01363737D01*
X01845028Y01365570D01*
X01845287Y01367536D01*
X01845028Y01369502D01*
X01844269Y01371335D01*
X01843062Y01372908D01*
X01841488Y01374115D01*
X01839656Y01374874D01*
X01837690Y01375133D01*
D02*
G37*
G36*
X01809750Y01391275D02*
X01808442Y01391014D01*
X01807333Y01390273D01*
X01806592Y01389164D01*
X01806331Y01387856D01*
X01806592Y01386548D01*
X01807134Y01385736D01*
Y01362694D01*
X01806920Y01361614D01*
X01807180Y01360306D01*
X01807921Y01359197D01*
X01809030Y01358456D01*
X01810338Y01358195D01*
X01811646Y01358456D01*
X01812755Y01359197D01*
X01813496Y01360306D01*
X01813757Y01361614D01*
X01813496Y01362922D01*
X01812755Y01364031D01*
X01812366Y01364292D01*
Y01385736D01*
X01812908Y01386548D01*
X01813168Y01387856D01*
X01812908Y01389164D01*
X01812167Y01390273D01*
X01811058Y01391014D01*
X01809750Y01391275D01*
D02*
G37*
G36*
X01776222Y01355461D02*
X01774914Y01355200D01*
X01773805Y01354459D01*
X01773334Y01353754D01*
X01772065Y01353631D01*
X01771876Y01353684D01*
X01771527Y01354205D01*
X01770418Y01354946D01*
X01769110Y01355206D01*
X01767802Y01354946D01*
X01766693Y01354205D01*
X01765952Y01353096D01*
X01765846Y01352563D01*
X01764551D01*
X01764394Y01353350D01*
X01763653Y01354459D01*
X01762544Y01355200D01*
X01761236Y01355461D01*
X01759928Y01355200D01*
X01758819Y01354459D01*
X01758078Y01353350D01*
X01757818Y01352042D01*
X01758078Y01350734D01*
X01758819Y01349625D01*
X01759928Y01348884D01*
X01761236Y01348624D01*
X01762544Y01348884D01*
X01763653Y01349625D01*
X01764394Y01350734D01*
X01764500Y01351267D01*
X01765795D01*
X01765952Y01350480D01*
X01766329Y01349914D01*
X01766545Y01349135D01*
X01766017Y01348295D01*
X01765550Y01347982D01*
X01764809Y01346873D01*
X01764548Y01345565D01*
X01764809Y01344257D01*
X01765550Y01343148D01*
X01766659Y01342407D01*
X01767967Y01342146D01*
X01769275Y01342407D01*
X01770384Y01343148D01*
X01770855Y01343853D01*
X01772124Y01343976D01*
X01772313Y01343923D01*
X01772662Y01343402D01*
X01773771Y01342661D01*
X01775079Y01342401D01*
X01776387Y01342661D01*
X01777496Y01343402D01*
X01778237Y01344511D01*
X01778497Y01345819D01*
X01778237Y01347127D01*
X01777859Y01347693D01*
X01777644Y01348472D01*
X01778172Y01349312D01*
X01778639Y01349625D01*
X01779380Y01350734D01*
X01779641Y01352042D01*
X01779380Y01353350D01*
X01778639Y01354459D01*
X01777530Y01355200D01*
X01776222Y01355461D01*
D02*
G37*
G36*
X01799336Y01345300D02*
X01798028Y01345040D01*
X01796919Y01344299D01*
X01796178Y01343190D01*
X01795918Y01341882D01*
X01796178Y01340574D01*
X01796919Y01339465D01*
X01798028Y01338724D01*
X01799336Y01338463D01*
X01800644Y01338724D01*
X01801753Y01339465D01*
X01802494Y01340574D01*
X01802755Y01341882D01*
X01802494Y01343190D01*
X01801753Y01344299D01*
X01800644Y01345040D01*
X01799336Y01345300D01*
D02*
G37*
G36*
X01842695Y01349718D02*
X01832685D01*
X01831699Y01349521D01*
X01830863Y01348963D01*
X01830305Y01348127D01*
X01830108Y01347141D01*
Y01337131D01*
X01830305Y01336145D01*
X01830863Y01335309D01*
X01831699Y01334751D01*
X01832685Y01334554D01*
X01842695D01*
X01843681Y01334751D01*
X01844517Y01335309D01*
X01845075Y01336145D01*
X01845271Y01337131D01*
Y01347141D01*
X01845075Y01348127D01*
X01844517Y01348963D01*
X01843681Y01349521D01*
X01842695Y01349718D01*
D02*
G37*
G36*
X01595120Y01470712D02*
X01593812Y01470452D01*
X01592703Y01469711D01*
X01591962Y01468602D01*
X01591702Y01467293D01*
X01591962Y01465985D01*
X01592703Y01464876D01*
X01593812Y01464135D01*
X01595120Y01463875D01*
X01596428Y01464135D01*
X01597537Y01464876D01*
X01598278Y01465985D01*
X01598539Y01467293D01*
X01598278Y01468602D01*
X01597537Y01469711D01*
X01596428Y01470452D01*
X01595120Y01470712D01*
D02*
G37*
G36*
X01597754Y01460480D02*
X01596446Y01460220D01*
X01595337Y01459479D01*
X01594596Y01458370D01*
X01594336Y01457062D01*
X01594596Y01455753D01*
X01595337Y01454644D01*
X01596446Y01453903D01*
X01597754Y01453643D01*
X01599062Y01453903D01*
X01600172Y01454644D01*
X01600912Y01455753D01*
X01601173Y01457062D01*
X01600912Y01458370D01*
X01600172Y01459479D01*
X01599062Y01460220D01*
X01597754Y01460480D01*
D02*
G37*
G36*
X01597754Y01449304D02*
X01596446Y01449044D01*
X01595337Y01448303D01*
X01594596Y01447194D01*
X01594336Y01445886D01*
X01594596Y01444577D01*
X01595337Y01443468D01*
X01596446Y01442727D01*
X01597754Y01442467D01*
X01599062Y01442727D01*
X01600172Y01443468D01*
X01600912Y01444577D01*
X01601173Y01445886D01*
X01600912Y01447194D01*
X01600172Y01448303D01*
X01599062Y01449044D01*
X01597754Y01449304D01*
D02*
G37*
G36*
X01542453Y01429678D02*
X01541145Y01429418D01*
X01540036Y01428676D01*
X01539295Y01427567D01*
X01539035Y01426259D01*
X01539295Y01424951D01*
X01540036Y01423842D01*
X01541145Y01423101D01*
X01542453Y01422841D01*
X01543761Y01423101D01*
X01544870Y01423842D01*
X01545612Y01424951D01*
X01545872Y01426259D01*
X01545612Y01427567D01*
X01544870Y01428676D01*
X01543761Y01429418D01*
X01542453Y01429678D01*
D02*
G37*
G36*
X01551093Y01478143D02*
X01549785Y01477882D01*
X01548676Y01477141D01*
X01547935Y01476032D01*
X01547675Y01474724D01*
X01547935Y01473416D01*
X01548676Y01472307D01*
X01549785Y01471566D01*
X01551093Y01471306D01*
X01552401Y01471566D01*
X01553510Y01472307D01*
X01554252Y01473416D01*
X01554512Y01474724D01*
X01554252Y01476032D01*
X01553510Y01477141D01*
X01552401Y01477882D01*
X01551093Y01478143D01*
D02*
G37*
G36*
X01131824Y01462690D02*
X01130516Y01462430D01*
X01129407Y01461689D01*
X01128666Y01460580D01*
X01128406Y01459271D01*
X01128666Y01457963D01*
X01129407Y01456854D01*
X01130516Y01456113D01*
X01131824Y01455853D01*
X01133132Y01456113D01*
X01134241Y01456854D01*
X01134982Y01457963D01*
X01135242Y01459271D01*
X01134982Y01460580D01*
X01134241Y01461689D01*
X01133132Y01462430D01*
X01131824Y01462690D01*
D02*
G37*
G36*
X01428651Y01446544D02*
X01427343Y01446283D01*
X01426233Y01445542D01*
X01425492Y01444433D01*
X01425232Y01443125D01*
X01425492Y01441817D01*
X01426233Y01440708D01*
X01427343Y01439967D01*
X01428651Y01439707D01*
X01429959Y01439967D01*
X01431068Y01440708D01*
X01431809Y01441817D01*
X01432069Y01443125D01*
X01431809Y01444433D01*
X01431068Y01445542D01*
X01429959Y01446283D01*
X01428651Y01446544D01*
D02*
G37*
G36*
X01089396Y01431610D02*
X01088088Y01431349D01*
X01086979Y01430608D01*
X01086238Y01429499D01*
X01085978Y01428191D01*
X01086238Y01426883D01*
X01086979Y01425774D01*
X01088088Y01425033D01*
X01089396Y01424773D01*
X01090704Y01425033D01*
X01091813Y01425774D01*
X01092554Y01426883D01*
X01092815Y01428191D01*
X01092554Y01429499D01*
X01091813Y01430608D01*
X01090704Y01431349D01*
X01089396Y01431610D01*
D02*
G37*
G36*
X01074267Y01428063D02*
X01072959Y01427803D01*
X01071850Y01427062D01*
X01071109Y01425953D01*
X01070848Y01424645D01*
X01071109Y01423337D01*
X01071850Y01422228D01*
X01072959Y01421487D01*
X01074267Y01421227D01*
X01075575Y01421487D01*
X01076684Y01422228D01*
X01077425Y01423337D01*
X01077685Y01424645D01*
X01077425Y01425953D01*
X01076684Y01427062D01*
X01075575Y01427803D01*
X01074267Y01428063D01*
D02*
G37*
G36*
X01069688Y01420903D02*
X01068380Y01420643D01*
X01067271Y01419902D01*
X01066529Y01418793D01*
X01066452Y01418403D01*
X01065122Y01418228D01*
X01064621Y01418979D01*
X01063512Y01419720D01*
X01062203Y01419980D01*
X01060895Y01419720D01*
X01059786Y01418979D01*
X01059045Y01417870D01*
X01058785Y01416562D01*
X01059045Y01415254D01*
X01059135Y01415119D01*
X01059751Y01414086D01*
X01059135Y01413052D01*
X01059045Y01412918D01*
X01058785Y01411610D01*
X01059045Y01410302D01*
X01059786Y01409193D01*
X01060895Y01408452D01*
X01062203Y01408191D01*
X01063512Y01408452D01*
X01064621Y01409193D01*
X01065361Y01410302D01*
X01065622Y01411610D01*
X01065361Y01412918D01*
X01065272Y01413052D01*
X01064656Y01414086D01*
X01065272Y01415119D01*
X01065361Y01415254D01*
X01065439Y01415644D01*
X01066769Y01415819D01*
X01067271Y01415068D01*
X01068380Y01414327D01*
X01069688Y01414066D01*
X01070723Y01414272D01*
X01071625Y01413671D01*
X01071889Y01413396D01*
X01072126Y01412202D01*
X01072867Y01411093D01*
X01073976Y01410352D01*
X01075285Y01410092D01*
X01076593Y01410352D01*
X01077702Y01411093D01*
X01078443Y01412202D01*
X01078703Y01413510D01*
X01078443Y01414818D01*
X01077702Y01415927D01*
X01076593Y01416668D01*
X01075285Y01416929D01*
X01074249Y01416723D01*
X01073347Y01417324D01*
X01073083Y01417599D01*
X01072846Y01418793D01*
X01072105Y01419902D01*
X01070996Y01420643D01*
X01069688Y01420903D01*
D02*
G37*
G36*
X01591818Y01398895D02*
X01590510Y01398634D01*
X01589401Y01397893D01*
X01588660Y01396784D01*
X01588400Y01395476D01*
X01588660Y01394168D01*
X01589401Y01393059D01*
X01590510Y01392318D01*
X01591818Y01392057D01*
X01593126Y01392318D01*
X01594235Y01393059D01*
X01594976Y01394168D01*
X01595237Y01395476D01*
X01594976Y01396784D01*
X01594235Y01397893D01*
X01593126Y01398634D01*
X01591818Y01398895D01*
D02*
G37*
G36*
X01563718Y01382284D02*
X01562410Y01382023D01*
X01561301Y01381282D01*
X01560560Y01380173D01*
X01560300Y01378865D01*
X01560560Y01377557D01*
X01561301Y01376448D01*
X01562410Y01375707D01*
X01563718Y01375447D01*
X01565027Y01375707D01*
X01566136Y01376448D01*
X01566877Y01377557D01*
X01567137Y01378865D01*
X01566877Y01380173D01*
X01566136Y01381282D01*
X01565027Y01382023D01*
X01563718Y01382284D01*
D02*
G37*
G36*
X01481003Y01381474D02*
X01479695Y01381214D01*
X01478586Y01380473D01*
X01477845Y01379364D01*
X01477585Y01378056D01*
X01477845Y01376747D01*
X01478586Y01375638D01*
X01479695Y01374897D01*
X01481003Y01374637D01*
X01482311Y01374897D01*
X01483420Y01375638D01*
X01484161Y01376747D01*
X01484422Y01378056D01*
X01484161Y01379364D01*
X01483420Y01380473D01*
X01482311Y01381214D01*
X01481003Y01381474D01*
D02*
G37*
G36*
X01486479Y01363675D02*
X01485171Y01363415D01*
X01484062Y01362674D01*
X01483321Y01361565D01*
X01483060Y01360257D01*
X01483321Y01358948D01*
X01484062Y01357839D01*
X01485171Y01357098D01*
X01486479Y01356838D01*
X01487787Y01357098D01*
X01488896Y01357839D01*
X01489637Y01358948D01*
X01489897Y01360257D01*
X01489637Y01361565D01*
X01488896Y01362674D01*
X01487787Y01363415D01*
X01486479Y01363675D01*
D02*
G37*
G36*
X01486471Y01339187D02*
X01485163Y01338927D01*
X01484054Y01338186D01*
X01483313Y01337077D01*
X01483052Y01335768D01*
X01483313Y01334460D01*
X01484054Y01333351D01*
X01485163Y01332610D01*
X01486471Y01332350D01*
X01487779Y01332610D01*
X01488888Y01333351D01*
X01489629Y01334460D01*
X01489889Y01335768D01*
X01489629Y01337077D01*
X01488888Y01338186D01*
X01487779Y01338927D01*
X01486471Y01339187D01*
D02*
G37*
%LPD*%
G54D23*
X01644048Y01366426D02*
X01650701Y01373079D01*
X01153491Y01484982D02*
Y01500982D01*
X01150114Y01481605D02*
X01153491Y01484982D01*
Y01500982D02*
X01158114Y01505605D01*
X01478816Y01414759D02*
X01488673D01*
X01466461Y01427113D02*
X01478816Y01414759D01*
X01466461Y01427113D02*
Y01447735D01*
X01488673Y01414759D02*
X01511648Y01391784D01*
X01620210Y01348858D02*
X01623594Y01352242D01*
X01579476Y01348858D02*
X01620210D01*
X01644048Y01352242D02*
Y01366426D01*
X01623594Y01352242D02*
X01644048D01*
X01531714Y01340730D02*
X01571348D01*
X01511648Y01360796D02*
Y01391784D01*
Y01360796D02*
X01531714Y01340730D01*
X01571348D02*
X01579476Y01348858D01*
X01263777Y00208195D02*
Y00259842D01*
X01050417Y00208195D02*
Y00259842D01*
X00102489Y00208195D02*
X01779397D01*
X00102489Y00156549D02*
X01778889D01*
X00102489Y00104902D02*
X01119759D01*
X00102616Y00259842D02*
X01779397D01*
X00102616Y00104902D02*
Y00259842D01*
Y00104902D02*
X00502793D01*
X00102489D02*
Y00259842D01*
X00728599Y00104902D02*
Y00259842D01*
X01779397Y00104902D02*
Y00259842D01*
X01119759Y00104902D02*
X01779397D01*
X01421765Y00103251D02*
Y00154771D01*
G54D24*
X01138958Y01512356D02*
X01141443Y01514841D01*
X01142005Y01509816D02*
X01147031Y01514841D01*
X01068702Y01497695D02*
X01120586D01*
X01027143Y01456136D02*
X01068702Y01497695D01*
X01067650Y01500235D02*
X01119534D01*
X01026091Y01458676D02*
X01067650Y01500235D01*
X01136308Y01515272D02*
X01136909Y01514671D01*
X01134571Y01515272D02*
X01136308D01*
X01136909Y01512970D02*
Y01514671D01*
X01119534Y01500235D02*
X01134571Y01515272D01*
X01137524Y01512356D02*
X01138958D01*
X01136909Y01512970D02*
X01137524Y01512356D01*
X01120586Y01497695D02*
X01132707Y01509816D01*
X01142005D01*
X00998438Y01458676D02*
X01026091D01*
X00985625Y01445863D02*
X00998438Y01458676D01*
X00970355Y01447034D02*
X00971525Y01445863D01*
X00985625D01*
X00999490Y01456136D02*
X01027143D01*
X00986677Y01443324D02*
X00999490Y01456136D01*
X00972232Y01443324D02*
X00986677D01*
X00970355Y01441446D02*
X00972232Y01443324D01*
G54D25*
X00332483Y00184275D02*
X00329944Y00186814D01*
X00324865D01*
X00322326Y00184275D01*
Y00181735D01*
X00324865Y00179196D01*
X00329944D01*
X00332483Y00176657D01*
Y00174118D01*
X00329944Y00171579D01*
X00324865D01*
X00322326Y00174118D01*
X00337561Y00171579D02*
X00342639D01*
X00340100D01*
Y00181735D01*
X00337561D01*
X00355335Y00166500D02*
X00357874D01*
X00360414Y00169039D01*
Y00181735D01*
X00352796D01*
X00350257Y00179196D01*
Y00174118D01*
X00352796Y00171579D01*
X00360414D01*
X00375649D02*
X00365492D01*
X00375649Y00181735D01*
Y00184275D01*
X00373110Y00186814D01*
X00368031D01*
X00365492Y00184275D01*
X01441196Y00223097D02*
Y00238332D01*
X01451353Y00223097D01*
Y00238332D01*
X01458970Y00223097D02*
X01464049D01*
X01466588Y00225636D01*
Y00230714D01*
X01464049Y00233253D01*
X01458970D01*
X01456431Y00230714D01*
Y00225636D01*
X01458970Y00223097D01*
X01474205Y00235793D02*
Y00233253D01*
X01471666D01*
X01476745D01*
X01474205D01*
Y00225636D01*
X01476745Y00223097D01*
X01499597Y00238332D02*
X01504675D01*
X01502136D01*
Y00223097D01*
X01499597D01*
X01504675D01*
X01512293D02*
Y00233253D01*
X01519910D01*
X01522450Y00230714D01*
Y00223097D01*
X01542763Y00238332D02*
Y00228175D01*
X01547841Y00223097D01*
X01552920Y00228175D01*
Y00238332D01*
X01565616Y00223097D02*
X01560537D01*
X01557998Y00225636D01*
Y00230714D01*
X01560537Y00233253D01*
X01565616D01*
X01568155Y00230714D01*
Y00228175D01*
X01557998D01*
X01573233Y00233253D02*
Y00223097D01*
Y00228175D01*
X01575773Y00230714D01*
X01578312Y00233253D01*
X01580851D01*
X01588468Y00223097D02*
X01596086D01*
X01598625Y00225636D01*
X01596086Y00228175D01*
X01591008D01*
X01588468Y00230714D01*
X01591008Y00233253D01*
X01598625D01*
X01603703Y00223097D02*
X01608782D01*
X01606243D01*
Y00233253D01*
X01603703D01*
X01618938Y00223097D02*
X01624017D01*
X01626556Y00225636D01*
Y00230714D01*
X01624017Y00233253D01*
X01618938D01*
X01616399Y00230714D01*
Y00225636D01*
X01618938Y00223097D01*
X01631634D02*
Y00233253D01*
X01639252D01*
X01641791Y00230714D01*
Y00223097D01*
X01657026Y00235793D02*
X01654487Y00238332D01*
X01649409D01*
X01646870Y00235793D01*
Y00225636D01*
X01649409Y00223097D01*
X01654487D01*
X01657026Y00225636D01*
X01664644Y00223097D02*
X01669722D01*
X01672261Y00225636D01*
Y00230714D01*
X01669722Y00233253D01*
X01664644D01*
X01662104Y00230714D01*
Y00225636D01*
X01664644Y00223097D01*
X01677340D02*
Y00233253D01*
X01684957D01*
X01687496Y00230714D01*
Y00223097D01*
X01695114Y00235793D02*
Y00233253D01*
X01692575D01*
X01697653D01*
X01695114D01*
Y00225636D01*
X01697653Y00223097D01*
X01705271Y00233253D02*
Y00223097D01*
Y00228175D01*
X01707810Y00230714D01*
X01710349Y00233253D01*
X01712888D01*
X01723045Y00223097D02*
X01728123D01*
X01730662Y00225636D01*
Y00230714D01*
X01728123Y00233253D01*
X01723045D01*
X01720506Y00230714D01*
Y00225636D01*
X01723045Y00223097D01*
X01735741D02*
X01740819D01*
X01738280D01*
Y00238332D01*
X01735741D01*
X01322829Y00235793D02*
X01320289Y00238332D01*
X01315211D01*
X01312672Y00235793D01*
Y00233253D01*
X01315211Y00230714D01*
X01320289D01*
X01322829Y00228175D01*
Y00225636D01*
X01320289Y00223097D01*
X01315211D01*
X01312672Y00225636D01*
X01327907Y00238332D02*
Y00228175D01*
X01332985Y00223097D01*
X01338064Y00228175D01*
Y00238332D01*
X01343142Y00223097D02*
Y00238332D01*
X01353299Y00223097D01*
Y00238332D01*
X01373612Y00223097D02*
Y00238332D01*
X01381230D01*
X01383769Y00235793D01*
Y00230714D01*
X01381230Y00228175D01*
X01373612D01*
X01378691D02*
X01383769Y00223097D01*
X01399004Y00238332D02*
X01388847D01*
Y00223097D01*
X01399004D01*
X01388847Y00230714D02*
X01393926D01*
X01404082Y00238332D02*
Y00228175D01*
X01409161Y00223097D01*
X01414239Y00228175D01*
Y00238332D01*
X01419317Y00233253D02*
X01421857D01*
Y00230714D01*
X01419317D01*
Y00233253D01*
Y00225636D02*
X01421857D01*
Y00223097D01*
X01419317D01*
Y00225636D01*
X01099820Y00223097D02*
Y00238332D01*
X01107438D01*
X01109977Y00235793D01*
Y00230714D01*
X01107438Y00228175D01*
X01099820D01*
X01104898D02*
X01109977Y00223097D01*
X01125212Y00238332D02*
X01115055D01*
Y00223097D01*
X01125212D01*
X01115055Y00230714D02*
X01120133D01*
X01130290Y00238332D02*
Y00228175D01*
X01135368Y00223097D01*
X01140447Y00228175D01*
Y00238332D01*
X01145525Y00233253D02*
X01148064D01*
Y00230714D01*
X01145525D01*
Y00233253D01*
Y00225636D02*
X01148064D01*
Y00223097D01*
X01145525D01*
Y00225636D01*
X00322326Y00119295D02*
Y00134530D01*
X00329944D01*
X00332483Y00131991D01*
Y00126912D01*
X00329944Y00124373D01*
X00322326D01*
X00337561Y00119295D02*
Y00134530D01*
X00345179D01*
X00347718Y00131991D01*
Y00126912D01*
X00345179Y00124373D01*
X00337561D01*
X00342639D02*
X00347718Y00119295D01*
X00360414Y00134530D02*
X00355335D01*
X00352796Y00131991D01*
Y00121834D01*
X00355335Y00119295D01*
X00360414D01*
X00362953Y00121834D01*
Y00131991D01*
X00360414Y00134530D01*
X00378188Y00131991D02*
X00375649Y00134530D01*
X00370570D01*
X00368031Y00131991D01*
Y00121834D01*
X00370570Y00119295D01*
X00375649D01*
X00378188Y00121834D01*
X00383266Y00131991D02*
X00385806Y00134530D01*
X00390884D01*
X00393423Y00131991D01*
Y00121834D01*
X00390884Y00119295D01*
X00385806D01*
X00383266Y00121834D01*
Y00131991D01*
X00398501Y00121834D02*
X00401040Y00119295D01*
X00406119D01*
X00408658Y00121834D01*
Y00131991D01*
X00406119Y00134530D01*
X00401040D01*
X00398501Y00131991D01*
Y00129452D01*
X00401040Y00126912D01*
X00408658D01*
X00413736Y00119295D02*
X00418815D01*
X00416276D01*
Y00134530D01*
X00413736Y00131991D01*
X00436589Y00134530D02*
X00426432D01*
Y00126912D01*
X00431511D01*
X00426432D01*
Y00119295D01*
X00441667D02*
Y00121834D01*
X00444207D01*
Y00119295D01*
X00441667D01*
X00464520Y00131991D02*
X00461981Y00134530D01*
X00456903D01*
X00454363Y00131991D01*
Y00121834D01*
X00456903Y00119295D01*
X00461981D01*
X00464520Y00121834D01*
Y00126912D01*
X00459442D01*
X00479755Y00134530D02*
X00469598D01*
Y00126912D01*
X00474677Y00129452D01*
X00477216D01*
X00479755Y00126912D01*
Y00121834D01*
X00477216Y00119295D01*
X00472137D01*
X00469598Y00121834D01*
X00968121Y00119295D02*
X00973199D01*
X00970660D01*
Y00134530D01*
X00968121Y00131991D01*
X00980817Y00119295D02*
X00985895D01*
X00983356D01*
Y00134530D01*
X00980817Y00131991D01*
X00993513Y00126912D02*
X01003670D01*
X01008748Y00119295D02*
X01013826D01*
X01011287D01*
Y00134530D01*
X01008748Y00131991D01*
X01021444Y00119295D02*
X01026522D01*
X01023983D01*
Y00134530D01*
X01021444Y00131991D01*
X01034140Y00126912D02*
X01044296D01*
X01059531Y00119295D02*
X01049375D01*
X01059531Y00129452D01*
Y00131991D01*
X01056992Y00134530D01*
X01051914D01*
X01049375Y00131991D01*
X01064610D02*
X01067149Y00134530D01*
X01072227D01*
X01074766Y00131991D01*
Y00121834D01*
X01072227Y00119295D01*
X01067149D01*
X01064610Y00121834D01*
Y00131991D01*
X01090002Y00119295D02*
X01079845D01*
X01090002Y00129452D01*
Y00131991D01*
X01087462Y00134530D01*
X01082384D01*
X01079845Y00131991D01*
X01095080D02*
X01097619Y00134530D01*
X01102697D01*
X01105237Y00131991D01*
Y00121834D01*
X01102697Y00119295D01*
X01097619D01*
X01095080Y00121834D01*
Y00131991D01*
X00757425D02*
X00754885Y00134530D01*
X00749807D01*
X00747268Y00131991D01*
Y00121834D01*
X00749807Y00119295D01*
X00754885D01*
X00757425Y00121834D01*
Y00126912D01*
X00752346D01*
X00772660Y00134530D02*
X00762503D01*
Y00119295D01*
X00772660D01*
X00762503Y00126912D02*
X00767581D01*
X00777738Y00119295D02*
Y00134530D01*
X00787895Y00119295D01*
Y00134530D01*
X00803130D02*
X00792973D01*
Y00119295D01*
X00803130D01*
X00792973Y00126912D02*
X00798052D01*
X00808208Y00119295D02*
Y00134530D01*
X00815826D01*
X00818365Y00131991D01*
Y00126912D01*
X00815826Y00124373D01*
X00808208D01*
X00813287D02*
X00818365Y00119295D01*
X00823443D02*
Y00129452D01*
X00828522Y00134530D01*
X00833600Y00129452D01*
Y00119295D01*
Y00126912D01*
X00823443D01*
X00838678Y00134530D02*
X00848835D01*
X00843757D01*
Y00119295D01*
X00864070Y00134530D02*
X00853913D01*
Y00119295D01*
X00864070D01*
X00853913Y00126912D02*
X00858992D01*
X00869149Y00134530D02*
Y00119295D01*
X00876766D01*
X00879305Y00121834D01*
Y00131991D01*
X00876766Y00134530D01*
X00869149D01*
X00945324Y00129452D02*
X00947863D01*
Y00126912D01*
X00945324D01*
Y00129452D01*
Y00121834D02*
X00947863D01*
Y00119295D01*
X00945324D01*
Y00121834D01*
X00117729Y00223097D02*
Y00233253D01*
X00122807Y00238332D01*
X00127886Y00233253D01*
Y00223097D01*
Y00230714D01*
X00117729D01*
X00132964Y00238332D02*
Y00223097D01*
X00143121D01*
X00148199Y00238332D02*
Y00223097D01*
X00158356D01*
X00178669D02*
Y00233253D01*
X00183748Y00238332D01*
X00188826Y00233253D01*
Y00223097D01*
Y00230714D01*
X00178669D01*
X00193904Y00223097D02*
Y00238332D01*
X00201522D01*
X00204061Y00235793D01*
Y00230714D01*
X00201522Y00228175D01*
X00193904D01*
X00198983D02*
X00204061Y00223097D01*
X00209139Y00238332D02*
X00219296D01*
X00214218D01*
Y00223097D01*
X00224375Y00238332D02*
Y00223097D01*
X00229453Y00228175D01*
X00234531Y00223097D01*
Y00238332D01*
X00247227D02*
X00242149D01*
X00239610Y00235793D01*
Y00225636D01*
X00242149Y00223097D01*
X00247227D01*
X00249766Y00225636D01*
Y00235793D01*
X00247227Y00238332D01*
X00254845Y00223097D02*
Y00238332D01*
X00262462D01*
X00265001Y00235793D01*
Y00230714D01*
X00262462Y00228175D01*
X00254845D01*
X00259923D02*
X00265001Y00223097D01*
X00270080Y00238332D02*
Y00223097D01*
Y00228175D01*
X00280236Y00238332D01*
X00272619Y00230714D01*
X00280236Y00223097D01*
X00300550Y00238332D02*
Y00228175D01*
X00305628Y00223097D01*
X00310707Y00228175D01*
Y00238332D01*
X00315785D02*
X00320863D01*
X00318324D01*
Y00223097D01*
X00315785D01*
X00320863D01*
X00338638Y00238332D02*
X00328481D01*
Y00223097D01*
X00338638D01*
X00328481Y00230714D02*
X00333559D01*
X00343716Y00238332D02*
Y00223097D01*
X00348794Y00228175D01*
X00353873Y00223097D01*
Y00238332D01*
X00369108D02*
X00358951D01*
Y00223097D01*
X00369108D01*
X00358951Y00230714D02*
X00364029D01*
X00374186Y00238332D02*
Y00223097D01*
X00381804D01*
X00384343Y00225636D01*
Y00235793D01*
X00381804Y00238332D01*
X00374186D01*
X00414813D02*
X00404656D01*
Y00230714D01*
X00409734D01*
X00404656D01*
Y00223097D01*
X00419891D02*
Y00238332D01*
X00427509D01*
X00430048Y00235793D01*
Y00230714D01*
X00427509Y00228175D01*
X00419891D01*
X00424970D02*
X00430048Y00223097D01*
X00442744Y00238332D02*
X00437665D01*
X00435126Y00235793D01*
Y00225636D01*
X00437665Y00223097D01*
X00442744D01*
X00445283Y00225636D01*
Y00235793D01*
X00442744Y00238332D01*
X00450361Y00223097D02*
Y00238332D01*
X00455440Y00233253D01*
X00460518Y00238332D01*
Y00223097D01*
X00480832Y00238332D02*
X00490988D01*
X00485910D01*
Y00223097D01*
X00503684Y00238332D02*
X00498606D01*
X00496067Y00235793D01*
Y00225636D01*
X00498606Y00223097D01*
X00503684D01*
X00506223Y00225636D01*
Y00235793D01*
X00503684Y00238332D01*
X00511302Y00223097D02*
Y00238332D01*
X00518919D01*
X00521458Y00235793D01*
Y00230714D01*
X00518919Y00228175D01*
X00511302D01*
X00551929Y00235793D02*
X00549389Y00238332D01*
X00544311D01*
X00541772Y00235793D01*
Y00233253D01*
X00544311Y00230714D01*
X00549389D01*
X00551929Y00228175D01*
Y00225636D01*
X00549389Y00223097D01*
X00544311D01*
X00541772Y00225636D01*
X00557007Y00238332D02*
X00562085D01*
X00559546D01*
Y00223097D01*
X00557007D01*
X00562085D01*
X00569703Y00238332D02*
Y00223097D01*
X00577320D01*
X00579860Y00225636D01*
Y00235793D01*
X00577320Y00238332D01*
X00569703D01*
X00595095D02*
X00584938D01*
Y00223097D01*
X00595095D01*
X00584938Y00230714D02*
X00590016D01*
X01184018Y00238332D02*
X01173861D01*
Y00230714D01*
X01178939D01*
X01173861D01*
Y00223097D01*
X00885317D02*
Y00238332D01*
X00892934D01*
X00895474Y00235793D01*
Y00230714D01*
X00892934Y00228175D01*
X00885317D01*
X00900552Y00223097D02*
Y00238332D01*
X00908170D01*
X00910709Y00235793D01*
Y00230714D01*
X00908170Y00228175D01*
X00900552D01*
X00905630D02*
X00910709Y00223097D01*
X00923405Y00238332D02*
X00918326D01*
X00915787Y00235793D01*
Y00225636D01*
X00918326Y00223097D01*
X00923405D01*
X00925944Y00225636D01*
Y00235793D01*
X00923405Y00238332D01*
X00941179Y00235793D02*
X00938640Y00238332D01*
X00933561D01*
X00931022Y00235793D01*
Y00225636D01*
X00933561Y00223097D01*
X00938640D01*
X00941179Y00225636D01*
X00946257Y00235793D02*
X00948796Y00238332D01*
X00953875D01*
X00956414Y00235793D01*
Y00225636D01*
X00953875Y00223097D01*
X00948796D01*
X00946257Y00225636D01*
Y00235793D01*
X00961492Y00225636D02*
X00964032Y00223097D01*
X00969110D01*
X00971649Y00225636D01*
Y00235793D01*
X00969110Y00238332D01*
X00964032D01*
X00961492Y00235793D01*
Y00233253D01*
X00964032Y00230714D01*
X00971649D01*
X00976727Y00223097D02*
X00981806D01*
X00979267D01*
Y00238332D01*
X00976727Y00235793D01*
X00746760Y00238332D02*
Y00223097D01*
X00754378D01*
X00756917Y00225636D01*
Y00228175D01*
X00754378Y00230714D01*
X00746760D01*
X00754378D01*
X00756917Y00233253D01*
Y00235793D01*
X00754378Y00238332D01*
X00746760D01*
X00769613D02*
X00764534D01*
X00761995Y00235793D01*
Y00225636D01*
X00764534Y00223097D01*
X00769613D01*
X00772152Y00225636D01*
Y00235793D01*
X00769613Y00238332D01*
X00777230Y00223097D02*
Y00233253D01*
X00782309Y00238332D01*
X00787387Y00233253D01*
Y00223097D01*
Y00230714D01*
X00777230D01*
X00792465Y00223097D02*
Y00238332D01*
X00800083D01*
X00802622Y00235793D01*
Y00230714D01*
X00800083Y00228175D01*
X00792465D01*
X00797544D02*
X00802622Y00223097D01*
X00807700Y00238332D02*
Y00223097D01*
X00815318D01*
X00817857Y00225636D01*
Y00235793D01*
X00815318Y00238332D01*
X00807700D01*
X00840710Y00223097D02*
Y00238332D01*
X00845788D02*
Y00223097D01*
X00838170Y00233253D02*
X00845788D01*
X00848327D01*
X00838170Y00228175D02*
X00848327D01*
X00853406Y00233253D02*
X00855945D01*
Y00230714D01*
X00853406D01*
Y00233253D01*
Y00225636D02*
X00855945D01*
Y00223097D01*
X00853406D01*
Y00225636D01*
X00117729Y00186814D02*
Y00171579D01*
X00127886D01*
X00132964D02*
Y00181735D01*
X00138042Y00186814D01*
X00143121Y00181735D01*
Y00171579D01*
Y00179196D01*
X00132964D01*
X00148199Y00186814D02*
Y00184275D01*
X00153278Y00179196D01*
X00158356Y00184275D01*
Y00186814D01*
X00153278Y00179196D02*
Y00171579D01*
X00173591Y00186814D02*
X00163434D01*
Y00171579D01*
X00173591D01*
X00163434Y00179196D02*
X00168513D01*
X00178669Y00171579D02*
Y00186814D01*
X00186287D01*
X00188826Y00184275D01*
Y00179196D01*
X00186287Y00176657D01*
X00178669D01*
X00183748D02*
X00188826Y00171579D01*
X00209139D02*
Y00186814D01*
X00219296Y00171579D01*
Y00186814D01*
X00224375Y00171579D02*
Y00181735D01*
X00229453Y00186814D01*
X00234531Y00181735D01*
Y00171579D01*
Y00179196D01*
X00224375D01*
X00239610Y00171579D02*
Y00186814D01*
X00244688Y00181735D01*
X00249766Y00186814D01*
Y00171579D01*
X00265001Y00186814D02*
X00254845D01*
Y00171579D01*
X00265001D01*
X00254845Y00179196D02*
X00259923D01*
X00285315Y00176657D02*
X00295471D01*
X00285315Y00181735D02*
X00295471D01*
X00117729Y00119295D02*
Y00134530D01*
X00125346D01*
X00127886Y00131991D01*
Y00126912D01*
X00125346Y00124373D01*
X00117729D01*
X00132964Y00134530D02*
Y00119295D01*
X00143121D01*
X00155817Y00134530D02*
X00150738D01*
X00148199Y00131991D01*
Y00121834D01*
X00150738Y00119295D01*
X00155817D01*
X00158356Y00121834D01*
Y00131991D01*
X00155817Y00134530D01*
X00163434D02*
X00173591D01*
X00168513D01*
Y00119295D01*
X00193904D02*
Y00134530D01*
X00204061Y00119295D01*
Y00134530D01*
X00209139Y00119295D02*
Y00129452D01*
X00214218Y00134530D01*
X00219296Y00129452D01*
Y00119295D01*
Y00126912D01*
X00209139D01*
X00224375Y00119295D02*
Y00134530D01*
X00229453Y00129452D01*
X00234531Y00134530D01*
Y00119295D01*
X00249766Y00134530D02*
X00239610D01*
Y00119295D01*
X00249766D01*
X00239610Y00126912D02*
X00244688D01*
X00270080Y00124373D02*
X00280236D01*
X00270080Y00129452D02*
X00280236D01*
X01163444Y00119295D02*
X01153287D01*
X01163444Y00129452D01*
Y00131991D01*
X01160904Y00134530D01*
X01155826D01*
X01153287Y00131991D01*
X01168522D02*
X01171061Y00134530D01*
X01176140D01*
X01178679Y00131991D01*
Y00121834D01*
X01176140Y00119295D01*
X01171061D01*
X01168522Y00121834D01*
Y00131991D01*
X01183757Y00129452D02*
X01186296D01*
Y00126912D01*
X01183757D01*
Y00129452D01*
Y00121834D02*
X01186296D01*
Y00119295D01*
X01183757D01*
Y00121834D01*
X01206610Y00119295D02*
X01196453D01*
X01206610Y00129452D01*
Y00131991D01*
X01204071Y00134530D01*
X01198992D01*
X01196453Y00131991D01*
X01211688Y00121834D02*
X01214227Y00119295D01*
X01219306D01*
X01221845Y00121834D01*
Y00131991D01*
X01219306Y00134530D01*
X01214227D01*
X01211688Y00131991D01*
Y00129452D01*
X01214227Y00126912D01*
X01221845D01*
X01226923Y00129452D02*
X01229462D01*
Y00126912D01*
X01226923D01*
Y00129452D01*
Y00121834D02*
X01229462D01*
Y00119295D01*
X01226923D01*
Y00121834D01*
X01247237Y00119295D02*
Y00134530D01*
X01239619Y00126912D01*
X01249776D01*
X01254854Y00131991D02*
X01257393Y00134530D01*
X01262472D01*
X01265011Y00131991D01*
Y00129452D01*
X01262472Y00126912D01*
X01259932D01*
X01262472D01*
X01265011Y00124373D01*
Y00121834D01*
X01262472Y00119295D01*
X01257393D01*
X01254854Y00121834D01*
X01474470Y00134530D02*
X01484627D01*
X01479548D01*
Y00119295D01*
X01499862Y00134530D02*
X01489705D01*
Y00119295D01*
X01499862D01*
X01489705Y00126912D02*
X01494783D01*
X01504940Y00134530D02*
X01515097Y00119295D01*
Y00134530D02*
X01504940Y00119295D01*
X01520175D02*
Y00129452D01*
X01525254Y00134530D01*
X01530332Y00129452D01*
Y00119295D01*
Y00126912D01*
X01520175D01*
X01545567Y00131991D02*
X01543028Y00134530D01*
X01537950D01*
X01535410Y00131991D01*
Y00129452D01*
X01537950Y00126912D01*
X01543028D01*
X01545567Y00124373D01*
Y00121834D01*
X01543028Y00119295D01*
X01537950D01*
X01535410Y00121834D01*
X01565880Y00134530D02*
X01570959D01*
X01568420D01*
Y00119295D01*
X01565880D01*
X01570959D01*
X01578576D02*
Y00134530D01*
X01588733Y00119295D01*
Y00134530D01*
X01603968Y00131991D02*
X01601429Y00134530D01*
X01596351D01*
X01593811Y00131991D01*
Y00129452D01*
X01596351Y00126912D01*
X01601429D01*
X01603968Y00124373D01*
Y00121834D01*
X01601429Y00119295D01*
X01596351D01*
X01593811Y00121834D01*
X01609046Y00134530D02*
X01619203D01*
X01614125D01*
Y00119295D01*
X01624281D02*
Y00134530D01*
X01631899D01*
X01634438Y00131991D01*
Y00126912D01*
X01631899Y00124373D01*
X01624281D01*
X01629360D02*
X01634438Y00119295D01*
X01639517Y00134530D02*
Y00121834D01*
X01642056Y00119295D01*
X01647134D01*
X01649673Y00121834D01*
Y00134530D01*
X01654752Y00119295D02*
Y00134530D01*
X01659830Y00129452D01*
X01664908Y00134530D01*
Y00119295D01*
X01680143Y00134530D02*
X01669987D01*
Y00119295D01*
X01680143D01*
X01669987Y00126912D02*
X01675065D01*
X01685222Y00119295D02*
Y00134530D01*
X01695379Y00119295D01*
Y00134530D01*
X01700457D02*
X01710614D01*
X01705535D01*
Y00119295D01*
X01725849Y00131991D02*
X01723309Y00134530D01*
X01718231D01*
X01715692Y00131991D01*
Y00129452D01*
X01718231Y00126912D01*
X01723309D01*
X01725849Y00124373D01*
Y00121834D01*
X01723309Y00119295D01*
X01718231D01*
X01715692Y00121834D01*
X00746760Y00186685D02*
X00756917D01*
X00751838D01*
Y00171450D01*
X00761995Y00186685D02*
X00767073D01*
X00764534D01*
Y00171450D01*
X00761995D01*
X00767073D01*
X00774691Y00186685D02*
Y00171450D01*
X00782309D01*
X00784848Y00173989D01*
Y00184146D01*
X00782309Y00186685D01*
X00774691D01*
X00807700Y00171450D02*
Y00186685D01*
X00812779D02*
Y00171450D01*
X00805161Y00181607D02*
X00812779D01*
X00815318D01*
X00805161Y00176528D02*
X00815318D01*
X00820396Y00181607D02*
X00822935D01*
Y00179067D01*
X00820396D01*
Y00181607D01*
Y00173989D02*
X00822935D01*
Y00171450D01*
X00820396D01*
Y00173989D01*
X00885317Y00171450D02*
Y00186685D01*
X00895474Y00171450D01*
Y00186685D01*
X00900552Y00171450D02*
X00910709Y00181607D01*
X00915787Y00171450D02*
Y00181607D01*
X00920865Y00186685D01*
X00925944Y00181607D01*
Y00171450D01*
Y00179067D01*
X00915787D01*
G54D119*
X01052287Y01445900D02*
D03*
X01043587D02*
D03*
X01034887D02*
D03*
X01656986Y01433857D02*
D03*
Y01410607D02*
D03*
Y01421257D02*
D03*
X01669586Y01410607D02*
D03*
Y01421257D02*
D03*
X01680236D02*
D03*
X01669586Y01457107D02*
D03*
Y01446457D02*
D03*
X01680236D02*
D03*
X01669586Y01433857D02*
D03*
X01680236D02*
D03*
X01633736Y01446457D02*
D03*
X01644386D02*
D03*
Y01457107D02*
D03*
X01656986Y01446457D02*
D03*
Y01457107D02*
D03*
X01644386Y01410607D02*
D03*
Y01421257D02*
D03*
X01633736D02*
D03*
X01644386Y01433857D02*
D03*
X01633736D02*
D03*
X01767412Y01371600D02*
D03*
X01778412D02*
D03*
X01772912Y01381100D02*
D03*
Y01362100D02*
D03*
X01721798Y01367654D02*
D03*
X01733298D02*
D03*
X01727548Y01358154D02*
D03*
Y01377154D02*
D03*
X01568342Y01476974D02*
D03*
Y01487974D02*
D03*
X01577842Y01482474D02*
D03*
X01558842D02*
D03*
G54D134*
X01481401Y01543401D02*
D03*
X01468701D02*
D03*
X01456001D02*
D03*
X01837690Y01354836D02*
D03*
Y01367536D02*
D03*
X01575148Y01541644D02*
D03*
X01562448D02*
D03*
G54D135*
X01443301Y01543401D02*
D03*
X01549748Y01541644D02*
D03*
G54D136*
X01837690Y01342136D02*
D03*
G54D137*
X01658230Y01526588D02*
D03*
X01645530D02*
D03*
X01632830D02*
D03*
X01620130D02*
D03*
X01607430D02*
D03*
X01658230Y01539288D02*
D03*
X01645530D02*
D03*
X01632830D02*
D03*
X01620130D02*
D03*
G54D138*
X01607430D02*
D03*
G54D139*
X01464096Y01514976D02*
D03*
G54D154*
X01185693Y01490154D02*
X01242374D01*
X01185525Y01489605D02*
X01185693Y01489773D01*
X01242374D02*
X01242397Y01489751D01*
X01246476D01*
X01246622Y01489605D01*
G54D156*
X01411884Y01529588D02*
X01451356D01*
X01408506Y01532966D02*
X01411884Y01529588D01*
X01391964Y01532966D02*
X01408506D01*
X01417485Y01532548D02*
X01432610D01*
X01414932Y01535100D02*
X01417485Y01532548D01*
X01392847Y01535100D02*
X01414932D01*
X01386634Y01541313D02*
X01392847Y01535100D01*
X01385750Y01539180D02*
X01391964Y01532966D01*
X01375673Y01509497D02*
X01435969D01*
X01328903Y01462726D02*
X01375673Y01509497D01*
X01374445Y01485290D02*
X01379943Y01490789D01*
X01385079D01*
X01354485Y01485290D02*
X01374445D01*
X01349596Y01480402D02*
X01354485Y01485290D01*
X01435969Y01509497D02*
X01441958Y01503507D01*
X01287337Y01413141D02*
X01294892D01*
X01286159Y01414319D02*
X01287337Y01413141D01*
X01286159Y01414319D02*
Y01421717D01*
X01768348Y01486586D02*
Y01498092D01*
X01762760Y01480998D02*
X01768348Y01486586D01*
X01762760Y01454150D02*
Y01480998D01*
X01571913Y01409319D02*
X01583521D01*
X01572797Y01411453D02*
X01592025D01*
X01565097Y01419152D02*
X01565097D01*
X01572797Y01411453D01*
X01575841Y01417930D02*
X01594600D01*
X01571498Y01422273D02*
X01575841Y01417930D01*
X01571498Y01422273D02*
Y01456808D01*
X01573809Y01413586D02*
X01592908D01*
X01567231Y01420165D02*
X01573809Y01413586D01*
X01567231Y01420165D02*
Y01428830D01*
X01574902Y01415796D02*
X01593716D01*
X01569364Y01421333D02*
X01574902Y01415796D01*
X01569364Y01421333D02*
Y01429714D01*
X01539639Y01521867D02*
X01551254Y01510252D01*
Y01505917D02*
Y01510252D01*
Y01505917D02*
X01563878Y01493293D01*
X01520057Y01443998D02*
Y01485358D01*
X01512554Y01492861D02*
X01520057Y01485358D01*
X01481658Y01468172D02*
Y01491320D01*
Y01468172D02*
X01491510Y01458321D01*
X01481145Y01491833D02*
X01481658Y01491320D01*
X01439485Y01517616D02*
X01479079Y01478022D01*
Y01446483D02*
Y01478022D01*
X01472478Y01444032D02*
Y01475571D01*
X01455181Y01492868D02*
X01472478Y01475571D01*
X01474612Y01444915D02*
Y01476454D01*
X01456065Y01495002D02*
X01474612Y01476454D01*
X01476864Y01445681D02*
Y01477220D01*
X01460890Y01551213D02*
X01468701Y01543401D01*
X01485382Y01555496D02*
X01500745Y01540133D01*
X01432825Y01555496D02*
X01485382D01*
X01423162Y01545833D02*
X01432825Y01555496D01*
X01484514Y01553346D02*
X01487445Y01550416D01*
X01433693Y01553346D02*
X01484514D01*
X01429004Y01548658D02*
X01433693Y01553346D01*
X01437133Y01551213D02*
X01460890D01*
X01435166Y01549246D02*
X01437133Y01551213D01*
X01487445Y01550416D02*
X01498611Y01539249D01*
X01468701Y01543401D02*
X01488918Y01523185D01*
X01435166Y01535104D02*
Y01549246D01*
X01412240Y01376172D02*
X01429258Y01393190D01*
X01387009Y01376172D02*
X01412240D01*
X01376825Y01365987D02*
X01387009Y01376172D01*
X01429258Y01393190D02*
X01462217D01*
X01432128Y01390218D02*
X01462171D01*
X01421384Y01379474D02*
X01432128Y01390218D01*
X01421384Y01369794D02*
Y01379474D01*
X01465371Y01387018D02*
X01484200D01*
X01462171Y01390218D02*
X01465371Y01387018D01*
X01467866Y01407471D02*
Y01415288D01*
X01459230Y01423924D02*
X01467866Y01415288D01*
X01459230Y01423924D02*
Y01467434D01*
X01467866Y01407471D02*
X01478394Y01396944D01*
X01746596Y01419260D02*
X01750462Y01415394D01*
Y01349351D02*
Y01415394D01*
X01748790Y01457960D02*
X01751838D01*
X01746596Y01455766D02*
X01748790Y01457960D01*
X01746596Y01419260D02*
Y01455766D01*
X01762760Y01454150D02*
X01769102Y01447808D01*
X01582159Y01469003D02*
X01595872Y01482716D01*
X01461846Y01425880D02*
X01486476Y01401250D01*
X01478394Y01391580D02*
Y01396944D01*
X01486476Y01389295D02*
Y01401250D01*
X01476117Y01389304D02*
X01478394Y01391580D01*
X01484200Y01387018D02*
X01486476Y01389295D01*
X01755391Y01344422D02*
X01756156D01*
X01750462Y01349351D02*
X01755391Y01344422D01*
X01809750Y01362202D02*
X01810338Y01361614D01*
X01809750Y01362202D02*
Y01387856D01*
X01769102Y01394460D02*
Y01447808D01*
X01466850Y01464564D02*
X01467104D01*
X01461846Y01459560D02*
X01466850Y01464564D01*
X01461846Y01425880D02*
Y01459560D01*
X01441215Y01417210D02*
X01465234Y01393190D01*
X01466103Y01389304D02*
X01476117D01*
X01462217Y01393190D02*
X01466103Y01389304D01*
X01453516Y01429511D02*
Y01488982D01*
X01465234Y01393190D02*
X01474507D01*
X01420548Y01370630D02*
X01421384Y01369794D01*
X01324610Y01361694D02*
X01324864Y01361440D01*
X01324610Y01361694D02*
Y01362456D01*
X01317449Y01369617D02*
X01324610Y01362456D01*
X01283598Y01369617D02*
X01317449D01*
X01328725Y01365987D02*
X01376825D01*
X01322507Y01372206D02*
X01328725Y01365987D01*
X01328546Y01369184D02*
X01358748D01*
X01329430Y01371318D02*
X01357865D01*
X01330314Y01373451D02*
X01356981D01*
X01331198Y01375585D02*
X01356097D01*
X01355213Y01377718D02*
X01378782Y01401287D01*
X01332081Y01377718D02*
X01355213D01*
X01166114Y01377605D02*
X01176618D01*
X01164504Y01381491D02*
X01184665D01*
X01160618Y01377605D02*
X01164504Y01381491D01*
X01128308Y01373491D02*
X01177714D01*
X01250188Y01459944D02*
Y01468743D01*
X01247022Y01471909D02*
X01250188Y01468743D01*
X01247022Y01471909D02*
Y01480448D01*
X01250228Y01472247D02*
Y01475215D01*
Y01472247D02*
X01258062Y01464412D01*
X01258228Y01471995D02*
X01266598Y01463625D01*
X01258228Y01471995D02*
Y01477206D01*
X01262114Y01481092D01*
X01258062Y01456412D02*
Y01464412D01*
X01400225Y01397789D02*
Y01462241D01*
X01389968Y01387532D02*
X01400225Y01397789D01*
X01368044Y01387532D02*
X01389968D01*
X01054899Y01370636D02*
X01083870D01*
X01049744Y01375791D02*
X01054899Y01370636D01*
X01083870D02*
X01089914Y01376680D01*
X01053390Y01368044D02*
X01084580D01*
X01090651Y01374115D01*
X01047242Y01374192D02*
X01053390Y01368044D01*
X01052061Y01408754D02*
Y01434530D01*
Y01408754D02*
X01056132Y01404683D01*
X01052061Y01434530D02*
X01065543Y01448012D01*
X01049928Y01407870D02*
Y01435414D01*
X01049744Y01382484D02*
X01056132Y01388872D01*
X01049744Y01375791D02*
Y01382484D01*
X01047242Y01383792D02*
X01053846Y01390396D01*
X01047242Y01374192D02*
Y01383792D01*
X01053846Y01390396D02*
Y01403952D01*
X01049928Y01407870D02*
X01053846Y01403952D01*
X01056132Y01388872D02*
Y01404683D01*
X01089914Y01376680D02*
X01097200D01*
X01247022Y01480448D02*
X01254569Y01487995D01*
X01240358Y01450114D02*
X01250188Y01459944D01*
X01260756Y01453719D02*
X01273487D01*
X01258062Y01456412D02*
X01260756Y01453719D01*
X01241024Y01495019D02*
X01251204D01*
X01239724Y01493719D02*
X01241024Y01495019D01*
X01163834Y01493719D02*
X01239724D01*
X01491510Y01437643D02*
Y01458321D01*
X01652270Y01479680D02*
Y01509439D01*
X01667256Y01524425D01*
Y01530262D01*
X01658230Y01539288D02*
X01667256Y01530262D01*
X01456001Y01534233D02*
Y01543012D01*
X01451356Y01529588D02*
X01456001Y01534233D01*
X01469225Y01529787D02*
X01472493D01*
X01481145Y01521135D01*
Y01491833D02*
Y01521135D01*
X01456001Y01543012D02*
Y01543401D01*
Y01543012D02*
X01469225Y01529787D01*
X01432610Y01532548D02*
X01435166Y01535104D01*
X01288132Y01423606D02*
Y01432240D01*
X01286159Y01421717D02*
X01288048Y01423606D01*
X01294892Y01413141D02*
X01298960Y01417210D01*
X01328938D01*
X01287400Y01432972D02*
X01288132Y01432240D01*
X01337702Y01394798D02*
Y01408446D01*
X01337121Y01394217D02*
X01337702Y01394798D01*
X01333979Y01394217D02*
X01337121D01*
X01290598Y01445523D02*
X01294500Y01441621D01*
Y01436950D02*
Y01441621D01*
Y01436950D02*
X01302391Y01429059D01*
X01386346Y01410516D02*
X01389292Y01407570D01*
X01395699D01*
X01397545Y01409415D01*
X01356097Y01375585D02*
X01368044Y01387532D01*
X01378782Y01401287D02*
Y01428966D01*
X01356981Y01373451D02*
X01368497Y01384967D01*
X01400550D01*
X01369091Y01379527D02*
X01409245D01*
X01368208Y01381661D02*
X01404373D01*
X01357865Y01371318D02*
X01368208Y01381661D01*
X01409245Y01379527D02*
X01439672Y01409954D01*
X01404373Y01381661D02*
X01436298Y01413586D01*
X01358748Y01369184D02*
X01369091Y01379527D01*
X01400550Y01384967D02*
X01432352Y01416768D01*
Y01422738D01*
X01386346Y01410516D02*
Y01429314D01*
X01397545Y01409415D02*
Y01455570D01*
X01384031Y01457832D02*
X01395283D01*
X01397545Y01455570D01*
X01391506Y01470960D02*
X01400225Y01462241D01*
X01385137Y01430522D02*
X01386346Y01429314D01*
X01380338Y01430522D02*
X01385137D01*
X01378782Y01428966D02*
X01380338Y01430522D01*
X01104057Y01407713D02*
X01105949Y01409605D01*
X01104057Y01405496D02*
Y01407713D01*
Y01405496D02*
X01106223Y01403330D01*
X01105949Y01409605D02*
X01134114D01*
X01106223Y01403330D02*
X01117191D01*
X01279879Y01493719D02*
X01282446Y01496285D01*
X01251204Y01495019D02*
X01252504Y01493719D01*
X01279879D01*
X01240358Y01429541D02*
Y01450114D01*
X01178929Y01417752D02*
X01197463D01*
X01173923Y01412746D02*
X01178929Y01417752D01*
X01157384Y01412746D02*
X01173923D01*
X01154058Y01416072D02*
X01157384Y01412746D01*
X01154058Y01416072D02*
Y01443384D01*
X01179390Y01408223D02*
X01181549Y01406064D01*
X01154228Y01408223D02*
X01179390D01*
X01177613Y01405491D02*
X01182456Y01400648D01*
X01156504Y01405491D02*
X01177613D01*
X01153680Y01402667D02*
X01156504Y01405491D01*
X01325651Y01514620D02*
X01329344Y01518314D01*
Y01525194D01*
X01333230Y01529080D01*
X01299365Y01512426D02*
X01327573D01*
X01333230Y01518082D01*
Y01522200D01*
X01091037Y01463130D02*
X01124294D01*
X01086205Y01458298D02*
X01091037Y01463130D01*
X01082319Y01448012D02*
X01086205Y01451898D01*
Y01458298D01*
X01065543Y01448012D02*
X01082319D01*
X01080082Y01452396D02*
X01082319Y01454633D01*
X01066910Y01452396D02*
X01080082D01*
X01049928Y01435414D02*
X01066910Y01452396D01*
X01089190Y01465263D02*
X01123268D01*
X01082319Y01454633D02*
Y01458393D01*
X01089190Y01465263D01*
X01345341Y01550917D02*
X01370993D01*
X01333230Y01529080D02*
Y01538806D01*
X01345341Y01550917D01*
X01348943Y01548638D02*
X01369521D01*
X01333230Y01522200D02*
X01337116Y01526086D01*
Y01536811D01*
X01348943Y01548638D01*
X01297367Y01514620D02*
X01325651D01*
X01488918Y01468384D02*
Y01523185D01*
Y01468384D02*
X01498065Y01459237D01*
Y01446780D02*
Y01459237D01*
Y01446780D02*
X01503291Y01441554D01*
Y01429087D02*
Y01441554D01*
X01534588Y01365737D02*
X01552542D01*
X01526202Y01374124D02*
X01534588Y01365737D01*
X01526202Y01374124D02*
Y01406175D01*
X01503291Y01429087D02*
X01526202Y01406175D01*
X01524069Y01373240D02*
X01535953Y01361356D01*
X01554753D01*
X01564099Y01370702D01*
X01177714Y01373491D02*
X01181601Y01369605D01*
X01182114D01*
X01166177Y01399163D02*
X01176555D01*
X01182114Y01393605D01*
X01090651Y01374115D02*
X01096747D01*
X01097200Y01376680D02*
X01103469Y01370410D01*
X01121424D01*
X01096747Y01374115D02*
X01102665Y01368198D01*
X01164504Y01501491D02*
X01288430D01*
X01156198Y01509719D02*
X01279940D01*
X01134960Y01392622D02*
X01142222Y01399884D01*
X01104456Y01392622D02*
X01134960D01*
X01142222Y01399884D02*
X01154339D01*
X01133121Y01394755D02*
X01141032Y01402667D01*
X01125766Y01394755D02*
X01133121D01*
X01141032Y01402667D02*
X01153680D01*
X01154339Y01399884D02*
X01156504Y01397719D01*
X01161715D02*
X01165645Y01401649D01*
X01156504Y01397719D02*
X01161715D01*
X01142652Y01445491D02*
X01151951D01*
X01135863Y01438703D02*
X01142652Y01445491D01*
X01247847Y01445523D02*
X01290598D01*
X01270114Y01457605D02*
X01279180D01*
X01273487Y01453719D02*
X01277601Y01449605D01*
X01278114D01*
X01285038Y01451747D02*
X01292749D01*
X01279180Y01457605D02*
X01285038Y01451747D01*
X01292749D02*
X01297328Y01456325D01*
X01266000Y01461491D02*
X01288622D01*
X01266598Y01463625D02*
X01289506D01*
X01277961Y01465758D02*
X01290390D01*
X01270114Y01473605D02*
X01277961Y01465758D01*
X01283827Y01467892D02*
X01291274D01*
X01282446Y01469273D02*
X01283827Y01467892D01*
X01278114Y01473605D02*
X01282446Y01469273D01*
X01240358Y01429541D02*
X01251605Y01418294D01*
X01250228Y01475215D02*
X01252732Y01477719D01*
X01130198Y01472193D02*
Y01477177D01*
X01135009Y01481987D01*
X01142151D01*
X01148900Y01488737D01*
X01136780Y01478775D02*
X01147448D01*
X01132332Y01474327D02*
X01136780Y01478775D01*
X01147448D02*
X01148504Y01477719D01*
X01124294Y01463130D02*
X01132332Y01471168D01*
Y01474327D01*
X01148900Y01488737D02*
Y01502421D01*
X01156198Y01509719D01*
X01279940D02*
X01283537Y01506121D01*
X01288868D01*
X01297367Y01514620D01*
X01288430Y01501491D02*
X01299365Y01512426D01*
X01289314Y01499357D02*
X01300066Y01510110D01*
X01290197Y01497224D02*
X01300950Y01507976D01*
X01300066Y01510110D02*
X01313347D01*
X01300950Y01507976D02*
X01312463D01*
X01288738Y01497224D02*
X01290197D01*
X01285518Y01499357D02*
X01289314D01*
X01254569Y01487995D02*
X01279509D01*
X01288738Y01497224D01*
X01282446Y01496285D02*
X01285518Y01499357D01*
X01312463Y01507976D02*
X01321635D01*
X01313347Y01510110D02*
X01313347Y01510110D01*
X01312463Y01507976D02*
X01312463Y01507976D01*
X01313347Y01510110D02*
X01322519D01*
X01340056Y01507961D02*
X01353148Y01521053D01*
X01338682Y01510095D02*
X01345362Y01516775D01*
X01321650Y01507961D02*
X01340056D01*
X01322534Y01510095D02*
X01338682D01*
X01321635Y01507976D02*
X01321650Y01507961D01*
X01322519Y01510110D02*
X01322534Y01510095D01*
X01162228Y01499215D02*
X01164504Y01501491D01*
X01162228Y01496032D02*
Y01499215D01*
X01156708Y01490512D02*
X01162228Y01496032D01*
X01156708Y01480514D02*
Y01490512D01*
X01158934Y01473612D02*
Y01488819D01*
X01163834Y01493719D01*
X01153913Y01477719D02*
X01156708Y01480514D01*
X01154813Y01469491D02*
X01158934Y01473612D01*
X01148504Y01477719D02*
X01153913D01*
X01146067Y01469491D02*
X01154813D01*
X01142114Y01473444D02*
X01146067Y01469491D01*
X01142114Y01473444D02*
Y01473605D01*
X01289329Y01485702D02*
X01298000Y01477030D01*
Y01471376D02*
Y01477030D01*
Y01471376D02*
X01300249Y01469127D01*
X01326251D01*
X01260715Y01485702D02*
X01289329D01*
X01346767Y01529372D02*
X01352796D01*
X01345362Y01516775D02*
Y01527966D01*
X01346767Y01529372D01*
X01289853Y01463278D02*
X01293392D01*
X01296078Y01460592D01*
X01329786D01*
X01297598Y01462726D02*
X01328903D01*
X01298482Y01464859D02*
X01328019D01*
X01299366Y01466993D02*
X01327135D01*
X01294913Y01465411D02*
X01297598Y01462726D01*
X01290737Y01465411D02*
X01294913D01*
X01295796Y01467545D02*
X01298482Y01464859D01*
X01291621Y01467545D02*
X01295796D01*
X01296680Y01469678D02*
X01299366Y01466993D01*
X01292504Y01469678D02*
X01296680D01*
X01292509Y01461144D02*
X01295194Y01458459D01*
X01288969Y01461144D02*
X01292509D01*
X01288622Y01461491D02*
X01288969Y01461144D01*
X01290390Y01465758D02*
X01290737Y01465411D01*
X01289506Y01463625D02*
X01289853Y01463278D01*
X01328019Y01464859D02*
X01345329Y01482170D01*
X01290000Y01472183D02*
X01292504Y01469678D01*
X01329786Y01460592D02*
X01349596Y01480402D01*
X01327135Y01466993D02*
X01343195Y01483053D01*
X01291274Y01467892D02*
X01291621Y01467545D01*
X01341062Y01483937D02*
Y01500886D01*
X01343195Y01483053D02*
Y01500002D01*
X01345329Y01482170D02*
Y01499013D01*
X01343195Y01500002D02*
X01359756Y01516563D01*
X01345329Y01499013D02*
X01362456Y01516140D01*
X01326251Y01469127D02*
X01341062Y01483937D01*
X01327692Y01432911D02*
Y01449512D01*
X01262114Y01481092D02*
Y01481605D01*
X01295194Y01458459D02*
X01330670D01*
X01297328Y01456325D02*
X01331554D01*
X01331964Y01453717D02*
X01334688Y01456442D01*
X01331898Y01453717D02*
X01331964D01*
X01327692Y01449512D02*
X01331898Y01453717D01*
X01334688Y01456442D02*
X01374933D01*
X01334115Y01458887D02*
X01373993D01*
X01331554Y01456325D02*
X01334115Y01458887D01*
X01333286Y01461074D02*
X01373163D01*
X01330670Y01458459D02*
X01333286Y01461074D01*
X01268223Y01479714D02*
X01285481D01*
X01290000Y01472183D02*
Y01475195D01*
X01285481Y01479714D02*
X01290000Y01475195D01*
X01262114Y01473605D02*
X01268223Y01479714D01*
X01373993Y01458887D02*
X01384605Y01469499D01*
X01373163Y01461074D02*
X01382471Y01470383D01*
X01262114Y01457605D02*
X01266000Y01461491D01*
X01359309Y01454233D02*
X01381489D01*
X01349915Y01444840D02*
X01359309Y01454233D01*
X01374933Y01456442D02*
X01382092Y01463602D01*
X01244366Y01433981D02*
Y01442042D01*
X01323840Y01429059D02*
X01327692Y01432911D01*
X01302391Y01429059D02*
X01323840D01*
X01287808Y01435581D02*
X01302618Y01420771D01*
X01276138Y01435581D02*
X01287808D01*
X01302618Y01420771D02*
X01329336D01*
X01341062Y01500886D02*
X01357034Y01516858D01*
X01258114Y01483101D02*
X01260715Y01485702D01*
X01258114Y01480109D02*
Y01483101D01*
X01255724Y01477719D02*
X01258114Y01480109D01*
X01252732Y01477719D02*
X01255724D01*
X01123268Y01465263D02*
X01130198Y01472193D01*
X01197463Y01417752D02*
X01202000Y01413214D01*
X01328938Y01417210D02*
X01337702Y01408446D01*
X01296933Y01385008D02*
X01327809D01*
X01285748Y01396194D02*
X01296933Y01385008D01*
X01279496Y01405719D02*
X01283716Y01401499D01*
Y01399657D02*
Y01401499D01*
X01281862Y01397803D02*
X01283716Y01399657D01*
X01281862Y01392712D02*
Y01397803D01*
Y01392712D02*
X01291699Y01382875D01*
X01278228Y01392553D02*
Y01401491D01*
Y01392553D02*
X01290040Y01380741D01*
X01341225Y01386581D02*
Y01408882D01*
X01329336Y01420771D02*
X01341225Y01408882D01*
X01359756Y01516563D02*
Y01527420D01*
X01362456Y01516140D02*
Y01523513D01*
X01633142Y01387974D02*
X01649848D01*
X01661719Y01399845D02*
X01673259D01*
X01649848Y01387974D02*
X01661719Y01399845D01*
X01651200Y01385119D02*
X01658892Y01392811D01*
X01662594D01*
X01662778Y01392995D01*
X01633304Y01385119D02*
X01651200D01*
X01656447Y01387348D02*
X01661668D01*
X01643288Y01374189D02*
X01656447Y01387348D01*
X01646185Y01401978D02*
X01674142D01*
X01629636Y01404911D02*
X01642458Y01392089D01*
X01652270Y01479680D02*
X01657190Y01474760D01*
X01649486Y01517844D02*
X01658230Y01526588D01*
X01649486Y01474839D02*
Y01517844D01*
X01590388Y01429454D02*
X01605279D01*
X01625361Y01405620D02*
Y01485103D01*
X01619662Y01399921D02*
X01625361Y01405620D01*
X01627502Y01397849D02*
Y01503174D01*
Y01397849D02*
X01632552Y01392800D01*
X01629636Y01404911D02*
Y01501644D01*
X01534628Y01406802D02*
X01572196D01*
X01583394Y01395604D01*
X01583521Y01409319D02*
X01589372Y01403468D01*
X01607430Y01500017D02*
Y01526588D01*
Y01500017D02*
X01623228Y01484220D01*
X01620130Y01490334D02*
X01625361Y01485103D01*
X01623228Y01413001D02*
Y01484220D01*
X01620130Y01490334D02*
Y01526588D01*
X01429004Y01537716D02*
Y01548658D01*
X01423162Y01538986D02*
Y01545833D01*
X01366098Y01531329D02*
X01367170D01*
X01365681Y01526737D02*
X01375584D01*
X01362456Y01523513D02*
X01365681Y01526737D01*
X01364731Y01541307D02*
X01368697D01*
X01352796Y01529372D02*
X01364731Y01541307D01*
X01437380Y01517616D02*
X01439485D01*
X01437334Y01517661D02*
X01437380Y01517616D01*
X01371985Y01517661D02*
X01437334D01*
X01438987Y01515097D02*
X01476864Y01477220D01*
X01368827Y01515097D02*
X01438987D01*
X01451961Y01492868D02*
X01455181D01*
X01451078Y01495002D02*
X01456065D01*
X01441648Y01482554D02*
X01451961Y01492868D01*
X01357034Y01516858D02*
Y01524646D01*
X01355870Y01525810D02*
X01357034Y01524646D01*
X01355870Y01525810D02*
Y01529428D01*
X01357747Y01531306D01*
X01540488Y01462954D02*
Y01466174D01*
X01540491Y01466177D02*
Y01475283D01*
X01540488Y01466174D02*
X01540491Y01466177D01*
X01540488Y01462954D02*
X01540491Y01462951D01*
Y01458587D02*
Y01462951D01*
X01538358Y01457703D02*
Y01462067D01*
X01538354Y01462071D02*
X01538358Y01462067D01*
X01538354Y01462071D02*
Y01467057D01*
X01538358Y01467061D02*
Y01476167D01*
X01538354Y01467057D02*
X01538358Y01467061D01*
X01536224Y01467944D02*
Y01484383D01*
X01536221Y01467941D02*
X01536224Y01467944D01*
X01536221Y01461187D02*
Y01467941D01*
X01536224Y01448025D02*
Y01461184D01*
Y01448025D02*
X01565097Y01419152D01*
X01536221Y01461187D02*
X01536224Y01461184D01*
X01534087Y01460303D02*
X01534090Y01460300D01*
Y01447142D02*
Y01460300D01*
X01538358Y01457703D02*
X01567231Y01428830D01*
X01540491Y01458587D02*
X01569364Y01429714D01*
X01534087Y01460303D02*
Y01468825D01*
X01531254Y01439687D02*
Y01480195D01*
X01534090Y01468828D02*
Y01482763D01*
X01534087Y01468825D02*
X01534090Y01468828D01*
X01540491Y01475283D02*
X01548351Y01483143D01*
Y01505803D01*
X01563878Y01464428D02*
X01571498Y01456808D01*
X01563878Y01464428D02*
Y01493293D01*
X01592025Y01411453D02*
X01604288Y01399189D01*
X01612486Y01390006D02*
Y01400043D01*
X01608600Y01388396D02*
Y01400912D01*
X01606422Y01385782D02*
Y01400073D01*
X01592908Y01413586D02*
X01606422Y01400073D01*
X01593716Y01415796D02*
X01608600Y01400912D01*
X01594600Y01417930D02*
X01612486Y01400043D01*
X01604288Y01384899D02*
Y01399189D01*
X01512476Y01428953D02*
X01534628Y01406802D01*
X01534090Y01447142D02*
X01571913Y01409319D01*
X01544834Y01482643D02*
Y01491107D01*
X01538358Y01476167D02*
X01544834Y01482643D01*
X01539334Y01514819D02*
X01548351Y01505803D01*
X01537849Y01498092D02*
X01544834Y01491107D01*
X01502504Y01492834D02*
X01507763Y01498092D01*
X01537849D01*
X01604288Y01384899D02*
X01614998Y01374189D01*
X01536224Y01484383D02*
X01540947Y01489106D01*
X01531874Y01484979D02*
X01534090Y01482763D01*
X01527988Y01483370D02*
X01530264Y01481093D01*
X01530356D01*
X01531254Y01480195D01*
X01527988Y01483370D02*
Y01483462D01*
X01518252Y01493197D02*
X01527988Y01483462D01*
X01472478Y01444032D02*
X01515534Y01400976D01*
X01474612Y01444915D02*
X01517668Y01401859D01*
X01476864Y01445681D02*
X01519801Y01402743D01*
X01479079Y01446483D02*
X01521935Y01403627D01*
X01491510Y01437643D02*
X01524069Y01405084D01*
X01505424Y01429970D02*
X01532476Y01402918D01*
X01505424Y01429970D02*
Y01461550D01*
X01510343Y01428069D02*
Y01443336D01*
X01441055Y01484979D02*
X01451078Y01495002D01*
X01491051Y01475923D02*
X01505424Y01461550D01*
X01491051Y01475923D02*
Y01501234D01*
X01493185Y01476962D02*
X01513656Y01456491D01*
X01493185Y01476962D02*
Y01497639D01*
X01495318Y01478149D02*
X01515789Y01457678D01*
X01495318Y01478149D02*
Y01496439D01*
X01497452Y01479599D02*
X01517923Y01459128D01*
X01497452Y01479599D02*
Y01495555D01*
X01513656Y01446649D02*
Y01456491D01*
X01378978Y01539180D02*
X01385750D01*
X01369521Y01548638D02*
X01378978Y01539180D01*
X01380596Y01541313D02*
X01386634D01*
X01370993Y01550917D02*
X01380596Y01541313D01*
X01638389Y01409775D02*
X01646185Y01401978D01*
X01674142D02*
X01685140Y01390981D01*
X01673259Y01399845D02*
X01678372Y01394731D01*
X01614620Y01438794D02*
Y01473512D01*
X01627502Y01503174D02*
X01632830Y01508501D01*
X01629636Y01501644D02*
X01635600Y01507608D01*
X01632552Y01392800D02*
X01633060D01*
X01606042Y01482090D02*
X01614620Y01473512D01*
X01616908Y01406682D02*
X01623228Y01413001D01*
X01605279Y01429454D02*
X01614620Y01438794D01*
X01638389Y01409775D02*
Y01508479D01*
X01432352Y01422738D02*
X01438990Y01429376D01*
X01685140Y01390000D02*
Y01390981D01*
X01668874Y01385809D02*
X01673789D01*
X01678372Y01390393D01*
Y01394731D01*
X01272158Y01432972D02*
X01287400D01*
X01135863Y01430354D02*
Y01438703D01*
X01151951Y01445491D02*
X01154058Y01443384D01*
X01135863Y01430354D02*
X01146228Y01419989D01*
X01099119Y01397958D02*
Y01407493D01*
X01094348Y01412264D02*
X01099119Y01407493D01*
X01090317Y01412264D02*
X01094348D01*
X01088141Y01410088D02*
X01090317Y01412264D01*
X01088141Y01397449D02*
Y01410088D01*
X01099119Y01397958D02*
X01104456Y01392622D01*
X01202000Y01389719D02*
Y01413214D01*
X01146228Y01413491D02*
Y01419989D01*
X01430149Y01490789D02*
X01436588Y01497228D01*
X01385079Y01490789D02*
X01430149D01*
X01365931Y01512201D02*
X01368827Y01515097D01*
X01367114Y01522532D02*
X01371985Y01517661D01*
X01357747Y01531306D02*
X01366075D01*
X01383904Y01484979D02*
X01441055D01*
X01383901Y01484983D02*
X01383904Y01484979D01*
X01391570Y01482554D02*
X01441648D01*
X01380338Y01471322D02*
X01391570Y01482554D01*
X01392454Y01480421D02*
X01430332D01*
X01382471Y01470438D02*
X01392454Y01480421D01*
X01430332D02*
X01436415Y01474338D01*
X01443660D02*
X01449204Y01468793D01*
X01436415Y01474338D02*
X01443660D01*
X01418308Y01474846D02*
X01444856Y01448298D01*
X01389897Y01474846D02*
X01418308D01*
X01384605Y01469555D02*
X01389897Y01474846D01*
X01384605Y01469499D02*
Y01469555D01*
X01380338Y01471266D02*
Y01471322D01*
X01376208Y01467136D02*
X01380338Y01471266D01*
X01372036Y01467136D02*
X01376208D01*
X01382471Y01470383D02*
Y01470438D01*
X01517668Y01370589D02*
Y01401859D01*
X01519801Y01371472D02*
Y01402743D01*
X01515534Y01369705D02*
Y01400976D01*
X01151724Y01405719D02*
X01154228Y01408223D01*
X01146228Y01413491D02*
X01150114Y01409605D01*
X01165645Y01401649D02*
X01177685D01*
X01162228Y01395215D02*
X01166177Y01399163D01*
X01162228Y01391429D02*
Y01395215D01*
X01155914Y01385115D02*
X01162228Y01391429D01*
X01147120Y01385115D02*
X01155914D01*
X01156955Y01382258D02*
X01164381Y01389684D01*
X01147280Y01382258D02*
X01156955D01*
X01143496Y01381491D02*
X01147120Y01385115D01*
X01164381Y01389684D02*
X01183531D01*
X01142627Y01377605D02*
X01147280Y01382258D01*
X01177685Y01401649D02*
X01181077Y01398257D01*
X01212504Y01389491D02*
X01217714D01*
X01210228Y01387215D02*
X01212504Y01389491D01*
X01210228Y01384223D02*
Y01387215D01*
X01207496Y01381491D02*
X01210228Y01384223D01*
X01188732Y01381491D02*
X01207496D01*
X01186228Y01383995D02*
X01188732Y01381491D01*
X01186228Y01383995D02*
Y01384015D01*
X01186000Y01384243D02*
X01186228Y01384015D01*
X01186000Y01384243D02*
Y01387215D01*
X01183531Y01389684D02*
X01186000Y01387215D01*
X01211879Y01381491D02*
X01275085D01*
X01207199Y01376811D02*
X01211879Y01381491D01*
X01140504Y01405719D02*
X01151724D01*
X01184665Y01381491D02*
X01189345Y01376811D01*
X01150114Y01377605D02*
X01160618D01*
X01142114D02*
X01142627D01*
X01132504Y01381491D02*
X01143496D01*
X01233480Y01397491D02*
X01265120D01*
X01225708Y01389719D02*
X01233480Y01397491D01*
X01228732Y01389719D02*
X01269875D01*
X01226598Y01387585D02*
X01228732Y01389719D01*
X01219621Y01387585D02*
X01226598D01*
X01220504Y01389719D02*
X01225708D01*
X01269875D02*
X01285253Y01374340D01*
X01615118Y01381878D02*
X01627046D01*
X01608600Y01388396D02*
X01615118Y01381878D01*
X01582159Y01433738D02*
Y01469003D01*
X01491051Y01501234D02*
X01493360Y01503544D01*
X01524069Y01373240D02*
Y01405084D01*
X01532476Y01377306D02*
Y01402918D01*
X01123014Y01368198D02*
X01128308Y01373491D01*
X01102665Y01368198D02*
X01123014D01*
X01270114Y01430928D02*
X01272158Y01432972D01*
X01270114Y01425605D02*
Y01430928D01*
X01244366Y01428550D02*
Y01431276D01*
Y01433981D01*
Y01428550D02*
X01251306Y01421610D01*
X01258119D02*
X01262114Y01425605D01*
X01251306Y01421610D02*
X01258119D01*
X01244366Y01442042D02*
X01247847Y01445523D01*
X01382092Y01463602D02*
X01391447D01*
X01326925Y01382875D02*
X01332081Y01377718D01*
X01291699Y01382875D02*
X01326925D01*
X01274513Y01405719D02*
X01279496D01*
X01270513Y01409719D02*
X01274513Y01405719D01*
X01381489Y01454233D02*
X01383994Y01451728D01*
X01349915Y01441687D02*
Y01444840D01*
Y01388031D02*
Y01413171D01*
Y01420948D01*
X01350817Y01421850D01*
X01358976D01*
X01359878Y01422751D01*
Y01424555D01*
X01358976Y01425456D02*
X01359878Y01424555D01*
X01349915Y01425456D02*
X01358976D01*
X01337277D02*
X01349915D01*
X01336375Y01426358D02*
X01337277Y01425456D01*
X01336375Y01426358D02*
Y01428161D01*
X01337277Y01429063D01*
X01349915D01*
X01358937D01*
X01359839Y01429965D01*
Y01431768D01*
X01358937Y01432670D02*
X01359839Y01431768D01*
X01349915Y01432670D02*
X01358937D01*
X01339716D02*
X01349915D01*
X01338814Y01433572D02*
X01339716Y01432670D01*
X01338814Y01433572D02*
Y01435375D01*
X01339716Y01436277D01*
X01349915D01*
X01358976D01*
X01359878Y01437178D01*
Y01438982D01*
X01358976Y01439884D02*
X01359878Y01438982D01*
X01350817Y01439884D02*
X01358976D01*
X01349915Y01440785D02*
X01350817Y01439884D01*
X01349915Y01440785D02*
Y01441687D01*
X01343095Y01381211D02*
X01349915Y01388031D01*
X01331606Y01381211D02*
X01343095D01*
X01327809Y01385008D02*
X01331606Y01381211D01*
X01251605Y01418294D02*
X01253425D01*
X01262114Y01409605D01*
X01117191Y01403330D02*
X01125766Y01394755D01*
X01138000Y01408223D02*
X01140504Y01405719D01*
X01138000Y01408223D02*
Y01413034D01*
X01130263Y01420771D02*
X01138000Y01413034D01*
X01081892Y01420771D02*
X01130263D01*
X01375584Y01526737D02*
X01384140Y01535294D01*
X01517923Y01444882D02*
Y01459128D01*
X01514610Y01441569D02*
X01517923Y01444882D01*
X01515789Y01445766D02*
Y01457678D01*
X01512476Y01442453D02*
X01515789Y01445766D01*
X01510343Y01443336D02*
X01513656Y01446649D01*
X01217714Y01389491D02*
X01219621Y01387585D01*
X01218598Y01391625D02*
X01220504Y01389719D01*
X01189345Y01376811D02*
X01207199D01*
X01217043Y01391625D02*
X01218598D01*
X01215062Y01393605D02*
X01217043Y01391625D01*
X01214114Y01393605D02*
X01215062D01*
X01121424Y01370410D02*
X01132504Y01381491D01*
X01186168Y01406064D02*
X01196134Y01396098D01*
X01181549Y01406064D02*
X01186168D01*
X01196134Y01395585D02*
Y01396098D01*
Y01395585D02*
X01198114Y01393605D01*
X01194049Y01389540D02*
Y01394397D01*
X01194000Y01394446D02*
X01194049Y01394397D01*
X01194000Y01394446D02*
Y01395215D01*
X01190114Y01385605D02*
X01194049Y01389540D01*
X01500745Y01501866D02*
Y01540133D01*
X01498611Y01503065D02*
Y01539249D01*
X01516743Y01430721D02*
X01534090Y01413374D01*
X01514610Y01429837D02*
X01535511Y01408935D01*
X01510343Y01428069D02*
X01537237Y01401174D01*
X01512476Y01428953D02*
Y01442453D01*
X01514610Y01429837D02*
Y01441569D01*
X01516743Y01430721D02*
Y01440685D01*
X01520057Y01443998D01*
X01535511Y01408935D02*
X01553430D01*
X01534090Y01413374D02*
X01543548D01*
X01537237Y01401174D02*
X01559654D01*
X01521935Y01372356D02*
Y01403627D01*
X01533408Y01351831D02*
X01570119D01*
X01533962Y01354294D02*
X01564837D01*
X01534515Y01356758D02*
X01560047D01*
X01535069Y01359222D02*
X01558349D01*
X01515534Y01369705D02*
X01533408Y01351831D01*
X01517668Y01370589D02*
X01533962Y01354294D01*
X01519801Y01371472D02*
X01534515Y01356758D01*
X01521935Y01372356D02*
X01535069Y01359222D01*
X01560047Y01356758D02*
X01574673Y01371383D01*
X01564837Y01354294D02*
X01572100Y01361558D01*
X01558349Y01359222D02*
X01584349Y01385223D01*
X01495318Y01496439D02*
X01500745Y01501866D01*
X01493185Y01497639D02*
X01498611Y01503065D01*
X01497452Y01495555D02*
X01502879Y01500982D01*
X01528167Y01436600D02*
X01531254Y01439687D01*
X01366075Y01531306D02*
X01366098Y01531329D01*
X01188567Y01400648D02*
X01194000Y01395215D01*
X01182456Y01400648D02*
X01188567D01*
X01181077Y01398257D02*
X01185462D01*
X01190114Y01393605D01*
X01202000Y01389719D02*
X01206114Y01385605D01*
X01204559Y01373491D02*
X01279724D01*
X01204532Y01373464D02*
X01204559Y01373491D01*
X01191751Y01373464D02*
X01204532D01*
X01180732Y01373491D02*
X01191724D01*
X01279724D02*
X01283598Y01369617D01*
X01191724Y01373491D02*
X01191751Y01373464D01*
X01324274Y01376474D02*
X01329430Y01371318D01*
X01286137Y01376474D02*
X01324274D01*
X01325158Y01378607D02*
X01330314Y01373451D01*
X01326041Y01380741D02*
X01331198Y01375585D01*
X01606422Y01385782D02*
X01612918Y01379287D01*
X01614998Y01374189D02*
X01643288D01*
X01612918Y01379287D02*
X01627472D01*
X01633304Y01385119D01*
X01627046Y01381878D02*
X01633142Y01387974D01*
X01441215Y01417210D02*
X01453516Y01429511D01*
X01176618Y01377605D02*
X01180732Y01373491D01*
X01275085Y01381491D02*
X01284370Y01372206D01*
X01290040Y01380741D02*
X01326041D01*
X01287759Y01378607D02*
X01325158D01*
X01285253Y01374340D02*
X01323390D01*
X01284370Y01372206D02*
X01322507D01*
X01323390Y01374340D02*
X01328546Y01369184D01*
X01274342Y01392024D02*
X01287759Y01378607D01*
X01265120Y01397491D02*
X01286137Y01376474D01*
X01274342Y01392024D02*
Y01402873D01*
X01339741Y01385097D02*
X01341225Y01386581D01*
X01333766Y01385097D02*
X01339741D01*
X01271496Y01405719D02*
X01274342Y01402873D01*
X01234228Y01405719D02*
X01271496D01*
X01270228Y01409719D02*
X01270513D01*
X01222114Y01393605D02*
X01234228Y01405719D01*
X01270114Y01441605D02*
X01276138Y01435581D01*
X01436298Y01413586D02*
X01437591D01*
X01441215Y01417210D01*
X01444856Y01429270D02*
Y01448298D01*
X01438557Y01422971D02*
X01444856Y01429270D01*
X01502879Y01500982D02*
Y01544442D01*
X01553430Y01408935D02*
X01559908Y01415413D01*
X01595872Y01482716D02*
X01600448D01*
X01584349Y01385223D02*
Y01386427D01*
X01574673Y01371383D02*
X01589626D01*
X01604806Y01356203D01*
X01577606Y01429185D02*
X01582159Y01433738D01*
X01570181Y01351893D02*
X01606225D01*
X01570119Y01351831D02*
X01570181Y01351893D01*
X01606225D02*
X01609692Y01355360D01*
Y01368148D01*
X01638389Y01508479D02*
X01645258Y01515349D01*
X01632830Y01508501D02*
Y01526588D01*
X01635600Y01516658D02*
X01645530Y01526588D01*
X01635600Y01507608D02*
Y01516658D01*
X01592030Y01385809D02*
X01609692Y01368148D01*
X01616908Y01406262D02*
Y01406682D01*
G54D158*
X00952015Y01508134D02*
D03*
G54D159*
X01809928Y01420191D02*
D03*
Y01470191D02*
D03*
X00981622Y01422490D02*
D03*
Y01472490D02*
D03*
G54D160*
X01836928Y01480192D02*
D03*
Y01410191D02*
D03*
X00954622Y01482490D02*
D03*
Y01412490D02*
D03*
G54D161*
X01449481Y01353383D02*
D03*
X01676643Y01353386D02*
D03*
G54D162*
X00981428Y01523681D02*
D03*
X00994128D02*
D03*
X01006828D02*
D03*
X01148108D02*
D03*
X01135408D02*
D03*
X01122708D02*
D03*
X01248438D02*
D03*
X01261138D02*
D03*
X01273838D02*
D03*
X01379248Y01562691D02*
D03*
X01366548D02*
D03*
X01353848D02*
D03*
X01731800Y01562641D02*
D03*
X01744500D02*
D03*
X01757200D02*
D03*
Y01324535D02*
D03*
X01744500D02*
D03*
X01731800D02*
D03*
X01353848Y01324486D02*
D03*
X01366548D02*
D03*
X01379248D02*
D03*
X01273838Y01359526D02*
D03*
X01261138D02*
D03*
X01248438D02*
D03*
X01122708D02*
D03*
X01135408D02*
D03*
X01148108D02*
D03*
X01006828D02*
D03*
X00994128D02*
D03*
X00981428D02*
D03*
X01568478Y01324436D02*
D03*
X01555778D02*
D03*
X01543078D02*
D03*
G54D163*
X00965601Y01606670D02*
D03*
X01826845D02*
D03*
X00965601Y01280507D02*
D03*
X01826845D02*
D03*
G54D164*
X01238114Y01369605D02*
D03*
X01775079Y01345819D02*
D03*
X01767967Y01345565D02*
D03*
X01330401Y01344524D02*
D03*
X01333271Y01339952D02*
D03*
X01674486Y01393121D02*
D03*
X01690814Y01384093D02*
D03*
X01278622Y01426875D02*
D03*
X01279500Y01420597D02*
D03*
X01254114Y01441605D02*
D03*
X01270114Y01449605D02*
D03*
X01254114Y01409605D02*
D03*
X01278368D02*
D03*
X01254114Y01425605D02*
D03*
X01246114Y01505605D02*
D03*
X01456784Y01408167D02*
D03*
X01449204Y01468793D02*
D03*
X01576926Y01451631D02*
D03*
X01810338Y01361614D02*
D03*
X01820418Y01348740D02*
D03*
X01799336Y01341882D02*
D03*
X01811680Y01334745D02*
D03*
X01001938Y01489066D02*
D03*
X01737868Y01351788D02*
D03*
X01732219Y01377238D02*
D03*
X01721846Y01376409D02*
D03*
X01732755Y01358368D02*
D03*
X01721712D02*
D03*
X01727548Y01367654D02*
D03*
X01814322Y01552702D02*
D03*
X01805289Y01537993D02*
D03*
X01808719Y01534358D02*
D03*
X01840404Y01509522D02*
D03*
Y01552448D02*
D03*
X01809496Y01528826D02*
D03*
X01802166Y01534358D02*
D03*
X01798735Y01537994D02*
D03*
X01765968Y01537995D02*
D03*
X01772522Y01537995D02*
D03*
X01769398Y01534360D02*
D03*
X01779075Y01537994D02*
D03*
X01775952Y01534359D02*
D03*
X01785628Y01537994D02*
D03*
X01782505Y01534359D02*
D03*
X01792182Y01537994D02*
D03*
X01789059Y01534359D02*
D03*
X01795612Y01534359D02*
D03*
X01809302Y01552914D02*
D03*
X01802749Y01552914D02*
D03*
X01796195Y01552914D02*
D03*
X01789642Y01552913D02*
D03*
X01783088Y01552913D02*
D03*
X01776535Y01552913D02*
D03*
X01768342Y01528944D02*
D03*
X01756504Y01489616D02*
D03*
X01440218Y01444728D02*
D03*
X01262114Y01377605D02*
D03*
X01440244Y01437263D02*
D03*
X01262114Y01369605D02*
D03*
X01754124Y01483360D02*
D03*
X01595120Y01467293D02*
D03*
X01590134Y01482474D02*
D03*
X01795272Y01459230D02*
D03*
X01482590Y01390905D02*
D03*
X01796542Y01405382D02*
D03*
X01788668Y01406398D02*
D03*
X01744980Y01383792D02*
D03*
X01756156Y01344422D02*
D03*
X01754348Y01350961D02*
D03*
X01809750Y01387856D02*
D03*
X01720183Y01472851D02*
D03*
X01433576Y01503680D02*
D03*
X01741170Y01478788D02*
D03*
X01751838Y01457960D02*
D03*
X01769110Y01463294D02*
D03*
X01751584Y01452372D02*
D03*
X01726692Y01474470D02*
D03*
X01466850Y01464564D02*
D03*
X01459230Y01467434D02*
D03*
X01459484Y01384554D02*
D03*
X01474507Y01393190D02*
D03*
X01421384Y01369794D02*
D03*
X01450340Y01386332D02*
D03*
X01401403Y01355228D02*
D03*
X01394094Y01364610D02*
D03*
X01324864Y01361440D02*
D03*
X01166114Y01377605D02*
D03*
X01767840Y01470406D02*
D03*
X01768348Y01498092D02*
D03*
X01726854Y01490218D02*
D03*
X01726692Y01484376D02*
D03*
X01741546Y01510152D02*
D03*
X01736598Y01504188D02*
D03*
X01739646Y01495552D02*
D03*
X01756466Y01522928D02*
D03*
X01767911Y01517467D02*
D03*
X01752293Y01513131D02*
D03*
X01758188Y01431798D02*
D03*
Y01426348D02*
D03*
X01758033Y01420368D02*
D03*
X01769102Y01394460D02*
D03*
X01779262Y01395730D02*
D03*
X01805932D02*
D03*
X01389212Y01392352D02*
D03*
X01390049Y01401450D02*
D03*
X01373764Y01334596D02*
D03*
X01331417Y01335405D02*
D03*
X01232396Y01476186D02*
D03*
X01043648Y01402066D02*
D03*
X01235180Y01472402D02*
D03*
X01228322Y01484712D02*
D03*
X01243888Y01469798D02*
D03*
X01238094Y01468843D02*
D03*
X01236061Y01479420D02*
D03*
X01241092Y01465269D02*
D03*
X01233662Y01483826D02*
D03*
X01230083Y01480208D02*
D03*
X01390039Y01396864D02*
D03*
X01070885Y01386881D02*
D03*
X01074722Y01382285D02*
D03*
X01069558Y01382119D02*
D03*
X01064530Y01379095D02*
D03*
X01062531Y01374695D02*
D03*
X01056508Y01374523D02*
D03*
X01059294Y01378971D02*
D03*
X01053631Y01378794D02*
D03*
X01069149Y01377254D02*
D03*
X01073356Y01391101D02*
D03*
X01076397Y01387024D02*
D03*
X01337575Y01335542D02*
D03*
X01328621Y01339989D02*
D03*
X01369076Y01334005D02*
D03*
X01367648Y01338447D02*
D03*
X01377834Y01336950D02*
D03*
X01372367Y01338957D02*
D03*
X01068291Y01477010D02*
D03*
X01062203Y01475238D02*
D03*
Y01480190D02*
D03*
X01045901Y01486293D02*
D03*
X01441958Y01503507D02*
D03*
X01670558Y01543050D02*
D03*
X01673255Y01538151D02*
D03*
X01675102Y01545122D02*
D03*
X01443990Y01385570D02*
D03*
X01327747Y01392136D02*
D03*
X01333979Y01394217D02*
D03*
X01298397Y01440180D02*
D03*
X01700434Y01537997D02*
D03*
X01703864Y01534362D02*
D03*
X01332973Y01551659D02*
D03*
X01174114Y01497605D02*
D03*
X01699232Y01378180D02*
D03*
X01698338Y01446394D02*
D03*
X01447953Y01451457D02*
D03*
X01254114Y01377605D02*
D03*
X01447953Y01458823D02*
D03*
X01254114Y01385605D02*
D03*
X01439603Y01461903D02*
D03*
X01246114Y01385605D02*
D03*
X01440599Y01469227D02*
D03*
X01246114Y01377605D02*
D03*
X01054152Y01513332D02*
D03*
X01214114Y01505605D02*
D03*
X00972636Y01510563D02*
D03*
X01246114Y01513605D02*
D03*
X00965602Y01500975D02*
D03*
X01218814Y01440335D02*
D03*
X01206114Y01450495D02*
D03*
Y01431445D02*
D03*
Y01440335D02*
D03*
Y01422555D02*
D03*
Y01460655D02*
D03*
X01159088Y01417117D02*
D03*
X01162849Y01466929D02*
D03*
X01167458Y01466281D02*
D03*
X01003022Y01449157D02*
D03*
X01080635Y01493064D02*
D03*
X01076283Y01466295D02*
D03*
X01100202Y01506474D02*
D03*
X01015472Y01503157D02*
D03*
X01446224Y01478583D02*
D03*
X01438604D02*
D03*
X01230114Y01377605D02*
D03*
X01238114Y01377605D02*
D03*
X01103724Y01489303D02*
D03*
X01142114Y01449605D02*
D03*
X01278114D02*
D03*
X01286114Y01441605D02*
D03*
X01230114Y01513605D02*
D03*
X01200119Y01481451D02*
D03*
X01214114Y01513605D02*
D03*
X01198114Y01513605D02*
D03*
X01174114Y01513605D02*
D03*
X01278114Y01513605D02*
D03*
X01222114Y01505605D02*
D03*
X01238114Y01513605D02*
D03*
X01214114Y01497605D02*
D03*
X01198114Y01505605D02*
D03*
X01174114D02*
D03*
X01198114Y01497605D02*
D03*
X01182114Y01513605D02*
D03*
X01190114Y01513605D02*
D03*
X01206114D02*
D03*
X01089318Y01514145D02*
D03*
X01093862Y01505802D02*
D03*
X01081846Y01476503D02*
D03*
X01112237Y01514603D02*
D03*
X01127792Y01514588D02*
D03*
X01122568Y01509414D02*
D03*
X00970355Y01447034D02*
D03*
Y01441446D02*
D03*
X01147095Y01514778D02*
D03*
X01141507D02*
D03*
X01246622Y01489605D02*
D03*
X01262114Y01513605D02*
D03*
X01158114Y01449605D02*
D03*
X01180714Y01450495D02*
D03*
Y01440335D02*
D03*
X01158114Y01497605D02*
D03*
X01150114Y01473605D02*
D03*
X01158114Y01433605D02*
D03*
X01166177Y01426814D02*
D03*
X01285748Y01396194D02*
D03*
X01306193Y01413054D02*
D03*
X01310851Y01413054D02*
D03*
X01315439Y01413054D02*
D03*
X01320023Y01413067D02*
D03*
X01298262Y01395884D02*
D03*
X01298262Y01400471D02*
D03*
X01298248Y01405056D02*
D03*
X01320037Y01474123D02*
D03*
X01315379Y01474123D02*
D03*
X01310791Y01474123D02*
D03*
X01306207Y01474109D02*
D03*
X01084130Y01377956D02*
D03*
X01016254Y01416050D02*
D03*
X01069688Y01417485D02*
D03*
X01720088Y01518666D02*
D03*
X01706880Y01518286D02*
D03*
X01664486Y01513840D02*
D03*
X01665200Y01552194D02*
D03*
X01674114Y01551686D02*
D03*
X01704848Y01473708D02*
D03*
X01715008Y01523371D02*
D03*
X01759415Y01528944D02*
D03*
X01746758Y01528826D02*
D03*
X01733042Y01528944D02*
D03*
X01720094Y01529118D02*
D03*
X01704086Y01522984D02*
D03*
X01695196Y01524794D02*
D03*
X01700022Y01499616D02*
D03*
X01700530Y01511808D02*
D03*
X01708912Y01527048D02*
D03*
X01402842Y01525429D02*
D03*
X01661668Y01387348D02*
D03*
X01648802Y01393308D02*
D03*
X01642458Y01392089D02*
D03*
X01131824Y01459271D02*
D03*
X01689100Y01526588D02*
D03*
X01695196Y01518286D02*
D03*
Y01505803D02*
D03*
X01695450Y01495002D02*
D03*
X01713738Y01493266D02*
D03*
X01711960Y01480820D02*
D03*
X01701800Y01481093D02*
D03*
X01693672Y01477010D02*
D03*
X01691132Y01468828D02*
D03*
X01668526Y01482598D02*
D03*
X01668272Y01498600D02*
D03*
Y01509268D02*
D03*
X01668493Y01517396D02*
D03*
X01672590Y01524254D02*
D03*
X01674876Y01531159D02*
D03*
X01603502Y01436370D02*
D03*
X01619662Y01399921D02*
D03*
X01591818Y01395476D02*
D03*
X01583394Y01395604D02*
D03*
X01589372Y01403468D02*
D03*
X01643634Y01494231D02*
D03*
X01429004Y01537716D02*
D03*
X01423162Y01538986D02*
D03*
X01418082Y01543812D02*
D03*
X01418750Y01525524D02*
D03*
X01367170Y01531329D02*
D03*
X01358675Y01542796D02*
D03*
X01438990Y01521502D02*
D03*
X01477772Y01489710D02*
D03*
X01475684Y01500124D02*
D03*
X01470660Y01496356D02*
D03*
X01349248Y01525322D02*
D03*
X01134114Y01401605D02*
D03*
X01098969Y01427683D02*
D03*
X01089396Y01428191D02*
D03*
X01116384Y01398642D02*
D03*
X01115195Y01446411D02*
D03*
X01078869Y01513994D02*
D03*
X01544374Y01464564D02*
D03*
X01543909Y01497838D02*
D03*
X01551093Y01474724D02*
D03*
X01540947Y01489106D02*
D03*
X01552401Y01490456D02*
D03*
X01531874Y01484979D02*
D03*
X01600454Y01511300D02*
D03*
X01598168Y01519936D02*
D03*
X01555893Y01526737D02*
D03*
X01606042Y01482090D02*
D03*
X01438990Y01429376D02*
D03*
X01484376Y01426357D02*
D03*
X01472688Y01408145D02*
D03*
X01439672Y01409954D02*
D03*
X01431290Y01380490D02*
D03*
X01650714Y01373067D02*
D03*
X01685140Y01390000D02*
D03*
X01668874Y01385809D02*
D03*
X01668493Y01392936D02*
D03*
X01648669Y01335786D02*
D03*
X01644048Y01352242D02*
D03*
X01659128Y01381909D02*
D03*
X01502504Y01492834D02*
D03*
X01047791Y01400063D02*
D03*
X01039441Y01400195D02*
D03*
X01043789Y01408057D02*
D03*
X01040119Y01405059D02*
D03*
X01047314Y01404850D02*
D03*
X01039940Y01395506D02*
D03*
X01047463Y01395423D02*
D03*
X01041908Y01483868D02*
D03*
X01174114Y01385605D02*
D03*
X01298251Y01496092D02*
D03*
X01298264Y01491507D02*
D03*
X01298264Y01486920D02*
D03*
X01298264Y01482262D02*
D03*
X01320026Y01504090D02*
D03*
X01315441D02*
D03*
X01310853Y01504090D02*
D03*
X01306196Y01504090D02*
D03*
X01602498Y01467465D02*
D03*
X01661949Y01503823D02*
D03*
X01555570Y01345761D02*
D03*
X01590105Y01502057D02*
D03*
X01549034Y01464115D02*
D03*
X01043330Y01490091D02*
D03*
X01039225Y01487998D02*
D03*
X01150114Y01441605D02*
D03*
X01769110Y01351788D02*
D03*
X01436588Y01497228D02*
D03*
X01158114Y01393605D02*
D03*
Y01401605D02*
D03*
X01142114Y01393605D02*
D03*
X01254114Y01401605D02*
D03*
X01371127Y01369874D02*
D03*
X01365392Y01369874D02*
D03*
X01081892Y01420771D02*
D03*
X01125341Y01402901D02*
D03*
X01680573Y01551062D02*
D03*
X01769982Y01552913D02*
D03*
X01698094Y01552751D02*
D03*
X01688370Y01552757D02*
D03*
X01693232Y01552754D02*
D03*
X01704447Y01552910D02*
D03*
X01711000Y01552910D02*
D03*
X01717554Y01552910D02*
D03*
X01724107Y01552911D02*
D03*
X01730661Y01552911D02*
D03*
X01737214Y01552911D02*
D03*
X01743768Y01552912D02*
D03*
X01750321Y01552912D02*
D03*
X01756875Y01552912D02*
D03*
X01763428Y01552912D02*
D03*
X01762845Y01534360D02*
D03*
X01756291Y01534360D02*
D03*
X01759415Y01537995D02*
D03*
X01749738Y01534360D02*
D03*
X01752861Y01537995D02*
D03*
X01743185Y01534361D02*
D03*
X01746308Y01537996D02*
D03*
X01736631Y01534361D02*
D03*
X01739754Y01537996D02*
D03*
X01730078Y01534361D02*
D03*
X01733201Y01537996D02*
D03*
X01723524Y01534361D02*
D03*
X01726647Y01537996D02*
D03*
X01716971Y01534362D02*
D03*
X01720094Y01537997D02*
D03*
X01713540Y01537997D02*
D03*
X01710417Y01534362D02*
D03*
X01706987Y01537997D02*
D03*
X01190114Y01369605D02*
D03*
X01206142Y01369577D02*
D03*
X01214114Y01377591D02*
D03*
X01428651Y01443125D02*
D03*
X01110582Y01398642D02*
D03*
X01485031Y01495298D02*
D03*
X01468428Y01457879D02*
D03*
X01491510Y01458321D02*
D03*
X01512554Y01492861D02*
D03*
X01527368Y01463832D02*
D03*
X01379871Y01552816D02*
D03*
X01254114Y01513605D02*
D03*
X01067466Y01513197D02*
D03*
X01088141Y01397449D02*
D03*
X01150114Y01409605D02*
D03*
X01134114D02*
D03*
X00968350Y01494055D02*
D03*
X01206114Y01385605D02*
D03*
X01294114Y01473565D02*
D03*
X01286114Y01473585D02*
D03*
X01384793Y01355591D02*
D03*
X01337449Y01354517D02*
D03*
X01330597Y01354787D02*
D03*
X01502879Y01544442D02*
D03*
X01222114Y01393605D02*
D03*
X01238114Y01385605D02*
D03*
X01262114D02*
D03*
X01134114Y01377605D02*
D03*
Y01369605D02*
D03*
X01262114Y01457605D02*
D03*
Y01473605D02*
D03*
X01270114D02*
D03*
X01262114Y01481605D02*
D03*
X01290969Y01457188D02*
D03*
X01285147Y01510007D02*
D03*
X01116977Y01375999D02*
D03*
X01107711Y01375966D02*
D03*
X01124735Y01432372D02*
D03*
X01104138Y01398642D02*
D03*
X01142114Y01409605D02*
D03*
X01142114Y01433605D02*
D03*
X01729292Y01398788D02*
D03*
X01097562Y01442536D02*
D03*
X01388399Y01496653D02*
D03*
X01403858Y01351280D02*
D03*
X01278114Y01441605D02*
D03*
X01198114Y01385605D02*
D03*
X01453571Y01488982D02*
D03*
X01383901Y01484983D02*
D03*
X01368697Y01541307D02*
D03*
X01367114Y01522532D02*
D03*
X01365931Y01512201D02*
D03*
X01333766Y01385097D02*
D03*
X01333293Y01434920D02*
D03*
X01278228Y01401491D02*
D03*
X01262114Y01409605D02*
D03*
X01270228Y01409719D02*
D03*
X01278114Y01369605D02*
D03*
X01246114Y01393605D02*
D03*
X01350206Y01355491D02*
D03*
X01333230Y01529080D02*
D03*
Y01522200D02*
D03*
X01287780Y01490770D02*
D03*
X01074267Y01424645D02*
D03*
X01075285Y01413510D02*
D03*
X01003306Y01413958D02*
D03*
X01009068Y01423162D02*
D03*
X00982037Y01494527D02*
D03*
X00976484Y01494432D02*
D03*
X01009225Y01469897D02*
D03*
X01009396Y01442466D02*
D03*
X01017268Y01470469D02*
D03*
X01078738Y01443360D02*
D03*
X01078756Y01435372D02*
D03*
X01082319Y01448012D02*
D03*
Y01454633D02*
D03*
X01103301Y01449296D02*
D03*
X01113469Y01434490D02*
D03*
X01083487Y01513948D02*
D03*
X01083441Y01509330D02*
D03*
X00965553Y01506179D02*
D03*
X00967575Y01510806D02*
D03*
X01142114Y01377605D02*
D03*
X01166114Y01497605D02*
D03*
X01182114D02*
D03*
X01095294Y01369854D02*
D03*
X01715452Y01337130D02*
D03*
X01657190Y01474760D02*
D03*
X01649486Y01474839D02*
D03*
X01740902Y01340027D02*
D03*
X01745846Y01340039D02*
D03*
X01707113Y01505987D02*
D03*
X01713832Y01468057D02*
D03*
X01699862Y01466434D02*
D03*
X01701108Y01528944D02*
D03*
X01579974Y01526912D02*
D03*
X01528167Y01436600D02*
D03*
X01383994Y01451728D02*
D03*
X01384031Y01457832D02*
D03*
X01612486Y01390006D02*
D03*
X01572100Y01361558D02*
D03*
X01564099Y01370702D02*
D03*
X01635948Y01380100D02*
D03*
X01633060Y01392800D02*
D03*
X01617519Y01386517D02*
D03*
X01590388Y01429454D02*
D03*
X01577606Y01429185D02*
D03*
X01561432Y01428614D02*
D03*
X01653613Y01378309D02*
D03*
X01466461Y01447735D02*
D03*
X01532476Y01377306D02*
D03*
X01552542Y01365737D02*
D03*
X01776222Y01352042D02*
D03*
X01789422Y01340651D02*
D03*
X01773675Y01334209D02*
D03*
X01426145Y01417692D02*
D03*
X01458054Y01417912D02*
D03*
X01463388Y01408167D02*
D03*
X01740756Y01426074D02*
D03*
X01709127Y01424656D02*
D03*
X01722822Y01438207D02*
D03*
X01548732Y01526588D02*
D03*
X01423341Y01476535D02*
D03*
X01577688Y01460110D02*
D03*
X01565496Y01451220D02*
D03*
X01590388Y01422704D02*
D03*
X01472959Y01377320D02*
D03*
X01525695Y01502206D02*
D03*
X01600448Y01482716D02*
D03*
X01559654Y01401174D02*
D03*
X01559908Y01415413D02*
D03*
X01723792Y01333927D02*
D03*
X01498065Y01446780D02*
D03*
X01543548Y01413374D02*
D03*
X01493360Y01503544D02*
D03*
X01391506Y01470960D02*
D03*
X01599278Y01386196D02*
D03*
X01578704Y01364404D02*
D03*
X01493360Y01518498D02*
D03*
X01645258Y01515349D02*
D03*
X01662834Y01494198D02*
D03*
X01384188Y01363204D02*
D03*
X01761236Y01352042D02*
D03*
X01733898Y01469508D02*
D03*
X01662778Y01392995D02*
D03*
X01705229Y01446352D02*
D03*
X01627344Y01510050D02*
D03*
X01562965Y01394578D02*
D03*
X01577358Y01395264D02*
D03*
X01577606Y01422435D02*
D03*
X01499404Y01436073D02*
D03*
X01518252Y01493197D02*
D03*
X01539334Y01514819D02*
D03*
X01486471Y01335768D02*
D03*
X01503174Y01407840D02*
D03*
X01563718Y01378865D02*
D03*
X01505552Y01358154D02*
D03*
X01690401Y01392900D02*
D03*
X01597754Y01445886D02*
D03*
X01588356Y01456528D02*
D03*
X01597754Y01457062D02*
D03*
X01609667Y01467704D02*
D03*
X01601844Y01421434D02*
D03*
X01609921D02*
D03*
X01616908Y01406262D02*
D03*
X01715613Y01433189D02*
D03*
X01707990Y01433186D02*
D03*
X01032470Y01377884D02*
D03*
X01022566D02*
D03*
X01027518D02*
D03*
X01111852Y01507617D02*
D03*
X01134114Y01505605D02*
D03*
X01142114Y01473605D02*
D03*
X01024970Y01411610D02*
D03*
Y01416562D02*
D03*
X01039348Y01492772D02*
D03*
X01047530Y01492894D02*
D03*
X01069241Y01443360D02*
D03*
X01024970Y01475238D02*
D03*
Y01480190D02*
D03*
X01062203Y01416562D02*
D03*
Y01411610D02*
D03*
X00999381Y01480549D02*
D03*
Y01472929D02*
D03*
X00994047Y01472929D02*
D03*
Y01480549D02*
D03*
X01142114Y01497605D02*
D03*
X01142114Y01489605D02*
D03*
X01422524Y01442686D02*
D03*
X01511394Y01509386D02*
D03*
X01262114Y01401605D02*
D03*
X01270114Y01401605D02*
D03*
X01230114Y01369605D02*
D03*
X01222114D02*
D03*
X01214114D02*
D03*
X01182114D02*
D03*
X01174114D02*
D03*
X01166114D02*
D03*
X01158114D02*
D03*
X01150114D02*
D03*
X01142114D02*
D03*
X01174114Y01393605D02*
D03*
X01190114Y01497605D02*
D03*
Y01505605D02*
D03*
X01238114Y01497605D02*
D03*
X01158114Y01505605D02*
D03*
X01142114Y01465605D02*
D03*
X01150114Y01481605D02*
D03*
X01254114D02*
D03*
X01142114Y01505605D02*
D03*
X01238114D02*
D03*
X01230114Y01497605D02*
D03*
X01206114Y01505605D02*
D03*
X01230114D02*
D03*
X01262114Y01497605D02*
D03*
X01278114Y01505605D02*
D03*
X01254114D02*
D03*
Y01497605D02*
D03*
X01270114Y01513605D02*
D03*
X01182114Y01505605D02*
D03*
X01206114Y01497605D02*
D03*
X01166114Y01505605D02*
D03*
Y01513605D02*
D03*
X01270114Y01497605D02*
D03*
X01278114D02*
D03*
X01592030Y01385809D02*
D03*
X01584349Y01386427D02*
D03*
X01093573Y01459244D02*
D03*
X01520630Y01436451D02*
D03*
X01486471Y01344391D02*
D03*
X01429424Y01474217D02*
D03*
X01537724Y01529851D02*
D03*
X01534287Y01536626D02*
D03*
X01539639Y01521867D02*
D03*
X01508940Y01540158D02*
D03*
X01524980Y01547822D02*
D03*
X01613562Y01335568D02*
D03*
X01632830Y01339079D02*
D03*
X01625107Y01339465D02*
D03*
X01624592Y01346151D02*
D03*
X01604806Y01356203D02*
D03*
X01602635Y01336517D02*
D03*
X01616541Y01354880D02*
D03*
X01745846Y01345103D02*
D03*
X01740902Y01345091D02*
D03*
X01564294Y01335552D02*
D03*
X01565420Y01345865D02*
D03*
X01591251Y01341736D02*
D03*
X01509770Y01448259D02*
D03*
X01478009Y01422103D02*
D03*
X01492672Y01402428D02*
D03*
X01490533Y01373348D02*
D03*
X01481003Y01378056D02*
D03*
X01542453Y01426259D02*
D03*
X01520474Y01359269D02*
D03*
X01486479Y01360257D02*
D03*
X01328840Y01491726D02*
D03*
X01416516Y01354517D02*
D03*
X01117485Y01479270D02*
D03*
X01390111Y01504158D02*
D03*
X01353148Y01521053D02*
D03*
X01388869Y01526050D02*
D03*
X01332492Y01423111D02*
D03*
X01388407Y01447235D02*
D03*
X01391447Y01463602D02*
D03*
X01124063Y01478004D02*
D03*
X01333508Y01449831D02*
D03*
X01365160Y01466993D02*
D03*
X01372036Y01467136D02*
D03*
X01365731Y01438372D02*
D03*
X01333293Y01442036D02*
D03*
X01406692Y01355184D02*
D03*
X01416516Y01365094D02*
D03*
X01416558Y01359269D02*
D03*
X01365292Y01402939D02*
D03*
X01371075Y01419808D02*
D03*
X01371329Y01429808D02*
D03*
X01371653Y01437695D02*
D03*
X01371075Y01449808D02*
D03*
Y01479808D02*
D03*
Y01490570D02*
D03*
X01363962Y01479839D02*
D03*
Y01490601D02*
D03*
X01378042Y01436726D02*
D03*
X01391241Y01413211D02*
D03*
X01334821Y01500601D02*
D03*
X01365232Y01450347D02*
D03*
X01365281Y01429185D02*
D03*
X01364880Y01396847D02*
D03*
X01333991Y01494754D02*
D03*
X01364470Y01419839D02*
D03*
X01328841Y01500258D02*
D03*
X01438557Y01422971D02*
D03*
X01332127Y01406464D02*
D03*
X01331962Y01400151D02*
D03*
X01117633Y01472584D02*
D03*
X01270114Y01441605D02*
D03*
Y01425605D02*
D03*
Y01369605D02*
D03*
X01262114Y01425605D02*
D03*
X01254114Y01457605D02*
D03*
Y01473605D02*
D03*
X01166114Y01393605D02*
D03*
X01150114Y01417605D02*
D03*
X01150114Y01433605D02*
D03*
Y01465605D02*
D03*
X01142114Y01417605D02*
D03*
X01278114Y01473605D02*
D03*
X01270114Y01457605D02*
D03*
X01206114Y01403784D02*
D03*
X01214114D02*
D03*
X01198114D02*
D03*
X01150114Y01377605D02*
D03*
X01166114Y01385605D02*
D03*
X01182114Y01377605D02*
D03*
X01182114Y01385605D02*
D03*
X01190114D02*
D03*
X01214114D02*
D03*
X01222114Y01377605D02*
D03*
X01182114Y01393605D02*
D03*
X01190114Y01393605D02*
D03*
X01198114D02*
D03*
X01206114D02*
D03*
X01214114D02*
D03*
X01142114Y01457605D02*
D03*
X01218814Y01450495D02*
D03*
X01231514D02*
D03*
X01193414D02*
D03*
Y01460655D02*
D03*
X01180714D02*
D03*
Y01431445D02*
D03*
X01193414D02*
D03*
Y01440335D02*
D03*
X01218814Y01431445D02*
D03*
X01231514Y01440335D02*
D03*
X01206114Y01412395D02*
D03*
X01231514D02*
D03*
X01218814D02*
D03*
X01193414D02*
D03*
X01180714D02*
D03*
X01231514Y01431445D02*
D03*
Y01422555D02*
D03*
X01218814D02*
D03*
X01193414D02*
D03*
X01180714D02*
D03*
X01384140Y01535294D02*
D03*
X01359756Y01527420D02*
D03*
X01166177Y01431640D02*
D03*
X01167547Y01421561D02*
D03*
X01254114Y01393605D02*
D03*
G54D165*
X01103004Y01414534D02*
D03*
G54D167*
X01698338Y01464910D02*
X01699862Y01466434D01*
X01698338Y01446394D02*
Y01464910D01*
G54D168*
X01162849Y01466929D02*
X01185525Y01489605D01*
M02*
