G04*
G04 #@! TF.GenerationSoftware,Altium Limited,Altium Designer,18.0.9 (584)*
G04*
G04 Layer_Color=128*
%FSAX44Y44*%
%MOMM*%
G71*
G01*
G75*
%ADD23C,0.2540*%
%ADD25C,0.2032*%
%ADD212C,0.0508*%
G54D23*
X01263777Y00208195D02*
Y00259842D01*
X01050417Y00208195D02*
Y00259842D01*
X00102489Y00208195D02*
X01779397D01*
X00102489Y00156549D02*
X01778889D01*
X00102489Y00104902D02*
X01119759D01*
X00102616Y00259842D02*
X01779397D01*
X00102616Y00104902D02*
Y00259842D01*
Y00104902D02*
X00502793D01*
X00102489D02*
Y00259842D01*
X00728599Y00104902D02*
Y00259842D01*
X01779397Y00104902D02*
Y00259842D01*
X01119759Y00104902D02*
X01779397D01*
X01421765Y00103251D02*
Y00154771D01*
G54D25*
X01441196Y00223097D02*
Y00238332D01*
X01451353Y00223097D01*
Y00238332D01*
X01458970Y00223097D02*
X01464049D01*
X01466588Y00225636D01*
Y00230714D01*
X01464049Y00233253D01*
X01458970D01*
X01456431Y00230714D01*
Y00225636D01*
X01458970Y00223097D01*
X01474205Y00235793D02*
Y00233253D01*
X01471666D01*
X01476745D01*
X01474205D01*
Y00225636D01*
X01476745Y00223097D01*
X01499597Y00238332D02*
X01504675D01*
X01502136D01*
Y00223097D01*
X01499597D01*
X01504675D01*
X01512293D02*
Y00233253D01*
X01519910D01*
X01522450Y00230714D01*
Y00223097D01*
X01542763Y00238332D02*
Y00228175D01*
X01547841Y00223097D01*
X01552920Y00228175D01*
Y00238332D01*
X01565616Y00223097D02*
X01560537D01*
X01557998Y00225636D01*
Y00230714D01*
X01560537Y00233253D01*
X01565616D01*
X01568155Y00230714D01*
Y00228175D01*
X01557998D01*
X01573233Y00233253D02*
Y00223097D01*
Y00228175D01*
X01575773Y00230714D01*
X01578312Y00233253D01*
X01580851D01*
X01588468Y00223097D02*
X01596086D01*
X01598625Y00225636D01*
X01596086Y00228175D01*
X01591008D01*
X01588468Y00230714D01*
X01591008Y00233253D01*
X01598625D01*
X01603703Y00223097D02*
X01608782D01*
X01606243D01*
Y00233253D01*
X01603703D01*
X01618938Y00223097D02*
X01624017D01*
X01626556Y00225636D01*
Y00230714D01*
X01624017Y00233253D01*
X01618938D01*
X01616399Y00230714D01*
Y00225636D01*
X01618938Y00223097D01*
X01631634D02*
Y00233253D01*
X01639252D01*
X01641791Y00230714D01*
Y00223097D01*
X01657026Y00235793D02*
X01654487Y00238332D01*
X01649409D01*
X01646870Y00235793D01*
Y00225636D01*
X01649409Y00223097D01*
X01654487D01*
X01657026Y00225636D01*
X01664644Y00223097D02*
X01669722D01*
X01672261Y00225636D01*
Y00230714D01*
X01669722Y00233253D01*
X01664644D01*
X01662104Y00230714D01*
Y00225636D01*
X01664644Y00223097D01*
X01677340D02*
Y00233253D01*
X01684957D01*
X01687496Y00230714D01*
Y00223097D01*
X01695114Y00235793D02*
Y00233253D01*
X01692575D01*
X01697653D01*
X01695114D01*
Y00225636D01*
X01697653Y00223097D01*
X01705271Y00233253D02*
Y00223097D01*
Y00228175D01*
X01707810Y00230714D01*
X01710349Y00233253D01*
X01712888D01*
X01723045Y00223097D02*
X01728123D01*
X01730662Y00225636D01*
Y00230714D01*
X01728123Y00233253D01*
X01723045D01*
X01720506Y00230714D01*
Y00225636D01*
X01723045Y00223097D01*
X01735741D02*
X01740819D01*
X01738280D01*
Y00238332D01*
X01735741D01*
X01322829Y00235793D02*
X01320289Y00238332D01*
X01315211D01*
X01312672Y00235793D01*
Y00233253D01*
X01315211Y00230714D01*
X01320289D01*
X01322829Y00228175D01*
Y00225636D01*
X01320289Y00223097D01*
X01315211D01*
X01312672Y00225636D01*
X01327907Y00238332D02*
Y00228175D01*
X01332985Y00223097D01*
X01338064Y00228175D01*
Y00238332D01*
X01343142Y00223097D02*
Y00238332D01*
X01353299Y00223097D01*
Y00238332D01*
X01373612Y00223097D02*
Y00238332D01*
X01381230D01*
X01383769Y00235793D01*
Y00230714D01*
X01381230Y00228175D01*
X01373612D01*
X01378691D02*
X01383769Y00223097D01*
X01399004Y00238332D02*
X01388847D01*
Y00223097D01*
X01399004D01*
X01388847Y00230714D02*
X01393926D01*
X01404082Y00238332D02*
Y00228175D01*
X01409161Y00223097D01*
X01414239Y00228175D01*
Y00238332D01*
X01419317Y00233253D02*
X01421857D01*
Y00230714D01*
X01419317D01*
Y00233253D01*
Y00225636D02*
X01421857D01*
Y00223097D01*
X01419317D01*
Y00225636D01*
X01099820Y00223097D02*
Y00238332D01*
X01107438D01*
X01109977Y00235793D01*
Y00230714D01*
X01107438Y00228175D01*
X01099820D01*
X01104898D02*
X01109977Y00223097D01*
X01125212Y00238332D02*
X01115055D01*
Y00223097D01*
X01125212D01*
X01115055Y00230714D02*
X01120133D01*
X01130290Y00238332D02*
Y00228175D01*
X01135368Y00223097D01*
X01140447Y00228175D01*
Y00238332D01*
X01145525Y00233253D02*
X01148064D01*
Y00230714D01*
X01145525D01*
Y00233253D01*
Y00225636D02*
X01148064D01*
Y00223097D01*
X01145525D01*
Y00225636D01*
X00322326Y00119295D02*
Y00134530D01*
X00329944D01*
X00332483Y00131991D01*
Y00126912D01*
X00329944Y00124373D01*
X00322326D01*
X00337561Y00119295D02*
Y00134530D01*
X00345179D01*
X00347718Y00131991D01*
Y00126912D01*
X00345179Y00124373D01*
X00337561D01*
X00342639D02*
X00347718Y00119295D01*
X00360414Y00134530D02*
X00355335D01*
X00352796Y00131991D01*
Y00121834D01*
X00355335Y00119295D01*
X00360414D01*
X00362953Y00121834D01*
Y00131991D01*
X00360414Y00134530D01*
X00378188Y00131991D02*
X00375649Y00134530D01*
X00370570D01*
X00368031Y00131991D01*
Y00121834D01*
X00370570Y00119295D01*
X00375649D01*
X00378188Y00121834D01*
X00383266Y00131991D02*
X00385806Y00134530D01*
X00390884D01*
X00393423Y00131991D01*
Y00121834D01*
X00390884Y00119295D01*
X00385806D01*
X00383266Y00121834D01*
Y00131991D01*
X00398501Y00121834D02*
X00401040Y00119295D01*
X00406119D01*
X00408658Y00121834D01*
Y00131991D01*
X00406119Y00134530D01*
X00401040D01*
X00398501Y00131991D01*
Y00129452D01*
X00401040Y00126912D01*
X00408658D01*
X00413736Y00119295D02*
X00418815D01*
X00416276D01*
Y00134530D01*
X00413736Y00131991D01*
X00436589Y00134530D02*
X00426432D01*
Y00126912D01*
X00431511D01*
X00426432D01*
Y00119295D01*
X00441667D02*
Y00121834D01*
X00444207D01*
Y00119295D01*
X00441667D01*
X00464520Y00131991D02*
X00461981Y00134530D01*
X00456903D01*
X00454363Y00131991D01*
Y00121834D01*
X00456903Y00119295D01*
X00461981D01*
X00464520Y00121834D01*
Y00126912D01*
X00459442D01*
X00479755Y00131991D02*
X00477216Y00134530D01*
X00472137D01*
X00469598Y00131991D01*
Y00121834D01*
X00472137Y00119295D01*
X00477216D01*
X00479755Y00121834D01*
Y00126912D01*
X00474677D01*
X00484833Y00119295D02*
X00489912D01*
X00487373D01*
Y00134530D01*
X00484833Y00131991D01*
X00968121Y00119295D02*
X00973199D01*
X00970660D01*
Y00134530D01*
X00968121Y00131991D01*
X00980817Y00119295D02*
X00985895D01*
X00983356D01*
Y00134530D01*
X00980817Y00131991D01*
X00993513Y00126912D02*
X01003670D01*
X01008748Y00119295D02*
X01013826D01*
X01011287D01*
Y00134530D01*
X01008748Y00131991D01*
X01021444Y00119295D02*
X01026522D01*
X01023983D01*
Y00134530D01*
X01021444Y00131991D01*
X01034140Y00126912D02*
X01044296D01*
X01059531Y00119295D02*
X01049375D01*
X01059531Y00129452D01*
Y00131991D01*
X01056992Y00134530D01*
X01051914D01*
X01049375Y00131991D01*
X01064610D02*
X01067149Y00134530D01*
X01072227D01*
X01074766Y00131991D01*
Y00121834D01*
X01072227Y00119295D01*
X01067149D01*
X01064610Y00121834D01*
Y00131991D01*
X01090002Y00119295D02*
X01079845D01*
X01090002Y00129452D01*
Y00131991D01*
X01087462Y00134530D01*
X01082384D01*
X01079845Y00131991D01*
X01095080D02*
X01097619Y00134530D01*
X01102697D01*
X01105237Y00131991D01*
Y00121834D01*
X01102697Y00119295D01*
X01097619D01*
X01095080Y00121834D01*
Y00131991D01*
X00757425D02*
X00754885Y00134530D01*
X00749807D01*
X00747268Y00131991D01*
Y00121834D01*
X00749807Y00119295D01*
X00754885D01*
X00757425Y00121834D01*
Y00126912D01*
X00752346D01*
X00772660Y00134530D02*
X00762503D01*
Y00119295D01*
X00772660D01*
X00762503Y00126912D02*
X00767581D01*
X00777738Y00119295D02*
Y00134530D01*
X00787895Y00119295D01*
Y00134530D01*
X00803130D02*
X00792973D01*
Y00119295D01*
X00803130D01*
X00792973Y00126912D02*
X00798052D01*
X00808208Y00119295D02*
Y00134530D01*
X00815826D01*
X00818365Y00131991D01*
Y00126912D01*
X00815826Y00124373D01*
X00808208D01*
X00813287D02*
X00818365Y00119295D01*
X00823443D02*
Y00129452D01*
X00828522Y00134530D01*
X00833600Y00129452D01*
Y00119295D01*
Y00126912D01*
X00823443D01*
X00838678Y00134530D02*
X00848835D01*
X00843757D01*
Y00119295D01*
X00864070Y00134530D02*
X00853913D01*
Y00119295D01*
X00864070D01*
X00853913Y00126912D02*
X00858992D01*
X00869149Y00134530D02*
Y00119295D01*
X00876766D01*
X00879305Y00121834D01*
Y00131991D01*
X00876766Y00134530D01*
X00869149D01*
X00945324Y00129452D02*
X00947863D01*
Y00126912D01*
X00945324D01*
Y00129452D01*
Y00121834D02*
X00947863D01*
Y00119295D01*
X00945324D01*
Y00121834D01*
X00117729Y00223097D02*
Y00233253D01*
X00122807Y00238332D01*
X00127886Y00233253D01*
Y00223097D01*
Y00230714D01*
X00117729D01*
X00132964Y00238332D02*
Y00223097D01*
X00143121D01*
X00148199Y00238332D02*
Y00223097D01*
X00158356D01*
X00178669D02*
Y00233253D01*
X00183748Y00238332D01*
X00188826Y00233253D01*
Y00223097D01*
Y00230714D01*
X00178669D01*
X00193904Y00223097D02*
Y00238332D01*
X00201522D01*
X00204061Y00235793D01*
Y00230714D01*
X00201522Y00228175D01*
X00193904D01*
X00198983D02*
X00204061Y00223097D01*
X00209139Y00238332D02*
X00219296D01*
X00214218D01*
Y00223097D01*
X00224375Y00238332D02*
Y00223097D01*
X00229453Y00228175D01*
X00234531Y00223097D01*
Y00238332D01*
X00247227D02*
X00242149D01*
X00239610Y00235793D01*
Y00225636D01*
X00242149Y00223097D01*
X00247227D01*
X00249766Y00225636D01*
Y00235793D01*
X00247227Y00238332D01*
X00254845Y00223097D02*
Y00238332D01*
X00262462D01*
X00265001Y00235793D01*
Y00230714D01*
X00262462Y00228175D01*
X00254845D01*
X00259923D02*
X00265001Y00223097D01*
X00270080Y00238332D02*
Y00223097D01*
Y00228175D01*
X00280236Y00238332D01*
X00272619Y00230714D01*
X00280236Y00223097D01*
X00300550Y00238332D02*
Y00228175D01*
X00305628Y00223097D01*
X00310707Y00228175D01*
Y00238332D01*
X00315785D02*
X00320863D01*
X00318324D01*
Y00223097D01*
X00315785D01*
X00320863D01*
X00338638Y00238332D02*
X00328481D01*
Y00223097D01*
X00338638D01*
X00328481Y00230714D02*
X00333559D01*
X00343716Y00238332D02*
Y00223097D01*
X00348794Y00228175D01*
X00353873Y00223097D01*
Y00238332D01*
X00369108D02*
X00358951D01*
Y00223097D01*
X00369108D01*
X00358951Y00230714D02*
X00364029D01*
X00374186Y00238332D02*
Y00223097D01*
X00381804D01*
X00384343Y00225636D01*
Y00235793D01*
X00381804Y00238332D01*
X00374186D01*
X00414813D02*
X00404656D01*
Y00230714D01*
X00409734D01*
X00404656D01*
Y00223097D01*
X00419891D02*
Y00238332D01*
X00427509D01*
X00430048Y00235793D01*
Y00230714D01*
X00427509Y00228175D01*
X00419891D01*
X00424970D02*
X00430048Y00223097D01*
X00442744Y00238332D02*
X00437665D01*
X00435126Y00235793D01*
Y00225636D01*
X00437665Y00223097D01*
X00442744D01*
X00445283Y00225636D01*
Y00235793D01*
X00442744Y00238332D01*
X00450361Y00223097D02*
Y00238332D01*
X00455440Y00233253D01*
X00460518Y00238332D01*
Y00223097D01*
X00480832Y00238332D02*
X00490988D01*
X00485910D01*
Y00223097D01*
X00503684Y00238332D02*
X00498606D01*
X00496067Y00235793D01*
Y00225636D01*
X00498606Y00223097D01*
X00503684D01*
X00506223Y00225636D01*
Y00235793D01*
X00503684Y00238332D01*
X00511302Y00223097D02*
Y00238332D01*
X00518919D01*
X00521458Y00235793D01*
Y00230714D01*
X00518919Y00228175D01*
X00511302D01*
X00551929Y00235793D02*
X00549389Y00238332D01*
X00544311D01*
X00541772Y00235793D01*
Y00233253D01*
X00544311Y00230714D01*
X00549389D01*
X00551929Y00228175D01*
Y00225636D01*
X00549389Y00223097D01*
X00544311D01*
X00541772Y00225636D01*
X00557007Y00238332D02*
X00562085D01*
X00559546D01*
Y00223097D01*
X00557007D01*
X00562085D01*
X00569703Y00238332D02*
Y00223097D01*
X00577320D01*
X00579860Y00225636D01*
Y00235793D01*
X00577320Y00238332D01*
X00569703D01*
X00595095D02*
X00584938D01*
Y00223097D01*
X00595095D01*
X00584938Y00230714D02*
X00590016D01*
X01184018Y00238332D02*
X01173861D01*
Y00230714D01*
X01178939D01*
X01173861D01*
Y00223097D01*
X00885317D02*
Y00238332D01*
X00892934D01*
X00895474Y00235793D01*
Y00230714D01*
X00892934Y00228175D01*
X00885317D01*
X00900552Y00223097D02*
Y00238332D01*
X00908170D01*
X00910709Y00235793D01*
Y00230714D01*
X00908170Y00228175D01*
X00900552D01*
X00905630D02*
X00910709Y00223097D01*
X00923405Y00238332D02*
X00918326D01*
X00915787Y00235793D01*
Y00225636D01*
X00918326Y00223097D01*
X00923405D01*
X00925944Y00225636D01*
Y00235793D01*
X00923405Y00238332D01*
X00941179Y00235793D02*
X00938640Y00238332D01*
X00933561D01*
X00931022Y00235793D01*
Y00225636D01*
X00933561Y00223097D01*
X00938640D01*
X00941179Y00225636D01*
X00946257Y00235793D02*
X00948796Y00238332D01*
X00953875D01*
X00956414Y00235793D01*
Y00225636D01*
X00953875Y00223097D01*
X00948796D01*
X00946257Y00225636D01*
Y00235793D01*
X00961492Y00225636D02*
X00964032Y00223097D01*
X00969110D01*
X00971649Y00225636D01*
Y00235793D01*
X00969110Y00238332D01*
X00964032D01*
X00961492Y00235793D01*
Y00233253D01*
X00964032Y00230714D01*
X00971649D01*
X00976727Y00223097D02*
X00981806D01*
X00979267D01*
Y00238332D01*
X00976727Y00235793D01*
X00746760Y00238332D02*
Y00223097D01*
X00754378D01*
X00756917Y00225636D01*
Y00228175D01*
X00754378Y00230714D01*
X00746760D01*
X00754378D01*
X00756917Y00233253D01*
Y00235793D01*
X00754378Y00238332D01*
X00746760D01*
X00769613D02*
X00764534D01*
X00761995Y00235793D01*
Y00225636D01*
X00764534Y00223097D01*
X00769613D01*
X00772152Y00225636D01*
Y00235793D01*
X00769613Y00238332D01*
X00777230Y00223097D02*
Y00233253D01*
X00782309Y00238332D01*
X00787387Y00233253D01*
Y00223097D01*
Y00230714D01*
X00777230D01*
X00792465Y00223097D02*
Y00238332D01*
X00800083D01*
X00802622Y00235793D01*
Y00230714D01*
X00800083Y00228175D01*
X00792465D01*
X00797544D02*
X00802622Y00223097D01*
X00807700Y00238332D02*
Y00223097D01*
X00815318D01*
X00817857Y00225636D01*
Y00235793D01*
X00815318Y00238332D01*
X00807700D01*
X00840710Y00223097D02*
Y00238332D01*
X00845788D02*
Y00223097D01*
X00838170Y00233253D02*
X00845788D01*
X00848327D01*
X00838170Y00228175D02*
X00848327D01*
X00853406Y00233253D02*
X00855945D01*
Y00230714D01*
X00853406D01*
Y00233253D01*
Y00225636D02*
X00855945D01*
Y00223097D01*
X00853406D01*
Y00225636D01*
X00117729Y00186814D02*
Y00171579D01*
X00127886D01*
X00132964D02*
Y00181735D01*
X00138042Y00186814D01*
X00143121Y00181735D01*
Y00171579D01*
Y00179196D01*
X00132964D01*
X00148199Y00186814D02*
Y00184275D01*
X00153278Y00179196D01*
X00158356Y00184275D01*
Y00186814D01*
X00153278Y00179196D02*
Y00171579D01*
X00173591Y00186814D02*
X00163434D01*
Y00171579D01*
X00173591D01*
X00163434Y00179196D02*
X00168513D01*
X00178669Y00171579D02*
Y00186814D01*
X00186287D01*
X00188826Y00184275D01*
Y00179196D01*
X00186287Y00176657D01*
X00178669D01*
X00183748D02*
X00188826Y00171579D01*
X00209139D02*
Y00186814D01*
X00219296Y00171579D01*
Y00186814D01*
X00224375Y00171579D02*
Y00181735D01*
X00229453Y00186814D01*
X00234531Y00181735D01*
Y00171579D01*
Y00179196D01*
X00224375D01*
X00239610Y00171579D02*
Y00186814D01*
X00244688Y00181735D01*
X00249766Y00186814D01*
Y00171579D01*
X00265001Y00186814D02*
X00254845D01*
Y00171579D01*
X00265001D01*
X00254845Y00179196D02*
X00259923D01*
X00285315Y00176657D02*
X00295471D01*
X00285315Y00181735D02*
X00295471D01*
X00117729Y00119295D02*
Y00134530D01*
X00125346D01*
X00127886Y00131991D01*
Y00126912D01*
X00125346Y00124373D01*
X00117729D01*
X00132964Y00134530D02*
Y00119295D01*
X00143121D01*
X00155817Y00134530D02*
X00150738D01*
X00148199Y00131991D01*
Y00121834D01*
X00150738Y00119295D01*
X00155817D01*
X00158356Y00121834D01*
Y00131991D01*
X00155817Y00134530D01*
X00163434D02*
X00173591D01*
X00168513D01*
Y00119295D01*
X00193904D02*
Y00134530D01*
X00204061Y00119295D01*
Y00134530D01*
X00209139Y00119295D02*
Y00129452D01*
X00214218Y00134530D01*
X00219296Y00129452D01*
Y00119295D01*
Y00126912D01*
X00209139D01*
X00224375Y00119295D02*
Y00134530D01*
X00229453Y00129452D01*
X00234531Y00134530D01*
Y00119295D01*
X00249766Y00134530D02*
X00239610D01*
Y00119295D01*
X00249766D01*
X00239610Y00126912D02*
X00244688D01*
X00270080Y00124373D02*
X00280236D01*
X00270080Y00129452D02*
X00280236D01*
X01163444Y00119295D02*
X01153287D01*
X01163444Y00129452D01*
Y00131991D01*
X01160904Y00134530D01*
X01155826D01*
X01153287Y00131991D01*
X01168522D02*
X01171061Y00134530D01*
X01176140D01*
X01178679Y00131991D01*
Y00121834D01*
X01176140Y00119295D01*
X01171061D01*
X01168522Y00121834D01*
Y00131991D01*
X01183757Y00129452D02*
X01186296D01*
Y00126912D01*
X01183757D01*
Y00129452D01*
Y00121834D02*
X01186296D01*
Y00119295D01*
X01183757D01*
Y00121834D01*
X01206610Y00119295D02*
X01196453D01*
X01206610Y00129452D01*
Y00131991D01*
X01204071Y00134530D01*
X01198992D01*
X01196453Y00131991D01*
X01211688Y00121834D02*
X01214227Y00119295D01*
X01219306D01*
X01221845Y00121834D01*
Y00131991D01*
X01219306Y00134530D01*
X01214227D01*
X01211688Y00131991D01*
Y00129452D01*
X01214227Y00126912D01*
X01221845D01*
X01226923Y00129452D02*
X01229462D01*
Y00126912D01*
X01226923D01*
Y00129452D01*
Y00121834D02*
X01229462D01*
Y00119295D01*
X01226923D01*
Y00121834D01*
X01247237Y00119295D02*
Y00134530D01*
X01239619Y00126912D01*
X01249776D01*
X01254854Y00121834D02*
X01257393Y00119295D01*
X01262472D01*
X01265011Y00121834D01*
Y00131991D01*
X01262472Y00134530D01*
X01257393D01*
X01254854Y00131991D01*
Y00129452D01*
X01257393Y00126912D01*
X01265011D01*
X01474470Y00134530D02*
X01484627D01*
X01479548D01*
Y00119295D01*
X01499862Y00134530D02*
X01489705D01*
Y00119295D01*
X01499862D01*
X01489705Y00126912D02*
X01494783D01*
X01504940Y00134530D02*
X01515097Y00119295D01*
Y00134530D02*
X01504940Y00119295D01*
X01520175D02*
Y00129452D01*
X01525254Y00134530D01*
X01530332Y00129452D01*
Y00119295D01*
Y00126912D01*
X01520175D01*
X01545567Y00131991D02*
X01543028Y00134530D01*
X01537950D01*
X01535410Y00131991D01*
Y00129452D01*
X01537950Y00126912D01*
X01543028D01*
X01545567Y00124373D01*
Y00121834D01*
X01543028Y00119295D01*
X01537950D01*
X01535410Y00121834D01*
X01565880Y00134530D02*
X01570959D01*
X01568420D01*
Y00119295D01*
X01565880D01*
X01570959D01*
X01578576D02*
Y00134530D01*
X01588733Y00119295D01*
Y00134530D01*
X01603968Y00131991D02*
X01601429Y00134530D01*
X01596351D01*
X01593811Y00131991D01*
Y00129452D01*
X01596351Y00126912D01*
X01601429D01*
X01603968Y00124373D01*
Y00121834D01*
X01601429Y00119295D01*
X01596351D01*
X01593811Y00121834D01*
X01609046Y00134530D02*
X01619203D01*
X01614125D01*
Y00119295D01*
X01624281D02*
Y00134530D01*
X01631899D01*
X01634438Y00131991D01*
Y00126912D01*
X01631899Y00124373D01*
X01624281D01*
X01629360D02*
X01634438Y00119295D01*
X01639517Y00134530D02*
Y00121834D01*
X01642056Y00119295D01*
X01647134D01*
X01649673Y00121834D01*
Y00134530D01*
X01654752Y00119295D02*
Y00134530D01*
X01659830Y00129452D01*
X01664908Y00134530D01*
Y00119295D01*
X01680143Y00134530D02*
X01669987D01*
Y00119295D01*
X01680143D01*
X01669987Y00126912D02*
X01675065D01*
X01685222Y00119295D02*
Y00134530D01*
X01695379Y00119295D01*
Y00134530D01*
X01700457D02*
X01710614D01*
X01705535D01*
Y00119295D01*
X01725849Y00131991D02*
X01723309Y00134530D01*
X01718231D01*
X01715692Y00131991D01*
Y00129452D01*
X01718231Y00126912D01*
X01723309D01*
X01725849Y00124373D01*
Y00121834D01*
X01723309Y00119295D01*
X01718231D01*
X01715692Y00121834D01*
X00746760Y00186685D02*
X00756917D01*
X00751838D01*
Y00171450D01*
X00761995Y00186685D02*
X00767073D01*
X00764534D01*
Y00171450D01*
X00761995D01*
X00767073D01*
X00774691Y00186685D02*
Y00171450D01*
X00782309D01*
X00784848Y00173989D01*
Y00184146D01*
X00782309Y00186685D01*
X00774691D01*
X00807700Y00171450D02*
Y00186685D01*
X00812779D02*
Y00171450D01*
X00805161Y00181607D02*
X00812779D01*
X00815318D01*
X00805161Y00176528D02*
X00815318D01*
X00820396Y00181607D02*
X00822935D01*
Y00179067D01*
X00820396D01*
Y00181607D01*
Y00173989D02*
X00822935D01*
Y00171450D01*
X00820396D01*
Y00173989D01*
X00885317Y00171450D02*
Y00186685D01*
X00895474Y00171450D01*
Y00186685D01*
X00900552Y00171450D02*
X00910709Y00181607D01*
X00915787Y00171450D02*
Y00181607D01*
X00920865Y00186685D01*
X00925944Y00181607D01*
Y00171450D01*
Y00179067D01*
X00915787D01*
X00322326Y00186814D02*
Y00171579D01*
X00329944D01*
X00332483Y00174118D01*
Y00184275D01*
X00329944Y00186814D01*
X00322326D01*
X00337561Y00181735D02*
Y00171579D01*
Y00176657D01*
X00340100Y00179196D01*
X00342639Y00181735D01*
X00345179D01*
X00352796Y00171579D02*
X00357874D01*
X00355335D01*
Y00181735D01*
X00352796D01*
X00365492Y00171579D02*
X00370570D01*
X00368031D01*
Y00186814D01*
X00365492D01*
X00378188Y00171579D02*
X00383266D01*
X00380727D01*
Y00186814D01*
X00378188D01*
X00416276Y00184275D02*
X00413736Y00186814D01*
X00408658D01*
X00406119Y00184275D01*
Y00174118D01*
X00408658Y00171579D01*
X00413736D01*
X00416276Y00174118D01*
Y00179196D01*
X00411197D01*
X00421354Y00181735D02*
Y00174118D01*
X00423893Y00171579D01*
X00431511D01*
Y00181735D01*
X00436589Y00171579D02*
X00441667D01*
X00439128D01*
Y00181735D01*
X00436589D01*
X00459442Y00186814D02*
Y00171579D01*
X00451824D01*
X00449285Y00174118D01*
Y00179196D01*
X00451824Y00181735D01*
X00459442D01*
X00472137Y00171579D02*
X00467059D01*
X00464520Y00174118D01*
Y00179196D01*
X00467059Y00181735D01*
X00472137D01*
X00474677Y00179196D01*
Y00176657D01*
X00464520D01*
G54D212*
X00946935Y01508134D02*
X00957095D01*
X00952015Y01503054D02*
Y01513214D01*
X01399642Y01341689D02*
X01409842D01*
X01404742Y01336589D02*
Y01346789D01*
X01399642Y01542989D02*
X01409842D01*
X01404742Y01537889D02*
Y01548089D01*
X01478401Y01543401D02*
X01484401D01*
X01481401Y01540401D02*
Y01546401D01*
X01465701Y01543401D02*
X01471701D01*
X01468701Y01540401D02*
Y01546401D01*
X01453001Y01543401D02*
X01459001D01*
X01456001Y01540401D02*
Y01546401D01*
X01440301Y01543401D02*
X01446301D01*
X01443301Y01540401D02*
Y01546401D01*
X01834690Y01354836D02*
X01840690D01*
X01837690Y01351836D02*
Y01357836D01*
X01834690Y01367536D02*
X01840690D01*
X01837690Y01364536D02*
Y01370536D01*
X01834690Y01342136D02*
X01840690D01*
X01837690Y01339136D02*
Y01345136D01*
X01654730Y01526588D02*
X01661730D01*
X01658230Y01523088D02*
Y01530088D01*
X01642030Y01526588D02*
X01649030D01*
X01645530Y01523088D02*
Y01530088D01*
X01629330Y01526588D02*
X01636330D01*
X01632830Y01523088D02*
Y01530088D01*
X01616630Y01526588D02*
X01623630D01*
X01620130Y01523088D02*
Y01530088D01*
X01603930Y01526588D02*
X01610930D01*
X01607430Y01523088D02*
Y01530088D01*
X01654730Y01539288D02*
X01661730D01*
X01658230Y01535788D02*
Y01542788D01*
X01642030Y01539288D02*
X01649030D01*
X01645530Y01535788D02*
Y01542788D01*
X01629330Y01539288D02*
X01636330D01*
X01632830Y01535788D02*
Y01542788D01*
X01616630Y01539288D02*
X01623630D01*
X01620130Y01535788D02*
Y01542788D01*
X01603930Y01539288D02*
X01610930D01*
X01607430Y01535788D02*
Y01542788D01*
X01455846Y01514976D02*
X01472346D01*
X01464096Y01506726D02*
Y01523226D01*
X01805678Y01420191D02*
X01814178D01*
X01809928Y01415941D02*
Y01424442D01*
X01805678Y01470191D02*
X01814178D01*
X01809928Y01465941D02*
Y01474442D01*
X01833928Y01480192D02*
X01839928D01*
X01836928Y01477192D02*
Y01483192D01*
X01833928Y01410191D02*
X01839928D01*
X01836928Y01407191D02*
Y01413192D01*
X01436781Y01353383D02*
X01462181D01*
X01449481Y01340683D02*
Y01366084D01*
X00977373Y01422490D02*
X00985872D01*
X00981622Y01418240D02*
Y01426740D01*
X00977373Y01472490D02*
X00985872D01*
X00981622Y01468240D02*
Y01476740D01*
X00951622Y01482490D02*
X00957623D01*
X00954622Y01479490D02*
Y01485490D01*
X00951622Y01412490D02*
X00957623D01*
X00954622Y01409490D02*
Y01415490D01*
X01572148Y01541644D02*
X01578148D01*
X01575148Y01538644D02*
Y01544644D01*
X01559448Y01541644D02*
X01565448D01*
X01562448Y01538644D02*
Y01544644D01*
X01546748Y01541644D02*
X01552748D01*
X01549748Y01538644D02*
Y01544644D01*
X01663943Y01353386D02*
X01689343D01*
X01676643Y01340686D02*
Y01366086D01*
X00977364Y01523681D02*
X00985492D01*
X00981428Y01519617D02*
Y01527745D01*
X00990064Y01523681D02*
X00998192D01*
X00994128Y01519617D02*
Y01527745D01*
X01002764Y01523681D02*
X01010892D01*
X01006828Y01519617D02*
Y01527745D01*
X01144044Y01523681D02*
X01152172D01*
X01148108Y01519617D02*
Y01527745D01*
X01131344Y01523681D02*
X01139472D01*
X01135408Y01519617D02*
Y01527745D01*
X01118644Y01523681D02*
X01126772D01*
X01122708Y01519617D02*
Y01527745D01*
X01244374Y01523681D02*
X01252502D01*
X01248438Y01519617D02*
Y01527745D01*
X01257074Y01523681D02*
X01265202D01*
X01261138Y01519617D02*
Y01527745D01*
X01269774Y01523681D02*
X01277902D01*
X01273838Y01519617D02*
Y01527745D01*
X01375184Y01562691D02*
X01383312D01*
X01379248Y01558627D02*
Y01566755D01*
X01362484Y01562691D02*
X01370612D01*
X01366548Y01558627D02*
Y01566755D01*
X01349784Y01562691D02*
X01357912D01*
X01353848Y01558627D02*
Y01566755D01*
X01727736Y01562641D02*
X01735864D01*
X01731800Y01558578D02*
Y01566705D01*
X01740436Y01562641D02*
X01748564D01*
X01744500Y01558578D02*
Y01566705D01*
X01753136Y01562641D02*
X01761264D01*
X01757200Y01558578D02*
Y01566705D01*
X01753136Y01324535D02*
X01761264D01*
X01757200Y01320471D02*
Y01328599D01*
X01740436Y01324535D02*
X01748564D01*
X01744500Y01320471D02*
Y01328599D01*
X01727736Y01324535D02*
X01735864D01*
X01731800Y01320471D02*
Y01328599D01*
X01349784Y01324486D02*
X01357912D01*
X01353848Y01320422D02*
Y01328550D01*
X01362484Y01324486D02*
X01370612D01*
X01366548Y01320422D02*
Y01328550D01*
X01375184Y01324486D02*
X01383312D01*
X01379248Y01320422D02*
Y01328550D01*
X01269774Y01359526D02*
X01277902D01*
X01273838Y01355462D02*
Y01363590D01*
X01257074Y01359526D02*
X01265202D01*
X01261138Y01355462D02*
Y01363590D01*
X01244374Y01359526D02*
X01252502D01*
X01248438Y01355462D02*
Y01363590D01*
X01118644Y01359526D02*
X01126772D01*
X01122708Y01355462D02*
Y01363590D01*
X01131344Y01359526D02*
X01139472D01*
X01135408Y01355462D02*
Y01363590D01*
X01144044Y01359526D02*
X01152172D01*
X01148108Y01355462D02*
Y01363590D01*
X01002764Y01359526D02*
X01010892D01*
X01006828Y01355462D02*
Y01363590D01*
X00990064Y01359526D02*
X00998192D01*
X00994128Y01355462D02*
Y01363590D01*
X00977364Y01359526D02*
X00985492D01*
X00981428Y01355462D02*
Y01363590D01*
X01564414Y01324436D02*
X01572542D01*
X01568478Y01320372D02*
Y01328500D01*
X01551714Y01324436D02*
X01559842D01*
X01555778Y01320372D02*
Y01328500D01*
X01539014Y01324436D02*
X01547142D01*
X01543078Y01320372D02*
Y01328500D01*
X00954425Y01606670D02*
X00976777D01*
X00965601Y01595494D02*
Y01617846D01*
X01815669Y01606670D02*
X01838021D01*
X01826845Y01595494D02*
Y01617846D01*
X00954425Y01280507D02*
X00976777D01*
X00965601Y01269331D02*
Y01291683D01*
X01815669Y01280507D02*
X01838021D01*
X01826845Y01269331D02*
Y01291683D01*
X01051287Y01445900D02*
X01053287D01*
X01052287Y01444900D02*
Y01446900D01*
X01042587Y01445900D02*
X01044587D01*
X01043587Y01444900D02*
Y01446900D01*
X01033887Y01445900D02*
X01035887D01*
X01034887Y01444900D02*
Y01446900D01*
X01655986Y01433857D02*
X01657986D01*
X01656986Y01432857D02*
Y01434857D01*
X01655986Y01410607D02*
X01657986D01*
X01656986Y01409607D02*
Y01411607D01*
X01655986Y01421257D02*
X01657986D01*
X01656986Y01420257D02*
Y01422257D01*
X01668586Y01410607D02*
X01670586D01*
X01669586Y01409607D02*
Y01411607D01*
X01668586Y01421257D02*
X01670586D01*
X01669586Y01420257D02*
Y01422257D01*
X01679236Y01421257D02*
X01681236D01*
X01680236Y01420257D02*
Y01422257D01*
X01668586Y01457107D02*
X01670586D01*
X01669586Y01456107D02*
Y01458107D01*
X01668586Y01446457D02*
X01670586D01*
X01669586Y01445457D02*
Y01447457D01*
X01679236Y01446457D02*
X01681236D01*
X01680236Y01445457D02*
Y01447457D01*
X01668586Y01433857D02*
X01670586D01*
X01669586Y01432857D02*
Y01434857D01*
X01679236Y01433857D02*
X01681236D01*
X01680236Y01432857D02*
Y01434857D01*
X01632736Y01446457D02*
X01634736D01*
X01633736Y01445457D02*
Y01447457D01*
X01643386Y01446457D02*
X01645386D01*
X01644386Y01445457D02*
Y01447457D01*
X01643386Y01457107D02*
X01645386D01*
X01644386Y01456107D02*
Y01458107D01*
X01655986Y01446457D02*
X01657986D01*
X01656986Y01445457D02*
Y01447457D01*
X01655986Y01457107D02*
X01657986D01*
X01656986Y01456107D02*
Y01458107D01*
X01643386Y01410607D02*
X01645386D01*
X01644386Y01409607D02*
Y01411607D01*
X01643386Y01421257D02*
X01645386D01*
X01644386Y01420257D02*
Y01422257D01*
X01632736Y01421257D02*
X01634736D01*
X01633736Y01420257D02*
Y01422257D01*
X01643386Y01433857D02*
X01645386D01*
X01644386Y01432857D02*
Y01434857D01*
X01632736Y01433857D02*
X01634736D01*
X01633736Y01432857D02*
Y01434857D01*
X01766412Y01371600D02*
X01768412D01*
X01767412Y01370600D02*
Y01372600D01*
X01777412Y01371600D02*
X01779412D01*
X01778412Y01370600D02*
Y01372600D01*
X01771912Y01381100D02*
X01773912D01*
X01772912Y01380100D02*
Y01382100D01*
X01771912Y01362100D02*
X01773912D01*
X01772912Y01361100D02*
Y01363100D01*
X01720798Y01367654D02*
X01722798D01*
X01721798Y01366654D02*
Y01368654D01*
X01732298Y01367654D02*
X01734298D01*
X01733298Y01366654D02*
Y01368654D01*
X01726548Y01358154D02*
X01728548D01*
X01727548Y01357154D02*
Y01359154D01*
X01726548Y01377154D02*
X01728548D01*
X01727548Y01376154D02*
Y01378154D01*
X01567342Y01476974D02*
X01569342D01*
X01568342Y01475974D02*
Y01477974D01*
X01567342Y01487974D02*
X01569342D01*
X01568342Y01486974D02*
Y01488974D01*
X01576842Y01482474D02*
X01578842D01*
X01577842Y01481474D02*
Y01483474D01*
X01557842Y01482474D02*
X01559842D01*
X01558842Y01481474D02*
Y01483474D01*
X01237098Y01369605D02*
X01239130D01*
X01238114Y01368589D02*
Y01370621D01*
X01774063Y01345819D02*
X01776095D01*
X01775079Y01344803D02*
Y01346835D01*
X01766951Y01345565D02*
X01768983D01*
X01767967Y01344549D02*
Y01346581D01*
X01329385Y01344524D02*
X01331417D01*
X01330401Y01343508D02*
Y01345540D01*
X01332255Y01339952D02*
X01334287D01*
X01333271Y01338936D02*
Y01340968D01*
X01673470Y01393121D02*
X01675502D01*
X01674486Y01392105D02*
Y01394137D01*
X01689798Y01384093D02*
X01691830D01*
X01690814Y01383077D02*
Y01385109D01*
X01277606Y01426875D02*
X01279638D01*
X01278622Y01425859D02*
Y01427891D01*
X01278484Y01420597D02*
X01280516D01*
X01279500Y01419581D02*
Y01421613D01*
X01253098Y01441605D02*
X01255130D01*
X01254114Y01440589D02*
Y01442621D01*
X01269098Y01449605D02*
X01271130D01*
X01270114Y01448589D02*
Y01450621D01*
X01253098Y01409605D02*
X01255130D01*
X01254114Y01408589D02*
Y01410621D01*
X01277352Y01409605D02*
X01279384D01*
X01278368Y01408589D02*
Y01410621D01*
X01253098Y01425605D02*
X01255130D01*
X01254114Y01424589D02*
Y01426621D01*
X01245098Y01505605D02*
X01247130D01*
X01246114Y01504589D02*
Y01506621D01*
X01455768Y01408167D02*
X01457800D01*
X01456784Y01407151D02*
Y01409183D01*
X01448188Y01468793D02*
X01450220D01*
X01449204Y01467777D02*
Y01469809D01*
X01575910Y01451631D02*
X01577942D01*
X01576926Y01450615D02*
Y01452647D01*
X01809322Y01361614D02*
X01811354D01*
X01810338Y01360598D02*
Y01362630D01*
X01819402Y01348740D02*
X01821434D01*
X01820418Y01347724D02*
Y01349756D01*
X01798320Y01341882D02*
X01800352D01*
X01799336Y01340866D02*
Y01342898D01*
X01810664Y01334745D02*
X01812696D01*
X01811680Y01333729D02*
Y01335761D01*
X01000922Y01489066D02*
X01002954D01*
X01001938Y01488050D02*
Y01490082D01*
X01736852Y01351788D02*
X01738884D01*
X01737868Y01350772D02*
Y01352804D01*
X01731203Y01377238D02*
X01733235D01*
X01732219Y01376222D02*
Y01378254D01*
X01720830Y01376409D02*
X01722862D01*
X01721846Y01375392D02*
Y01377424D01*
X01731739Y01358368D02*
X01733771D01*
X01732755Y01357352D02*
Y01359384D01*
X01720696Y01358368D02*
X01722728D01*
X01721712Y01357352D02*
Y01359384D01*
X01726532Y01367654D02*
X01728564D01*
X01727548Y01366638D02*
Y01368670D01*
X01813306Y01552702D02*
X01815338D01*
X01814322Y01551686D02*
Y01553718D01*
X01804273Y01537993D02*
X01806305D01*
X01805289Y01536977D02*
Y01539009D01*
X01807703Y01534358D02*
X01809735D01*
X01808719Y01533342D02*
Y01535374D01*
X01839388Y01509522D02*
X01841420D01*
X01840404Y01508506D02*
Y01510538D01*
X01839388Y01552448D02*
X01841420D01*
X01840404Y01551432D02*
Y01553464D01*
X01808480Y01528826D02*
X01810512D01*
X01809496Y01527810D02*
Y01529842D01*
X01801150Y01534358D02*
X01803182D01*
X01802166Y01533342D02*
Y01535374D01*
X01797719Y01537994D02*
X01799751D01*
X01798735Y01536978D02*
Y01539010D01*
X01764952Y01537995D02*
X01766984D01*
X01765968Y01536979D02*
Y01539011D01*
X01771505Y01537995D02*
X01773537D01*
X01772522Y01536979D02*
Y01539011D01*
X01768382Y01534360D02*
X01770414D01*
X01769398Y01533344D02*
Y01535376D01*
X01778059Y01537994D02*
X01780091D01*
X01779075Y01536978D02*
Y01539010D01*
X01774936Y01534359D02*
X01776968D01*
X01775952Y01533343D02*
Y01535375D01*
X01784612Y01537994D02*
X01786644D01*
X01785628Y01536978D02*
Y01539010D01*
X01781489Y01534359D02*
X01783521D01*
X01782505Y01533343D02*
Y01535375D01*
X01791166Y01537994D02*
X01793198D01*
X01792182Y01536978D02*
Y01539010D01*
X01788043Y01534359D02*
X01790075D01*
X01789059Y01533343D02*
Y01535375D01*
X01794596Y01534359D02*
X01796628D01*
X01795612Y01533343D02*
Y01535375D01*
X01808286Y01552914D02*
X01810318D01*
X01809302Y01551898D02*
Y01553930D01*
X01801733Y01552914D02*
X01803765D01*
X01802749Y01551898D02*
Y01553930D01*
X01795179Y01552914D02*
X01797211D01*
X01796195Y01551898D02*
Y01553930D01*
X01788626Y01552913D02*
X01790658D01*
X01789642Y01551897D02*
Y01553929D01*
X01782072Y01552913D02*
X01784104D01*
X01783088Y01551897D02*
Y01553929D01*
X01775519Y01552913D02*
X01777551D01*
X01776535Y01551897D02*
Y01553929D01*
X01767326Y01528944D02*
X01769358D01*
X01768342Y01527928D02*
Y01529960D01*
X01755488Y01489616D02*
X01757520D01*
X01756504Y01488600D02*
Y01490632D01*
X01439202Y01444728D02*
X01441234D01*
X01440218Y01443712D02*
Y01445744D01*
X01261098Y01377605D02*
X01263130D01*
X01262114Y01376589D02*
Y01378621D01*
X01439228Y01437263D02*
X01441260D01*
X01440244Y01436247D02*
Y01438279D01*
X01261098Y01369605D02*
X01263130D01*
X01262114Y01368589D02*
Y01370621D01*
X01753108Y01483360D02*
X01755140D01*
X01754124Y01482344D02*
Y01484376D01*
X01594104Y01467293D02*
X01596136D01*
X01595120Y01466277D02*
Y01468309D01*
X01589118Y01482474D02*
X01591150D01*
X01590134Y01481458D02*
Y01483490D01*
X01794256Y01459230D02*
X01796288D01*
X01795272Y01458214D02*
Y01460246D01*
X01481574Y01390905D02*
X01483606D01*
X01482590Y01389889D02*
Y01391921D01*
X01795526Y01405382D02*
X01797558D01*
X01796542Y01404366D02*
Y01406398D01*
X01787652D02*
X01789684D01*
X01788668Y01405382D02*
Y01407414D01*
X01743964Y01383792D02*
X01745996D01*
X01744980Y01382776D02*
Y01384808D01*
X01755140Y01344422D02*
X01757172D01*
X01756156Y01343406D02*
Y01345438D01*
X01753333Y01350961D02*
X01755365D01*
X01754348Y01349945D02*
Y01351977D01*
X01808734Y01387856D02*
X01810766D01*
X01809750Y01386840D02*
Y01388872D01*
X01719167Y01472851D02*
X01721199D01*
X01720183Y01471835D02*
Y01473867D01*
X01432560Y01503680D02*
X01434592D01*
X01433576Y01502664D02*
Y01504696D01*
X01740154Y01478788D02*
X01742186D01*
X01741170Y01477772D02*
Y01479804D01*
X01750822Y01457960D02*
X01752854D01*
X01751838Y01456944D02*
Y01458976D01*
X01768094Y01463294D02*
X01770126D01*
X01769110Y01462278D02*
Y01464310D01*
X01750568Y01452372D02*
X01752600D01*
X01751584Y01451356D02*
Y01453388D01*
X01725676Y01474470D02*
X01727708D01*
X01726692Y01473454D02*
Y01475486D01*
X01465834Y01464564D02*
X01467866D01*
X01466850Y01463548D02*
Y01465580D01*
X01458214Y01467434D02*
X01460246D01*
X01459230Y01466418D02*
Y01468450D01*
X01458468Y01384554D02*
X01460500D01*
X01459484Y01383538D02*
Y01385570D01*
X01473491Y01393190D02*
X01475523D01*
X01474507Y01392174D02*
Y01394206D01*
X01420368Y01369794D02*
X01422400D01*
X01421384Y01368778D02*
Y01370810D01*
X01449324Y01386332D02*
X01451356D01*
X01450340Y01385316D02*
Y01387348D01*
X01400387Y01355228D02*
X01402419D01*
X01401403Y01354212D02*
Y01356244D01*
X01393078Y01364610D02*
X01395110D01*
X01394094Y01363594D02*
Y01365626D01*
X01323848Y01361440D02*
X01325880D01*
X01324864Y01360424D02*
Y01362456D01*
X01165098Y01377605D02*
X01167130D01*
X01166114Y01376589D02*
Y01378621D01*
X01766824Y01470406D02*
X01768856D01*
X01767840Y01469390D02*
Y01471422D01*
X01767332Y01498092D02*
X01769364D01*
X01768348Y01497076D02*
Y01499108D01*
X01725838Y01490218D02*
X01727870D01*
X01726854Y01489202D02*
Y01491234D01*
X01725676Y01484376D02*
X01727708D01*
X01726692Y01483360D02*
Y01485392D01*
X01740531Y01510152D02*
X01742563D01*
X01741546Y01509137D02*
Y01511169D01*
X01735582Y01504188D02*
X01737614D01*
X01736598Y01503172D02*
Y01505204D01*
X01738630Y01495552D02*
X01740662D01*
X01739646Y01494536D02*
Y01496568D01*
X01755450Y01522928D02*
X01757482D01*
X01756466Y01521912D02*
Y01523944D01*
X01766895Y01517467D02*
X01768927D01*
X01767911Y01516451D02*
Y01518483D01*
X01751277Y01513131D02*
X01753309D01*
X01752293Y01512115D02*
Y01514147D01*
X01757172Y01431798D02*
X01759204D01*
X01758188Y01430782D02*
Y01432814D01*
X01757172Y01426348D02*
X01759204D01*
X01758188Y01425332D02*
Y01427364D01*
X01757017Y01420368D02*
X01759049D01*
X01758033Y01419352D02*
Y01421384D01*
X01768086Y01394460D02*
X01770118D01*
X01769102Y01393444D02*
Y01395476D01*
X01778246Y01395730D02*
X01780278D01*
X01779262Y01394714D02*
Y01396746D01*
X01804916Y01395730D02*
X01806948D01*
X01805932Y01394714D02*
Y01396746D01*
X01388196Y01392352D02*
X01390228D01*
X01389212Y01391336D02*
Y01393368D01*
X01389033Y01401450D02*
X01391065D01*
X01390049Y01400434D02*
Y01402466D01*
X01372748Y01334596D02*
X01374780D01*
X01373764Y01333580D02*
Y01335612D01*
X01330401Y01335405D02*
X01332433D01*
X01331417Y01334389D02*
Y01336421D01*
X01231380Y01476186D02*
X01233412D01*
X01232396Y01475170D02*
Y01477202D01*
X01042632Y01402066D02*
X01044664D01*
X01043648Y01401051D02*
Y01403082D01*
X01234164Y01472402D02*
X01236196D01*
X01235180Y01471386D02*
Y01473418D01*
X01227306Y01484712D02*
X01229338D01*
X01228322Y01483696D02*
Y01485728D01*
X01242872Y01469798D02*
X01244904D01*
X01243888Y01468782D02*
Y01470814D01*
X01237078Y01468843D02*
X01239110D01*
X01238094Y01467827D02*
Y01469859D01*
X01235045Y01479420D02*
X01237077D01*
X01236061Y01478404D02*
Y01480436D01*
X01240076Y01465269D02*
X01242108D01*
X01241092Y01464253D02*
Y01466285D01*
X01232646Y01483826D02*
X01234678D01*
X01233662Y01482810D02*
Y01484842D01*
X01229067Y01480208D02*
X01231099D01*
X01230083Y01479192D02*
Y01481224D01*
X01389023Y01396864D02*
X01391055D01*
X01390039Y01395848D02*
Y01397880D01*
X01069869Y01386881D02*
X01071901D01*
X01070885Y01385865D02*
Y01387897D01*
X01073706Y01382285D02*
X01075738D01*
X01074722Y01381268D02*
Y01383300D01*
X01068542Y01382119D02*
X01070574D01*
X01069558Y01381103D02*
Y01383135D01*
X01063514Y01379095D02*
X01065546D01*
X01064530Y01378078D02*
Y01380110D01*
X01061515Y01374695D02*
X01063547D01*
X01062531Y01373680D02*
Y01375712D01*
X01055492Y01374523D02*
X01057524D01*
X01056508Y01373506D02*
Y01375538D01*
X01058278Y01378971D02*
X01060310D01*
X01059294Y01377955D02*
Y01379987D01*
X01052615Y01378794D02*
X01054647D01*
X01053631Y01377778D02*
Y01379810D01*
X01068133Y01377254D02*
X01070165D01*
X01069149Y01376238D02*
Y01378270D01*
X01072340Y01391101D02*
X01074372D01*
X01073356Y01390085D02*
Y01392117D01*
X01075381Y01387024D02*
X01077413D01*
X01076397Y01386008D02*
Y01388040D01*
X01336559Y01335542D02*
X01338591D01*
X01337575Y01334527D02*
Y01336559D01*
X01327605Y01339989D02*
X01329637D01*
X01328621Y01338973D02*
Y01341005D01*
X01368060Y01334005D02*
X01370092D01*
X01369076Y01332989D02*
Y01335021D01*
X01366632Y01338447D02*
X01368664D01*
X01367648Y01337431D02*
Y01339463D01*
X01376818Y01336950D02*
X01378850D01*
X01377834Y01335934D02*
Y01337966D01*
X01371351Y01338957D02*
X01373383D01*
X01372367Y01337941D02*
Y01339973D01*
X01067275Y01477010D02*
X01069307D01*
X01068291Y01475994D02*
Y01478026D01*
X01061187Y01475238D02*
X01063219D01*
X01062203Y01474222D02*
Y01476254D01*
X01061187Y01480190D02*
X01063219D01*
X01062203Y01479174D02*
Y01481206D01*
X01044885Y01486293D02*
X01046917D01*
X01045901Y01485277D02*
Y01487309D01*
X01440942Y01503507D02*
X01442974D01*
X01441958Y01502491D02*
Y01504523D01*
X01669542Y01543050D02*
X01671574D01*
X01670558Y01542034D02*
Y01544066D01*
X01672239Y01538151D02*
X01674271D01*
X01673255Y01537135D02*
Y01539167D01*
X01674086Y01545122D02*
X01676118D01*
X01675102Y01544106D02*
Y01546138D01*
X01442974Y01385570D02*
X01445006D01*
X01443990Y01384554D02*
Y01386586D01*
X01326731Y01392136D02*
X01328763D01*
X01327747Y01391120D02*
Y01393152D01*
X01332963Y01394217D02*
X01334995D01*
X01333979Y01393201D02*
Y01395233D01*
X01297381Y01440180D02*
X01299413D01*
X01298397Y01439164D02*
Y01441196D01*
X01699418Y01537997D02*
X01701449D01*
X01700434Y01536981D02*
Y01539013D01*
X01702848Y01534362D02*
X01704880D01*
X01703864Y01533346D02*
Y01535378D01*
X01331957Y01551659D02*
X01333989D01*
X01332973Y01550643D02*
Y01552675D01*
X01173098Y01497605D02*
X01175130D01*
X01174114Y01496589D02*
Y01498621D01*
X01698216Y01378180D02*
X01700248D01*
X01699232Y01377164D02*
Y01379196D01*
X01697322Y01446394D02*
X01699354D01*
X01698338Y01445378D02*
Y01447410D01*
X01446937Y01451457D02*
X01448969D01*
X01447953Y01450441D02*
Y01452473D01*
X01253098Y01377605D02*
X01255130D01*
X01254114Y01376589D02*
Y01378621D01*
X01446937Y01458823D02*
X01448969D01*
X01447953Y01457807D02*
Y01459839D01*
X01253098Y01385605D02*
X01255130D01*
X01254114Y01384589D02*
Y01386621D01*
X01438587Y01461903D02*
X01440619D01*
X01439603Y01460887D02*
Y01462919D01*
X01245098Y01385605D02*
X01247130D01*
X01246114Y01384589D02*
Y01386621D01*
X01439583Y01469227D02*
X01441615D01*
X01440599Y01468211D02*
Y01470243D01*
X01245098Y01377605D02*
X01247130D01*
X01246114Y01376589D02*
Y01378621D01*
X01053136Y01513332D02*
X01055168D01*
X01054152Y01512316D02*
Y01514348D01*
X01213098Y01505605D02*
X01215130D01*
X01214114Y01504589D02*
Y01506621D01*
X00971620Y01510563D02*
X00973652D01*
X00972636Y01509547D02*
Y01511579D01*
X01245098Y01513605D02*
X01247130D01*
X01246114Y01512589D02*
Y01514621D01*
X00964586Y01500975D02*
X00966618D01*
X00965602Y01499959D02*
Y01501991D01*
X01217798Y01440335D02*
X01219830D01*
X01218814Y01439319D02*
Y01441351D01*
X01205098Y01450495D02*
X01207130D01*
X01206114Y01449479D02*
Y01451511D01*
X01205098Y01431445D02*
X01207130D01*
X01206114Y01430429D02*
Y01432461D01*
X01205098Y01440335D02*
X01207130D01*
X01206114Y01439319D02*
Y01441351D01*
X01205098Y01422555D02*
X01207130D01*
X01206114Y01421539D02*
Y01423571D01*
X01205098Y01460655D02*
X01207130D01*
X01206114Y01459639D02*
Y01461671D01*
X01158072Y01417117D02*
X01160104D01*
X01159088Y01416101D02*
Y01418133D01*
X01161833Y01466929D02*
X01163865D01*
X01162849Y01465913D02*
Y01467945D01*
X01166442Y01466281D02*
X01168474D01*
X01167458Y01465265D02*
Y01467297D01*
X01002006Y01449157D02*
X01004038D01*
X01003022Y01448141D02*
Y01450173D01*
X01079619Y01493064D02*
X01081651D01*
X01080635Y01492048D02*
Y01494080D01*
X01075267Y01466295D02*
X01077299D01*
X01076283Y01465279D02*
Y01467311D01*
X01099186Y01506474D02*
X01101218D01*
X01100202Y01505458D02*
Y01507490D01*
X01014456Y01503157D02*
X01016488D01*
X01015472Y01502141D02*
Y01504173D01*
X01445208Y01478583D02*
X01447240D01*
X01446224Y01477567D02*
Y01479599D01*
X01437588Y01478583D02*
X01439620D01*
X01438604Y01477567D02*
Y01479599D01*
X01229098Y01377605D02*
X01231130D01*
X01230114Y01376589D02*
Y01378621D01*
X01237098Y01377605D02*
X01239130D01*
X01238114Y01376589D02*
Y01378621D01*
X01102708Y01489303D02*
X01104740D01*
X01103724Y01488287D02*
Y01490319D01*
X01141098Y01449605D02*
X01143130D01*
X01142114Y01448589D02*
Y01450621D01*
X01277098Y01449605D02*
X01279130D01*
X01278114Y01448589D02*
Y01450621D01*
X01285098Y01441605D02*
X01287130D01*
X01286114Y01440589D02*
Y01442621D01*
X01229098Y01513605D02*
X01231130D01*
X01230114Y01512589D02*
Y01514621D01*
X01199103Y01481451D02*
X01201135D01*
X01200119Y01480435D02*
Y01482467D01*
X01213098Y01513605D02*
X01215130D01*
X01214114Y01512589D02*
Y01514621D01*
X01197098Y01513605D02*
X01199130D01*
X01198114Y01512589D02*
Y01514621D01*
X01173098Y01513605D02*
X01175130D01*
X01174114Y01512589D02*
Y01514621D01*
X01277098Y01513605D02*
X01279130D01*
X01278114Y01512589D02*
Y01514621D01*
X01221098Y01505605D02*
X01223130D01*
X01222114Y01504589D02*
Y01506621D01*
X01237098Y01513605D02*
X01239130D01*
X01238114Y01512589D02*
Y01514621D01*
X01213098Y01497605D02*
X01215130D01*
X01214114Y01496589D02*
Y01498621D01*
X01197098Y01505605D02*
X01199130D01*
X01198114Y01504589D02*
Y01506621D01*
X01173098Y01505605D02*
X01175130D01*
X01174114Y01504589D02*
Y01506621D01*
X01197098Y01497605D02*
X01199130D01*
X01198114Y01496589D02*
Y01498621D01*
X01181098Y01513605D02*
X01183130D01*
X01182114Y01512589D02*
Y01514621D01*
X01189098Y01513605D02*
X01191130D01*
X01190114Y01512589D02*
Y01514621D01*
X01205098Y01513605D02*
X01207130D01*
X01206114Y01512589D02*
Y01514621D01*
X01088302Y01514145D02*
X01090334D01*
X01089318Y01513129D02*
Y01515161D01*
X01092846Y01505802D02*
X01094878D01*
X01093862Y01504786D02*
Y01506818D01*
X01080830Y01476503D02*
X01082862D01*
X01081846Y01475486D02*
Y01477518D01*
X01111221Y01514603D02*
X01113253D01*
X01112237Y01513587D02*
Y01515619D01*
X01126776Y01514588D02*
X01128808D01*
X01127792Y01513573D02*
Y01515605D01*
X01121552Y01509414D02*
X01123584D01*
X01122568Y01508398D02*
Y01510430D01*
X00969339Y01447034D02*
X00971371D01*
X00970355Y01446018D02*
Y01448050D01*
X00969339Y01441446D02*
X00971371D01*
X00970355Y01440430D02*
Y01442462D01*
X01146079Y01514778D02*
X01148111D01*
X01147095Y01513762D02*
Y01515794D01*
X01140491Y01514778D02*
X01142523D01*
X01141507Y01513762D02*
Y01515794D01*
X01245606Y01489605D02*
X01247638D01*
X01246622Y01488589D02*
Y01490621D01*
X01261098Y01513605D02*
X01263130D01*
X01262114Y01512589D02*
Y01514621D01*
X01157098Y01449605D02*
X01159130D01*
X01158114Y01448589D02*
Y01450621D01*
X01179698Y01450495D02*
X01181730D01*
X01180714Y01449479D02*
Y01451511D01*
X01179698Y01440335D02*
X01181730D01*
X01180714Y01439319D02*
Y01441351D01*
X01157098Y01497605D02*
X01159130D01*
X01158114Y01496589D02*
Y01498621D01*
X01149098Y01473605D02*
X01151130D01*
X01150114Y01472589D02*
Y01474621D01*
X01157098Y01433605D02*
X01159130D01*
X01158114Y01432589D02*
Y01434621D01*
X01165161Y01426814D02*
X01167193D01*
X01166177Y01425798D02*
Y01427830D01*
X01284732Y01396194D02*
X01286764D01*
X01285748Y01395177D02*
Y01397210D01*
X01305177Y01413054D02*
X01307209D01*
X01306193Y01412038D02*
Y01414070D01*
X01309835Y01413054D02*
X01311867D01*
X01310851Y01412038D02*
Y01414070D01*
X01314423Y01413054D02*
X01316455D01*
X01315439Y01412038D02*
Y01414070D01*
X01319007Y01413067D02*
X01321039D01*
X01320023Y01412051D02*
Y01414083D01*
X01297246Y01395884D02*
X01299278D01*
X01298262Y01394868D02*
Y01396900D01*
X01297246Y01400471D02*
X01299278D01*
X01298262Y01399455D02*
Y01401487D01*
X01297232Y01405056D02*
X01299264D01*
X01298248Y01404040D02*
Y01406072D01*
X01319021Y01474123D02*
X01321053D01*
X01320037Y01473107D02*
Y01475139D01*
X01314363Y01474123D02*
X01316395D01*
X01315379Y01473107D02*
Y01475139D01*
X01309775Y01474123D02*
X01311807D01*
X01310791Y01473107D02*
Y01475139D01*
X01305191Y01474109D02*
X01307223D01*
X01306207Y01473093D02*
Y01475125D01*
X01083114Y01377956D02*
X01085146D01*
X01084130Y01376940D02*
Y01378972D01*
X01015238Y01416050D02*
X01017270D01*
X01016254Y01415034D02*
Y01417066D01*
X01068672Y01417485D02*
X01070704D01*
X01069688Y01416469D02*
Y01418501D01*
X01719072Y01518666D02*
X01721104D01*
X01720088Y01517650D02*
Y01519682D01*
X01705864Y01518286D02*
X01707896D01*
X01706880Y01517270D02*
Y01519302D01*
X01663470Y01513840D02*
X01665502D01*
X01664486Y01512824D02*
Y01514856D01*
X01664184Y01552194D02*
X01666216D01*
X01665200Y01551178D02*
Y01553210D01*
X01673098Y01551686D02*
X01675130D01*
X01674114Y01550670D02*
Y01552702D01*
X01703832Y01473708D02*
X01705864D01*
X01704848Y01472692D02*
Y01474724D01*
X01713992Y01523371D02*
X01716024D01*
X01715008Y01522355D02*
Y01524387D01*
X01758399Y01528944D02*
X01760431D01*
X01759415Y01527928D02*
Y01529960D01*
X01745742Y01528826D02*
X01747774D01*
X01746758Y01527810D02*
Y01529842D01*
X01732026Y01528944D02*
X01734058D01*
X01733042Y01527928D02*
Y01529960D01*
X01719078Y01529118D02*
X01721110D01*
X01720094Y01528102D02*
Y01530134D01*
X01703070Y01522984D02*
X01705102D01*
X01704086Y01521968D02*
Y01524000D01*
X01694180Y01524794D02*
X01696212D01*
X01695196Y01523778D02*
Y01525810D01*
X01699006Y01499616D02*
X01701038D01*
X01700022Y01498600D02*
Y01500632D01*
X01699514Y01511808D02*
X01701546D01*
X01700530Y01510792D02*
Y01512824D01*
X01707896Y01527048D02*
X01709928D01*
X01708912Y01526032D02*
Y01528064D01*
X01401826Y01525429D02*
X01403858D01*
X01402842Y01524413D02*
Y01526445D01*
X01660652Y01387348D02*
X01662684D01*
X01661668Y01386332D02*
Y01388364D01*
X01647786Y01393308D02*
X01649818D01*
X01648802Y01392292D02*
Y01394324D01*
X01641442Y01392089D02*
X01643474D01*
X01642458Y01391073D02*
Y01393105D01*
X01130808Y01459271D02*
X01132840D01*
X01131824Y01458255D02*
Y01460287D01*
X01688084Y01526588D02*
X01690116D01*
X01689100Y01525572D02*
Y01527604D01*
X01694180Y01518286D02*
X01696212D01*
X01695196Y01517270D02*
Y01519302D01*
X01694180Y01505803D02*
X01696212D01*
X01695196Y01504787D02*
Y01506819D01*
X01694434Y01495002D02*
X01696466D01*
X01695450Y01493986D02*
Y01496018D01*
X01712722Y01493266D02*
X01714754D01*
X01713738Y01492250D02*
Y01494282D01*
X01710944Y01480820D02*
X01712976D01*
X01711960Y01479804D02*
Y01481836D01*
X01700784Y01481093D02*
X01702816D01*
X01701800Y01480077D02*
Y01482109D01*
X01692656Y01477010D02*
X01694688D01*
X01693672Y01475994D02*
Y01478026D01*
X01690116Y01468828D02*
X01692148D01*
X01691132Y01467812D02*
Y01469844D01*
X01667510Y01482598D02*
X01669542D01*
X01668526Y01481582D02*
Y01483614D01*
X01667256Y01498600D02*
X01669288D01*
X01668272Y01497584D02*
Y01499616D01*
X01667256Y01509268D02*
X01669288D01*
X01668272Y01508252D02*
Y01510284D01*
X01667477Y01517396D02*
X01669509D01*
X01668493Y01516380D02*
Y01518412D01*
X01671574Y01524254D02*
X01673606D01*
X01672590Y01523238D02*
Y01525270D01*
X01673860Y01531159D02*
X01675892D01*
X01674876Y01530143D02*
Y01532175D01*
X01602486Y01436370D02*
X01604518D01*
X01603502Y01435354D02*
Y01437386D01*
X01618646Y01399921D02*
X01620678D01*
X01619662Y01398905D02*
Y01400937D01*
X01590802Y01395476D02*
X01592834D01*
X01591818Y01394460D02*
Y01396492D01*
X01582378Y01395604D02*
X01584410D01*
X01583394Y01394588D02*
Y01396620D01*
X01588356Y01403468D02*
X01590388D01*
X01589372Y01402452D02*
Y01404484D01*
X01642618Y01494231D02*
X01644650D01*
X01643634Y01493215D02*
Y01495247D01*
X01427988Y01537716D02*
X01430020D01*
X01429004Y01536700D02*
Y01538732D01*
X01422146Y01538986D02*
X01424178D01*
X01423162Y01537970D02*
Y01540002D01*
X01417066Y01543812D02*
X01419098D01*
X01418082Y01542796D02*
Y01544828D01*
X01417735Y01525524D02*
X01419767D01*
X01418750Y01524508D02*
Y01526540D01*
X01366154Y01531329D02*
X01368186D01*
X01367170Y01530313D02*
Y01532345D01*
X01357659Y01542796D02*
X01359691D01*
X01358675Y01541780D02*
Y01543812D01*
X01437974Y01521502D02*
X01440006D01*
X01438990Y01520486D02*
Y01522518D01*
X01476756Y01489710D02*
X01478788D01*
X01477772Y01488694D02*
Y01490726D01*
X01474668Y01500124D02*
X01476700D01*
X01475684Y01499108D02*
Y01501140D01*
X01469644Y01496356D02*
X01471676D01*
X01470660Y01495340D02*
Y01497372D01*
X01348232Y01525322D02*
X01350264D01*
X01349248Y01524306D02*
Y01526338D01*
X01133098Y01401605D02*
X01135130D01*
X01134114Y01400589D02*
Y01402621D01*
X01097953Y01427683D02*
X01099985D01*
X01098969Y01426667D02*
Y01428699D01*
X01088380Y01428191D02*
X01090412D01*
X01089396Y01427175D02*
Y01429207D01*
X01115368Y01398642D02*
X01117400D01*
X01116384Y01397626D02*
Y01399658D01*
X01114179Y01446411D02*
X01116211D01*
X01115195Y01445395D02*
Y01447427D01*
X01077853Y01513994D02*
X01079885D01*
X01078869Y01512978D02*
Y01515010D01*
X01543358Y01464564D02*
X01545390D01*
X01544374Y01463548D02*
Y01465580D01*
X01542893Y01497838D02*
X01544925D01*
X01543909Y01496822D02*
Y01498854D01*
X01550077Y01474724D02*
X01552109D01*
X01551093Y01473708D02*
Y01475740D01*
X01539931Y01489106D02*
X01541963D01*
X01540947Y01488090D02*
Y01490122D01*
X01551385Y01490456D02*
X01553417D01*
X01552401Y01489440D02*
Y01491472D01*
X01530858Y01484979D02*
X01532890D01*
X01531874Y01483963D02*
Y01485995D01*
X01599438Y01511300D02*
X01601470D01*
X01600454Y01510284D02*
Y01512316D01*
X01597152Y01519936D02*
X01599184D01*
X01598168Y01518920D02*
Y01520952D01*
X01554877Y01526737D02*
X01556909D01*
X01555893Y01525721D02*
Y01527753D01*
X01605026Y01482090D02*
X01607058D01*
X01606042Y01481074D02*
Y01483106D01*
X01437974Y01429376D02*
X01440006D01*
X01438990Y01428360D02*
Y01430392D01*
X01483360Y01426357D02*
X01485392D01*
X01484376Y01425341D02*
Y01427373D01*
X01471672Y01408145D02*
X01473704D01*
X01472688Y01407129D02*
Y01409161D01*
X01438656Y01409954D02*
X01440688D01*
X01439672Y01408938D02*
Y01410970D01*
X01430274Y01380490D02*
X01432306D01*
X01431290Y01379474D02*
Y01381506D01*
X01649698Y01373067D02*
X01651730D01*
X01650714Y01372050D02*
Y01374082D01*
X01684124Y01390000D02*
X01686156D01*
X01685140Y01388984D02*
Y01391016D01*
X01667858Y01385809D02*
X01669890D01*
X01668874Y01384794D02*
Y01386826D01*
X01667477Y01392936D02*
X01669509D01*
X01668493Y01391920D02*
Y01393952D01*
X01647653Y01335786D02*
X01649685D01*
X01648669Y01334770D02*
Y01336802D01*
X01643032Y01352242D02*
X01645064D01*
X01644048Y01351226D02*
Y01353258D01*
X01658112Y01381909D02*
X01660144D01*
X01659128Y01380893D02*
Y01382925D01*
X01501488Y01492834D02*
X01503520D01*
X01502504Y01491817D02*
Y01493849D01*
X01046775Y01400063D02*
X01048807D01*
X01047791Y01399046D02*
Y01401078D01*
X01038425Y01400195D02*
X01040457D01*
X01039441Y01399179D02*
Y01401211D01*
X01042773Y01408057D02*
X01044805D01*
X01043789Y01407041D02*
Y01409073D01*
X01039103Y01405059D02*
X01041135D01*
X01040119Y01404043D02*
Y01406075D01*
X01046298Y01404850D02*
X01048330D01*
X01047314Y01403834D02*
Y01405866D01*
X01038924Y01395506D02*
X01040956D01*
X01039940Y01394490D02*
Y01396522D01*
X01046447Y01395423D02*
X01048479D01*
X01047463Y01394407D02*
Y01396439D01*
X01040892Y01483868D02*
X01042924D01*
X01041908Y01482852D02*
Y01484884D01*
X01173098Y01385605D02*
X01175130D01*
X01174114Y01384589D02*
Y01386621D01*
X01297235Y01496092D02*
X01299267D01*
X01298251Y01495076D02*
Y01497108D01*
X01297248Y01491507D02*
X01299280D01*
X01298264Y01490491D02*
Y01492523D01*
X01297248Y01486920D02*
X01299280D01*
X01298264Y01485904D02*
Y01487936D01*
X01297248Y01482262D02*
X01299280D01*
X01298264Y01481246D02*
Y01483278D01*
X01319010Y01504090D02*
X01321042D01*
X01320026Y01503074D02*
Y01505106D01*
X01314425Y01504090D02*
X01316457D01*
X01315441Y01503074D02*
Y01505106D01*
X01309837Y01504090D02*
X01311869D01*
X01310853Y01503074D02*
Y01505106D01*
X01305180Y01504090D02*
X01307212D01*
X01306196Y01503074D02*
Y01505106D01*
X01601482Y01467465D02*
X01603514D01*
X01602498Y01466449D02*
Y01468481D01*
X01660933Y01503823D02*
X01662965D01*
X01661949Y01502807D02*
Y01504839D01*
X01554554Y01345761D02*
X01556586D01*
X01555570Y01344745D02*
Y01346777D01*
X01589089Y01502057D02*
X01591121D01*
X01590105Y01501041D02*
Y01503073D01*
X01548018Y01464115D02*
X01550050D01*
X01549034Y01463099D02*
Y01465131D01*
X01042314Y01490091D02*
X01044346D01*
X01043330Y01489075D02*
Y01491107D01*
X01038209Y01487998D02*
X01040241D01*
X01039225Y01486982D02*
Y01489014D01*
X01149098Y01441605D02*
X01151130D01*
X01150114Y01440589D02*
Y01442621D01*
X01768094Y01351788D02*
X01770126D01*
X01769110Y01350772D02*
Y01352804D01*
X01435572Y01497228D02*
X01437604D01*
X01436588Y01496212D02*
Y01498244D01*
X01157098Y01393605D02*
X01159130D01*
X01158114Y01392589D02*
Y01394621D01*
X01157098Y01401605D02*
X01159130D01*
X01158114Y01400589D02*
Y01402621D01*
X01141098Y01393605D02*
X01143130D01*
X01142114Y01392589D02*
Y01394621D01*
X01253098Y01401605D02*
X01255130D01*
X01254114Y01400589D02*
Y01402621D01*
X01370111Y01369874D02*
X01372143D01*
X01371127Y01368858D02*
Y01370890D01*
X01364376Y01369874D02*
X01366408D01*
X01365392Y01368858D02*
Y01370890D01*
X01080876Y01420771D02*
X01082908D01*
X01081892Y01419755D02*
Y01421787D01*
X01124325Y01402901D02*
X01126357D01*
X01125341Y01401885D02*
Y01403917D01*
X01679556Y01551062D02*
X01681588D01*
X01680573Y01550046D02*
Y01552078D01*
X01768965Y01552913D02*
X01770997D01*
X01769982Y01551897D02*
Y01553929D01*
X01697078Y01552751D02*
X01699110D01*
X01698094Y01551736D02*
Y01553768D01*
X01687354Y01552757D02*
X01689386D01*
X01688370Y01551741D02*
Y01553773D01*
X01692216Y01552754D02*
X01694248D01*
X01693232Y01551738D02*
Y01553770D01*
X01703431Y01552910D02*
X01705463D01*
X01704447Y01551894D02*
Y01553926D01*
X01709984Y01552910D02*
X01712016D01*
X01711000Y01551894D02*
Y01553926D01*
X01716538Y01552910D02*
X01718570D01*
X01717554Y01551895D02*
Y01553927D01*
X01723091Y01552911D02*
X01725123D01*
X01724107Y01551895D02*
Y01553927D01*
X01729645Y01552911D02*
X01731677D01*
X01730661Y01551895D02*
Y01553927D01*
X01736198Y01552911D02*
X01738230D01*
X01737214Y01551895D02*
Y01553927D01*
X01742752Y01552912D02*
X01744784D01*
X01743768Y01551896D02*
Y01553927D01*
X01749305Y01552912D02*
X01751337D01*
X01750321Y01551896D02*
Y01553928D01*
X01755859Y01552912D02*
X01757891D01*
X01756875Y01551896D02*
Y01553928D01*
X01762412Y01552912D02*
X01764444D01*
X01763428Y01551896D02*
Y01553928D01*
X01761829Y01534360D02*
X01763861D01*
X01762845Y01533344D02*
Y01535376D01*
X01755275Y01534360D02*
X01757307D01*
X01756291Y01533344D02*
Y01535376D01*
X01758399Y01537995D02*
X01760431D01*
X01759415Y01536979D02*
Y01539011D01*
X01748722Y01534360D02*
X01750754D01*
X01749738Y01533344D02*
Y01535376D01*
X01751845Y01537995D02*
X01753877D01*
X01752861Y01536979D02*
Y01539011D01*
X01742168Y01534361D02*
X01744200D01*
X01743185Y01533345D02*
Y01535377D01*
X01745292Y01537996D02*
X01747324D01*
X01746308Y01536980D02*
Y01539012D01*
X01735615Y01534361D02*
X01737647D01*
X01736631Y01533345D02*
Y01535377D01*
X01738738Y01537996D02*
X01740770D01*
X01739754Y01536980D02*
Y01539012D01*
X01729062Y01534361D02*
X01731094D01*
X01730078Y01533345D02*
Y01535377D01*
X01732185Y01537996D02*
X01734217D01*
X01733201Y01536980D02*
Y01539012D01*
X01722508Y01534361D02*
X01724540D01*
X01723524Y01533345D02*
Y01535377D01*
X01725631Y01537996D02*
X01727663D01*
X01726647Y01536980D02*
Y01539012D01*
X01715955Y01534362D02*
X01717987D01*
X01716971Y01533346D02*
Y01535378D01*
X01719078Y01537997D02*
X01721110D01*
X01720094Y01536981D02*
Y01539013D01*
X01712524Y01537997D02*
X01714556D01*
X01713540Y01536981D02*
Y01539013D01*
X01709401Y01534362D02*
X01711433D01*
X01710417Y01533346D02*
Y01535378D01*
X01705971Y01537997D02*
X01708003D01*
X01706987Y01536981D02*
Y01539013D01*
X01189098Y01369605D02*
X01191130D01*
X01190114Y01368589D02*
Y01370621D01*
X01205126Y01369577D02*
X01207158D01*
X01206142Y01368561D02*
Y01370593D01*
X01213098Y01377591D02*
X01215130D01*
X01214114Y01376575D02*
Y01378607D01*
X01427635Y01443125D02*
X01429667D01*
X01428651Y01442109D02*
Y01444141D01*
X01109566Y01398642D02*
X01111598D01*
X01110582Y01397626D02*
Y01399658D01*
X01484015Y01495298D02*
X01486047D01*
X01485031Y01494282D02*
Y01496314D01*
X01467412Y01457879D02*
X01469444D01*
X01468428Y01456864D02*
Y01458896D01*
X01490494Y01458321D02*
X01492526D01*
X01491510Y01457305D02*
Y01459337D01*
X01511538Y01492861D02*
X01513570D01*
X01512554Y01491845D02*
Y01493877D01*
X01526352Y01463832D02*
X01528384D01*
X01527368Y01462816D02*
Y01464848D01*
X01378855Y01552816D02*
X01380887D01*
X01379871Y01551801D02*
Y01553833D01*
X01253098Y01513605D02*
X01255130D01*
X01254114Y01512589D02*
Y01514621D01*
X01066450Y01513197D02*
X01068482D01*
X01067466Y01512181D02*
Y01514213D01*
X01087125Y01397449D02*
X01089157D01*
X01088141Y01396433D02*
Y01398465D01*
X01149098Y01409605D02*
X01151130D01*
X01150114Y01408589D02*
Y01410621D01*
X01133098Y01409605D02*
X01135130D01*
X01134114Y01408589D02*
Y01410621D01*
X00967334Y01494055D02*
X00969366D01*
X00968350Y01493039D02*
Y01495071D01*
X01205098Y01385605D02*
X01207130D01*
X01206114Y01384589D02*
Y01386621D01*
X01293098Y01473565D02*
X01295130D01*
X01294114Y01472549D02*
Y01474581D01*
X01285098Y01473585D02*
X01287130D01*
X01286114Y01472569D02*
Y01474601D01*
X01383777Y01355591D02*
X01385809D01*
X01384793Y01354575D02*
Y01356607D01*
X01336433Y01354517D02*
X01338465D01*
X01337449Y01353501D02*
Y01355533D01*
X01329581Y01354787D02*
X01331613D01*
X01330597Y01353771D02*
Y01355803D01*
X01501863Y01544442D02*
X01503895D01*
X01502879Y01543426D02*
Y01545458D01*
X01221098Y01393605D02*
X01223130D01*
X01222114Y01392589D02*
Y01394621D01*
X01237098Y01385605D02*
X01239130D01*
X01238114Y01384589D02*
Y01386621D01*
X01261098Y01385605D02*
X01263130D01*
X01262114Y01384589D02*
Y01386621D01*
X01133098Y01377605D02*
X01135130D01*
X01134114Y01376589D02*
Y01378621D01*
X01133098Y01369605D02*
X01135130D01*
X01134114Y01368589D02*
Y01370621D01*
X01261098Y01457605D02*
X01263130D01*
X01262114Y01456589D02*
Y01458621D01*
X01261098Y01473605D02*
X01263130D01*
X01262114Y01472589D02*
Y01474621D01*
X01269098Y01473605D02*
X01271130D01*
X01270114Y01472589D02*
Y01474621D01*
X01261098Y01481605D02*
X01263130D01*
X01262114Y01480589D02*
Y01482621D01*
X01289953Y01457188D02*
X01291985D01*
X01290969Y01456172D02*
Y01458204D01*
X01284131Y01510007D02*
X01286163D01*
X01285147Y01508991D02*
Y01511023D01*
X01115961Y01375999D02*
X01117993D01*
X01116977Y01374984D02*
Y01377016D01*
X01106695Y01375966D02*
X01108727D01*
X01107711Y01374951D02*
Y01376983D01*
X01123719Y01432372D02*
X01125751D01*
X01124735Y01431356D02*
Y01433388D01*
X01103122Y01398642D02*
X01105154D01*
X01104138Y01397626D02*
Y01399658D01*
X01141098Y01409605D02*
X01143130D01*
X01142114Y01408589D02*
Y01410621D01*
X01141098Y01433605D02*
X01143130D01*
X01142114Y01432589D02*
Y01434621D01*
X01728276Y01398788D02*
X01730308D01*
X01729292Y01397772D02*
Y01399804D01*
X01096546Y01442536D02*
X01098578D01*
X01097562Y01441520D02*
Y01443552D01*
X01387383Y01496653D02*
X01389415D01*
X01388399Y01495637D02*
Y01497669D01*
X01402842Y01351280D02*
X01404874D01*
X01403858Y01350264D02*
Y01352296D01*
X01277098Y01441605D02*
X01279130D01*
X01278114Y01440589D02*
Y01442621D01*
X01197098Y01385605D02*
X01199130D01*
X01198114Y01384589D02*
Y01386621D01*
X01452555Y01488982D02*
X01454587D01*
X01453571Y01487966D02*
Y01489998D01*
X01382885Y01484983D02*
X01384917D01*
X01383901Y01483967D02*
Y01485999D01*
X01367681Y01541307D02*
X01369713D01*
X01368697Y01540291D02*
Y01542323D01*
X01366098Y01522532D02*
X01368130D01*
X01367114Y01521516D02*
Y01523548D01*
X01364915Y01512201D02*
X01366947D01*
X01365931Y01511185D02*
Y01513217D01*
X01332750Y01385097D02*
X01334782D01*
X01333766Y01384081D02*
Y01386113D01*
X01332277Y01434920D02*
X01334309D01*
X01333293Y01433904D02*
Y01435936D01*
X01277212Y01401491D02*
X01279244D01*
X01278228Y01400475D02*
Y01402507D01*
X01261098Y01409605D02*
X01263130D01*
X01262114Y01408589D02*
Y01410621D01*
X01269212Y01409719D02*
X01271244D01*
X01270228Y01408703D02*
Y01410735D01*
X01277098Y01369605D02*
X01279130D01*
X01278114Y01368589D02*
Y01370621D01*
X01245098Y01393605D02*
X01247130D01*
X01246114Y01392589D02*
Y01394621D01*
X01349190Y01355491D02*
X01351222D01*
X01350206Y01354475D02*
Y01356507D01*
X01332214Y01529080D02*
X01334246D01*
X01333230Y01528064D02*
Y01530096D01*
X01332214Y01522200D02*
X01334246D01*
X01333230Y01521184D02*
Y01523216D01*
X01286764Y01490770D02*
X01288796D01*
X01287780Y01489754D02*
Y01491786D01*
X01073251Y01424645D02*
X01075283D01*
X01074267Y01423629D02*
Y01425661D01*
X01074268Y01413510D02*
X01076301D01*
X01075285Y01412494D02*
Y01414526D01*
X01002290Y01413958D02*
X01004322D01*
X01003306Y01412942D02*
Y01414974D01*
X01008052Y01423162D02*
X01010083D01*
X01009068Y01422146D02*
Y01424178D01*
X00981021Y01494527D02*
X00983053D01*
X00982037Y01493511D02*
Y01495543D01*
X00975468Y01494432D02*
X00977500D01*
X00976484Y01493416D02*
Y01495448D01*
X01008209Y01469897D02*
X01010241D01*
X01009225Y01468881D02*
Y01470913D01*
X01008380Y01442466D02*
X01010412D01*
X01009396Y01441450D02*
Y01443482D01*
X01016252Y01470469D02*
X01018283D01*
X01017268Y01469453D02*
Y01471485D01*
X01077722Y01443360D02*
X01079754D01*
X01078738Y01442344D02*
Y01444376D01*
X01077740Y01435372D02*
X01079772D01*
X01078756Y01434356D02*
Y01436388D01*
X01081303Y01448012D02*
X01083335D01*
X01082319Y01446996D02*
Y01449028D01*
X01081303Y01454633D02*
X01083335D01*
X01082319Y01453617D02*
Y01455649D01*
X01102285Y01449296D02*
X01104317D01*
X01103301Y01448280D02*
Y01450312D01*
X01112453Y01434490D02*
X01114485D01*
X01113469Y01433474D02*
Y01435506D01*
X01082471Y01513948D02*
X01084503D01*
X01083487Y01512932D02*
Y01514964D01*
X01082425Y01509330D02*
X01084457D01*
X01083441Y01508314D02*
Y01510346D01*
X00964537Y01506179D02*
X00966569D01*
X00965553Y01505163D02*
Y01507195D01*
X00966559Y01510806D02*
X00968591D01*
X00967575Y01509790D02*
Y01511822D01*
X01141098Y01377605D02*
X01143130D01*
X01142114Y01376589D02*
Y01378621D01*
X01165098Y01497605D02*
X01167130D01*
X01166114Y01496589D02*
Y01498621D01*
X01181098Y01497605D02*
X01183130D01*
X01182114Y01496589D02*
Y01498621D01*
X01094278Y01369854D02*
X01096310D01*
X01095294Y01368838D02*
Y01370870D01*
X01714436Y01337130D02*
X01716468D01*
X01715452Y01336114D02*
Y01338146D01*
X01656174Y01474760D02*
X01658206D01*
X01657190Y01473744D02*
Y01475776D01*
X01648470Y01474839D02*
X01650502D01*
X01649486Y01473823D02*
Y01475855D01*
X01739886Y01340027D02*
X01741918D01*
X01740902Y01339011D02*
Y01341043D01*
X01744830Y01340039D02*
X01746862D01*
X01745846Y01339023D02*
Y01341055D01*
X01706097Y01505987D02*
X01708129D01*
X01707113Y01504971D02*
Y01507003D01*
X01712816Y01468057D02*
X01714848D01*
X01713832Y01467041D02*
Y01469073D01*
X01698846Y01466434D02*
X01700878D01*
X01699862Y01465418D02*
Y01467450D01*
X01700092Y01528944D02*
X01702124D01*
X01701108Y01527928D02*
Y01529960D01*
X01578958Y01526912D02*
X01580990D01*
X01579974Y01525896D02*
Y01527928D01*
X01527151Y01436600D02*
X01529183D01*
X01528167Y01435584D02*
Y01437616D01*
X01382978Y01451728D02*
X01385010D01*
X01383994Y01450712D02*
Y01452744D01*
X01383015Y01457832D02*
X01385047D01*
X01384031Y01456816D02*
Y01458848D01*
X01611470Y01390006D02*
X01613502D01*
X01612486Y01388990D02*
Y01391022D01*
X01571084Y01361558D02*
X01573116D01*
X01572100Y01360542D02*
Y01362574D01*
X01563083Y01370702D02*
X01565115D01*
X01564099Y01369686D02*
Y01371718D01*
X01634932Y01380100D02*
X01636964D01*
X01635948Y01379084D02*
Y01381116D01*
X01632044Y01392800D02*
X01634076D01*
X01633060Y01391784D02*
Y01393816D01*
X01616503Y01386517D02*
X01618535D01*
X01617519Y01385501D02*
Y01387533D01*
X01589372Y01429454D02*
X01591404D01*
X01590388Y01428438D02*
Y01430470D01*
X01576590Y01429185D02*
X01578622D01*
X01577606Y01428169D02*
Y01430201D01*
X01560416Y01428614D02*
X01562448D01*
X01561432Y01427598D02*
Y01429630D01*
X01652597Y01378309D02*
X01654629D01*
X01653613Y01377293D02*
Y01379325D01*
X01465445Y01447735D02*
X01467477D01*
X01466461Y01446719D02*
Y01448751D01*
X01531460Y01377306D02*
X01533492D01*
X01532476Y01376290D02*
Y01378322D01*
X01551526Y01365737D02*
X01553558D01*
X01552542Y01364721D02*
Y01366753D01*
X01775206Y01352042D02*
X01777238D01*
X01776222Y01351026D02*
Y01353058D01*
X01788406Y01340651D02*
X01790438D01*
X01789422Y01339635D02*
Y01341667D01*
X01772659Y01334209D02*
X01774691D01*
X01773675Y01333193D02*
Y01335225D01*
X01425129Y01417692D02*
X01427161D01*
X01426145Y01416676D02*
Y01418708D01*
X01457038Y01417912D02*
X01459070D01*
X01458054Y01416897D02*
Y01418929D01*
X01462372Y01408167D02*
X01464404D01*
X01463388Y01407151D02*
Y01409183D01*
X01739740Y01426074D02*
X01741772D01*
X01740756Y01425058D02*
Y01427090D01*
X01708111Y01424656D02*
X01710143D01*
X01709127Y01423640D02*
Y01425672D01*
X01721806Y01438207D02*
X01723838D01*
X01722822Y01437191D02*
Y01439223D01*
X01547716Y01526588D02*
X01549748D01*
X01548732Y01525572D02*
Y01527604D01*
X01422325Y01476535D02*
X01424357D01*
X01423341Y01475519D02*
Y01477551D01*
X01576672Y01460110D02*
X01578704D01*
X01577688Y01459094D02*
Y01461126D01*
X01564480Y01451220D02*
X01566512D01*
X01565496Y01450204D02*
Y01452236D01*
X01589372Y01422704D02*
X01591404D01*
X01590388Y01421688D02*
Y01423720D01*
X01471943Y01377320D02*
X01473975D01*
X01472959Y01376304D02*
Y01378336D01*
X01524679Y01502206D02*
X01526711D01*
X01525695Y01501190D02*
Y01503222D01*
X01599432Y01482716D02*
X01601464D01*
X01600448Y01481700D02*
Y01483732D01*
X01558638Y01401174D02*
X01560670D01*
X01559654Y01400159D02*
Y01402191D01*
X01558892Y01415413D02*
X01560924D01*
X01559908Y01414397D02*
Y01416429D01*
X01722776Y01333927D02*
X01724808D01*
X01723792Y01332911D02*
Y01334943D01*
X01497049Y01446780D02*
X01499081D01*
X01498065Y01445764D02*
Y01447796D01*
X01542532Y01413374D02*
X01544564D01*
X01543548Y01412358D02*
Y01414390D01*
X01492344Y01503544D02*
X01494376D01*
X01493360Y01502528D02*
Y01504560D01*
X01390490Y01470960D02*
X01392522D01*
X01391506Y01469944D02*
Y01471976D01*
X01598262Y01386196D02*
X01600294D01*
X01599278Y01385180D02*
Y01387212D01*
X01577688Y01364404D02*
X01579720D01*
X01578704Y01363388D02*
Y01365420D01*
X01492344Y01518498D02*
X01494376D01*
X01493360Y01517482D02*
Y01519514D01*
X01644242Y01515349D02*
X01646274D01*
X01645258Y01514333D02*
Y01516365D01*
X01661818Y01494198D02*
X01663850D01*
X01662834Y01493182D02*
Y01495214D01*
X01383172Y01363204D02*
X01385204D01*
X01384188Y01362188D02*
Y01364220D01*
X01760220Y01352042D02*
X01762252D01*
X01761236Y01351026D02*
Y01353058D01*
X01732882Y01469508D02*
X01734914D01*
X01733898Y01468492D02*
Y01470524D01*
X01661762Y01392995D02*
X01663794D01*
X01662778Y01391979D02*
Y01394011D01*
X01704213Y01446352D02*
X01706245D01*
X01705229Y01445336D02*
Y01447368D01*
X01626328Y01510050D02*
X01628360D01*
X01627344Y01509034D02*
Y01511066D01*
X01561949Y01394578D02*
X01563981D01*
X01562965Y01393562D02*
Y01395594D01*
X01576342Y01395264D02*
X01578374D01*
X01577358Y01394247D02*
Y01396279D01*
X01576590Y01422435D02*
X01578622D01*
X01577606Y01421420D02*
Y01423452D01*
X01498388Y01436073D02*
X01500420D01*
X01499404Y01435056D02*
Y01437088D01*
X01517236Y01493197D02*
X01519268D01*
X01518252Y01492181D02*
Y01494213D01*
X01538318Y01514819D02*
X01540350D01*
X01539334Y01513803D02*
Y01515835D01*
X01485455Y01335768D02*
X01487487D01*
X01486471Y01334752D02*
Y01336784D01*
X01502158Y01407840D02*
X01504190D01*
X01503174Y01406824D02*
Y01408856D01*
X01562702Y01378865D02*
X01564734D01*
X01563718Y01377849D02*
Y01379881D01*
X01504536Y01358154D02*
X01506568D01*
X01505552Y01357138D02*
Y01359170D01*
X01689385Y01392900D02*
X01691417D01*
X01690401Y01391884D02*
Y01393916D01*
X01596738Y01445886D02*
X01598770D01*
X01597754Y01444870D02*
Y01446902D01*
X01587340Y01456528D02*
X01589372D01*
X01588356Y01455512D02*
Y01457544D01*
X01596738Y01457062D02*
X01598770D01*
X01597754Y01456046D02*
Y01458078D01*
X01608651Y01467704D02*
X01610683D01*
X01609667Y01466688D02*
Y01468720D01*
X01600828Y01421434D02*
X01602860D01*
X01601844Y01420418D02*
Y01422450D01*
X01608905Y01421434D02*
X01610937D01*
X01609921Y01420418D02*
Y01422450D01*
X01615892Y01406262D02*
X01617924D01*
X01616908Y01405246D02*
Y01407278D01*
X01714597Y01433189D02*
X01716629D01*
X01715613Y01432173D02*
Y01434205D01*
X01706974Y01433186D02*
X01709006D01*
X01707990Y01432170D02*
Y01434202D01*
X01031454Y01377884D02*
X01033486D01*
X01032470Y01376868D02*
Y01378900D01*
X01021550Y01377884D02*
X01023582D01*
X01022566Y01376868D02*
Y01378900D01*
X01026502Y01377884D02*
X01028534D01*
X01027518Y01376868D02*
Y01378900D01*
X01110836Y01507617D02*
X01112868D01*
X01111852Y01506601D02*
Y01508633D01*
X01133098Y01505605D02*
X01135130D01*
X01134114Y01504589D02*
Y01506621D01*
X01141098Y01473605D02*
X01143130D01*
X01142114Y01472589D02*
Y01474621D01*
X01023954Y01411610D02*
X01025986D01*
X01024970Y01410594D02*
Y01412626D01*
X01023954Y01416562D02*
X01025986D01*
X01024970Y01415546D02*
Y01417578D01*
X01038332Y01492772D02*
X01040364D01*
X01039348Y01491756D02*
Y01493788D01*
X01046514Y01492894D02*
X01048546D01*
X01047530Y01491878D02*
Y01493910D01*
X01068225Y01443360D02*
X01070257D01*
X01069241Y01442344D02*
Y01444376D01*
X01023954Y01475238D02*
X01025986D01*
X01024970Y01474222D02*
Y01476254D01*
X01023954Y01480190D02*
X01025986D01*
X01024970Y01479174D02*
Y01481206D01*
X01061187Y01416562D02*
X01063219D01*
X01062203Y01415546D02*
Y01417578D01*
X01061187Y01411610D02*
X01063219D01*
X01062203Y01410594D02*
Y01412626D01*
X00998365Y01480549D02*
X01000397D01*
X00999381Y01479533D02*
Y01481565D01*
X00998365Y01472929D02*
X01000397D01*
X00999381Y01471913D02*
Y01473945D01*
X00993031Y01472929D02*
X00995063D01*
X00994047Y01471913D02*
Y01473945D01*
X00993031Y01480549D02*
X00995063D01*
X00994047Y01479533D02*
Y01481565D01*
X01141098Y01497605D02*
X01143130D01*
X01142114Y01496589D02*
Y01498621D01*
X01141098Y01489605D02*
X01143130D01*
X01142114Y01488589D02*
Y01490621D01*
X01421508Y01442686D02*
X01423540D01*
X01422524Y01441670D02*
Y01443702D01*
X01510378Y01509386D02*
X01512410D01*
X01511394Y01508370D02*
Y01510402D01*
X01101988Y01414534D02*
X01104020D01*
X01103004Y01413518D02*
Y01415550D01*
X01261098Y01401605D02*
X01263130D01*
X01262114Y01400589D02*
Y01402621D01*
X01269098Y01401605D02*
X01271130D01*
X01270114Y01400589D02*
Y01402621D01*
X01229098Y01369605D02*
X01231130D01*
X01230114Y01368589D02*
Y01370621D01*
X01221098Y01369605D02*
X01223130D01*
X01222114Y01368589D02*
Y01370621D01*
X01213098Y01369605D02*
X01215130D01*
X01214114Y01368589D02*
Y01370621D01*
X01181098Y01369605D02*
X01183130D01*
X01182114Y01368589D02*
Y01370621D01*
X01173098Y01369605D02*
X01175130D01*
X01174114Y01368589D02*
Y01370621D01*
X01165098Y01369605D02*
X01167130D01*
X01166114Y01368589D02*
Y01370621D01*
X01157098Y01369605D02*
X01159130D01*
X01158114Y01368589D02*
Y01370621D01*
X01149098Y01369605D02*
X01151130D01*
X01150114Y01368589D02*
Y01370621D01*
X01141098Y01369605D02*
X01143130D01*
X01142114Y01368589D02*
Y01370621D01*
X01173098Y01393605D02*
X01175130D01*
X01174114Y01392589D02*
Y01394621D01*
X01189098Y01497605D02*
X01191130D01*
X01190114Y01496589D02*
Y01498621D01*
X01189098Y01505605D02*
X01191130D01*
X01190114Y01504589D02*
Y01506621D01*
X01237098Y01497605D02*
X01239130D01*
X01238114Y01496589D02*
Y01498621D01*
X01157098Y01505605D02*
X01159130D01*
X01158114Y01504589D02*
Y01506621D01*
X01141098Y01465605D02*
X01143130D01*
X01142114Y01464589D02*
Y01466621D01*
X01149098Y01481605D02*
X01151130D01*
X01150114Y01480589D02*
Y01482621D01*
X01253098Y01481605D02*
X01255130D01*
X01254114Y01480589D02*
Y01482621D01*
X01141098Y01505605D02*
X01143130D01*
X01142114Y01504589D02*
Y01506621D01*
X01237098Y01505605D02*
X01239130D01*
X01238114Y01504589D02*
Y01506621D01*
X01229098Y01497605D02*
X01231130D01*
X01230114Y01496589D02*
Y01498621D01*
X01205098Y01505605D02*
X01207130D01*
X01206114Y01504589D02*
Y01506621D01*
X01229098Y01505605D02*
X01231130D01*
X01230114Y01504589D02*
Y01506621D01*
X01261098Y01497605D02*
X01263130D01*
X01262114Y01496589D02*
Y01498621D01*
X01277098Y01505605D02*
X01279130D01*
X01278114Y01504589D02*
Y01506621D01*
X01253098Y01505605D02*
X01255130D01*
X01254114Y01504589D02*
Y01506621D01*
X01253098Y01497605D02*
X01255130D01*
X01254114Y01496589D02*
Y01498621D01*
X01269098Y01513605D02*
X01271130D01*
X01270114Y01512589D02*
Y01514621D01*
X01181098Y01505605D02*
X01183130D01*
X01182114Y01504589D02*
Y01506621D01*
X01205098Y01497605D02*
X01207130D01*
X01206114Y01496589D02*
Y01498621D01*
X01165098Y01505605D02*
X01167130D01*
X01166114Y01504589D02*
Y01506621D01*
X01165098Y01513605D02*
X01167130D01*
X01166114Y01512589D02*
Y01514621D01*
X01269098Y01497605D02*
X01271130D01*
X01270114Y01496589D02*
Y01498621D01*
X01277098Y01497605D02*
X01279130D01*
X01278114Y01496589D02*
Y01498621D01*
X01591015Y01385809D02*
X01593047D01*
X01592030Y01384794D02*
Y01386826D01*
X01583333Y01386427D02*
X01585365D01*
X01584349Y01385411D02*
Y01387443D01*
X01092557Y01459244D02*
X01094589D01*
X01093573Y01458228D02*
Y01460260D01*
X01519614Y01436451D02*
X01521646D01*
X01520630Y01435435D02*
Y01437467D01*
X01485455Y01344391D02*
X01487487D01*
X01486471Y01343375D02*
Y01345407D01*
X01428408Y01474217D02*
X01430440D01*
X01429424Y01473201D02*
Y01475233D01*
X01536708Y01529851D02*
X01538740D01*
X01537724Y01528835D02*
Y01530867D01*
X01533271Y01536626D02*
X01535303D01*
X01534287Y01535611D02*
Y01537643D01*
X01538623Y01521867D02*
X01540655D01*
X01539639Y01520851D02*
Y01522883D01*
X01507924Y01540158D02*
X01509956D01*
X01508940Y01539142D02*
Y01541174D01*
X01523965Y01547822D02*
X01525997D01*
X01524980Y01546806D02*
Y01548838D01*
X01612547Y01335568D02*
X01614579D01*
X01613562Y01334552D02*
Y01336584D01*
X01631814Y01339079D02*
X01633846D01*
X01632830Y01338062D02*
Y01340094D01*
X01624091Y01339465D02*
X01626123D01*
X01625107Y01338449D02*
Y01340481D01*
X01623576Y01346151D02*
X01625608D01*
X01624592Y01345135D02*
Y01347167D01*
X01603790Y01356203D02*
X01605822D01*
X01604806Y01355187D02*
Y01357219D01*
X01601620Y01336517D02*
X01603651D01*
X01602635Y01335501D02*
Y01337533D01*
X01615525Y01354880D02*
X01617557D01*
X01616541Y01353864D02*
Y01355896D01*
X01744830Y01345103D02*
X01746862D01*
X01745846Y01344087D02*
Y01346119D01*
X01739886Y01345091D02*
X01741918D01*
X01740902Y01344075D02*
Y01346107D01*
X01563278Y01335552D02*
X01565310D01*
X01564294Y01334536D02*
Y01336568D01*
X01564404Y01345865D02*
X01566436D01*
X01565420Y01344849D02*
Y01346881D01*
X01590235Y01341736D02*
X01592267D01*
X01591251Y01340720D02*
Y01342752D01*
X01508754Y01448259D02*
X01510786D01*
X01509770Y01447243D02*
Y01449275D01*
X01476993Y01422103D02*
X01479025D01*
X01478009Y01421087D02*
Y01423119D01*
X01491656Y01402428D02*
X01493688D01*
X01492672Y01401412D02*
Y01403444D01*
X01489517Y01373348D02*
X01491549D01*
X01490533Y01372332D02*
Y01374364D01*
X01479987Y01378056D02*
X01482019D01*
X01481003Y01377039D02*
Y01379072D01*
X01541437Y01426259D02*
X01543469D01*
X01542453Y01425243D02*
Y01427275D01*
X01519458Y01359269D02*
X01521490D01*
X01520474Y01358253D02*
Y01360285D01*
X01485463Y01360257D02*
X01487495D01*
X01486479Y01359241D02*
Y01361272D01*
X01327823Y01491726D02*
X01329855D01*
X01328840Y01490710D02*
Y01492742D01*
X01415500Y01354517D02*
X01417532D01*
X01416516Y01353501D02*
Y01355533D01*
X01116469Y01479270D02*
X01118501D01*
X01117485Y01478254D02*
Y01480286D01*
X01389095Y01504158D02*
X01391127D01*
X01390111Y01503142D02*
Y01505174D01*
X01352132Y01521053D02*
X01354164D01*
X01353148Y01520037D02*
Y01522069D01*
X01387853Y01526050D02*
X01389885D01*
X01388869Y01525034D02*
Y01527066D01*
X01331476Y01423111D02*
X01333508D01*
X01332492Y01422095D02*
Y01424127D01*
X01387391Y01447235D02*
X01389423D01*
X01388407Y01446219D02*
Y01448251D01*
X01390431Y01463602D02*
X01392463D01*
X01391447Y01462586D02*
Y01464618D01*
X01123047Y01478004D02*
X01125079D01*
X01124063Y01476988D02*
Y01479020D01*
X01332492Y01449831D02*
X01334524D01*
X01333508Y01448815D02*
Y01450847D01*
X01364144Y01466993D02*
X01366176D01*
X01365160Y01465977D02*
Y01468009D01*
X01371021Y01467136D02*
X01373053D01*
X01372036Y01466120D02*
Y01468152D01*
X01364715Y01438372D02*
X01366747D01*
X01365731Y01437356D02*
Y01439388D01*
X01332277Y01442036D02*
X01334309D01*
X01333293Y01441020D02*
Y01443052D01*
X01405676Y01355184D02*
X01407708D01*
X01406692Y01354168D02*
Y01356200D01*
X01415500Y01365094D02*
X01417532D01*
X01416516Y01364078D02*
Y01366110D01*
X01415542Y01359269D02*
X01417574D01*
X01416558Y01358253D02*
Y01360285D01*
X01364276Y01402939D02*
X01366308D01*
X01365292Y01401923D02*
Y01403955D01*
X01370059Y01419808D02*
X01372091D01*
X01371075Y01418792D02*
Y01420824D01*
X01370313Y01429808D02*
X01372345D01*
X01371329Y01428792D02*
Y01430824D01*
X01370636Y01437695D02*
X01372668D01*
X01371653Y01436678D02*
Y01438710D01*
X01370059Y01449808D02*
X01372091D01*
X01371075Y01448792D02*
Y01450824D01*
X01370059Y01479808D02*
X01372091D01*
X01371075Y01478792D02*
Y01480824D01*
X01370059Y01490570D02*
X01372091D01*
X01371075Y01489554D02*
Y01491586D01*
X01362946Y01479839D02*
X01364978D01*
X01363962Y01478823D02*
Y01480855D01*
X01362946Y01490601D02*
X01364978D01*
X01363962Y01489585D02*
Y01491617D01*
X01377026Y01436726D02*
X01379058D01*
X01378042Y01435710D02*
Y01437742D01*
X01390225Y01413211D02*
X01392257D01*
X01391241Y01412195D02*
Y01414227D01*
X01333805Y01500601D02*
X01335837D01*
X01334821Y01499585D02*
Y01501617D01*
X01364216Y01450347D02*
X01366248D01*
X01365232Y01449331D02*
Y01451363D01*
X01364265Y01429185D02*
X01366297D01*
X01365281Y01428169D02*
Y01430201D01*
X01363864Y01396847D02*
X01365896D01*
X01364880Y01395831D02*
Y01397863D01*
X01332975Y01494754D02*
X01335007D01*
X01333991Y01493738D02*
Y01495770D01*
X01363454Y01419839D02*
X01365486D01*
X01364470Y01418823D02*
Y01420855D01*
X01327825Y01500258D02*
X01329857D01*
X01328841Y01499243D02*
Y01501275D01*
X01437541Y01422971D02*
X01439573D01*
X01438557Y01421955D02*
Y01423987D01*
X01331111Y01406464D02*
X01333143D01*
X01332127Y01405448D02*
Y01407480D01*
X01330946Y01400151D02*
X01332978D01*
X01331962Y01399135D02*
Y01401167D01*
X01116617Y01472584D02*
X01118649D01*
X01117633Y01471568D02*
Y01473600D01*
X01269098Y01441605D02*
X01271130D01*
X01270114Y01440589D02*
Y01442621D01*
X01269098Y01425605D02*
X01271130D01*
X01270114Y01424589D02*
Y01426621D01*
X01269098Y01369605D02*
X01271130D01*
X01270114Y01368589D02*
Y01370621D01*
X01261098Y01425605D02*
X01263130D01*
X01262114Y01424589D02*
Y01426621D01*
X01253098Y01457605D02*
X01255130D01*
X01254114Y01456589D02*
Y01458621D01*
X01253098Y01473605D02*
X01255130D01*
X01254114Y01472589D02*
Y01474621D01*
X01165098Y01393605D02*
X01167130D01*
X01166114Y01392589D02*
Y01394621D01*
X01149098Y01417605D02*
X01151130D01*
X01150114Y01416589D02*
Y01418621D01*
X01149098Y01433605D02*
X01151130D01*
X01150114Y01432589D02*
Y01434621D01*
X01149098Y01465605D02*
X01151130D01*
X01150114Y01464589D02*
Y01466621D01*
X01141098Y01417605D02*
X01143130D01*
X01142114Y01416589D02*
Y01418621D01*
X01277098Y01473605D02*
X01279130D01*
X01278114Y01472589D02*
Y01474621D01*
X01269098Y01457605D02*
X01271130D01*
X01270114Y01456589D02*
Y01458621D01*
X01205098Y01403784D02*
X01207130D01*
X01206114Y01402768D02*
Y01404800D01*
X01213098Y01403784D02*
X01215130D01*
X01214114Y01402768D02*
Y01404800D01*
X01197098Y01403784D02*
X01199130D01*
X01198114Y01402768D02*
Y01404800D01*
X01149098Y01377605D02*
X01151130D01*
X01150114Y01376589D02*
Y01378621D01*
X01165098Y01385605D02*
X01167130D01*
X01166114Y01384589D02*
Y01386621D01*
X01181098Y01377605D02*
X01183130D01*
X01182114Y01376589D02*
Y01378621D01*
X01181098Y01385605D02*
X01183130D01*
X01182114Y01384589D02*
Y01386621D01*
X01189098Y01385605D02*
X01191130D01*
X01190114Y01384589D02*
Y01386621D01*
X01213098Y01385605D02*
X01215130D01*
X01214114Y01384589D02*
Y01386621D01*
X01221098Y01377605D02*
X01223130D01*
X01222114Y01376589D02*
Y01378621D01*
X01181098Y01393605D02*
X01183130D01*
X01182114Y01392589D02*
Y01394621D01*
X01189098Y01393605D02*
X01191130D01*
X01190114Y01392589D02*
Y01394621D01*
X01197098Y01393605D02*
X01199130D01*
X01198114Y01392589D02*
Y01394621D01*
X01205098Y01393605D02*
X01207130D01*
X01206114Y01392589D02*
Y01394621D01*
X01213098Y01393605D02*
X01215130D01*
X01214114Y01392589D02*
Y01394621D01*
X01141098Y01457605D02*
X01143130D01*
X01142114Y01456589D02*
Y01458621D01*
X01217798Y01450495D02*
X01219830D01*
X01218814Y01449479D02*
Y01451511D01*
X01230498Y01450495D02*
X01232530D01*
X01231514Y01449479D02*
Y01451511D01*
X01192398Y01450495D02*
X01194430D01*
X01193414Y01449479D02*
Y01451511D01*
X01192398Y01460655D02*
X01194430D01*
X01193414Y01459639D02*
Y01461671D01*
X01179698Y01460655D02*
X01181730D01*
X01180714Y01459639D02*
Y01461671D01*
X01179698Y01431445D02*
X01181730D01*
X01180714Y01430429D02*
Y01432461D01*
X01192398Y01431445D02*
X01194430D01*
X01193414Y01430429D02*
Y01432461D01*
X01192398Y01440335D02*
X01194430D01*
X01193414Y01439319D02*
Y01441351D01*
X01217798Y01431445D02*
X01219830D01*
X01218814Y01430429D02*
Y01432461D01*
X01230498Y01440335D02*
X01232530D01*
X01231514Y01439319D02*
Y01441351D01*
X01205098Y01412395D02*
X01207130D01*
X01206114Y01411379D02*
Y01413411D01*
X01230498Y01412395D02*
X01232530D01*
X01231514Y01411379D02*
Y01413411D01*
X01217798Y01412395D02*
X01219830D01*
X01218814Y01411379D02*
Y01413411D01*
X01192398Y01412395D02*
X01194430D01*
X01193414Y01411379D02*
Y01413411D01*
X01179698Y01412395D02*
X01181730D01*
X01180714Y01411379D02*
Y01413411D01*
X01230498Y01431445D02*
X01232530D01*
X01231514Y01430429D02*
Y01432461D01*
X01230498Y01422555D02*
X01232530D01*
X01231514Y01421539D02*
Y01423571D01*
X01217798Y01422555D02*
X01219830D01*
X01218814Y01421539D02*
Y01423571D01*
X01192398Y01422555D02*
X01194430D01*
X01193414Y01421539D02*
Y01423571D01*
X01179698Y01422555D02*
X01181730D01*
X01180714Y01421539D02*
Y01423571D01*
X01383124Y01535294D02*
X01385156D01*
X01384140Y01534278D02*
Y01536310D01*
X01358740Y01527420D02*
X01360772D01*
X01359756Y01526404D02*
Y01528436D01*
X01165161Y01431640D02*
X01167193D01*
X01166177Y01430624D02*
Y01432656D01*
X01166531Y01421561D02*
X01168563D01*
X01167547Y01420545D02*
Y01422577D01*
X01253098Y01393605D02*
X01255130D01*
X01254114Y01392589D02*
Y01394621D01*
M02*
