G04*
G04 #@! TF.GenerationSoftware,Altium Limited,Altium Designer,18.0.9 (584)*
G04*
G04 Layer_Color=16711935*
%FSAX44Y44*%
%MOMM*%
G71*
G01*
G75*
%ADD22C,0.1524*%
%ADD23C,0.2540*%
%ADD25C,0.2032*%
G54D22*
X00968408Y01519617D02*
G03*
X00968408Y01543117I00000000J00011750D01*
G01*
X01019848D02*
G03*
X01019848Y01519617I00000000J-00011750D01*
G01*
X01161128Y01543117D02*
G03*
X01161128Y01519617I00000000J-00011750D01*
G01*
X01109688D02*
G03*
X01109688Y01543117I00000000J00011750D01*
G01*
X01235418Y01519617D02*
G03*
X01235418Y01543117I00000000J00011750D01*
G01*
X01286858D02*
G03*
X01286858Y01519617I00000000J-00011750D01*
G01*
X01392268Y01582127D02*
G03*
X01392268Y01558627I00000000J-00011750D01*
G01*
X01340828D02*
G03*
X01340828Y01582127I00000000J00011750D01*
G01*
X01718780Y01558578D02*
G03*
X01718780Y01582078I00000000J00011750D01*
G01*
X01770220D02*
G03*
X01770220Y01558578I00000000J-00011750D01*
G01*
Y01328599D02*
G03*
X01770220Y01305099I00000000J-00011750D01*
G01*
X01718780D02*
G03*
X01718780Y01328599I00000000J00011750D01*
G01*
X01340828Y01305050D02*
G03*
X01340828Y01328550I00000000J00011750D01*
G01*
X01392268D02*
G03*
X01392268Y01305050I00000000J-00011750D01*
G01*
X01286858Y01363590D02*
G03*
X01286858Y01340090I00000000J-00011750D01*
G01*
X01235418D02*
G03*
X01235418Y01363590I00000000J00011750D01*
G01*
X01109688Y01340090D02*
G03*
X01109688Y01363590I00000000J00011750D01*
G01*
X01161128D02*
G03*
X01161128Y01340090I00000000J-00011750D01*
G01*
X01019848Y01363590D02*
G03*
X01019848Y01340090I00000000J-00011750D01*
G01*
X00968408D02*
G03*
X00968408Y01363590I00000000J00011750D01*
G01*
X01581498Y01328500D02*
G03*
X01581498Y01305000I00000000J-00011750D01*
G01*
X01530058D02*
G03*
X01530058Y01328500I00000000J00011750D01*
G01*
X00953008Y01519617D02*
X00968408D01*
X00953008Y01543117D02*
X00968408D01*
X01019848Y01519617D02*
X01035248D01*
X01019848Y01543117D02*
X01035248D01*
X01161128D02*
X01176528D01*
X01161128Y01519617D02*
X01176528D01*
X01094288Y01543117D02*
X01109688D01*
X01094288Y01519617D02*
X01109688D01*
X01220018D02*
X01235418D01*
X01220018Y01543117D02*
X01235418D01*
X01286858Y01519617D02*
X01302258D01*
X01286858Y01543117D02*
X01291429D01*
X01392268Y01582127D02*
X01407668D01*
X01392268Y01558627D02*
X01407668D01*
X01325428Y01582127D02*
X01340828D01*
X01703380Y01558578D02*
X01718780D01*
X01703380Y01582078D02*
X01718780D01*
X01770220Y01558578D02*
X01785620D01*
X01770220Y01582078D02*
X01785620D01*
X01770220Y01305099D02*
X01785620D01*
X01770220Y01328599D02*
X01785620D01*
X01703380Y01305099D02*
X01718780D01*
X01703380Y01328599D02*
X01718780D01*
X01325428Y01305050D02*
X01340828D01*
X01392268Y01328550D02*
X01407668D01*
X01392268Y01305050D02*
X01407668D01*
X01286858Y01340090D02*
X01291429D01*
X01286858Y01363590D02*
X01302258D01*
X01220018Y01340090D02*
X01235418D01*
X01220018Y01363590D02*
X01235418D01*
X01094288D02*
X01109688D01*
X01094288Y01340090D02*
X01109688D01*
X01161128Y01363590D02*
X01176528D01*
X01161128Y01340090D02*
X01176528D01*
X01019848D02*
X01035248D01*
X01019848Y01363590D02*
X01035248D01*
X00953008Y01340090D02*
X00968408D01*
X00953008Y01363590D02*
X00968408D01*
X01581498Y01305000D02*
X01596898D01*
X01581498Y01328500D02*
X01596898D01*
X01514658Y01305000D02*
X01530058D01*
X01514658Y01328500D02*
X01530058D01*
G54D23*
X00952393Y01632070D02*
G03*
X00940201Y01619878I00000000J-00012192D01*
G01*
Y01555309D02*
G03*
X00952393Y01543117I00012192J00000000D01*
G01*
X01291429D02*
G03*
X01303621Y01555309I00000000J00012192D01*
G01*
X01315813Y01582070D02*
G03*
X01303621Y01569878I00000000J-00012192D01*
G01*
X01409794Y01582070D02*
G03*
X01421986Y01594262I00000000J00012192D01*
G01*
X01434178Y01608570D02*
G03*
X01421986Y01596378I00000000J-00012192D01*
G01*
X01673098Y01596378D02*
G03*
X01660906Y01608570I-00012192J00000000D01*
G01*
X01673098Y01594262D02*
G03*
X01685290Y01582070I00012192J00000000D01*
G01*
X01852245Y01619878D02*
G03*
X01840053Y01632070I-00012192J00000000D01*
G01*
Y01582070D02*
G03*
X01852245Y01594262I00000000J00012192D01*
G01*
X01303621Y01317299D02*
G03*
X01315813Y01305107I00012192J00000000D01*
G01*
X01852245Y01292915D02*
G03*
X01840053Y01305107I-00012192J00000000D01*
G01*
Y01255107D02*
G03*
X01852245Y01267299I00000000J00012192D01*
G01*
X00940201D02*
G03*
X00952393Y01255107I00012192J00000000D01*
G01*
Y01340090D02*
G03*
X00940201Y01327898I00000000J-00012192D01*
G01*
X01303621D02*
G03*
X01291429Y01340090I-00012192J00000000D01*
G01*
X01316005Y01388589D02*
G03*
X01322355Y01394940I00000000J00006350D01*
G01*
X01303872Y01394940D02*
G03*
X01310222Y01388589I00006350J00000000D01*
G01*
X01310222Y01407551D02*
G03*
X01303872Y01401201I00000000J-00006350D01*
G01*
X01322355Y01401201D02*
G03*
X01316005Y01407551I-00006350J00000000D01*
G01*
X01316008Y01479625D02*
G03*
X01322358Y01485975I00000000J00006350D01*
G01*
X01310225Y01498587D02*
G03*
X01303875Y01492237I00000000J-00006350D01*
G01*
X01322358Y01492237D02*
G03*
X01316008Y01498587I-00006350J00000000D01*
G01*
X01303875Y01485975D02*
G03*
X01310225Y01479626I00006350J00000000D01*
G01*
X01310224Y01452744D02*
G03*
X01303874Y01446394I00000000J-00006350D01*
G01*
X01316007Y01432641D02*
G03*
X01322357Y01438991I00000000J00006350D01*
G01*
X01322357Y01446394D02*
G03*
X01316007Y01452744I-00006350J00000000D01*
G01*
X01303874Y01438991D02*
G03*
X01310224Y01432641I00006350J00000000D01*
G01*
X01322359Y01351398D02*
G03*
X01310167Y01363590I-00012192J00000000D01*
G01*
X01322359Y01340730D02*
G03*
X01334551Y01328538I00012192J00000000D01*
G01*
X01840044Y01328470D02*
G03*
X01852236Y01340662I00000000J00012192D01*
G01*
X01852303Y01546378D02*
G03*
X01840111Y01558570I-00012192J00000000D01*
G01*
X01334554Y01558637D02*
G03*
X01322362Y01546445I00000000J-00012192D01*
G01*
X01310170Y01519620D02*
G03*
X01322362Y01531812I00000000J00012192D01*
G01*
X00952393Y01519620D02*
G03*
X00940201Y01507428I00000000J-00012192D01*
G01*
Y01375782D02*
G03*
X00952393Y01363590I00012192J00000000D01*
G01*
X00940201Y01267299D02*
Y01327898D01*
X00953008Y01340090D02*
X01291429Y01340090D01*
X01303621Y01317299D02*
Y01327898D01*
X01315813Y01305107D02*
X01840053Y01305107D01*
X00952393Y01255107D02*
X01840053D01*
X01852245Y01267299D02*
Y01292915D01*
X00952393Y01632070D02*
X01840053Y01632070D01*
X00940201Y01555309D02*
Y01619878D01*
X01852245Y01594262D02*
Y01619878D01*
X01685290Y01582070D02*
X01840053D01*
X01673098Y01594262D02*
Y01596378D01*
X01434178Y01608570D02*
X01660906Y01608570D01*
X01421986Y01594262D02*
Y01596378D01*
X01315813Y01582070D02*
X01409794D01*
X01303621Y01555309D02*
Y01569878D01*
X01290828Y01340090D02*
X01290921D01*
X01322355Y01394940D02*
Y01401201D01*
X01316005Y01388589D02*
X01316005Y01388589D01*
X01303872Y01394940D02*
X01303872Y01394940D01*
Y01401201D01*
X01310222Y01407551D02*
X01316005D01*
X01310222Y01407551D02*
X01310222Y01407551D01*
X01310222Y01388589D02*
X01316005D01*
X01310225Y01498587D02*
X01310225Y01498587D01*
X01316008D01*
X01322358Y01485975D02*
Y01492237D01*
X01316008Y01479626D02*
X01316008Y01479625D01*
X01310225Y01479626D02*
X01316008D01*
X01303875Y01485975D02*
X01303875Y01485975D01*
Y01492237D01*
X01310224Y01432641D02*
X01310224Y01432641D01*
X01316007D01*
X01322357Y01438991D02*
Y01446394D01*
X01316007Y01452744D02*
X01316007Y01452744D01*
X01310224Y01452744D02*
X01316007D01*
X01303874Y01438991D02*
Y01446394D01*
X01322362Y01546446D02*
X01322362Y01546445D01*
Y01531812D02*
Y01546445D01*
X01322359Y01340730D02*
Y01351398D01*
X01334551Y01328550D02*
X01840044Y01328470D01*
X00952393Y01363590D02*
X01310167Y01363590D01*
X00952393Y01519620D02*
X01310170Y01519620D01*
X00953008Y01543117D02*
X01291429Y01543117D01*
X00940201Y01375782D02*
Y01507428D01*
X01334554Y01558627D02*
X01840111Y01558563D01*
X01852243Y01340662D02*
X01852303Y01546378D01*
X01263777Y00208195D02*
Y00259842D01*
X01050417Y00208195D02*
Y00259842D01*
X00102489Y00208195D02*
X01779397D01*
X00102489Y00156549D02*
X01778889D01*
X00102489Y00104902D02*
X01119759D01*
X00102616Y00259842D02*
X01779397D01*
X00102616Y00104902D02*
Y00259842D01*
Y00104902D02*
X00502793D01*
X00102489D02*
Y00259842D01*
X00728599Y00104902D02*
Y00259842D01*
X01779397Y00104902D02*
Y00259842D01*
X01119759Y00104902D02*
X01779397D01*
X01421765Y00103251D02*
Y00154771D01*
G54D25*
X00322326Y00171579D02*
Y00186814D01*
X00327404Y00181735D01*
X00332483Y00186814D01*
Y00171579D01*
X00337561D02*
X00342639D01*
X00340100D01*
Y00186814D01*
X00337561Y00184275D01*
X00365492Y00186814D02*
Y00171579D01*
X00373110D01*
X00375649Y00174118D01*
Y00176657D01*
X00373110Y00179196D01*
X00365492D01*
X00373110D01*
X00375649Y00181735D01*
Y00184275D01*
X00373110Y00186814D01*
X00365492D01*
X00383266Y00171579D02*
X00388345D01*
X00390884Y00174118D01*
Y00179196D01*
X00388345Y00181735D01*
X00383266D01*
X00380727Y00179196D01*
Y00174118D01*
X00383266Y00171579D01*
X00398501Y00181735D02*
X00403580D01*
X00406119Y00179196D01*
Y00171579D01*
X00398501D01*
X00395962Y00174118D01*
X00398501Y00176657D01*
X00406119D01*
X00411197Y00181735D02*
Y00171579D01*
Y00176657D01*
X00413736Y00179196D01*
X00416276Y00181735D01*
X00418815D01*
X00436589Y00186814D02*
Y00171579D01*
X00428971D01*
X00426432Y00174118D01*
Y00179196D01*
X00428971Y00181735D01*
X00436589D01*
X00464520Y00186814D02*
X00459442D01*
X00456903Y00184275D01*
Y00174118D01*
X00459442Y00171579D01*
X00464520D01*
X00467059Y00174118D01*
Y00184275D01*
X00464520Y00186814D01*
X00472137Y00181735D02*
Y00174118D01*
X00474677Y00171579D01*
X00482294D01*
Y00181735D01*
X00489912Y00184275D02*
Y00181735D01*
X00487373D01*
X00492451D01*
X00489912D01*
Y00174118D01*
X00492451Y00171579D01*
X00500069D02*
X00505147D01*
X00502608D01*
Y00186814D01*
X00500069D01*
X00512764Y00171579D02*
X00517843D01*
X00515304D01*
Y00181735D01*
X00512764D01*
X00525460Y00171579D02*
Y00181735D01*
X00533078D01*
X00535617Y00179196D01*
Y00171579D01*
X00548313D02*
X00543234D01*
X00540695Y00174118D01*
Y00179196D01*
X00543234Y00181735D01*
X00548313D01*
X00550852Y00179196D01*
Y00176657D01*
X00540695D01*
X01441196Y00223097D02*
Y00238332D01*
X01451353Y00223097D01*
Y00238332D01*
X01458970Y00223097D02*
X01464049D01*
X01466588Y00225636D01*
Y00230714D01*
X01464049Y00233253D01*
X01458970D01*
X01456431Y00230714D01*
Y00225636D01*
X01458970Y00223097D01*
X01474205Y00235793D02*
Y00233253D01*
X01471666D01*
X01476745D01*
X01474205D01*
Y00225636D01*
X01476745Y00223097D01*
X01499597Y00238332D02*
X01504675D01*
X01502136D01*
Y00223097D01*
X01499597D01*
X01504675D01*
X01512293D02*
Y00233253D01*
X01519910D01*
X01522450Y00230714D01*
Y00223097D01*
X01542763Y00238332D02*
Y00228175D01*
X01547841Y00223097D01*
X01552920Y00228175D01*
Y00238332D01*
X01565616Y00223097D02*
X01560537D01*
X01557998Y00225636D01*
Y00230714D01*
X01560537Y00233253D01*
X01565616D01*
X01568155Y00230714D01*
Y00228175D01*
X01557998D01*
X01573233Y00233253D02*
Y00223097D01*
Y00228175D01*
X01575773Y00230714D01*
X01578312Y00233253D01*
X01580851D01*
X01588468Y00223097D02*
X01596086D01*
X01598625Y00225636D01*
X01596086Y00228175D01*
X01591008D01*
X01588468Y00230714D01*
X01591008Y00233253D01*
X01598625D01*
X01603703Y00223097D02*
X01608782D01*
X01606243D01*
Y00233253D01*
X01603703D01*
X01618938Y00223097D02*
X01624017D01*
X01626556Y00225636D01*
Y00230714D01*
X01624017Y00233253D01*
X01618938D01*
X01616399Y00230714D01*
Y00225636D01*
X01618938Y00223097D01*
X01631634D02*
Y00233253D01*
X01639252D01*
X01641791Y00230714D01*
Y00223097D01*
X01657026Y00235793D02*
X01654487Y00238332D01*
X01649409D01*
X01646870Y00235793D01*
Y00225636D01*
X01649409Y00223097D01*
X01654487D01*
X01657026Y00225636D01*
X01664644Y00223097D02*
X01669722D01*
X01672261Y00225636D01*
Y00230714D01*
X01669722Y00233253D01*
X01664644D01*
X01662104Y00230714D01*
Y00225636D01*
X01664644Y00223097D01*
X01677340D02*
Y00233253D01*
X01684957D01*
X01687496Y00230714D01*
Y00223097D01*
X01695114Y00235793D02*
Y00233253D01*
X01692575D01*
X01697653D01*
X01695114D01*
Y00225636D01*
X01697653Y00223097D01*
X01705271Y00233253D02*
Y00223097D01*
Y00228175D01*
X01707810Y00230714D01*
X01710349Y00233253D01*
X01712888D01*
X01723045Y00223097D02*
X01728123D01*
X01730662Y00225636D01*
Y00230714D01*
X01728123Y00233253D01*
X01723045D01*
X01720506Y00230714D01*
Y00225636D01*
X01723045Y00223097D01*
X01735741D02*
X01740819D01*
X01738280D01*
Y00238332D01*
X01735741D01*
X01322829Y00235793D02*
X01320289Y00238332D01*
X01315211D01*
X01312672Y00235793D01*
Y00233253D01*
X01315211Y00230714D01*
X01320289D01*
X01322829Y00228175D01*
Y00225636D01*
X01320289Y00223097D01*
X01315211D01*
X01312672Y00225636D01*
X01327907Y00238332D02*
Y00228175D01*
X01332985Y00223097D01*
X01338064Y00228175D01*
Y00238332D01*
X01343142Y00223097D02*
Y00238332D01*
X01353299Y00223097D01*
Y00238332D01*
X01373612Y00223097D02*
Y00238332D01*
X01381230D01*
X01383769Y00235793D01*
Y00230714D01*
X01381230Y00228175D01*
X01373612D01*
X01378691D02*
X01383769Y00223097D01*
X01399004Y00238332D02*
X01388847D01*
Y00223097D01*
X01399004D01*
X01388847Y00230714D02*
X01393926D01*
X01404082Y00238332D02*
Y00228175D01*
X01409161Y00223097D01*
X01414239Y00228175D01*
Y00238332D01*
X01419317Y00233253D02*
X01421857D01*
Y00230714D01*
X01419317D01*
Y00233253D01*
Y00225636D02*
X01421857D01*
Y00223097D01*
X01419317D01*
Y00225636D01*
X01099820Y00223097D02*
Y00238332D01*
X01107438D01*
X01109977Y00235793D01*
Y00230714D01*
X01107438Y00228175D01*
X01099820D01*
X01104898D02*
X01109977Y00223097D01*
X01125212Y00238332D02*
X01115055D01*
Y00223097D01*
X01125212D01*
X01115055Y00230714D02*
X01120133D01*
X01130290Y00238332D02*
Y00228175D01*
X01135368Y00223097D01*
X01140447Y00228175D01*
Y00238332D01*
X01145525Y00233253D02*
X01148064D01*
Y00230714D01*
X01145525D01*
Y00233253D01*
Y00225636D02*
X01148064D01*
Y00223097D01*
X01145525D01*
Y00225636D01*
X00322326Y00119295D02*
Y00134530D01*
X00329944D01*
X00332483Y00131991D01*
Y00126912D01*
X00329944Y00124373D01*
X00322326D01*
X00337561Y00119295D02*
Y00134530D01*
X00345179D01*
X00347718Y00131991D01*
Y00126912D01*
X00345179Y00124373D01*
X00337561D01*
X00342639D02*
X00347718Y00119295D01*
X00360414Y00134530D02*
X00355335D01*
X00352796Y00131991D01*
Y00121834D01*
X00355335Y00119295D01*
X00360414D01*
X00362953Y00121834D01*
Y00131991D01*
X00360414Y00134530D01*
X00378188Y00131991D02*
X00375649Y00134530D01*
X00370570D01*
X00368031Y00131991D01*
Y00121834D01*
X00370570Y00119295D01*
X00375649D01*
X00378188Y00121834D01*
X00383266Y00131991D02*
X00385806Y00134530D01*
X00390884D01*
X00393423Y00131991D01*
Y00121834D01*
X00390884Y00119295D01*
X00385806D01*
X00383266Y00121834D01*
Y00131991D01*
X00398501Y00121834D02*
X00401040Y00119295D01*
X00406119D01*
X00408658Y00121834D01*
Y00131991D01*
X00406119Y00134530D01*
X00401040D01*
X00398501Y00131991D01*
Y00129452D01*
X00401040Y00126912D01*
X00408658D01*
X00413736Y00119295D02*
X00418815D01*
X00416276D01*
Y00134530D01*
X00413736Y00131991D01*
X00436589Y00134530D02*
X00426432D01*
Y00126912D01*
X00431511D01*
X00426432D01*
Y00119295D01*
X00441667D02*
Y00121834D01*
X00444207D01*
Y00119295D01*
X00441667D01*
X00464520Y00131991D02*
X00461981Y00134530D01*
X00456903D01*
X00454363Y00131991D01*
Y00121834D01*
X00456903Y00119295D01*
X00461981D01*
X00464520Y00121834D01*
Y00126912D01*
X00459442D01*
X00469598Y00119295D02*
Y00134530D01*
X00474677Y00129452D01*
X00479755Y00134530D01*
Y00119295D01*
X00484833D02*
X00489912D01*
X00487373D01*
Y00134530D01*
X00484833Y00131991D01*
X00968121Y00119295D02*
X00973199D01*
X00970660D01*
Y00134530D01*
X00968121Y00131991D01*
X00980817Y00119295D02*
X00985895D01*
X00983356D01*
Y00134530D01*
X00980817Y00131991D01*
X00993513Y00126912D02*
X01003670D01*
X01008748Y00119295D02*
X01013826D01*
X01011287D01*
Y00134530D01*
X01008748Y00131991D01*
X01021444Y00119295D02*
X01026522D01*
X01023983D01*
Y00134530D01*
X01021444Y00131991D01*
X01034140Y00126912D02*
X01044296D01*
X01059531Y00119295D02*
X01049375D01*
X01059531Y00129452D01*
Y00131991D01*
X01056992Y00134530D01*
X01051914D01*
X01049375Y00131991D01*
X01064610D02*
X01067149Y00134530D01*
X01072227D01*
X01074766Y00131991D01*
Y00121834D01*
X01072227Y00119295D01*
X01067149D01*
X01064610Y00121834D01*
Y00131991D01*
X01090002Y00119295D02*
X01079845D01*
X01090002Y00129452D01*
Y00131991D01*
X01087462Y00134530D01*
X01082384D01*
X01079845Y00131991D01*
X01095080D02*
X01097619Y00134530D01*
X01102697D01*
X01105237Y00131991D01*
Y00121834D01*
X01102697Y00119295D01*
X01097619D01*
X01095080Y00121834D01*
Y00131991D01*
X00757425D02*
X00754885Y00134530D01*
X00749807D01*
X00747268Y00131991D01*
Y00121834D01*
X00749807Y00119295D01*
X00754885D01*
X00757425Y00121834D01*
Y00126912D01*
X00752346D01*
X00772660Y00134530D02*
X00762503D01*
Y00119295D01*
X00772660D01*
X00762503Y00126912D02*
X00767581D01*
X00777738Y00119295D02*
Y00134530D01*
X00787895Y00119295D01*
Y00134530D01*
X00803130D02*
X00792973D01*
Y00119295D01*
X00803130D01*
X00792973Y00126912D02*
X00798052D01*
X00808208Y00119295D02*
Y00134530D01*
X00815826D01*
X00818365Y00131991D01*
Y00126912D01*
X00815826Y00124373D01*
X00808208D01*
X00813287D02*
X00818365Y00119295D01*
X00823443D02*
Y00129452D01*
X00828522Y00134530D01*
X00833600Y00129452D01*
Y00119295D01*
Y00126912D01*
X00823443D01*
X00838678Y00134530D02*
X00848835D01*
X00843757D01*
Y00119295D01*
X00864070Y00134530D02*
X00853913D01*
Y00119295D01*
X00864070D01*
X00853913Y00126912D02*
X00858992D01*
X00869149Y00134530D02*
Y00119295D01*
X00876766D01*
X00879305Y00121834D01*
Y00131991D01*
X00876766Y00134530D01*
X00869149D01*
X00945324Y00129452D02*
X00947863D01*
Y00126912D01*
X00945324D01*
Y00129452D01*
Y00121834D02*
X00947863D01*
Y00119295D01*
X00945324D01*
Y00121834D01*
X00117729Y00223097D02*
Y00233253D01*
X00122807Y00238332D01*
X00127886Y00233253D01*
Y00223097D01*
Y00230714D01*
X00117729D01*
X00132964Y00238332D02*
Y00223097D01*
X00143121D01*
X00148199Y00238332D02*
Y00223097D01*
X00158356D01*
X00178669D02*
Y00233253D01*
X00183748Y00238332D01*
X00188826Y00233253D01*
Y00223097D01*
Y00230714D01*
X00178669D01*
X00193904Y00223097D02*
Y00238332D01*
X00201522D01*
X00204061Y00235793D01*
Y00230714D01*
X00201522Y00228175D01*
X00193904D01*
X00198983D02*
X00204061Y00223097D01*
X00209139Y00238332D02*
X00219296D01*
X00214218D01*
Y00223097D01*
X00224375Y00238332D02*
Y00223097D01*
X00229453Y00228175D01*
X00234531Y00223097D01*
Y00238332D01*
X00247227D02*
X00242149D01*
X00239610Y00235793D01*
Y00225636D01*
X00242149Y00223097D01*
X00247227D01*
X00249766Y00225636D01*
Y00235793D01*
X00247227Y00238332D01*
X00254845Y00223097D02*
Y00238332D01*
X00262462D01*
X00265001Y00235793D01*
Y00230714D01*
X00262462Y00228175D01*
X00254845D01*
X00259923D02*
X00265001Y00223097D01*
X00270080Y00238332D02*
Y00223097D01*
Y00228175D01*
X00280236Y00238332D01*
X00272619Y00230714D01*
X00280236Y00223097D01*
X00300550Y00238332D02*
Y00228175D01*
X00305628Y00223097D01*
X00310707Y00228175D01*
Y00238332D01*
X00315785D02*
X00320863D01*
X00318324D01*
Y00223097D01*
X00315785D01*
X00320863D01*
X00338638Y00238332D02*
X00328481D01*
Y00223097D01*
X00338638D01*
X00328481Y00230714D02*
X00333559D01*
X00343716Y00238332D02*
Y00223097D01*
X00348794Y00228175D01*
X00353873Y00223097D01*
Y00238332D01*
X00369108D02*
X00358951D01*
Y00223097D01*
X00369108D01*
X00358951Y00230714D02*
X00364029D01*
X00374186Y00238332D02*
Y00223097D01*
X00381804D01*
X00384343Y00225636D01*
Y00235793D01*
X00381804Y00238332D01*
X00374186D01*
X00414813D02*
X00404656D01*
Y00230714D01*
X00409734D01*
X00404656D01*
Y00223097D01*
X00419891D02*
Y00238332D01*
X00427509D01*
X00430048Y00235793D01*
Y00230714D01*
X00427509Y00228175D01*
X00419891D01*
X00424970D02*
X00430048Y00223097D01*
X00442744Y00238332D02*
X00437665D01*
X00435126Y00235793D01*
Y00225636D01*
X00437665Y00223097D01*
X00442744D01*
X00445283Y00225636D01*
Y00235793D01*
X00442744Y00238332D01*
X00450361Y00223097D02*
Y00238332D01*
X00455440Y00233253D01*
X00460518Y00238332D01*
Y00223097D01*
X00480832Y00238332D02*
X00490988D01*
X00485910D01*
Y00223097D01*
X00503684Y00238332D02*
X00498606D01*
X00496067Y00235793D01*
Y00225636D01*
X00498606Y00223097D01*
X00503684D01*
X00506223Y00225636D01*
Y00235793D01*
X00503684Y00238332D01*
X00511302Y00223097D02*
Y00238332D01*
X00518919D01*
X00521458Y00235793D01*
Y00230714D01*
X00518919Y00228175D01*
X00511302D01*
X00551929Y00235793D02*
X00549389Y00238332D01*
X00544311D01*
X00541772Y00235793D01*
Y00233253D01*
X00544311Y00230714D01*
X00549389D01*
X00551929Y00228175D01*
Y00225636D01*
X00549389Y00223097D01*
X00544311D01*
X00541772Y00225636D01*
X00557007Y00238332D02*
X00562085D01*
X00559546D01*
Y00223097D01*
X00557007D01*
X00562085D01*
X00569703Y00238332D02*
Y00223097D01*
X00577320D01*
X00579860Y00225636D01*
Y00235793D01*
X00577320Y00238332D01*
X00569703D01*
X00595095D02*
X00584938D01*
Y00223097D01*
X00595095D01*
X00584938Y00230714D02*
X00590016D01*
X01184018Y00238332D02*
X01173861D01*
Y00230714D01*
X01178939D01*
X01173861D01*
Y00223097D01*
X00885317D02*
Y00238332D01*
X00892934D01*
X00895474Y00235793D01*
Y00230714D01*
X00892934Y00228175D01*
X00885317D01*
X00900552Y00223097D02*
Y00238332D01*
X00908170D01*
X00910709Y00235793D01*
Y00230714D01*
X00908170Y00228175D01*
X00900552D01*
X00905630D02*
X00910709Y00223097D01*
X00923405Y00238332D02*
X00918326D01*
X00915787Y00235793D01*
Y00225636D01*
X00918326Y00223097D01*
X00923405D01*
X00925944Y00225636D01*
Y00235793D01*
X00923405Y00238332D01*
X00941179Y00235793D02*
X00938640Y00238332D01*
X00933561D01*
X00931022Y00235793D01*
Y00225636D01*
X00933561Y00223097D01*
X00938640D01*
X00941179Y00225636D01*
X00946257Y00235793D02*
X00948796Y00238332D01*
X00953875D01*
X00956414Y00235793D01*
Y00225636D01*
X00953875Y00223097D01*
X00948796D01*
X00946257Y00225636D01*
Y00235793D01*
X00961492Y00225636D02*
X00964032Y00223097D01*
X00969110D01*
X00971649Y00225636D01*
Y00235793D01*
X00969110Y00238332D01*
X00964032D01*
X00961492Y00235793D01*
Y00233253D01*
X00964032Y00230714D01*
X00971649D01*
X00976727Y00223097D02*
X00981806D01*
X00979267D01*
Y00238332D01*
X00976727Y00235793D01*
X00746760Y00238332D02*
Y00223097D01*
X00754378D01*
X00756917Y00225636D01*
Y00228175D01*
X00754378Y00230714D01*
X00746760D01*
X00754378D01*
X00756917Y00233253D01*
Y00235793D01*
X00754378Y00238332D01*
X00746760D01*
X00769613D02*
X00764534D01*
X00761995Y00235793D01*
Y00225636D01*
X00764534Y00223097D01*
X00769613D01*
X00772152Y00225636D01*
Y00235793D01*
X00769613Y00238332D01*
X00777230Y00223097D02*
Y00233253D01*
X00782309Y00238332D01*
X00787387Y00233253D01*
Y00223097D01*
Y00230714D01*
X00777230D01*
X00792465Y00223097D02*
Y00238332D01*
X00800083D01*
X00802622Y00235793D01*
Y00230714D01*
X00800083Y00228175D01*
X00792465D01*
X00797544D02*
X00802622Y00223097D01*
X00807700Y00238332D02*
Y00223097D01*
X00815318D01*
X00817857Y00225636D01*
Y00235793D01*
X00815318Y00238332D01*
X00807700D01*
X00840710Y00223097D02*
Y00238332D01*
X00845788D02*
Y00223097D01*
X00838170Y00233253D02*
X00845788D01*
X00848327D01*
X00838170Y00228175D02*
X00848327D01*
X00853406Y00233253D02*
X00855945D01*
Y00230714D01*
X00853406D01*
Y00233253D01*
Y00225636D02*
X00855945D01*
Y00223097D01*
X00853406D01*
Y00225636D01*
X00117729Y00186814D02*
Y00171579D01*
X00127886D01*
X00132964D02*
Y00181735D01*
X00138042Y00186814D01*
X00143121Y00181735D01*
Y00171579D01*
Y00179196D01*
X00132964D01*
X00148199Y00186814D02*
Y00184275D01*
X00153278Y00179196D01*
X00158356Y00184275D01*
Y00186814D01*
X00153278Y00179196D02*
Y00171579D01*
X00173591Y00186814D02*
X00163434D01*
Y00171579D01*
X00173591D01*
X00163434Y00179196D02*
X00168513D01*
X00178669Y00171579D02*
Y00186814D01*
X00186287D01*
X00188826Y00184275D01*
Y00179196D01*
X00186287Y00176657D01*
X00178669D01*
X00183748D02*
X00188826Y00171579D01*
X00209139D02*
Y00186814D01*
X00219296Y00171579D01*
Y00186814D01*
X00224375Y00171579D02*
Y00181735D01*
X00229453Y00186814D01*
X00234531Y00181735D01*
Y00171579D01*
Y00179196D01*
X00224375D01*
X00239610Y00171579D02*
Y00186814D01*
X00244688Y00181735D01*
X00249766Y00186814D01*
Y00171579D01*
X00265001Y00186814D02*
X00254845D01*
Y00171579D01*
X00265001D01*
X00254845Y00179196D02*
X00259923D01*
X00285315Y00176657D02*
X00295471D01*
X00285315Y00181735D02*
X00295471D01*
X00117729Y00119295D02*
Y00134530D01*
X00125346D01*
X00127886Y00131991D01*
Y00126912D01*
X00125346Y00124373D01*
X00117729D01*
X00132964Y00134530D02*
Y00119295D01*
X00143121D01*
X00155817Y00134530D02*
X00150738D01*
X00148199Y00131991D01*
Y00121834D01*
X00150738Y00119295D01*
X00155817D01*
X00158356Y00121834D01*
Y00131991D01*
X00155817Y00134530D01*
X00163434D02*
X00173591D01*
X00168513D01*
Y00119295D01*
X00193904D02*
Y00134530D01*
X00204061Y00119295D01*
Y00134530D01*
X00209139Y00119295D02*
Y00129452D01*
X00214218Y00134530D01*
X00219296Y00129452D01*
Y00119295D01*
Y00126912D01*
X00209139D01*
X00224375Y00119295D02*
Y00134530D01*
X00229453Y00129452D01*
X00234531Y00134530D01*
Y00119295D01*
X00249766Y00134530D02*
X00239610D01*
Y00119295D01*
X00249766D01*
X00239610Y00126912D02*
X00244688D01*
X00270080Y00124373D02*
X00280236D01*
X00270080Y00129452D02*
X00280236D01*
X01163444Y00119295D02*
X01153287D01*
X01163444Y00129452D01*
Y00131991D01*
X01160904Y00134530D01*
X01155826D01*
X01153287Y00131991D01*
X01168522D02*
X01171061Y00134530D01*
X01176140D01*
X01178679Y00131991D01*
Y00121834D01*
X01176140Y00119295D01*
X01171061D01*
X01168522Y00121834D01*
Y00131991D01*
X01183757Y00129452D02*
X01186296D01*
Y00126912D01*
X01183757D01*
Y00129452D01*
Y00121834D02*
X01186296D01*
Y00119295D01*
X01183757D01*
Y00121834D01*
X01206610Y00119295D02*
X01196453D01*
X01206610Y00129452D01*
Y00131991D01*
X01204071Y00134530D01*
X01198992D01*
X01196453Y00131991D01*
X01211688Y00121834D02*
X01214227Y00119295D01*
X01219306D01*
X01221845Y00121834D01*
Y00131991D01*
X01219306Y00134530D01*
X01214227D01*
X01211688Y00131991D01*
Y00129452D01*
X01214227Y00126912D01*
X01221845D01*
X01226923Y00129452D02*
X01229462D01*
Y00126912D01*
X01226923D01*
Y00129452D01*
Y00121834D02*
X01229462D01*
Y00119295D01*
X01226923D01*
Y00121834D01*
X01247237Y00119295D02*
Y00134530D01*
X01239619Y00126912D01*
X01249776D01*
X01262472Y00119295D02*
Y00134530D01*
X01254854Y00126912D01*
X01265011D01*
X01474470Y00134530D02*
X01484627D01*
X01479548D01*
Y00119295D01*
X01499862Y00134530D02*
X01489705D01*
Y00119295D01*
X01499862D01*
X01489705Y00126912D02*
X01494783D01*
X01504940Y00134530D02*
X01515097Y00119295D01*
Y00134530D02*
X01504940Y00119295D01*
X01520175D02*
Y00129452D01*
X01525254Y00134530D01*
X01530332Y00129452D01*
Y00119295D01*
Y00126912D01*
X01520175D01*
X01545567Y00131991D02*
X01543028Y00134530D01*
X01537950D01*
X01535410Y00131991D01*
Y00129452D01*
X01537950Y00126912D01*
X01543028D01*
X01545567Y00124373D01*
Y00121834D01*
X01543028Y00119295D01*
X01537950D01*
X01535410Y00121834D01*
X01565880Y00134530D02*
X01570959D01*
X01568420D01*
Y00119295D01*
X01565880D01*
X01570959D01*
X01578576D02*
Y00134530D01*
X01588733Y00119295D01*
Y00134530D01*
X01603968Y00131991D02*
X01601429Y00134530D01*
X01596351D01*
X01593811Y00131991D01*
Y00129452D01*
X01596351Y00126912D01*
X01601429D01*
X01603968Y00124373D01*
Y00121834D01*
X01601429Y00119295D01*
X01596351D01*
X01593811Y00121834D01*
X01609046Y00134530D02*
X01619203D01*
X01614125D01*
Y00119295D01*
X01624281D02*
Y00134530D01*
X01631899D01*
X01634438Y00131991D01*
Y00126912D01*
X01631899Y00124373D01*
X01624281D01*
X01629360D02*
X01634438Y00119295D01*
X01639517Y00134530D02*
Y00121834D01*
X01642056Y00119295D01*
X01647134D01*
X01649673Y00121834D01*
Y00134530D01*
X01654752Y00119295D02*
Y00134530D01*
X01659830Y00129452D01*
X01664908Y00134530D01*
Y00119295D01*
X01680143Y00134530D02*
X01669987D01*
Y00119295D01*
X01680143D01*
X01669987Y00126912D02*
X01675065D01*
X01685222Y00119295D02*
Y00134530D01*
X01695379Y00119295D01*
Y00134530D01*
X01700457D02*
X01710614D01*
X01705535D01*
Y00119295D01*
X01725849Y00131991D02*
X01723309Y00134530D01*
X01718231D01*
X01715692Y00131991D01*
Y00129452D01*
X01718231Y00126912D01*
X01723309D01*
X01725849Y00124373D01*
Y00121834D01*
X01723309Y00119295D01*
X01718231D01*
X01715692Y00121834D01*
X00746760Y00186685D02*
X00756917D01*
X00751838D01*
Y00171450D01*
X00761995Y00186685D02*
X00767073D01*
X00764534D01*
Y00171450D01*
X00761995D01*
X00767073D01*
X00774691Y00186685D02*
Y00171450D01*
X00782309D01*
X00784848Y00173989D01*
Y00184146D01*
X00782309Y00186685D01*
X00774691D01*
X00807700Y00171450D02*
Y00186685D01*
X00812779D02*
Y00171450D01*
X00805161Y00181607D02*
X00812779D01*
X00815318D01*
X00805161Y00176528D02*
X00815318D01*
X00820396Y00181607D02*
X00822935D01*
Y00179067D01*
X00820396D01*
Y00181607D01*
Y00173989D02*
X00822935D01*
Y00171450D01*
X00820396D01*
Y00173989D01*
X00885317Y00171450D02*
Y00186685D01*
X00895474Y00171450D01*
Y00186685D01*
X00900552Y00171450D02*
X00910709Y00181607D01*
X00915787Y00171450D02*
Y00181607D01*
X00920865Y00186685D01*
X00925944Y00181607D01*
Y00171450D01*
Y00179067D01*
X00915787D01*
M02*
